<?xml version="1.0" encoding="UTF-8"?>
<svg viewBox="0 0 64 64" xmlns="http://www.w3.org/2000/svg" xmlns:xlink="http://www.w3.org/1999/xlink">
 <defs>
  <linearGradient id="c">
   <stop stop-color="#fff" offset="0"/>
   <stop stop-color="#fff" stop-opacity="0" offset="1"/>
  </linearGradient>
  <linearGradient id="b" x1="621.05" x2="589.58" y1="350.77" y2="324.67" gradientTransform="scale(1.1708 .85415)" gradientUnits="userSpaceOnUse" xlink:href="#c"/>
  <radialGradient id="d" cx="242.17" cy="342.96" r="325.19" gradientUnits="userSpaceOnUse">
   <stop stop-color="#0015ff" offset="0"/>
   <stop stop-color="#0015ff" stop-opacity="0" offset="1"/>
  </radialGradient>
  <radialGradient id="e" cx="320.24" cy="237.73" r="200.62" gradientUnits="userSpaceOnUse">
   <stop stop-color="#007400" offset="0"/>
   <stop stop-color="#007400" stop-opacity="0" offset="1"/>
  </radialGradient>
  <radialGradient id="f" cx="241.84" cy="337.18" r="421.16" gradientUnits="userSpaceOnUse">
   <stop stop-color="#ff00a9" offset="0"/>
   <stop stop-color="#ff00a9" stop-opacity="0" offset="1"/>
  </radialGradient>
  <radialGradient id="a" cx="251.06" cy="330.24" r="376.68" gradientUnits="userSpaceOnUse" xlink:href="#c"/>
 </defs>
 <g transform="matrix(.12831 .032045 -.032045 .12831 -13.954 -40.407)">
  <path transform="matrix(.42802 -.23143 .29938 .55369 158.74 311.44)" d="m522 236a196 196 0 1 1 -392 0 196 196 0 1 1 392 0z" fill="#ff15ff" opacity=".8292"/>
  <path transform="matrix(.42802 -.23143 .29938 .55369 158.74 311.44)" d="m522 236a196 196 0 1 1 -392 0 196 196 0 1 1 392 0z" fill="url(#f)" opacity=".50549"/>
  <path transform="matrix(-.42802 .23143 -.29938 -.55369 579.12 421.89)" d="m522 236a196 196 0 1 1 -392 0 196 196 0 1 1 392 0z" fill="url(#a)" opacity=".50549"/>
  <path transform="matrix(-.42802 .23143 -.29938 -.55369 579.12 421.89)" d="m522 236a196 196 0 1 1 -392 0 196 196 0 1 1 392 0z" fill="url(#a)" opacity=".50549"/>
  <path transform="matrix(.69073 .6296 -.41042 .67506 -7.0614 -185.47)" d="m794 196a128 128 0 0 1 -175.45 118.88" fill="url(#b)" opacity=".28099"/>
  <path transform="matrix(.54326 .07048 -.08098 .62421 385.13 180.35)" d="m522 236a196 196 0 1 1 -392 0 196 196 0 1 1 392 0z" fill="#00ac03" opacity=".50549"/>
  <path transform="matrix(.54326 .07048 -.08098 .62421 385.13 180.35)" d="m522 236a196 196 0 1 1 -392 0 196 196 0 1 1 392 0z" fill="url(#e)" opacity=".50549"/>
  <path transform="matrix(-.54326 -.07048 .08098 -.62421 701.11 520.93)" d="m522 236a196 196 0 1 1 -392 0 196 196 0 1 1 392 0z" fill="url(#a)" opacity=".50549"/>
  <path transform="matrix(-.54326 -.07048 .08098 -.62421 701.11 520.93)" d="m522 236a196 196 0 1 1 -392 0 196 196 0 1 1 392 0z" fill="url(#a)" opacity=".50549"/>
  <path transform="matrix(.23051 .91966 -.81282 .29649 550.82 -318.44)" d="m794 196a128 128 0 0 1 -175.45 118.88" fill="url(#b)" opacity=".28099"/>
  <path transform="matrix(.48223 0 0 .62944 297.31 196.34)" d="m522 236a196 196 0 1 1 -392 0 196 196 0 1 1 392 0z" fill="#0015ff" opacity=".50549"/>
  <path transform="matrix(.48223 0 0 .62944 297.31 196.34)" d="m522 236a196 196 0 1 1 -392 0 196 196 0 1 1 392 0z" fill="url(#d)" opacity=".50549"/>
  <path transform="matrix(-.48223 -4.9426e-17 3.7867e-17 -.62944 611.73 493.44)" d="m522 236a196 196 0 1 1 -392 0 196 196 0 1 1 392 0z" fill="url(#a)" opacity=".50549"/>
  <path transform="matrix(-.48223 -4.9426e-17 3.7867e-17 -.62944 612.69 490.92)" d="m522 236a196 196 0 1 1 -392 0 196 196 0 1 1 392 0z" fill="url(#a)" opacity=".50549"/>
  <path transform="matrix(.30538 .88236 -.676 .3986 387.32 -320.73)" d="m794 196a128 128 0 0 1 -175.45 118.88" fill="url(#b)" opacity=".28099"/>
  <path d="m424 476c38 80 22 190 0 218" fill="none" stroke="#000" stroke-width="5.1"/>
  <path d="m472 464c18 144-48 224-48 224" fill="none" stroke="#000" stroke-width="5.1"/>
  <path d="m514 466s30 86-28 152-62 66-62 66" fill="none" stroke="#000" stroke-width="5.1"/>
 </g>
</svg>
