<?xml version="1.0" encoding="utf-8"?>
<!-- Generator: Adobe Illustrator 28.0.0, SVG Export Plug-In . SVG Version: 6.00 Build 0)  -->
<svg version="1.1" id="Layer_1" xmlns="http://www.w3.org/2000/svg" xmlns:xlink="http://www.w3.org/1999/xlink" x="0px" y="0px"
	 width="200px" height="200px" viewBox="0 0 200 200" enable-background="new 0 0 200 200" xml:space="preserve">
<g>
	<path fill="#FFFFFF" d="M102.4,74.2c-1.6,0-3-1.3-3-3V56.8c3.1-0.5,5.5-3.1,5.5-6.4s-2.4-5.9-5.5-6.4v-13c0-1.6,1.3-3,3-3h71.8
		c1.6,0,3,1.3,3,3v13.1c-3.1,0.5-5.5,3.1-5.5,6.4c0,3.2,2.4,5.9,5.5,6.4v14.4c0,1.6-1.3,3-3,3L102.4,74.2L102.4,74.2z"/>
	<path fill="#4B3B5D" d="M174.3,29.1c1,0,2,0.9,2,2v12.3c-3.1,0.9-5.5,3.7-5.5,7.2c0,3.4,2.3,6.3,5.5,7.2v13.6c0,1-0.9,2-2,2h-71.8
		c-1,0-2-0.9-2-2V57.7c3.1-0.9,5.5-3.7,5.5-7.2c0-3.4-2.3-6.3-5.5-7.2V31.1c0-1,0.9-2,2-2H174.3 M174.3,27.2h-71.8
		c-2.2,0-3.9,1.7-3.9,3.9V45c3.1,0,5.5,2.5,5.5,5.5c0,3.1-2.5,5.5-5.5,5.5v15.4c0,2.2,1.7,3.9,3.9,3.9h71.8c2.2,0,3.9-1.7,3.9-3.9
		V56c-3.1,0-5.5-2.5-5.5-5.5c0-3.1,2.5-5.5,5.5-5.5V31.1C178.2,28.9,176.5,27.2,174.3,27.2L174.3,27.2z"/>
	<circle fill="#4B3B5D" cx="165.9" cy="36.8" r="1.3"/>
	<circle fill="#4B3B5D" cx="165.9" cy="31.3" r="1.3"/>
	<circle fill="#4B3B5D" cx="165.9" cy="42.2" r="1.3"/>
	<circle fill="#4B3B5D" cx="165.9" cy="47.8" r="1.3"/>
	<circle fill="#4B3B5D" cx="165.9" cy="53.2" r="1.3"/>
	<circle fill="#4B3B5D" cx="165.9" cy="58.7" r="1.3"/>
	<circle fill="#4B3B5D" cx="165.9" cy="64.2" r="1.3"/>
	<circle fill="#4B3B5D" cx="165.9" cy="69.7" r="1.3"/>
	<path fill="#4B3B5D" d="M161.1,33.7h-18.8c-0.2,0-0.4-0.2-0.4-0.4c0-0.2,0.2-0.4,0.4-0.4h18.8c0.2,0,0.4,0.2,0.4,0.4
		C161.5,33.5,161.3,33.7,161.1,33.7z"/>
	<path fill="#4B3B5D" d="M136.9,33.7h-14c-0.2,0-0.4-0.2-0.4-0.4c0-0.2,0.2-0.4,0.4-0.4h14c0.2,0,0.4,0.2,0.4,0.4
		C137.3,33.5,137.1,33.7,136.9,33.7z"/>
	<path fill="#4B3B5D" d="M118.5,33.7h-13.7c-0.2,0-0.4-0.2-0.4-0.4c0-0.2,0.2-0.4,0.4-0.4h13.7c0.2,0,0.4,0.2,0.4,0.4
		C118.8,33.5,118.7,33.7,118.5,33.7z"/>
	<path fill="#4B3B5D" d="M104.7,42.2c-0.2,0-0.4-0.2-0.4-0.4v-8.6c0-0.2,0.2-0.4,0.4-0.4s0.4,0.2,0.4,0.4v8.6
		C105.1,42.1,104.9,42.2,104.7,42.2z"/>
	<path fill="#4B3B5D" d="M161,42c-0.2,0-0.4-0.2-0.4-0.4v-8.2c0-0.2,0.2-0.4,0.4-0.4s0.4,0.2,0.4,0.4v8.2
		C161.4,41.8,161.2,42,161,42z"/>
	<path fill="#4B3B5D" d="M161,69.3c-0.2,0-0.4-0.2-0.4-0.4V47c0-0.2,0.2-0.4,0.4-0.4s0.4,0.2,0.4,0.4V69
		C161.4,69.1,161.2,69.3,161,69.3z"/>
	<path fill="#4B3B5D" d="M104.7,69.4c-0.2,0-0.4-0.2-0.4-0.4v-8.6c0-0.2,0.2-0.4,0.4-0.4s0.4,0.2,0.4,0.4v8.6
		C105.1,69.2,104.9,69.4,104.7,69.4z"/>
	<path fill="#4B3B5D" d="M161,69.3h-8c-0.2,0-0.4-0.2-0.4-0.4s0.2-0.4,0.4-0.4h8c0.2,0,0.4,0.2,0.4,0.4
		C161.4,69.2,161.2,69.3,161,69.3z"/>
	<path fill="#4B3B5D" d="M148.6,69.3h-10.7c-0.2,0-0.4-0.2-0.4-0.4s0.2-0.4,0.4-0.4h10.7c0.2,0,0.4,0.2,0.4,0.4
		C148.9,69.2,148.8,69.3,148.6,69.3z"/>
	<g>
		<path fill="#4B3B5D" d="M133.9,69.3h-29.2c-0.2,0-0.4-0.2-0.4-0.4s0.2-0.4,0.4-0.4h29.2c0.2,0,0.4,0.2,0.4,0.4
			C134.3,69.2,134.1,69.3,133.9,69.3z"/>
	</g>
	<g>
		<path fill="#4B3B5D" d="M152.8,42.2h-24.5c-0.4,0-0.7-0.3-0.7-0.7s0.3-0.7,0.7-0.7h24.5c0.4,0,0.7,0.3,0.7,0.7
			S153.2,42.2,152.8,42.2z"/>
	</g>
	<g>
		<path fill="#4B3B5D" d="M123.7,42.2h-9.4c-0.4,0-0.7-0.3-0.7-0.7s0.3-0.7,0.7-0.7h9.4c0.4,0,0.7,0.3,0.7,0.7
			S124.1,42.2,123.7,42.2z"/>
	</g>
	<g>
		<path fill="#4B3B5D" d="M152.8,49.1h-8.4c-0.4,0-0.7-0.3-0.7-0.7c0-0.4,0.3-0.7,0.7-0.7h8.4c0.4,0,0.7,0.3,0.7,0.7
			C153.5,48.8,153.2,49.1,152.8,49.1z"/>
	</g>
	<g>
		<path fill="#4B3B5D" d="M139.9,49.1h-25.6c-0.4,0-0.7-0.3-0.7-0.7c0-0.4,0.3-0.7,0.7-0.7h25.6c0.4,0,0.7,0.3,0.7,0.7
			C140.6,48.8,140.3,49.1,139.9,49.1z"/>
	</g>
	<g>
		<path fill="#4B3B5D" d="M139.9,61.5h-25.6c-0.4,0-0.7-0.3-0.7-0.7s0.3-0.7,0.7-0.7h25.6c0.4,0,0.7,0.3,0.7,0.7
			C140.6,61.1,140.3,61.5,139.9,61.5z"/>
	</g>
	<g>
		<path fill="#4B3B5D" d="M152.8,56h-18.3c-0.4,0-0.7-0.3-0.7-0.7c0-0.4,0.3-0.7,0.7-0.7h18.3c0.4,0,0.7,0.3,0.7,0.7
			C153.5,55.7,153.2,56,152.8,56z"/>
	</g>
	<g>
		<path fill="#4B3B5D" d="M129.9,56h-15.6c-0.4,0-0.7-0.3-0.7-0.7c0-0.4,0.3-0.7,0.7-0.7h15.6c0.4,0,0.7,0.3,0.7,0.7
			C130.6,55.7,130.3,56,129.9,56z"/>
	</g>
</g>
<path fill="#4B3B5D" d="M117.3,40.1c3.7,0,7.1,2.6,8.1,6.2c0.1,0.4-0.1,0.8-0.5,0.9c-0.1,0-0.1,0-0.2,0c-0.3,0-0.6-0.2-0.7-0.5
	c-0.9-3.1-3.6-5.2-6.8-5.2c-0.3,0-0.7,0-1,0.1h-0.1c-0.4,0-0.7-0.3-0.7-0.6c-0.1-0.4,0.2-0.8,0.6-0.8
	C116.6,40.1,116.9,40.1,117.3,40.1L117.3,40.1z"/>
<g>
	<path fill="#F6F4FF" d="M65.3,172.6v-17.9c0-9.3-4.7-17.7-14.5-32.2c-5-7.3-11-25.7-6.2-43.9c3.7-14.2,13.2-25.1,28.1-32.4
		c10.7-5.2,21.2-7.9,30.9-7.9c22.7,0,39.2,14.9,45.5,29.6c7.6,17.8,3.2,23.3,3.2,23.3l-1,1.1l0.9,1.3l15.6,21.9
		c0.6,1,1.2,3.5,0.7,5.2c-0.2,0.6-0.5,0.9-1,1c-5.8,1.9-11,2.8-11,2.8l-1.6,0.3v18.6c0,4.6-2.2,17.8-12.1,17.8h-21.8V178L65.3,172.6
		z"/>
	<path fill="#4B3B5D" d="M103.6,40.1L103.6,40.1c21.8,0,37.6,14.2,43.7,28.3c6.3,14.8,4,20.3,3.5,21.2l-2.6,1.8l2.3,3.1l15.5,21.8
		c0.5,0.9,0.8,2.7,0.5,3.3c-5.5,1.8-10.5,2.6-10.6,2.7l-3.3,0.6v3.3v17c0,3.3-1.7,15.8-10.2,15.8h-19.7h-3.9v3.9v12.6l-51.4-4.9
		v-16.2c0-9.7-4.8-18.5-14.8-33.3c-4.8-7-10.6-24.7-5.9-42.3c3.6-13.6,12.7-24.1,27-31.1C84,42.8,94.1,40.1,103.6,40.1 M103.6,36.2
		c-9.4,0-20,2.4-31.8,8.1c-42,20.6-32.1,65.3-22.6,79.1c10,14.7,14.1,22.6,14.1,31.1v19.7l59.3,5.6v-17c0,0,8.5,0,19.7,0
		c11.3,0,14.1-14.1,14.1-19.7v-17c0,0,5.3-0.9,11.3-2.9c3.8-1.2,2.7-7.1,1.4-9.2l-15.6-21.9c0,0,5.6-5.6-2.9-25.5
		C144.8,52.6,128.4,36.2,103.6,36.2L103.6,36.2z"/>
</g>
<g>
	<path fill="#4B3B5D" d="M116.3,52.1c-0.2,0-0.3,0-0.5-0.1c-4.3-1.6-9.2-2.5-14.3-2.5c-0.1,0-0.2,0-0.3,0l0,0
		c-0.8,0-1.4-0.7-1.4-1.4s0.7-1.4,1.4-1.4c5.5-0.1,10.9,0.9,15.6,2.6c0.8,0.3,1.1,1,0.9,1.8C117.3,51.8,116.8,52.1,116.3,52.1z"/>
</g>
<g>
	<path fill="#4B3B5D" d="M66.9,62.9c-0.4,0-0.8-0.2-1-0.5c-0.5-0.6-0.5-1.5,0.2-2c5.4-4.7,13.4-10.3,25.6-12.7
		c0.8-0.1,1.5,0.4,1.6,1.1c0.2,0.8-0.4,1.5-1.1,1.6c-11.6,2.2-19.1,7.6-24.3,12C67.5,62.9,67.1,62.9,66.9,62.9z"/>
</g>
<g>
	<path fill="#4B3B5D" d="M59.1,117.8c-0.5,0-1-0.3-1.2-0.7c-9.4-15.6-8.8-34.4,1.4-49.3c0.5-0.7,1.3-0.8,2-0.4
		c0.7,0.5,0.8,1.3,0.4,2c-9.5,13.9-10,31.8-1.3,46.4c0.4,0.7,0.2,1.5-0.5,1.9C59.6,117.8,59.3,117.8,59.1,117.8z"/>
</g>
<g>
	<path fill="#4B3B5D" d="M123.7,162.1c-12.5,0-23.7-3.7-31.4-10.5c-0.6-0.5-0.7-1.4-0.1-2c0.5-0.6,1.4-0.7,2-0.1
		c7.3,6.3,17.7,9.8,29.6,9.8c0.8,0,1.4,0.7,1.4,1.4C125.1,161.5,124.5,162.1,123.7,162.1z"/>
</g>
<g>
	<path fill="#4B3B5D" d="M88.9,147.4c-0.4,0-0.9-0.2-1.1-0.6c-1.2-1.6-2.4-3.3-3.2-5.2c-0.4-0.7-0.1-1.5,0.7-1.9
		c0.7-0.4,1.5-0.1,1.9,0.7c0.9,1.6,1.8,3.2,3,4.7c0.5,0.6,0.4,1.5-0.3,2C89.5,147.2,89.2,147.4,88.9,147.4z"/>
</g>
<g>
	<path fill="#FFFFFF" d="M70.4,184.3c0,0,4.4,0,9.9,0c5.4,0,9.9-4.4,9.9-9.9c0-5.1-3.8-9.2-8.6-9.7c0.1-0.5,0.2-1,0.2-1.5
		c0-5.4-4.4-9.9-9.9-9.9c-3,0-5.5,1.2-7.3,3.3c-1-5.2-5.6-9-11.1-9c-6.2,0-11.3,5.1-11.3,11.3c0,0.6,0.1,1,0.2,1.6
		c-1.2-1-2.8-1.6-4.4-1.6c-3.4,0-6.4,2.5-7,5.8c-0.5-0.1-1-0.2-1.5-0.2c-5.4,0-9.9,4.4-9.9,9.9s4.4,9.9,9.9,9.9s21.2,0,21.2,0v1.4
		h19.7L70.4,184.3L70.4,184.3z"/>
	<path fill="#4B3B5D" d="M75.3,171.5c-0.4,0-0.7-0.3-0.7-0.7c0-3.4,2.8-6.3,6.3-6.3c0.1,0,2.1,0,3.5,0.4c0.4,0.1,0.6,0.5,0.5,0.9
		c-0.1,0.4-0.5,0.6-0.9,0.5c-1.2-0.4-3.1-0.4-3.1-0.3c-2.7,0-4.9,2.2-4.9,4.9C76,171.2,75.7,171.5,75.3,171.5z"/>
	<circle fill="#4B3B5D" cx="56.3" cy="184.3" r="1.4"/>
	<path fill="#4B3B5D" d="M80.3,185.6h-9.9c-0.8,0-1.4-0.7-1.4-1.4c0-0.8,0.7-1.4,1.4-1.4h9.9c4.7,0,8.5-3.8,8.5-8.5
		c0-4.2-3.1-7.8-7.4-8.4c-0.4-0.1-0.8-0.3-1-0.6c-0.2-0.3-0.3-0.7-0.3-1c0.1-0.5,0.1-0.9,0.1-1.3c0-4.7-3.8-8.5-8.5-8.5
		c-2.4,0-4.7,1-6.3,2.9c-0.4,0.4-1,0.6-1.4,0.4c-0.5-0.1-1-0.6-1-1c-1-4.6-5.1-7.8-9.6-7.8c-5.4,0-9.9,4.5-9.9,9.9
		c0,0.4,0.1,0.8,0.1,1.1c0.1,0.6-0.2,1.2-0.7,1.5s-1.1,0.3-1.5,0c-1-0.9-2.3-1.2-3.5-1.2c-2.8,0-5.1,1.9-5.5,4.7
		c-0.1,0.8-0.9,1.2-1.6,1.1c-0.5-0.1-0.9-0.1-1.3-0.1c-4.7,0-8.5,3.8-8.5,8.5c0,4.7,3.8,8.5,8.5,8.5h21.2c0.8,0,1.4,0.7,1.4,1.4
		c0,0.8-0.7,1.4-1.4,1.4h-21c-6.2,0-11.3-5.1-11.3-11.3c0-6.2,5.1-11.3,11.3-11.3c0.2,0,0.3,0,0.5,0c1.1-3.3,4.4-5.6,8-5.6
		c1,0,1.9,0.2,2.9,0.5c0.5-6.6,6-11.8,12.7-11.8c5.2,0,9.8,3.1,11.7,7.8c1.9-1.4,4.2-2.2,6.7-2.2c6.2,0,11.3,5.1,11.3,11.3
		c0,0.1,0,0.3,0,0.4c5,1.2,8.5,5.7,8.5,10.9C91.6,180.6,86.5,185.6,80.3,185.6z"/>
	<path fill="#4B3B5D" d="M64.8,182.9c-0.5,0-2.4,0-2.9,0c-0.8,0-1.4,0.7-1.4,1.4c0,0.8,0.7,1.4,1.4,1.4c0.5,0,2.4,0,2.9,0
		c0.8,0,1.4-0.7,1.4-1.4C66.2,183.4,65.5,182.9,64.8,182.9z"/>
</g>
</svg>
