<?xml version="1.0" encoding="UTF-8"?>
<svg id="a" data-name="Layer 1" xmlns="http://www.w3.org/2000/svg" width="156.27" height="79.94" viewBox="0 0 156.27 79.94">
  <path d="m31.96,29.32h17.62c4.32,0,7.81-3.51,7.64-7.78-.12-3-2.17-5.65-5.04-6.71-1.5-.55-2.93-.57-4.25-.29-.19-2.78-2.55-4.99-5.44-4.99-1.58,0-3,.66-4,1.71.22-1.05.24-2.18.02-3.33-.68-3.6-3.76-6.42-7.48-6.86-5.08-.61-9.43,3.07-9.8,7.83-1.44-1.87-3.73-3.09-6.31-3.09-4.37,0-7.91,3.47-7.91,7.75,0,.33.03.65.07.96-3.47.71-6.07,3.72-6.07,7.32,0,4.13,3.42,7.48,7.64,7.48h7.08m12.23,0h.72" fill="#fff" stroke-width="0"/>
  <path d="m49.58,30.32h-17.62c-.55,0-1-.45-1-1s.45-1,1-1h17.62c1.86,0,3.58-.73,4.85-2.05,1.22-1.27,1.86-2.94,1.79-4.69-.1-2.55-1.86-4.88-4.39-5.81-1.2-.45-2.41-.53-3.69-.25-.29.06-.58,0-.81-.18-.23-.18-.38-.44-.4-.73-.15-2.27-2.1-4.05-4.44-4.05-1.25,0-2.41.5-3.27,1.4-.31.32-.79.4-1.19.2-.4-.21-.61-.65-.52-1.09.2-.96.21-1.96.02-2.94-.6-3.17-3.32-5.66-6.62-6.05-2.17-.25-4.29.34-5.94,1.7-1.61,1.32-2.58,3.17-2.74,5.21-.03.41-.31.76-.71.88-.39.12-.82-.02-1.08-.35-1.32-1.71-3.33-2.7-5.52-2.7-3.81,0-6.91,3.03-6.91,6.75,0,.28.02.56.06.83.07.52-.28,1-.79,1.11-3.05.62-5.27,3.29-5.27,6.34,0,3.57,2.98,6.48,6.64,6.48h7.08c.55,0,1,.45,1,1s-.45,1-1,1h-7.08c-4.76,0-8.64-3.8-8.64-8.48,0-3.7,2.48-6.97,6.01-8.08,0-.07,0-.14,0-.21,0-4.82,4-8.75,8.91-8.75,2.11,0,4.1.72,5.68,2.01.54-1.79,1.6-3.38,3.1-4.61C25.78.51,28.43-.26,31.15.08c4.15.5,7.58,3.65,8.34,7.67.09.48.15.96.16,1.45.87-.42,1.83-.64,2.83-.64,3.01,0,5.58,2.06,6.27,4.85,1.29-.12,2.54.04,3.76.49,3.27,1.21,5.56,4.26,5.7,7.61.09,2.3-.74,4.48-2.35,6.15-1.63,1.69-3.92,2.66-6.29,2.66Zm-20.9,0h-.72c-.55,0-1-.45-1-1s.45-1,1-1h.72c.55,0,1,.45,1,1s-.45,1-1,1Z" fill="#4b3b5d" stroke-width="0"/>
  <path d="m12.06,18.71c-.23,0-.43-.16-.49-.39-.06-.26-.15-.51-.26-.74-.97-1.97-3.72-2.66-6.13-1.55-.25.12-.55,0-.66-.24-.12-.25,0-.55.24-.66,2.89-1.34,6.23-.43,7.44,2.01.15.3.26.62.34.95.06.27-.11.54-.37.6-.04,0-.08.01-.11.01Z" fill="#4b3b5d" stroke-width="0"/>
  <path d="m24.59,30.32h-2.21c-.55,0-1-.45-1-1s.45-1,1-1h2.21c.55,0,1,.45,1,1s-.45,1-1,1Z" fill="#4b3b5d" stroke-width="0"/>
  <path d="m46.18,61.66c-5.13,0-9.46-3.51-10.75-8.24-.51.33-1.12.52-1.77.52h-4.91c-1.83,0-3.33-1.5-3.33-3.33v-31.22c0-1.83,1.5-3.33,3.33-3.33h4.91c.65,0,1.26.2,1.77.52,1.29-4.73,5.63-8.24,10.75-8.24h68.41c6.14,0,11.16,5.02,11.16,11.16v31.01c0,6.14-5.02,11.16-11.16,11.16H46.18Z" fill="#f6f4ff" stroke-width="0"/>
  <path d="m114.59,63.06H46.18c-5.12,0-9.69-3.14-11.61-7.81-.3.06-.61.09-.92.09h-4.91c-2.61,0-4.73-2.12-4.73-4.73v-31.22c0-2.61,2.12-4.73,4.73-4.73h4.91c.31,0,.62.03.92.09,1.91-4.67,6.49-7.81,11.61-7.81h68.41c6.92,0,12.55,5.63,12.55,12.56v31.01c0,6.92-5.63,12.56-12.55,12.56Zm-79.16-11.04c.17,0,.34.03.5.09.42.16.73.51.85.94,1.16,4.25,5.02,7.21,9.4,7.21h68.41c5.38,0,9.75-4.38,9.75-9.76v-31.01c0-5.38-4.38-9.76-9.75-9.76H46.18c-4.38,0-8.24,2.96-9.4,7.21-.12.43-.43.78-.85.94-.41.16-.88.12-1.25-.12-.31-.2-.67-.3-1.02-.3h-4.91c-1.06,0-1.93.87-1.93,1.93v31.22c0,1.07.87,1.93,1.93,1.93h4.91c.35,0,.71-.11,1.02-.3.23-.14.49-.22.75-.22Z" fill="#4b3b5d" stroke-width="0"/>
  <path d="m35.8,47.84c-.41,0-.75-.34-.75-.75v-1.49c0-.41.34-.75.75-.75s.75.34.75.75v1.49c0,.41-.34.75-.75.75Z" fill="#4b3b5d" stroke-width="0"/>
  <path d="m35.8,44.5c-.41,0-.75-.34-.75-.75v-27.18c0-.41.34-.75.75-.75s.75.34.75.75v27.18c0,.41-.34.75-.75.75Z" fill="#4b3b5d" stroke-width="0"/>
  <path d="m35.8,53.76c-.41,0-.75-.34-.75-.75v-2.28c0-.41.34-.75.75-.75s.75.34.75.75v2.28c0,.41-.34.75-.75.75Z" fill="#4b3b5d" stroke-width="0"/>
  <path d="m112.51,52.64h0c2.91,0,5.29-2.38,5.29-5.29v-24.72c0-2.91-2.38-5.29-5.29-5.29h0c-2.91,0-5.29,2.38-5.29,5.29v24.72c0,2.91,2.38,5.29,5.29,5.29Z" fill="#ce942b" stroke-width="0"/>
  <path d="m112.51,53.39c-3.33,0-6.04-2.71-6.04-6.04v-24.72c0-3.33,2.71-6.04,6.04-6.04s6.04,2.71,6.04,6.04v24.72c0,3.33-2.71,6.04-6.04,6.04Zm0-35.3c-2.5,0-4.54,2.04-4.54,4.54v24.72c0,2.5,2.04,4.54,4.54,4.54s4.54-2.04,4.54-4.54v-24.72c0-2.5-2.04-4.54-4.54-4.54Z" fill="#472b29" stroke-width="0"/>
  <path d="m92.78,52.64h0c2.91,0,5.29-2.38,5.29-5.29v-24.72c0-2.91-2.38-5.29-5.29-5.29h0c-2.91,0-5.29,2.38-5.29,5.29v24.72c0,2.91,2.38,5.29,5.29,5.29Z" fill="#ce942b" stroke-width="0"/>
  <path d="m92.77,53.39c-3.33,0-6.04-2.71-6.04-6.04v-24.72c0-3.33,2.71-6.04,6.04-6.04s6.04,2.71,6.04,6.04v24.72c0,3.33-2.71,6.04-6.04,6.04Zm0-35.3c-2.5,0-4.54,2.04-4.54,4.54v24.72c0,2.5,2.04,4.54,4.54,4.54s4.54-2.04,4.54-4.54v-24.72c0-2.5-2.04-4.54-4.54-4.54Z" fill="#472b29" stroke-width="0"/>
  <path d="m73.04,52.64h0c2.91,0,5.29-2.38,5.29-5.29v-24.72c0-2.91-2.38-5.29-5.29-5.29h0c-2.91,0-5.29,2.38-5.29,5.29v24.72c0,2.91,2.38,5.29,5.29,5.29Z" fill="#ce942b" stroke-width="0"/>
  <path d="m73.04,53.39c-3.33,0-6.04-2.71-6.04-6.04v-24.72c0-3.33,2.71-6.04,6.04-6.04s6.04,2.71,6.04,6.04v24.72c0,3.33-2.71,6.04-6.04,6.04Zm0-35.3c-2.5,0-4.54,2.04-4.54,4.54v24.72c0,2.5,2.04,4.54,4.54,4.54s4.54-2.04,4.54-4.54v-24.72c0-2.5-2.04-4.54-4.54-4.54Z" fill="#472b29" stroke-width="0"/>
  <path d="m112.51,52.64h0c2.91,0,5.29-2.38,5.29-5.29v-24.72c0-2.91-2.38-5.29-5.29-5.29h0c-2.91,0-5.29,2.38-5.29,5.29v24.72c0,2.91,2.38,5.29,5.29,5.29Z" fill="#fff" stroke-width="0"/>
  <path d="m112.51,53.39c-3.33,0-6.04-2.71-6.04-6.04v-24.72c0-3.33,2.71-6.04,6.04-6.04s6.04,2.71,6.04,6.04v24.72c0,3.33-2.71,6.04-6.04,6.04Zm0-35.3c-2.5,0-4.54,2.04-4.54,4.54v24.72c0,2.5,2.04,4.54,4.54,4.54s4.54-2.04,4.54-4.54v-24.72c0-2.5-2.04-4.54-4.54-4.54Z" fill="#4b3b5d" stroke-width="0"/>
  <path d="m92.77,52.64h0c2.91,0,5.29-2.38,5.29-5.29v-24.72c0-2.91-2.38-5.29-5.29-5.29h0c-2.91,0-5.29,2.38-5.29,5.29v24.72c0,2.91,2.38,5.29,5.29,5.29Z" fill="#fff" stroke-width="0"/>
  <path d="m92.77,53.39c-3.33,0-6.04-2.71-6.04-6.04v-24.72c0-3.33,2.71-6.04,6.04-6.04s6.04,2.71,6.04,6.04v24.72c0,3.33-2.71,6.04-6.04,6.04Zm0-35.3c-2.5,0-4.54,2.04-4.54,4.54v24.72c0,2.5,2.04,4.54,4.54,4.54s4.54-2.04,4.54-4.54v-24.72c0-2.5-2.04-4.54-4.54-4.54Z" fill="#4b3b5d" stroke-width="0"/>
  <path d="m73.04,52.64h0c2.91,0,5.29-2.38,5.29-5.29v-24.72c0-2.91-2.38-5.29-5.29-5.29h0c-2.91,0-5.29,2.38-5.29,5.29v24.72c0,2.91,2.38,5.29,5.29,5.29Z" fill="#fff" stroke-width="0"/>
  <path d="m73.04,53.39c-3.33,0-6.04-2.71-6.04-6.04v-24.72c0-3.33,2.71-6.04,6.04-6.04s6.04,2.71,6.04,6.04v24.72c0,3.33-2.71,6.04-6.04,6.04Zm0-35.3c-2.5,0-4.54,2.04-4.54,4.54v24.72c0,2.5,2.04,4.54,4.54,4.54s4.54-2.04,4.54-4.54v-24.72c0-2.5-2.04-4.54-4.54-4.54Z" fill="#4b3b5d" stroke-width="0"/>
  <path d="m48.02,30.16v17.19c0,2.91,2.38,5.29,5.29,5.29h0c2.91,0,5.29-2.38,5.29-5.29v-24.72c0-2.91-2.38-5.29-5.29-5.29h0c-2.91,0-5.29,2.38-5.29,5.29v1.75" fill="#fff" stroke-width="0"/>
  <path d="m53.3,53.39c-3.33,0-6.04-2.71-6.04-6.04v-17.19c0-.41.34-.75.75-.75s.75.34.75.75v17.19c0,2.5,2.04,4.54,4.54,4.54s4.54-2.04,4.54-4.54v-24.72c0-2.5-2.04-4.54-4.54-4.54s-4.54,2.04-4.54,4.54v1.75c0,.41-.34.75-.75.75s-.75-.34-.75-.75v-1.75c0-3.33,2.71-6.04,6.04-6.04s6.04,2.71,6.04,6.04v24.72c0,3.33-2.71,6.04-6.04,6.04Z" fill="#aaa8ba" stroke-width="0"/>
  <path d="m121.97,78.94h23.52c5.4,0,9.78-4.38,9.78-9.78,0-4.71-3.33-8.64-7.77-9.57.05-.41.09-.83.09-1.26,0-5.59-4.53-10.13-10.13-10.13-3.3,0-6.23,1.59-8.07,4.03-.47-6.23-6.03-11.03-12.54-10.23-4.76.58-8.69,4.26-9.57,8.97-.28,1.51-.25,2.98.03,4.35-1.28-1.37-3.09-2.24-5.11-2.24-3.7,0-6.72,2.88-6.96,6.52-1.68-.37-3.51-.35-5.43.38-3.68,1.38-6.3,4.85-6.45,8.77-.22,5.58,4.24,10.17,9.77,10.17h22.54" fill="#fff" stroke-width="0"/>
  <path d="m145.49,79.94h-23.52c-.55,0-1-.45-1-1s.45-1,1-1h23.52c4.84,0,8.78-3.94,8.78-8.78,0-4.13-2.93-7.75-6.97-8.59-.51-.11-.85-.58-.79-1.1.04-.38.08-.75.08-1.14,0-5.03-4.09-9.12-9.12-9.12-2.88,0-5.53,1.33-7.28,3.64-.25.33-.68.47-1.08.36-.4-.12-.68-.47-.72-.88-.21-2.76-1.56-5.34-3.7-7.1-2.16-1.78-4.9-2.56-7.72-2.22-4.33.53-7.91,3.89-8.71,8.16-.25,1.34-.24,2.67.03,3.97.09.44-.12.88-.52,1.09-.4.21-.88.12-1.19-.21-1.14-1.24-2.7-1.92-4.38-1.92-3.14,0-5.76,2.45-5.96,5.59-.02.29-.16.56-.4.73-.23.18-.54.24-.81.18-1.69-.37-3.28-.26-4.87.33-3.34,1.25-5.67,4.42-5.8,7.88-.1,2.41.77,4.7,2.44,6.44s3.92,2.69,6.33,2.69h22.54c.55,0,1,.45,1,1s-.45,1-1,1h-22.54c-2.96,0-5.72-1.17-7.77-3.31-2.05-2.13-3.12-4.94-3-7.9.17-4.25,3.02-8.14,7.1-9.67,1.6-.6,3.26-.8,4.94-.6.75-3.64,3.99-6.36,7.81-6.36,1.37,0,2.71.36,3.89,1.02,0-.77.07-1.54.21-2.32.95-5.12,5.24-9.14,10.43-9.78,3.36-.42,6.64.53,9.23,2.65,2.01,1.65,3.43,3.9,4.08,6.39,2.02-1.83,4.64-2.85,7.43-2.85,6.13,0,11.12,4.99,11.12,11.12,0,.17,0,.33-.01.5,4.51,1.35,7.7,5.55,7.7,10.33,0,5.94-4.83,10.78-10.77,10.78Z" fill="#4b3b5d" stroke-width="0"/>
  <path d="m116.3,57.4c-3.62-.24-6.73,2.26-6.95,5.58-.03.41,0,.82.05,1.21-.7-.79-1.73-1.32-2.92-1.4-2.17-.14-4.04,1.29-4.32,3.24-.39-.11-.81-.18-1.23-.21-3.16-.21-5.89,1.98-6.08,4.88" fill="#fdfcef" stroke-width="0"/>
  <path d="m94.85,71.2s-.02,0-.03,0c-.28-.02-.48-.26-.46-.53.21-3.17,3.14-5.54,6.62-5.35.27.02.54.05.82.11.55-1.93,2.46-3.32,4.73-3.14.85.05,1.65.32,2.33.76,0-.04,0-.07,0-.11.24-3.59,3.55-6.31,7.48-6.04.28.02.48.26.46.53-.02.26-.24.47-.5.47,0,0-.02,0-.03,0-3.33-.19-6.22,2.08-6.42,5.12-.02.36,0,.73.05,1.1.03.22-.08.43-.28.53-.2.09-.44.04-.59-.12-.63-.72-1.57-1.17-2.57-1.23-1.85-.09-3.55,1.11-3.79,2.81-.02.14-.1.27-.22.35s-.27.1-.41.06c-.38-.1-.76-.17-1.13-.19-2.92-.18-5.38,1.79-5.55,4.42-.01.26-.23.47-.5.47Z" fill="#4b3b5d" stroke-width="0"/>
  <path d="m149.45,60.74c-3.4-1.6-7.33-.47-8.78,2.53-.18.37-.31.76-.4,1.15" fill="#fdfcef" stroke-width="0"/>
  <path d="m140.27,64.92s-.07,0-.11-.01c-.27-.06-.44-.33-.38-.6.1-.44.25-.86.44-1.25,1.57-3.24,5.81-4.48,9.44-2.77.25.12.36.42.24.67-.12.25-.42.35-.67.24-3.15-1.48-6.79-.45-8.11,2.3-.16.33-.28.68-.37,1.04-.05.23-.25.39-.48.39Z" fill="#4b3b5d" stroke-width="0"/>
</svg>