<?xml version="1.0" encoding="UTF-8"?>
<svg id="a" data-name="Layer 1" xmlns="http://www.w3.org/2000/svg" width="367.78" height="256.85" viewBox="0 0 367.78 256.85">
  <path d="m282.03,95.03h58.81c13.5,0,24.44-10.94,24.44-24.44,0-11.77-8.33-21.6-19.42-23.92.13-1.03.21-2.08.21-3.14,0-13.98-11.33-25.31-25.32-25.31-8.26,0-15.56,3.97-20.19,10.08-1.18-15.56-15.08-27.57-31.35-25.58-11.89,1.46-21.73,10.65-23.92,22.43-.7,3.78-.63,7.44.07,10.89-3.19-3.44-7.73-5.59-12.78-5.59-9.25,0-16.81,7.2-17.4,16.31-4.2-.93-8.77-.87-13.58.94-9.2,3.46-15.75,12.12-16.14,21.94-.55,13.95,10.6,25.42,24.42,25.42h56.34" fill="#fff" stroke-width="0"/>
  <path d="m340.84,97.53h-58.81c-1.38,0-2.5-1.12-2.5-2.5s1.12-2.5,2.5-2.5h58.81c12.1,0,21.94-9.85,21.94-21.94,0-10.33-7.33-19.37-17.43-21.48-1.27-.27-2.13-1.46-1.97-2.76.12-.93.2-1.87.2-2.82,0-12.58-10.23-22.81-22.81-22.81-7.19,0-13.82,3.31-18.19,9.09-.62.83-1.69,1.18-2.7.89-.99-.29-1.71-1.17-1.79-2.21-.52-6.89-3.89-13.35-9.25-17.74-5.42-4.44-12.28-6.41-19.3-5.54-10.83,1.33-19.78,9.72-21.76,20.4-.62,3.33-.6,6.67.07,9.93.22,1.1-.31,2.21-1.31,2.72-1,.52-2.22.3-2.98-.52-2.88-3.09-6.77-4.79-10.95-4.79-7.85,0-14.39,6.14-14.9,13.97-.05.73-.41,1.39-1,1.83-.59.45-1.34.6-2.04.45-4.2-.93-8.19-.66-12.16.83-8.34,3.13-14.17,11.04-14.51,19.69-.24,6.04,1.94,11.75,6.11,16.09,4.17,4.34,9.79,6.74,15.82,6.74h56.34c1.38,0,2.5,1.12,2.5,2.5s-1.12,2.5-2.5,2.5h-56.36c-7.4,0-14.29-2.94-19.42-8.27-5.13-5.33-7.79-12.35-7.5-19.75.42-10.63,7.55-20.35,17.75-24.17,4-1.5,8.13-1.99,12.34-1.49,1.88-9.11,9.99-15.91,19.52-15.91,3.42,0,6.77.9,9.72,2.55,0-1.93.17-3.86.53-5.8,2.39-12.81,13.1-22.86,26.08-24.45,8.4-1.02,16.6,1.33,23.08,6.64,5.01,4.11,8.58,9.76,10.19,15.97,5.06-4.58,11.6-7.13,18.57-7.13,15.34,0,27.81,12.48,27.81,27.82,0,.42,0,.83-.04,1.24,11.27,3.37,19.24,13.88,19.24,25.82,0,14.86-12.08,26.94-26.94,26.94Z" fill="#4b3b5d" stroke-width="0"/>
  <path d="m267.87,41.19c-9.04-.59-16.82,5.65-17.38,13.95-.07,1.03-.02,2.05.13,3.03-1.74-1.97-4.32-3.3-7.29-3.5-5.42-.35-10.11,3.23-10.79,8.1-.98-.27-2.01-.45-3.08-.52-7.91-.52-14.72,4.94-15.21,12.21" fill="#fdfcef" stroke-width="0"/>
  <path d="m214.25,75.69s-.06,0-.08,0c-.69-.04-1.21-.64-1.17-1.33.53-7.94,7.94-13.95,16.54-13.37.69.04,1.36.13,2.05.27,1.37-4.84,6.28-8.23,11.83-7.84,2.13.14,4.11.8,5.82,1.91,0-.1,0-.18.01-.28.6-8.97,8.94-15.8,18.71-15.1.69.04,1.21.64,1.17,1.33-.05.69-.62,1.28-1.33,1.16-8.26-.52-15.54,5.18-16.05,12.78-.06.92-.02,1.85.12,2.77.08.55-.21,1.08-.7,1.32s-1.1.11-1.46-.31c-1.61-1.83-3.9-2.92-6.43-3.09-4.76-.17-8.88,2.78-9.47,7.02-.05.35-.25.67-.55.87-.3.2-.66.25-1.02.16-.94-.25-1.88-.42-2.84-.49-7.2-.46-13.44,4.48-13.88,11.04-.06.66-.61,1.17-1.26,1.17Z" fill="#472b29" stroke-width="0"/>
  <path d="m350.74,49.53c-8.49-4-18.32-1.17-21.94,6.33-.45.93-.78,1.9-1,2.87" fill="#fdfcef" stroke-width="0"/>
  <path d="m327.79,59.98c-.09,0-.19,0-.28-.03-.67-.15-1.1-.83-.94-1.5.25-1.08.62-2.14,1.1-3.13,3.91-8.1,14.51-11.19,23.61-6.92.62.3.9,1.04.6,1.67-.29.63-1.04.88-1.67.6-7.87-3.72-16.97-1.14-20.29,5.74-.4.83-.7,1.7-.91,2.6-.13.58-.65.97-1.22.97Z" fill="#472b29" stroke-width="0"/>
  <path d="m106.87,234.41c-18.21,0-33.02-14.81-33.02-33.02V64.44c0-18.21,14.82-33.02,33.02-33.02h136.95c18.21,0,33.02,14.82,33.02,33.02v136.95c0,18.21-14.81,33.02-33.02,33.02H106.87Z" fill="#f6f4ff" stroke-width="0"/>
  <path d="m243.83,34.91c16.28,0,29.52,13.24,29.52,29.52v136.95c0,16.28-13.25,29.52-29.52,29.52H106.87c-16.28,0-29.52-13.25-29.52-29.52V64.43c0-16.28,13.24-29.52,29.52-29.52h136.96m0-7H106.87c-20.09,0-36.52,16.43-36.52,36.52v136.95c0,20.09,16.43,36.53,36.52,36.53h136.95c20.09,0,36.53-16.44,36.53-36.52V64.43c0-20.09-16.44-36.52-36.52-36.52h0Z" fill="#4b3b5d" stroke-width="0"/>
  <path d="m131.04,50.61c6.7,1.14,11.81,6.98,11.81,14v21.59c0,7.85-6.36,14.2-14.2,14.2h-21.59c-7.85,0-14.2-6.36-14.2-14.2v-21.59c0-6.87,4.87-12.59,11.34-13.92" fill="#fff" stroke-width="0"/>
  <path d="m128.64,102.91h-21.59c-9.21,0-16.7-7.5-16.7-16.7v-21.59c0-7.9,5.61-14.79,13.34-16.36,1.36-.26,2.67.6,2.95,1.95.28,1.35-.59,2.67-1.95,2.95-5.42,1.1-9.34,5.92-9.34,11.46v21.59c0,6.46,5.25,11.7,11.7,11.7h21.59c6.46,0,11.7-5.25,11.7-11.7v-21.59c0-5.73-4.09-10.58-9.72-11.54-1.36-.24-2.28-1.53-2.05-2.88.24-1.36,1.56-2.26,2.88-2.05,8.04,1.37,13.88,8.3,13.88,16.47v21.59c0,9.21-7.5,16.7-16.7,16.7Z" fill="#4b3b5d" stroke-width="0"/>
  <path d="m120.35,52.91h-5c-1.38,0-2.5-1.12-2.5-2.5s1.12-2.5,2.5-2.5h5c1.38,0,2.5,1.12,2.5,2.5s-1.12,2.5-2.5,2.5Z" fill="#472b29" stroke-width="0"/>
  <path d="m122.17,85.41h-8.64c-3.14,0-5.68-2.54-5.68-5.68v-8.64c0-3.14,2.54-5.68,5.68-5.68h8.64c3.14,0,5.68,2.54,5.68,5.68v8.64c0,3.14-2.54,5.68-5.68,5.68Z" fill="#fbe9ff" stroke-width="0"/>
  <path d="m122.16,87.91h-8.64c-4.51,0-8.18-3.67-8.18-8.19v-8.64c0-4.51,3.67-8.18,8.19-8.18h8.64c4.51,0,8.18,3.67,8.18,8.19v8.64c0,4.51-3.67,8.18-8.19,8.18Zm-8.63-20c-1.76,0-3.19,1.42-3.19,3.19v8.64c0,1.75,1.42,3.18,3.19,3.18h8.64c1.75,0,3.18-1.42,3.18-3.19v-8.64c0-1.75-1.42-3.18-3.19-3.18h-8.63Z" fill="#4b3b5d" stroke-width="0"/>
  <path d="m128.64,215.41h-21.59c-7.85,0-14.2-6.36-14.2-14.21v-21.59c0-7.85,6.36-14.2,14.2-14.2h21.59c7.85,0,14.2,6.36,14.2,14.2v21.59c0,7.85-6.36,14.21-14.2,14.21Z" fill="#fff" stroke-width="0"/>
  <path d="m128.64,217.91h-21.59c-9.21,0-16.7-7.5-16.7-16.71v-21.59c0-9.21,7.5-16.7,16.7-16.7h21.59c9.21,0,16.7,7.5,16.7,16.7v21.59c0,9.21-7.5,16.71-16.7,16.71Zm-21.59-50c-6.46,0-11.7,5.25-11.7,11.7v21.59c0,6.46,5.25,11.71,11.7,11.71h21.59c6.46,0,11.7-5.25,11.7-11.71v-21.59c0-6.45-5.25-11.7-11.7-11.7h-21.59Z" fill="#4b3b5d" stroke-width="0"/>
  <path d="m122.17,200.41h-8.64c-3.14,0-5.68-2.55-5.68-5.68v-8.63c0-3.14,2.54-5.68,5.68-5.68h8.64c3.14,0,5.68,2.55,5.68,5.68v8.63c0,3.13-2.54,5.68-5.68,5.68Z" fill="#fbe9ff" stroke-width="0"/>
  <path d="m122.16,202.91h-8.64c-4.51,0-8.18-3.67-8.18-8.19v-8.63c0-4.51,3.67-8.18,8.19-8.18h8.64c4.51,0,8.18,3.67,8.18,8.19v8.63c0,4.51-3.67,8.18-8.19,8.18Zm-8.63-20c-1.76,0-3.19,1.43-3.19,3.19v8.63c0,1.75,1.42,3.18,3.19,3.18h8.64c1.75,0,3.18-1.43,3.18-3.19v-8.63c0-1.75-1.42-3.18-3.19-3.18h-8.63Z" fill="#4b3b5d" stroke-width="0"/>
  <path d="m262.85,86.21c0,7.85-6.36,14.2-14.21,14.2h-21.59c-7.85,0-14.2-6.36-14.2-14.2v-21.59c0-7.85,6.36-14.2,14.2-14.2h21.59c7.85,0,14.21,6.36,14.21,14.2v7.99" fill="#fff" stroke-width="0"/>
  <path d="m248.64,102.91h-21.59c-9.21,0-16.7-7.5-16.7-16.7v-21.59c0-9.21,7.5-16.7,16.7-16.7h21.59c9.21,0,16.71,7.5,16.71,16.7v7.99c0,1.38-1.12,2.5-2.5,2.5s-2.5-1.12-2.5-2.5v-7.99c0-6.46-5.25-11.7-11.71-11.7h-21.59c-6.45,0-11.7,5.25-11.7,11.7v21.59c0,6.46,5.25,11.7,11.7,11.7h21.59c6.46,0,11.71-5.25,11.71-11.7,0-1.38,1.12-2.5,2.5-2.5s2.5,1.12,2.5,2.5c0,9.21-7.5,16.7-16.71,16.7Z" fill="#4b3b5d" stroke-width="0"/>
  <path d="m242.17,85.41h-8.64c-3.14,0-5.68-2.54-5.68-5.68v-8.64c0-3.14,2.54-5.68,5.68-5.68h8.64c3.14,0,5.68,2.54,5.68,5.68v8.64c0,3.14-2.54,5.68-5.68,5.68Z" fill="#fbe9ff" stroke-width="0"/>
  <path d="m242.16,87.91h-8.64c-4.51,0-8.18-3.67-8.18-8.19v-8.64c0-4.51,3.67-8.18,8.19-8.18h8.64c4.51,0,8.18,3.67,8.18,8.19v8.64c0,4.51-3.67,8.18-8.19,8.18Zm-8.63-20c-1.76,0-3.19,1.42-3.19,3.19v8.64c0,1.75,1.42,3.18,3.19,3.18h8.64c1.75,0,3.18-1.42,3.18-3.19v-8.64c0-1.75-1.42-3.18-3.19-3.18h-8.63Zm-32.45,95h-6.47c-2.36,0-4.27-1.91-4.27-4.26v-6.47c0-2.36,1.91-4.27,4.26-4.27h6.47c2.36,0,4.27,1.91,4.27,4.26v6.47c0,2.36-1.91,4.27-4.26,4.27Zm-30,0h-6.47c-2.36,0-4.27-1.91-4.27-4.26v-6.47c0-2.36,1.91-4.27,4.26-4.27h6.47c2.36,0,4.27,1.91,4.27,4.26v6.47c0,2.36-1.91,4.27-4.26,4.27Zm0,30h-6.47c-2.36,0-4.27-1.91-4.27-4.26v-6.47c0-2.36,1.91-4.27,4.26-4.27h6.47c2.36,0,4.27,1.91,4.27,4.26v6.48c0,2.35-1.91,4.26-4.26,4.26Zm79.26-33.24v21.48c0,2.35-1.91,4.26-4.26,4.26h-6.47c-2.36,0-4.27-1.91-4.27-4.26v-21.47c0-2.36,1.91-4.27,4.26-4.27h6.47c2.36,0,4.27,1.91,4.27,4.26Zm-64.26,18.24h-6.47c-2.36,0-4.27-1.91-4.27-4.26v-6.47c0-2.36,1.91-4.27,4.26-4.27h6.47c2.36,0,4.27,1.91,4.27,4.26v6.47c0,2.36-1.91,4.27-4.26,4.27Zm0,30h-6.47c-2.36,0-4.27-1.91-4.27-4.26v-6.47c0-2.36,1.91-4.27,4.26-4.27h6.47c2.36,0,4.27,1.91,4.27,4.26v6.47c0,2.36-1.91,4.27-4.26,4.27Zm30,0h-6.47c-2.36,0-4.27-1.91-4.27-4.26v-6.47c0-2.36,1.91-4.27,4.26-4.27h6.47c2.36,0,4.27,1.91,4.27,4.26v6.47c0,2.36-1.91,4.27-4.26,4.27Z" fill="#4b3b5d" stroke-width="0"/>
  <path d="m186.09,117.91h-6.47c-2.36,0-4.27-1.91-4.27-4.26v-6.47c0-2.36,1.91-4.27,4.26-4.27h6.47c2.36,0,4.27,1.91,4.27,4.26v6.47c0,2.36-1.91,4.27-4.26,4.27Z" fill="#4b3b5d" stroke-width="0"/>
  <path d="m186.09,87.91h-6.47c-2.36,0-4.27-1.91-4.27-4.26v-6.47c0-2.36,1.91-4.27,4.26-4.27h6.47c2.36,0,4.27,1.91,4.27,4.26v6.47c0,2.36-1.91,4.27-4.26,4.27Z" fill="#4b3b5d" stroke-width="0"/>
  <path d="m171.09,72.91h-6.47c-2.36,0-4.27-1.91-4.27-4.26v-6.47c0-2.36,1.91-4.27,4.26-4.27h6.47c2.36,0,4.27,1.91,4.27,4.26v6.47c0,2.36-1.91,4.27-4.26,4.27Z" fill="#4b3b5d" stroke-width="0"/>
  <path d="m171.09,102.91h-6.47c-2.36,0-4.27-1.91-4.27-4.26v-6.47c0-2.36,1.91-4.27,4.26-4.27h6.47c2.36,0,4.27,1.91,4.27,4.26v6.47c0,2.36-1.91,4.27-4.26,4.27Z" fill="#4b3b5d" stroke-width="0"/>
  <path d="m156.09,132.91h-6.47c-2.36,0-4.27-1.91-4.27-4.26v-6.47c0-2.36,1.91-4.27,4.26-4.27h6.47c2.36,0,4.27,1.91,4.27,4.26v6.47c0,2.36-1.91,4.27-4.26,4.27Z" fill="#4b3b5d" stroke-width="0"/>
  <path d="m201.09,132.91h-6.47c-2.36,0-4.27-1.91-4.27-4.26v-6.47c0-2.36,1.91-4.27,4.26-4.27h6.47c2.36,0,4.27,1.91,4.27,4.26v6.47c0,2.36-1.91,4.27-4.26,4.27Z" fill="#4b3b5d" stroke-width="0"/>
  <path d="m111.09,147.91h-6.47c-2.36,0-4.27-1.91-4.27-4.26v-6.47c0-2.36,1.91-4.27,4.26-4.27h6.47c2.36,0,4.27,1.91,4.27,4.26v6.47c0,2.36-1.91,4.27-4.26,4.27Z" fill="#4b3b5d" stroke-width="0"/>
  <path d="m141.09,147.91h-6.47c-2.36,0-4.27-1.91-4.27-4.26v-6.47c0-2.36,1.91-4.27,4.26-4.27h6.47c2.36,0,4.27,1.91,4.27,4.26v6.47c0,2.36-1.91,4.27-4.26,4.27Z" fill="#4b3b5d" stroke-width="0"/>
  <path d="m256.09,142.91h-6.47c-2.36,0-4.27-1.91-4.27-4.26v-6.47c0-2.36,1.91-4.27,4.26-4.27h6.47c2.36,0,4.27,1.91,4.27,4.26v6.47c0,2.36-1.91,4.27-4.26,4.27Z" fill="#4b3b5d" stroke-width="0"/>
  <path d="m241.09,127.91h-6.47c-2.36,0-4.27-1.91-4.27-4.26v-6.47c0-2.36,1.91-4.27,4.26-4.27h6.47c2.36,0,4.27,1.91,4.27,4.26v6.47c0,2.36-1.91,4.27-4.26,4.27Z" fill="#4b3b5d" stroke-width="0"/>
  <path d="m246.09,207.91h-6.47c-2.36,0-4.27-1.91-4.27-4.26v-6.47c0-2.36,1.91-4.27,4.26-4.27h6.48c2.35,0,4.26,1.91,4.26,4.26v6.47c0,2.36-1.91,4.27-4.26,4.27Z" fill="#4b3b5d" stroke-width="0"/>
  <g>
    <path d="m106.24,254.35h17.7c10.55,0,19.1-8.37,19.1-18.69,0-9.01-6.51-16.53-15.17-18.3.1-.79.17-1.59.17-2.4,0-10.69-8.86-19.37-19.79-19.37-6.45,0-12.16,3.04-15.77,7.71-.93-11.9-11.79-21.09-24.5-19.57-9.29,1.11-16.98,8.14-18.7,17.15-.55,2.89-.49,5.69.05,8.33-2.49-2.63-6.04-4.28-9.99-4.28-7.23,0-13.14,5.51-13.6,12.47-3.28-.71-6.86-.67-10.61.71-7.19,2.64-12.31,9.26-12.61,16.78-.43,10.67,8.29,19.44,19.09,19.44h44.04m8.2,0h1.8" fill="#fff" stroke-width="0"/>
    <path d="m123.94,256.85h-17.7c-1.38,0-2.5-1.12-2.5-2.5s1.12-2.5,2.5-2.5h17.7c9.16,0,16.6-7.27,16.6-16.19,0-7.62-5.54-14.29-13.18-15.85-1.28-.27-2.15-1.47-1.98-2.77.09-.69.15-1.38.15-2.08,0-9.3-7.75-16.87-17.29-16.87-5.46,0-10.49,2.45-13.8,6.74-.63.82-1.7,1.16-2.7.87-.99-.3-1.7-1.17-1.77-2.2-.39-5.1-2.82-9.72-6.84-13.02-4.15-3.4-9.43-4.89-14.86-4.26-8.23.98-15.03,7.21-16.53,15.14-.47,2.48-.45,4.95.05,7.36.23,1.1-.3,2.21-1.29,2.72-.99.51-2.2.32-2.97-.5-2.14-2.25-5.05-3.5-8.18-3.5-5.85,0-10.73,4.45-11.11,10.14-.05.73-.41,1.39-.99,1.83-.58.43-1.32.6-2.03.44-3.19-.69-6.22-.49-9.23.62-6.31,2.31-10.72,8.15-10.97,14.52-.17,4.38,1.41,8.54,4.48,11.73,3.18,3.3,7.48,5.12,12.12,5.12h44.04c1.38,0,2.5,1.12,2.5,2.5s-1.12,2.5-2.5,2.5H21.6c-5.92,0-11.65-2.43-15.72-6.66C1.87,246.01-.21,240.55.02,234.8c.34-8.38,6.06-16.02,14.24-19.03,3.05-1.12,6.2-1.52,9.4-1.22,1.72-6.98,8.14-12.12,15.68-12.12,2.47,0,4.88.56,7.07,1.61.05-1.21.19-2.42.42-3.63,1.91-10.05,10.48-17.92,20.85-19.17,6.82-.83,13.42,1.09,18.63,5.35,3.74,3.06,6.39,7.04,7.73,11.51,3.96-3.24,8.93-5.03,14.21-5.03,12.29,0,22.29,9.81,22.29,21.87,0,.17,0,.34,0,.51,8.82,2.78,15.01,10.94,15.01,20.19,0,11.69-9.68,21.2-21.6,21.2Zm-48.28,0h-1.8c-1.38,0-2.5-1.12-2.5-2.5s1.12-2.5,2.5-2.5h1.8c1.38,0,2.5,1.12,2.5,2.5s-1.12,2.5-2.5,2.5Z" fill="#4b3b5d" stroke-width="0"/>
    <path d="m115.4,227.83c-.09,0-.18,0-.28-.03-.67-.15-1.1-.82-.94-1.5.18-.82.47-1.62.85-2.39,3.02-6.12,11.36-8.39,18.61-5.03.62.29.9,1.03.61,1.66-.29.63-1.04.9-1.66.61-6.01-2.78-12.88-1.04-15.31,3.87-.29.59-.51,1.21-.65,1.83-.14.59-.65.98-1.22.98Z" fill="#472b29" stroke-width="0"/>
    <path d="m89.61,256.85h-5.54c-1.38,0-2.5-1.12-2.5-2.5s1.12-2.5,2.5-2.5h5.54c1.38,0,2.5,1.12,2.5,2.5s-1.11,2.5-2.5,2.5Z" fill="#472b29" stroke-width="0"/>
  </g>
</svg>
