<?xml version="1.0" encoding="utf-8"?>
<!-- Generator: Adobe Illustrator 28.0.0, SVG Export Plug-In . SVG Version: 6.00 Build 0)  -->
<svg version="1.1" id="Layer_1" xmlns="http://www.w3.org/2000/svg" xmlns:xlink="http://www.w3.org/1999/xlink" x="0px" y="0px"
	 width="500px" height="500px" viewBox="0 0 500 500" enable-background="new 0 0 500 500" xml:space="preserve">
<path fill="#FFFFFF" d="M379.4,271.7c0,0,73.3,0,73.8,0c16.9,0,30.7-13.7,30.7-30.7c0-14.8-10.5-27.1-24.4-30
	c0.2-1.3,0.3-2.6,0.3-3.9c0-17.5-14.2-31.8-31.8-31.8c-10.4,0-19.5,5-25.3,12.7c-1.5-19.5-18.9-34.6-39.3-32.1
	c-14.9,1.8-27.3,13.4-30,28.1c-0.9,4.7-0.8,9.3,0.1,13.7c-4-4.3-9.7-7-16-7c-11.6,0-21.1,9-21.8,20.5c-5.3-1.2-11-1.1-17,1.2
	c-11.5,4.3-19.8,15.2-20.2,27.5c-0.7,17.5,13.3,31.9,30.6,31.9c1.3,0,5.9,0,7,0h63.5"/>
<path fill="#4B3B5D" d="M453.2,274.8h-73.8c-1.7,0-3.1-1.4-3.1-3.1s1.4-3.1,3.1-3.1h73.8c15.2,0,27.5-12.4,27.5-27.5
	c0-13-9.2-24.3-21.9-26.9c-1.6-0.3-2.7-1.8-2.5-3.5c0.1-1.2,0.2-2.3,0.2-3.5c0-15.8-12.8-28.6-28.6-28.6c-9,0-17.3,4.2-22.8,11.4
	c-0.8,1-2.1,1.5-3.4,1.1c-1.2-0.4-2.1-1.5-2.2-2.8c-0.7-8.6-4.9-16.8-11.6-22.3c-6.8-5.6-15.4-8-24.2-7
	c-13.6,1.7-24.8,12.2-27.3,25.6c-0.8,4.2-0.8,8.4,0.1,12.5c0.3,1.4-0.4,2.8-1.6,3.4c-1.3,0.7-2.8,0.4-3.7-0.7c-3.6-3.9-8.5-6-13.7-6
	c-9.8,0-18.1,7.7-18.7,17.5c-0.1,0.9-0.5,1.8-1.2,2.3c-0.7,0.6-1.7,0.8-2.6,0.6c-5.3-1.2-10.3-0.8-15.3,1
	c-10.5,3.9-17.8,13.9-18.2,24.7c-0.3,7.6,2.4,14.7,7.7,20.2c5.2,5.5,12.3,8.5,19.8,8.5h70.6c1.7,0,3.1,1.4,3.1,3.1s-1.4,3.1-3.1,3.1
	h-70.7c-9.3,0-17.9-3.7-24.4-10.4c-6.4-6.7-9.8-15.5-9.4-24.8c0.5-13.3,9.5-25.5,22.3-30.3c5-1.9,10.2-2.5,15.5-1.9
	c2.4-11.4,12.5-20,24.5-20c4.3,0,8.5,1.1,12.2,3.2c0-2.4,0.2-4.8,0.7-7.3c3-16.1,16.4-28.7,32.7-30.7c10.5-1.3,20.8,1.7,29,8.3
	c6.3,5.2,10.8,12.2,12.8,20c6.3-5.7,14.5-8.9,23.3-8.9c19.2,0,34.9,15.7,34.9,34.9c0,0.5,0,1,0,1.6c14.1,4.2,24.1,17.4,24.1,32.4
	C487,259.7,471.8,274.8,453.2,274.8z"/>
<path fill="#FDFCEF" d="M361.6,204.1c-11.3-0.7-21.1,7.1-21.8,17.5c-0.1,1.3,0,2.6,0.2,3.8c-2.2-2.5-5.4-4.1-9.1-4.4
	c-6.8-0.4-12.7,4-13.5,10.2c-1.2-0.3-2.5-0.6-3.9-0.7c-9.9-0.7-18.5,6.2-19.1,15.3"/>
<path fill="#4B3B5D" d="M294.4,247.4h-0.1c-0.9-0.1-1.5-0.8-1.5-1.7c0.7-10,10-17.5,20.8-16.8c0.9,0.1,1.7,0.2,2.6,0.3
	c1.7-6.1,7.9-10.3,14.8-9.8c2.7,0.2,5.2,1,7.3,2.4c0-0.1,0-0.2,0-0.4c0.8-11.3,11.2-19.8,23.5-19c0.9,0.1,1.5,0.8,1.5,1.7
	c-0.1,0.9-0.8,1.6-1.7,1.5c-10.4-0.7-19.5,6.5-20.1,16c-0.1,1.2,0,2.3,0.1,3.5c0.1,0.7-0.3,1.4-0.9,1.7s-1.4,0.1-1.8-0.4
	c-2-2.3-4.9-3.7-8.1-3.9c-6-0.2-11.1,3.5-11.9,8.8c-0.1,0.4-0.3,0.8-0.7,1.1c-0.4,0.2-0.8,0.3-1.3,0.2c-1.2-0.3-2.4-0.5-3.6-0.6
	c-9-0.6-16.9,5.6-17.4,13.9C295.9,246.8,295.2,247.4,294.4,247.4z"/>
<path fill="#FDFCEF" d="M465.6,214.6c-10.7-5-23-1.5-27.5,7.9c-0.6,1.2-1,2.4-1.3,3.6"/>
<path fill="#4B3B5D" d="M436.8,227.7c-0.1,0-0.2,0-0.4,0c-0.8-0.2-1.4-1-1.2-1.9c0.3-1.4,0.8-2.7,1.4-3.9c4.9-10.2,18.2-14,29.6-8.7
	c0.8,0.4,1.1,1.3,0.8,2.1c-0.4,0.8-1.3,1.1-2.1,0.8c-9.9-4.7-21.3-1.4-25.5,7.2c-0.5,1-0.9,2.1-1.1,3.3
	C438.2,227.2,437.5,227.7,436.8,227.7z"/>
<path fill="#F6F4FF" d="M138.5,434c-7.7,0-14-6.3-14-14V205.9c0-7.7,6.3-14,14-14h226.7c7.7,0,14,6.3,14,14V420c0,7.7-6.3,14-14,14
	H138.5z"/>
<path fill="#4B3B5D" d="M365.1,196.3c5.3,0,9.6,4.3,9.6,9.6V420c0,5.3-4.3,9.6-9.6,9.6H138.5c-5.3,0-9.6-4.3-9.6-9.6V205.9
	c0-5.3,4.3-9.6,9.6-9.6L365.1,196.3 M365.1,187.5H138.5c-10.2,0-18.4,8.2-18.4,18.4V420c0,10.2,8.2,18.4,18.4,18.4h226.7
	c10.2,0,18.4-8.2,18.4-18.4V205.9C383.6,195.7,375.3,187.5,365.1,187.5L365.1,187.5z"/>
<path fill="#EF7D99" d="M129.1,252.8h245.4v-49.6c0-3.7-3-6.7-6.7-6.7H136.5c-4.1,0-7.5,3.3-7.5,7.5v48.8L129.1,252.8L129.1,252.8z"
	/>
<path fill="#FFFFFF" d="M328.7,283.2h22v22h-22V283.2z"/>
<path fill="#4B3B5D" d="M349.1,284.7v18.8h-18.8v-18.8H349.1 M352.2,281.6h-25.1v25.1h25.1V281.6L352.2,281.6z"/>
<path fill="#FFFFFF" d="M284.8,283.2h22v22h-22V283.2z"/>
<path fill="#4B3B5D" d="M305.1,284.7v18.8h-18.8v-18.8H305.1 M308.3,281.6h-25.1v25.1h25.1V281.6L308.3,281.6z"/>
<path fill="#FFFFFF" d="M240.8,283.2h22v22h-22L240.8,283.2L240.8,283.2z"/>
<path fill="#4B3B5D" d="M261.2,284.7v18.8h-18.8v-18.8H261.2 M264.4,281.6h-25.1v25.1h25.1V281.6L264.4,281.6z"/>
<path fill="#FFFFFF" d="M196.9,283.2h22v22h-22V283.2z"/>
<path fill="#4B3B5D" d="M217.3,284.7v18.8h-18.8v-18.8H217.3 M220.5,281.6h-25.1v25.1h25.1V281.6L220.5,281.6z"/>
<path fill="#FFFFFF" d="M153,283.2h22v22h-22V283.2z"/>
<path fill="#4B3B5D" d="M173.4,284.7v18.8h-18.8v-18.8H173.4 M176.5,281.6h-25.1v25.1h25.1V281.6L176.5,281.6z"/>
<path fill="#FFFFFF" d="M330.2,327.1h20.4v22h-20.4V327.1z"/>
<path fill="#4B3B5D" d="M349.1,328.6v18.8h-18.8v-18.8H349.1 M352.2,325.5h-25.1v25.1h25.1V325.5L352.2,325.5z"/>
<path fill="#FFFFFF" d="M284.8,327.1h22v22h-22V327.1z"/>
<path fill="#4B3B5D" d="M305.1,328.6v18.8h-18.8v-18.8H305.1 M308.3,325.5h-25.1v25.1h25.1V325.5L308.3,325.5z"/>
<g>
	<path fill="#FFFFFF" d="M240.8,327.1h22v22h-22L240.8,327.1L240.8,327.1z"/>
	<path fill="#4B3B5D" d="M261.2,328.6v18.8h-18.8v-18.8H261.2 M264.4,325.5h-25.1v25.1h25.1V325.5L264.4,325.5z"/>
</g>
<g>
	<path fill="#FFFFFF" d="M196.9,330h22v19.2h-22V330z"/>
	<path fill="#4B3B5D" d="M217.3,331.4v16.5h-18.8v-16.5H217.3 M220.5,328.6h-25.1v22h25.1V328.6L220.5,328.6z"/>
</g>
<g>
	<path fill="#FFFFFF" d="M153,327.1h22v22h-22V327.1z"/>
	<path fill="#4B3B5D" d="M173.4,328.6v18.8h-18.8v-18.8H173.4 M176.5,325.5h-25.1v25.1h25.1V325.5L176.5,325.5z"/>
</g>
<g>
	<path fill="#FFFFFF" d="M240.8,371h22v22h-22L240.8,371L240.8,371z"/>
	<path fill="#4B3B5D" d="M261.2,372.6v18.8h-18.8v-18.8H261.2 M264.4,369.4h-25.1v25.1h25.1V369.4L264.4,369.4z"/>
</g>
<g>
	<path fill="#FFFFFF" d="M196.9,371h22v22h-22V371z"/>
	<path fill="#4B3B5D" d="M217.3,372.6v18.8h-18.8v-18.8H217.3 M220.5,369.4h-25.1v25.1h25.1V369.4L220.5,369.4z"/>
</g>
<g>
	<path fill="#FFFFFF" d="M153,371h22v22h-22V371z"/>
	<path fill="#4B3B5D" d="M173.4,372.6v18.8h-18.8v-18.8H173.4 M176.5,369.4h-25.1v25.1h25.1V369.4L176.5,369.4z"/>
</g>
<g>
	<path fill="#FFFFFF" d="M144.5,463.3c11.8,0,22.1,0,22.2,0c13.2,0,24-10.5,24-23.5c0-11.3-8.2-20.7-19-23c0.1-1,0.2-2,0.2-3
		c0-13.4-11.1-24.3-24.8-24.3c-8.1,0-15.3,3.8-19.8,9.7c-1.2-14.9-14.8-26.5-30.7-24.5c-11.7,1.4-21.3,10.2-23.5,21.5
		c-0.7,3.6-0.6,7.1,0.1,10.4c-3.1-3.3-7.6-5.4-12.5-5.4c-9.1,0-16.5,6.9-17.1,15.6c-4.1-0.9-8.6-0.8-13.3,0.9
		c-9,3.3-15.4,11.6-15.8,21.1c-0.5,13.4,10.4,24.4,24,24.4c1,0,4.6,0,5.5,0h49.6 M103.9,463.3h2.3"/>
	<path fill="#4B3B5D" d="M168.5,468.5h-22.2c-1.7,0-3.1-1.4-3.1-3.1s1.4-3.1,3.1-3.1h22.2c11.5,0,20.8-9.1,20.8-20.3
		c0-9.6-7-17.9-16.5-19.9c-1.6-0.3-2.7-1.8-2.5-3.5c0.1-0.9,0.2-1.7,0.2-2.6c0-11.7-9.7-21.2-21.7-21.2c-6.9,0-13.2,3.1-17.3,8.5
		c-0.8,1-2.1,1.4-3.4,1.1c-1.2-0.4-2.1-1.5-2.2-2.8c-0.5-6.4-3.5-12.2-8.6-16.3c-5.2-4.3-11.8-6.1-18.7-5.4
		c-10.3,1.2-18.9,9-20.7,19c-0.6,3.1-0.6,6.2,0.1,9.2c0.3,1.4-0.4,2.8-1.6,3.4s-2.8,0.4-3.7-0.6c-2.7-2.8-6.3-4.4-10.3-4.4
		c-7.3,0-13.5,5.6-13.9,12.7c-0.1,0.9-0.5,1.7-1.2,2.3c-0.7,0.5-1.7,0.8-2.5,0.6c-4-0.9-7.8-0.6-11.6,0.8
		c-7.9,2.9-13.5,10.2-13.8,18.2c-0.2,5.5,1.8,10.7,5.6,14.7c4,4.1,9.4,6.4,15.2,6.4h55.3c1.7,0,3.1,1.4,3.1,3.1s-1.4,3.1-3.1,3.1
		H40.1c-7.4,0-14.6-3-19.7-8.3c-5-5.2-7.6-12.1-7.4-19.3c0.4-10.5,7.6-20.1,17.9-23.9c3.8-1.4,7.8-1.9,11.8-1.5
		c2.2-8.8,10.2-15.2,19.7-15.2c3.1,0,6.1,0.7,8.9,2c0.1-1.5,0.2-3,0.5-4.6c2.4-12.6,13.1-22.5,26.2-24c8.6-1,16.8,1.4,23.4,6.7
		c4.7,3.8,8,8.8,9.7,14.4c5-4.1,11.2-6.3,17.8-6.3c15.4,0,28,12.3,28,27.4c0,0.2,0,0.4,0,0.6c11.1,3.5,18.8,13.7,18.8,25.3
		C195.6,456.5,183.4,468.5,168.5,468.5z M107.9,468.5h-2.3c-1.7,0-3.1-1.4-3.1-3.1s1.4-3.1,3.1-3.1h2.3c1.7,0,3.1,1.4,3.1,3.1
		S109.6,468.5,107.9,468.5z"/>
	<g>
		<path fill="#4B3B5D" d="M157.8,432.1c-0.1,0-0.2,0-0.3,0c-0.8-0.2-1.4-1-1.2-1.9c0.2-1,0.6-2,1.1-3c3.8-7.7,14.3-10.5,23.3-6.3
			c0.8,0.4,1.1,1.3,0.8,2.1c-0.4,0.8-1.3,1.1-2.1,0.8c-7.5-3.5-16.2-1.3-19.2,4.9c-0.4,0.7-0.6,1.5-0.8,2.3
			C159.2,431.6,158.5,432.1,157.8,432.1z"/>
	</g>
	<g>
		<path fill="#4B3B5D" d="M125.4,468.5h-6.9c-1.7,0-3.1-1.4-3.1-3.1s1.4-3.1,3.1-3.1h6.9c1.7,0,3.1,1.4,3.1,3.1
			S127.2,468.5,125.4,468.5z"/>
	</g>
</g>
<g>
	<path fill="#4B3B5D" d="M349.1,213.8c-2.4,0-4.4-2-4.4-4.4V178c0-2.4,2-4.4,4.4-4.4s4.4,2,4.4,4.4v31.4
		C353.4,211.9,351.5,213.8,349.1,213.8z M317.7,213.8c-2.4,0-4.4-2-4.4-4.4V178c0-2.4,2-4.4,4.4-4.4s4.4,2,4.4,4.4v31.4
		C322.1,211.9,320.1,213.8,317.7,213.8z M286.3,213.8c-2.4,0-4.4-2-4.4-4.4V178c0-2.4,2-4.4,4.4-4.4s4.4,2,4.4,4.4v31.4
		C290.7,211.9,288.8,213.8,286.3,213.8z M255,213.8c-2.4,0-4.4-2-4.4-4.4V178c0-2.4,2-4.4,4.4-4.4s4.4,2,4.4,4.4v31.4
		C259.3,211.9,257.4,213.8,255,213.8z M223.6,213.8c-2.4,0-4.4-2-4.4-4.4V178c0-2.4,2-4.4,4.4-4.4s4.4,2,4.4,4.4v31.4
		C228,211.9,226,213.8,223.6,213.8z M192.2,213.8c-2.4,0-4.4-2-4.4-4.4V178c0-2.4,2-4.4,4.4-4.4s4.4,2,4.4,4.4v31.4
		C196.6,211.9,194.6,213.8,192.2,213.8z M160.9,213.8c-2.4,0-4.4-2-4.4-4.4V178c0-2.4,2-4.4,4.4-4.4s4.4,2,4.4,4.4v31.4
		C165.2,211.9,163.3,213.8,160.9,213.8z"/>
</g>
<g>
	<path fill="#4B3B5D" d="M280,256.5H123.2c-1.7,0-3.1-1.4-3.1-3.1c0-1.7,1.4-3.1,3.1-3.1H280c1.7,0,3.1,1.4,3.1,3.1
		C283.2,255.1,281.8,256.5,280,256.5z"/>
</g>
<g>
	<path fill="#4B3B5D" d="M330.2,256.5h-25.1c-1.7,0-3.1-1.4-3.1-3.1c0-1.7,1.4-3.1,3.1-3.1h25.1c1.7,0,3.1,1.4,3.1,3.1
		C333.4,255.1,332,256.5,330.2,256.5z"/>
</g>
<g>
	<path fill="#4B3B5D" d="M380.4,256.5H349c-1.7,0-3.1-1.4-3.1-3.1c0-1.7,1.4-3.1,3.1-3.1h31.4c1.7,0,3.1,1.4,3.1,3.1
		C383.6,255.1,382.2,256.5,380.4,256.5z"/>
</g>
</svg>
