<?xml version="1.0" encoding="utf-8"?>
<!-- Generator: Adobe Illustrator 28.0.0, SVG Export Plug-In . SVG Version: 6.00 Build 0)  -->
<svg version="1.1" id="Layer_1" xmlns="http://www.w3.org/2000/svg" xmlns:xlink="http://www.w3.org/1999/xlink" x="0px" y="0px"
	 width="200px" height="200px" viewBox="0 0 200 200" enable-background="new 0 0 200 200" xml:space="preserve">
<path fill="#FFFFFF" d="M147.3,165.5c0,0,30.5,0,30.7,0c7,0,12.8-5.8,12.8-13c0-6.3-4.3-11.5-10.1-12.7c0.1-0.5,0.1-1.1,0.1-1.7
	c0-7.4-5.9-13.4-13.2-13.4c-4.3,0-8.1,2.1-10.5,5.4c-0.6-8.3-7.9-14.6-16.4-13.6c-6.2,0.8-11.3,5.7-12.5,11.9c-0.4,2-0.3,4,0,5.8
	c-1.7-1.8-4-3-6.7-3c-4.8,0-8.8,3.8-9.1,8.7c-2.2-0.5-4.6-0.5-7.1,0.5c-4.8,1.8-8.2,6.4-8.4,11.6c-0.3,7.4,5.5,13.5,12.7,13.5
	c0.5,0,2.5,0,2.9,0H139"/>
<path fill="#4b3b5d" d="M177.9,166.8h-30.7c-0.7,0-1.3-0.6-1.3-1.3s0.6-1.3,1.3-1.3h30.7c6.3,0,11.4-5.2,11.4-11.6
	c0-5.5-3.8-10.3-9.1-11.4c-0.7-0.1-1.1-0.8-1-1.5c0.1-0.5,0.1-1,0.1-1.5c0-6.7-5.3-12.1-11.9-12.1c-3.8,0-7.2,1.8-9.5,4.8
	c-0.3,0.4-0.9,0.6-1.4,0.5c-0.5-0.2-0.9-0.6-0.9-1.2c-0.3-3.7-2-7.1-4.8-9.4c-2.8-2.4-6.4-3.4-10.1-2.9c-5.6,0.7-10.3,5.2-11.3,10.8
	c-0.3,1.8-0.3,3.5,0,5.3c0.1,0.6-0.2,1.2-0.7,1.5s-1.2,0.2-1.6-0.3c-1.5-1.6-3.5-2.5-5.7-2.5c-4.1,0-7.5,3.3-7.8,7.4
	c0,0.4-0.2,0.7-0.5,1c-0.3,0.2-0.7,0.3-1.1,0.2c-2.2-0.5-4.3-0.3-6.3,0.4c-4.4,1.7-7.4,5.9-7.6,10.5c-0.1,3.2,1,6.2,3.2,8.5
	s5.1,3.6,8.2,3.6H139c0.7,0,1.3,0.6,1.3,1.3s-0.6,1.3-1.3,1.3h-29.4c-3.9,0-7.5-1.6-10.1-4.4c-2.7-2.8-4.1-6.6-3.9-10.5
	c0.2-5.6,3.9-10.8,9.3-12.8c2.1-0.8,4.2-1.1,6.4-0.8c1-4.8,5.2-8.4,10.2-8.4c1.8,0,3.5,0.5,5.1,1.3c0-1,0.1-2,0.3-3.1
	c1.2-6.8,6.8-12.1,13.6-13c4.4-0.5,8.7,0.7,12,3.5c2.6,2.2,4.5,5.2,5.3,8.5c2.6-2.4,6-3.8,9.7-3.8c8,0,14.5,6.6,14.5,14.8
	c0,0.2,0,0.4,0,0.7c5.9,1.8,10,7.4,10,13.7C192,160.4,185.7,166.8,177.9,166.8z"/>
<path fill="#FDFCEF" d="M139.9,136.5c-4.7-0.3-8.8,2.9-9.1,7.3c0,0.5,0,1.1,0.1,1.6c-0.9-1-2.3-1.7-3.8-1.8
	c-2.8-0.2-5.3,1.7-5.6,4.2c-0.5-0.1-1.1-0.2-1.6-0.3c-4.1-0.3-7.7,2.6-7.9,6.4"/>
<path fill="#4b3b5d" d="M111.9,154.5L111.9,154.5c-0.4,0-0.7-0.3-0.7-0.7c0.3-4.1,4.2-7.3,8.6-7c0.4,0,0.7,0.1,1.1,0.1
	c0.7-2.5,3.3-4.3,6.2-4.1c1.1,0.1,2.1,0.4,3,1v-0.1c0.3-4.7,4.7-8.2,9.8-7.9c0.4,0,0.6,0.3,0.6,0.7s-0.3,0.7-0.7,0.6
	c-4.4-0.2-8.1,2.7-8.4,6.7c0,0.5,0,1,0.1,1.4c0,0.3-0.1,0.6-0.4,0.7c-0.3,0.1-0.6,0.1-0.8-0.2c-0.8-0.9-2-1.5-3.4-1.6
	c-2.5-0.1-4.6,1.5-4.9,3.7c0,0.2-0.1,0.4-0.3,0.5c-0.2,0.1-0.4,0.1-0.5,0.1c-0.5-0.1-1-0.2-1.5-0.3c-3.8-0.3-7,2.3-7.2,5.8
	C112.5,154.3,112.2,154.5,111.9,154.5z"/>
<path fill="#FDFCEF" d="M183.1,140.9c-4.4-2.1-9.6-0.6-11.4,3.3c-0.2,0.5-0.4,1-0.5,1.5"/>
<path fill="#4b3b5d" d="M171.1,146.3H171c-0.4-0.1-0.6-0.4-0.5-0.8c0.1-0.6,0.3-1.1,0.6-1.6c2-4.2,7.6-5.9,12.3-3.6
	c0.3,0.2,0.5,0.5,0.3,0.9c-0.2,0.3-0.5,0.5-0.9,0.3c-4.1-1.9-8.9-0.6-10.6,3c-0.2,0.4-0.4,0.9-0.5,1.4
	C171.7,146.1,171.4,146.3,171.1,146.3z"/>
<path fill="#F6F4FF" d="M145.4,165H58c-6.7,0-12.2-5.5-12.2-12.3v-52c0-6.8,5.5-12.3,12.2-12.3h87.5c6.7,0,12.2,5.5,12.2,12.3v52
	C157.7,159.5,152.2,165,145.4,165z"/>
<path fill="#4b3b5d" d="M145.4,166.8H58c-7.8,0-14.1-6.3-14.1-14.1v-52c0-7.8,6.3-14.1,14.1-14.1h87.5c7.8,0,14.1,6.3,14.1,14.1v52
	C159.5,160.5,153.2,166.8,145.4,166.8z M58,90.3c-5.7,0-10.4,4.7-10.4,10.4v52c0,5.8,4.7,10.4,10.4,10.4h87.5
	c5.7,0,10.4-4.7,10.4-10.4v-52c0-5.8-4.7-10.4-10.4-10.4C145.5,90.3,58,90.3,58,90.3z"/>
<path fill="#E8E6F4" d="M51.3,160.2c2.2,2.4,3.7,2.9,7.1,2.9h87.1c3.4,0,4.4,0,6.6-2.4l-50.4-46.1L51.3,160.2z"/>
<path fill="#F6F4FF" d="M152.2,92.8c-2.2-2.1-3.7-2.5-7.1-2.5H57.9c-3.4,0-4.4,0-6.6,2.1l51.6,40.7L152.2,92.8z"/>
<path fill="#4b3b5d" d="M103.2,135.2c-0.2,0-0.4-0.1-0.6-0.2l-54-42.3c-0.4-0.3-0.5-1-0.2-1.4c0.3-0.4,0.9-0.5,1.4-0.2l53.4,41.8
	l50.5-41.8c0.4-0.3,1-0.3,1.4,0.1c0.3,0.4,0.3,1-0.1,1.4L103.8,135C103.6,135.2,103.4,135.2,103.2,135.2z"/>
<g>
	<path fill="#4b3b5d" d="M50.6,162.7c-0.3,0-0.5-0.1-0.7-0.3c-0.4-0.4-0.3-1,0.1-1.4l33.5-30.1c0.4-0.4,1-0.3,1.4,0.1
		c0.4,0.4,0.3,1-0.1,1.4l-33.5,30.1C51.1,162.6,50.8,162.7,50.6,162.7z M152.8,162.7c-0.2,0-0.5-0.1-0.7-0.3l-33.5-30.1
		c-0.4-0.4-0.4-1-0.1-1.4c0.4-0.4,1-0.4,1.4-0.1l33.5,30.1c0.4,0.4,0.4,1,0.1,1.4C153.3,162.6,153.1,162.7,152.8,162.7z"/>
</g>
<g>
	<path fill="#4b3b5d" d="M49.4,174.9h-2.9c-0.7,0-1.3-0.6-1.3-1.3s0.6-1.3,1.3-1.3h2.9c0.7,0,1.3,0.6,1.3,1.3
		C50.7,174.4,50.1,174.9,49.4,174.9z"/>
</g>
<g>
	<path fill="#FFFFFF" d="M56.5,173.7c0,0,4.1,0,9.2,0s9.2-4.1,9.2-9.2c0-4.7-3.5-8.5-8-9c0.1-0.5,0.1-0.9,0.1-1.4
		c0-5.1-4.1-9.2-9.2-9.2c-2.7,0-5.1,1.2-6.8,3.1c-1-4.7-5.2-8.3-10.2-8.3c-5.8,0-10.5,4.7-10.5,10.5c0,0.5,0.1,1,0.1,1.5
		c-1.1-0.9-2.5-1.5-4.1-1.5c-3.2,0-5.9,2.3-6.4,5.4c-0.5-0.1-0.9-0.1-1.4-0.1c-5.1,0-9.2,4.1-9.2,9.2c0,5.1,4.1,9.2,9.2,9.2
		s19.6,0,19.6,0v1.3h18.3v-1.5H56.5z"/>
	<path fill="#4b3b5d" d="M61,161.9c-0.4,0-0.7-0.3-0.7-0.7c0-3.2,2.6-5.8,5.8-5.8c0.1,0,1.9,0,3.3,0.4c0.3,0.1,0.6,0.5,0.5,0.8
		c-0.1,0.4-0.5,0.6-0.8,0.5c-1.2-0.3-2.9-0.3-2.9-0.3c-2.5,0-4.5,2-4.5,4.5C61.7,161.6,61.4,161.9,61,161.9z M43.4,172.4
		c-0.7,0-1.3,0.6-1.3,1.3s0.6,1.3,1.3,1.3s1.3-0.6,1.3-1.3S44.1,172.4,43.4,172.4z"/>
	<path fill="#4b3b5d" d="M65.6,175h-9.2c-0.7,0-1.3-0.6-1.3-1.3s0.6-1.3,1.3-1.3h9.2c4.3,0,7.9-3.5,7.9-7.9c0-3.9-2.9-7.2-6.9-7.8
		c-0.4,0-0.7-0.2-0.9-0.5c-0.2-0.3-0.3-0.6-0.2-1c0.1-0.4,0.1-0.8,0.1-1.2c0-4.3-3.5-7.9-7.9-7.9c-2.2,0-4.3,0.9-5.8,2.6
		c-0.3,0.4-0.8,0.5-1.3,0.4c-0.5-0.1-0.8-0.5-0.9-1c-0.9-4.2-4.7-7.3-9-7.3c-5.1,0-9.2,4.1-9.2,9.2c0,0.4,0.1,0.7,0.1,1.1
		c0.1,0.5-0.2,1.1-0.6,1.4c-0.5,0.3-1,0.3-1.5,0c-1-0.8-2.1-1.2-3.3-1.2c-2.5,0-4.7,1.8-5.1,4.3c-0.1,0.7-0.8,1.2-1.5,1.1
		c-0.4-0.1-0.8-0.1-1.2-0.1c-4.3,0-7.9,3.5-7.9,7.9s3.5,7.9,7.9,7.9H38c0.7,0,1.3,0.6,1.3,1.3S38.7,175,38,175H18.5
		C12.7,175,8,170.3,8,164.5S12.7,154,18.5,154c0.2,0,0.3,0,0.5,0c1.1-3.1,4-5.3,7.4-5.3c0.9,0,1.8,0.2,2.6,0.5
		c0.4-6.1,5.5-10.9,11.8-10.9c4.8,0,9.1,3,10.9,7.3c1.8-1.3,3.9-2,6.1-2c5.8,0,10.5,4.7,10.5,10.5c0,0.1,0,0.2,0,0.4
		c4.6,1.2,7.9,5.3,7.9,10.1C76.1,170.3,71.4,175,65.6,175z"/>
	<path fill="#4b3b5d" d="M51.2,172.4c-0.4,0-2.2,0-2.6,0c-0.7,0-1.3,0.6-1.3,1.3s0.6,1.3,1.3,1.3c0.4,0,2.2,0,2.6,0
		c0.7,0,1.3-0.6,1.3-1.3S51.9,172.4,51.2,172.4z"/>
</g>
</svg>
