<?xml version="1.0" encoding="utf-8"?>
<!-- Generator: Adobe Illustrator 28.0.0, SVG Export Plug-In . SVG Version: 6.00 Build 0)  -->
<svg version="1.1" id="Layer_1" xmlns="http://www.w3.org/2000/svg" xmlns:xlink="http://www.w3.org/1999/xlink" x="0px" y="0px"
	 width="500px" height="500px" viewBox="0 0 500 500" enable-background="new 0 0 500 500" xml:space="preserve">
<path fill="#FFFFFF" d="M350.8,241.2c0,0-22.4,0-37.7,0c-15.3,0-27.7-12.5-27.7-27.7c0-14.4,11-26,25-27.5c-0.1-1.1-0.4-2.2-0.4-3.3
	c0-15.3,12.5-27.7,27.7-27.7c8.9,0,16.6,4.2,21.7,10.7c0.9-16.3,14.2-29.2,30.7-29.2c17,0,30.8,13.8,30.8,30.8
	c0,2.7-0.5,5.4-1.1,7.9c3.9-4.8,9.9-7.9,16.5-7.9c11,0,20,8.3,21.3,18.9c1.1-0.1,2.2-0.4,3.3-0.4c15.3,0,27.7,12.5,27.7,27.7
	s-12.5,27.7-27.7,27.7s-58.6,0-58.6,0H369v3.1h-18.5v-3.1H350.8z"/>
<path fill="#4B3B5D" d="M390.1,133.3c18.7,0,33.9,15.2,33.9,33.9c0,0.1,0,0.2,0,0.2c3.7-2.2,8-3.3,12.3-3.3
	c11.3,0,21.1,7.8,23.8,18.5c0.2,0,0.6,0,0.9,0c17,0,30.8,13.8,30.8,30.8s-13.8,30.8-30.8,30.8h-91.8c-1.7,0-3.1-1.4-3.1-3.1
	c0-1.7,1.4-3.1,3.1-3.1h91.8c13.6,0,24.7-11.1,24.7-24.7s-11.1-24.5-24.7-24.5c-0.7,0-1.5,0.1-2.1,0.2l-0.9,0.1c-0.1,0-0.2,0-0.4,0
	c-1.5,0-2.8-1.1-3.1-2.7c-1.2-9.2-9-16.2-18.3-16.2c-5.4,0-10.6,2.5-14.2,6.8c-0.6,0.7-1.5,1.1-2.3,1.1c-0.5,0-1-0.1-1.4-0.4
	c-1.2-0.6-2-2.1-1.6-3.6c0.7-2.7,1-4.9,1-7.2c0-15.3-12.5-27.7-27.7-27.7c-14.7,0-26.8,11.6-27.6,26.3c-0.1,1.2-1,2.3-2.1,2.7
	c-0.2,0.1-0.6,0.1-1,0.1c-1,0-1.8-0.4-2.5-1.2c-4.8-6-11.8-9.5-19.4-9.5c-13.6,0-24.7,11.1-24.7,24.7c0,0.7,0.1,1.4,0.2,2.1l0.1,0.9
	c0.1,0.9-0.1,1.6-0.6,2.3c-0.5,0.6-1.2,1.1-2.1,1.1c-12.7,1.2-22.2,11.7-22.2,24.4c0,13.6,11.1,24.7,24.7,24.7h37.7
	c1.7,0,3.1,1.4,3.1,3.1c0,1.7-1.4,3.1-3.1,3.1h-37.7c-17,0-30.8-13.8-30.8-30.8c0-14.8,10.4-27.3,24.7-30.1c0-0.2,0-0.5,0-0.7
	c0-17,13.8-30.8,30.8-30.8c7.3,0,14.2,2.6,19.6,7.2C361,144.2,374.3,133.3,390.1,133.3L390.1,133.3z"/>
<path fill="#4B3B5D" d="M399.4,176.5c8.6,0,16,6.2,18,14.4c2.2-1.4,4.8-2.1,7.5-2.1c7.4,0,13.6,5.5,14.6,12.7
	c1.2-0.2,2.5-0.4,3.6-0.4c9.4,0,17.4,7.4,18,16.9c0,0.9-0.6,1.6-1.5,1.6h-0.1c-0.7,0-1.5-0.6-1.5-1.5c-0.5-7.9-7.2-13.9-14.9-13.9
	c-1.4,0-2.8,0.2-4.6,0.7c-0.1,0-0.2,0-0.4,0c-0.4,0-0.6-0.1-1-0.4s-0.6-0.7-0.6-1.2c0-6.4-5.2-11.6-11.6-11.6c-2.7,0-5.4,1-7.6,3
	c-0.2,0.2-0.6,0.4-1,0.4c-0.2,0-0.4,0-0.6-0.1c-0.5-0.2-0.9-0.7-1-1.4c-0.6-8-7.4-14.2-15.3-14.2c-1.2,0-2.6,0.2-4.2,0.6
	c-0.1,0-0.2,0.1-0.5,0.1c-0.6,0-1.2-0.5-1.5-1.1c-0.2-0.9,0.2-1.7,1.1-1.8C396.2,176.7,397.8,176.5,399.4,176.5L399.4,176.5z
	 M313.8,185.7c8.1,0,15.4,5.5,17.8,13.4c0.2,0.9-0.2,1.7-1.1,1.8c-0.1,0-0.2,0-0.4,0c-0.6,0-1.2-0.5-1.5-1.1
	c-1.9-6.5-7.9-11.2-14.8-11.2c-0.7,0-1.4,0.1-2.1,0.1c-0.1,0-0.1,0-0.2,0c-0.7,0-1.4-0.6-1.5-1.4c-0.1-0.9,0.5-1.6,1.4-1.7
	C312.1,185.8,312.9,185.7,313.8,185.7L313.8,185.7z"/>
<g>
	<path fill="#F6F4FF" d="M369.5,238v-35.6c0-8.3-6.8-15-15.2-15h-206c-8.4,0-15.2,6.8-15.2,15V454l40.3-39.6l37.5,39.6l40.9-39.6
		l40.9,39.6l37.5-39.6l39.3,39.6V293.3"/>
	<path fill="#4B3B5D" d="M369.5,458.3c-1.1,0-2.2-0.5-3.1-1.2l-36.1-36.5L295.8,457c-0.7,0.9-1.9,1.4-3.1,1.4
		c-1.2,0.1-2.2-0.4-3.1-1.2l-37.9-36.8l-37.9,36.8c-0.9,0.7-1.8,1.4-3.1,1.2c-1.1,0-2.2-0.5-3.1-1.4l-34.5-36.5l-37,36.4
		c-1.2,1.2-3.1,1.6-4.7,0.9c-1.6-0.6-2.6-2.2-2.6-3.9V202.4c0-10.7,8.8-19.4,19.5-19.4h206.1c10.7,0,19.5,8.8,19.5,19.4V238
		c0,2.3-2,4.3-4.3,4.3s-4.3-2-4.3-4.3v-35.6c0-5.9-4.9-10.7-10.9-10.7H148.3c-6,0-10.9,4.8-10.9,10.7v241.4l32.9-32.4
		c0.9-0.9,2-1.4,3.1-1.2c1.1,0,2.2,0.5,3.1,1.4l34.5,36.5l37.7-36.6c1.7-1.6,4.3-1.6,6,0l37.7,36.6l34.5-36.5c0.7-0.9,2-1.4,3.1-1.4
		c1.1-0.1,2.3,0.5,3.1,1.2l31.9,32.2V293.3c0-2.3,2-4.3,4.3-4.3s4.3,2,4.3,4.3V454c0,1.7-1.1,3.3-2.7,3.9
		C370.8,458.2,370.1,458.3,369.5,458.3z"/>
</g>
<g>
	<path fill="#4B3B5D" d="M321.3,345.8c0.1,0,0.2,0.1,0.4,0.2h-0.1c1,0.7,2,1.2,2.8,1.7c0.9,0.4,4.1,0.9,4.1,0.9v-16.3l-1-0.5
		c-1.2-0.6-2.3-1.4-3.3-2c-1.1-0.7-2-1.5-2.8-2.3c-0.9-0.9-1.6-1.7-2.2-2.7s-1-2-1.2-3.2c-0.1-0.6-0.2-1.1-0.2-1.6s0-1,0-1.6
		c0-1.7,0.2-3.1,0.9-4.4c0.5-1.2,1.4-2.3,2.2-3.2c1-0.9,2.1-1.6,3.5-2.1s2.7-0.9,4.3-1V306c0-0.7,0.1-1.4,0.5-1.8
		c0.4-0.5,0.9-0.7,1.7-0.7h-0.2c1.8,0,3,0.9,3.1,2.7v1.5c1,0.1,2.1,0.5,3.1,0.9c1.1,0.4,2.3,0.9,3.6,1.4l-0.1-0.1
		c0.6,0.2,1.1,0.5,1.5,0.7c0.4,0.4,0.5,0.9,0.6,1.6v0.4c0,0.2-0.1,0.6-0.2,1s-0.4,0.7-0.6,1.1s-0.5,0.6-0.9,1
		c-0.4,0.2-0.7,0.4-1.1,0.4s-0.6,0-0.9-0.1c-0.2,0-0.6-0.2-1-0.5v-0.2l-1.7-0.4c-1-0.5-2.2-1-2.8-1.2v14.6l-0.4,0.1
		c2.8,1.5,5.1,3.1,6.7,4.8c1.6,1.7,2.6,3.6,3.1,5.5c0.2,0.9,0.4,1.6,0.5,2.2s0.1,1.4,0.1,2.1c0,1.6-0.2,3.1-0.7,4.4
		s-1.2,2.5-2.2,3.5s-2,1.8-3.3,2.5s-2.7,1-3.7,1.2v3.8c-0.5,0.7-0.6,1.4-1,1.8c-0.2,0.5-1.7-1.7-1.7-1.7h-0.4c0,0-1.6,2.2-2.1,1.7
		s-0.7-1.2,0.6-2.1v-3.6c-3.3-0.2-4.9-0.6-6.4-1.2c-1.4-0.6-2.8-1.5-4.3-2.3c-0.4-0.4-0.6-0.6-0.7-0.9c-0.1-0.2-0.2-0.6,2.2-1.1
		v-0.4c-2.7-0.4-2.7-0.7-2.5-1.1s0.5-0.9,0.7-1.2c0.2-0.4,0.6-0.7,0.9-1c0.4-0.2,0.6-0.4,0.9-0.4c0.4,0,0.7,0.1,1,0.4
		s0.6,0.5,0.9-0.5l0,0c0.1,1.2,0.1,1.2,0.1,1.2h-0.3V345.8z M325.4,323.1c0.9,0.7,1.9,1.5,3,2.1v-11.7c-1.4,0.2-2.5,0.9-3.5,1.6
		c-0.9,0.9-1.4,2-1.4,3.3c0,0.2,0,0.5,0,0.7s0,0.6,0.1,0.9C324,321.3,324.6,322.4,325.4,323.1z M335.5,337.2
		c-0.7-0.9-1.6-1.6-2.6-2.2v13.3c1.2-0.5,2.3-1.2,3.1-2.3c0.9-1,1.2-2.2,1.2-3.6c0-0.4,0-0.7-0.1-1.1s-0.1-0.6-0.2-1
		C336.7,339,336.2,338,335.5,337.2z"/>
</g>
<g>
	<path fill="#4B3B5D" d="M368.9,279.2c-2.3,0-4.3-2-4.3-4.3v-21.1c0-2.3,2-4.3,4.3-4.3s4.3,2,4.3,4.3v21.1
		C373.2,277.2,371.3,279.2,368.9,279.2z"/>
</g>
<g>
	<path fill="#4B3B5D" d="M340.8,232H168.1c-1.7,0-3.1-1.4-3.1-3.1s1.4-3.1,3.1-3.1h172.7c1.7,0,3.1,1.4,3.1,3.1S342.5,232,340.8,232
		z"/>
</g>
<g>
	<path fill="#4B3B5D" d="M242.1,256.6h-74c-1.7,0-3.1-1.4-3.1-3.1c0-1.7,1.4-3.1,3.1-3.1h74c1.7,0,3.1,1.4,3.1,3.1
		C245.2,255.3,243.8,256.6,242.1,256.6z"/>
</g>
<g>
	<path fill="#4B3B5D" d="M285.3,306h-98.7c-1.7,0-3.1-1.4-3.1-3.1s1.4-3.1,3.1-3.1h98.7c1.7,0,3.1,1.4,3.1,3.1S287,306,285.3,306z"
		/>
</g>
<g>
	<path fill="#4B3B5D" d="M285.3,324.5h-98.7c-1.7,0-3.1-1.4-3.1-3.1s1.4-3.1,3.1-3.1h98.7c1.7,0,3.1,1.4,3.1,3.1
		S287,324.5,285.3,324.5z"/>
</g>
<g>
	<path fill="#4B3B5D" d="M285.3,343h-98.7c-1.7,0-3.1-1.4-3.1-3.1s1.4-3.1,3.1-3.1h98.7c1.7,0,3.1,1.4,3.1,3.1S287,343,285.3,343z"
		/>
</g>
<g>
	<path fill="#4B3B5D" d="M285.3,361.5h-98.7c-1.7,0-3.1-1.4-3.1-3.1s1.4-3.1,3.1-3.1h98.7c1.7,0,3.1,1.4,3.1,3.1
		S287,361.5,285.3,361.5z"/>
</g>
<g>
	<path fill="#4B3B5D" d="M168.1,299.8c-1.7,0-3.1,1.4-3.1,3.1s1.4,3.1,3.1,3.1c1.7,0,3.1-1.4,3.1-3.1S169.8,299.8,168.1,299.8z"/>
</g>
<g>
	<path fill="#4B3B5D" d="M168.1,318.3c-1.7,0-3.1,1.4-3.1,3.1s1.4,3.1,3.1,3.1c1.7,0,3.1-1.4,3.1-3.1S169.8,318.3,168.1,318.3z"/>
</g>
<g>
	<path fill="#4B3B5D" d="M168.1,336.8c-1.7,0-3.1,1.4-3.1,3.1s1.4,3.1,3.1,3.1c1.7,0,3.1-1.4,3.1-3.1S169.8,336.8,168.1,336.8z"/>
</g>
<g>
	<path fill="#4B3B5D" d="M168.1,355.3c-1.7,0-3.1,1.4-3.1,3.1s1.4,3.1,3.1,3.1c1.7,0,3.1-1.4,3.1-3.1S169.8,355.3,168.1,355.3z"/>
</g>
<g>
	<path fill="#FFFFFF" d="M131.1,395.4c0,0,9.6,0,21.6,0s21.6-9.6,21.6-21.6c0-11-8.3-20-18.9-21.3c0.1-1.1,0.4-2.2,0.4-3.3
		c0-12-9.6-21.6-21.6-21.6c-6.4,0-12.1,2.8-15.9,7.2c-2.3-11.1-12.2-19.5-24.2-19.5c-13.6,0-24.7,11.1-24.7,24.7
		c0,1.2,0.2,2.3,0.4,3.5c-2.6-2.1-5.9-3.5-9.6-3.5c-7.5,0-13.8,5.4-15.2,12.7c-1.1-0.1-2.2-0.4-3.3-0.4c-12,0-21.6,9.6-21.6,21.6
		s9.6,21.6,21.6,21.6s46.2,0,46.2,0v3.1h43.2V395.4z"/>
	<path fill="#4B3B5D" d="M141.9,367.6c-0.9,0-1.5-0.7-1.5-1.5c0-7.5,6.2-13.7,13.7-13.7c0.2,0,4.6,0,7.6,0.9
		c0.9,0.2,1.4,1.1,1.1,1.9c-0.2,0.9-1.1,1.4-1.8,1.1c-2.7-0.7-6.8-0.7-6.9-0.7c-5.8,0-10.6,4.8-10.6,10.6
		C143.5,366.9,142.7,367.6,141.9,367.6z M100.3,392.3c-1.7,0-3.1,1.4-3.1,3.1s1.4,3.1,3.1,3.1s3.1-1.4,3.1-3.1
		C103.4,393.7,102,392.3,100.3,392.3z"/>
	<path fill="#4B3B5D" d="M152.7,398.5h-21.6c-1.7,0-3.1-1.4-3.1-3.1s1.4-3.1,3.1-3.1h21.6c10.2,0,18.5-8.3,18.5-18.5
		c0-9.2-6.9-17-16.2-18.3c-0.9-0.1-1.6-0.5-2.1-1.2c-0.5-0.6-0.7-1.5-0.6-2.3c0.1-1,0.2-1.8,0.2-2.8c0-10.2-8.3-18.5-18.5-18.5
		c-5.2,0-10.1,2.2-13.7,6.2c-0.7,0.9-2,1.2-3.1,0.9c-1.1-0.2-2-1.2-2.2-2.3c-2.1-9.9-11-17-21.1-17c-12,0-21.6,9.7-21.6,21.6
		c0,0.9,0.1,1.7,0.2,2.6c0.1,1.2-0.4,2.7-1.5,3.3c-1.1,0.6-2.5,0.7-3.5,0c-2.2-1.9-4.9-2.7-7.6-2.7c-5.9,0-11.1,4.3-12.1,10.1
		c-0.2,1.6-1.8,2.7-3.5,2.5c-1-0.1-1.8-0.2-2.8-0.2c-10.2,0-18.5,8.3-18.5,18.5s8.3,18.5,18.5,18.5h46.2c1.7,0,3.1,1.4,3.1,3.1
		s-1.4,3.1-3.1,3.1h-46c-13.6,0-24.7-11.1-24.7-24.7s11.1-24.7,24.7-24.7c0.4,0,0.7,0,1.1,0c2.6-7.3,9.5-12.3,17.4-12.3
		c2.1,0,4.2,0.4,6.3,1.1c1-14.4,13.1-25.8,27.6-25.8c11.3,0,21.3,6.9,25.7,17.1c4.2-3.1,9.2-4.8,14.4-4.8
		c13.6,0,24.7,11.1,24.7,24.7c0,0.2,0,0.6,0,0.9c10.7,2.7,18.5,12.5,18.5,23.8C177.4,387.4,166.3,398.5,152.7,398.5z"/>
	<path fill="#4B3B5D" d="M118.8,392.3c-1,0-5.2,0-6.2,0c-1.7,0-3.1,1.4-3.1,3.1s1.4,3.1,3.1,3.1c1,0,5.2,0,6.2,0
		c1.7,0,3.1-1.4,3.1-3.1C121.9,393.7,120.5,392.3,118.8,392.3z"/>
</g>
</svg>
