<?xml version="1.0" encoding="utf-8"?>
<!-- Generator: Adobe Illustrator 28.0.0, SVG Export Plug-In . SVG Version: 6.00 Build 0)  -->
<svg version="1.1" id="Layer_1" xmlns="http://www.w3.org/2000/svg" xmlns:xlink="http://www.w3.org/1999/xlink" x="0px" y="0px"
	 width="500px" height="500px" viewBox="0 0 500 500" enable-background="new 0 0 500 500" xml:space="preserve">
<path fill="#FFFFFF" d="M402.1,337.5v3.1h18.5v-3.1c0,0,26.2,0,33.9,0c15.3,0,27.8-12.5,27.8-27.8c0-14.4-11-26-25.1-27.5
	c0.1-1.1,0.4-2.2,0.4-3.3c0-15.3-12.5-27.8-27.8-27.8c-8.9,0-16.7,4.2-21.7,10.7c-0.9-16.3-14.2-29.3-30.7-29.3
	c-17,0-30.9,13.8-30.9,30.9c0,2.7,0.5,5.3,1.1,7.9c-4-4.8-9.9-7.9-16.5-7.9c-11,0-20,8.3-21.4,18.9c-1.1-0.1-2.2-0.4-3.3-0.4
	c-15.3,0-27.8,12.5-27.8,27.8s12.5,27.8,27.8,27.8s58.6,0,58.6,0L402.1,337.5L402.1,337.5z"/>
<path fill="#4B3B5D" d="M377.4,229.5c-18.8,0-33.9,15.2-33.9,33.9c0,0.1,0,0.2,0,0.2c-3.7-2.2-8-3.3-12.3-3.3
	c-11.4,0-21.1,7.8-23.8,18.5c-0.2,0-0.6,0-0.9,0c-17,0-30.9,13.8-30.9,30.9c0,17,13.8,30.9,30.9,30.9h95.7c1.7,0,3.1-1.4,3.1-3.1
	s-1.4-3.1-3.1-3.1h-95.7c-13.6,0-24.7-11.1-24.7-24.7s11.1-24.7,24.7-24.7c0.7,0,1.5,0.1,2.1,0.2l0.9,0.1c0.1,0,0.2,0,0.4,0
	c1.5,0,2.8-1.1,3.1-2.7c1.2-9.3,9-16.2,18.3-16.2c5.4,0,10.6,2.5,14.2,6.8c0.6,0.7,1.5,1.1,2.3,1.1c0.5,0,1-0.1,1.4-0.4
	c1.2-0.6,2-2.1,1.6-3.6c-0.7-2.7-1-4.9-1-7.2c0-15.3,12.5-27.8,27.8-27.8c14.7,0,26.8,11.6,27.7,26.3c0.1,1.2,1,2.3,2.1,2.7
	c0.2,0.1,0.6,0.1,1,0.1c1,0,1.9-0.4,2.5-1.2c4.8-6,11.9-9.5,19.4-9.5c13.6,0,24.7,11.1,24.7,24.7c0,0.7-0.1,1.4-0.2,2.1l-0.1,0.9
	c-0.1,0.9,0.1,1.6,0.6,2.3c0.5,0.6,1.2,1.1,2.1,1.1c12.7,1.2,22.2,11.7,22.2,24.4c0,13.6-11.1,24.7-24.7,24.7h-34.3
	c-1.7,0-3.1,1.4-3.1,3.1s1.4,3.1,3.1,3.1h34c17,0,30.9-13.8,30.9-30.9c0-14.8-10.4-27.3-24.7-30.1c0-0.2,0-0.5,0-0.7
	c0-17-13.8-30.9-30.9-30.9c-7.3,0-14.2,2.6-19.6,7.2C406.5,240.3,393.2,229.5,377.4,229.5L377.4,229.5z"/>
<path fill="#4B3B5D" d="M368.3,272.7c-8.6,0-16,6.2-18,14.4c-2.2-1.4-4.8-2.1-7.5-2.1c-7.4,0-13.6,5.6-14.6,12.7
	c-1.2-0.2-2.5-0.4-3.6-0.4c-9.4,0-17.4,7.4-18,16.9c-0.1,0.9,0.6,1.6,1.5,1.6h0.1c0.7,0,1.5-0.6,1.5-1.5c0.5-7.9,7.2-14,14.9-14
	c1.4,0,2.8,0.2,4.6,0.7c0.1,0,0.2,0,0.4,0c0.4,0,0.6-0.1,1-0.4c0.4-0.2,0.6-0.7,0.6-1.2c0-6.4,5.2-11.6,11.6-11.6c2.7,0,5.4,1,7.7,3
	c0.2,0.2,0.6,0.4,1,0.4c0.2,0,0.4,0,0.6-0.1c0.5-0.2,0.9-0.7,1-1.4c0.6-8,7.4-14.2,15.3-14.2c1.2,0,2.6,0.2,4.2,0.6
	c0.1,0,0.2,0,0.5,0c0.6,0,1.2-0.5,1.5-1.1c0.2-0.9-0.2-1.7-1.1-1.9C371.4,272.9,369.8,272.7,368.3,272.7L368.3,272.7z M453.9,281.9
	c-8.1,0-15.4,5.6-17.8,13.5c-0.2,0.9,0.2,1.7,1.1,1.9c0.1,0,0.2,0,0.4,0c0.6,0,1.2-0.5,1.5-1.1c1.9-6.5,7.9-11.2,14.8-11.2
	c0.7,0,1.5,0.1,2.1,0.1c0.1,0,0.1,0,0.2,0c0.7,0,1.4-0.6,1.5-1.4c0.1-0.9-0.5-1.6-1.4-1.7C455.6,282.1,454.8,281.9,453.9,281.9
	L453.9,281.9z"/>
<path fill="#F6F4FF" d="M235.8,146.6l15.3,18.1c3.6,4.2,9.5,5.7,14.6,3.6l22-9c7.3-3,15.6,1.4,17.3,9l5.1,23.2
	c1.2,5.4,5.7,9.4,11.2,10l23.6,2.2c7.9,0.7,13.2,8.4,11.1,16l-6.3,22.8c-1.5,5.3,0.7,11,5.3,14.1l19.9,13c6.7,4.3,7.8,13.6,2.3,19.4
	L361,306.2c-3.8,4.1-4.6,10.1-1.9,14.9l11.6,20.7c3.8,6.9,0.5,15.6-6.9,18.3l-22.3,7.8c-5.2,1.9-8.6,6.8-8.5,12.3l0.6,23.7
	c0.2,7.9-6.8,14.1-14.6,13l-23.5-3.5c-5.4-0.9-10.9,2-13.3,6.9l-10.5,21.2c-3.5,7-12.6,9.4-18.9,4.7l-19.1-14
	c-4.4-3.2-10.5-3.2-15.1,0l-19.3,14c-6.4,4.7-15.4,2.5-18.9-4.7l-10.5-21.2c-2.5-4.9-7.8-7.8-13.3-6.9l-23.5,3.5
	c-7.8,1.1-14.8-5.1-14.6-13l0.6-23.7c0.1-5.6-3.3-10.5-8.5-12.3l-22.3-7.8c-7.4-2.6-10.7-11.4-6.9-18.3L93,321.1
	c2.7-4.8,2-10.9-1.9-14.9L74.9,289c-5.4-5.8-4.3-15.1,2.3-19.4l19.9-13c4.7-3.1,6.8-8.6,5.3-14.1l-6.3-22.8
	c-2.1-7.7,3.2-15.3,11.1-16l23.6-2.2c5.6-0.5,10-4.6,11.2-10l5.1-23.2c1.7-7.8,10-12.1,17.3-9l22,9c5.2,2.1,11,0.6,14.6-3.6
	l15.3-18.1C221.5,140.6,230.7,140.6,235.8,146.6z"/>
<path fill="#4B3B5D" d="M260.3,453.2c-3.6,0-7-1.1-10-3.3l-19.1-14c-3-2.1-6.9-2.1-9.9,0l-19.1,14c-4.1,3-9.3,4-14.1,2.7
	c-4.9-1.2-9-4.4-11.2-9l-10.5-21.2c-1.6-3.3-5.2-5.2-8.8-4.6l-23.5,3.5c-5.1,0.7-10-0.7-13.8-4.1c-3.8-3.3-5.9-8.1-5.8-13.2
	l0.6-23.7c0.1-3.7-2.2-6.9-5.7-8.1l-22.3-7.9c-4.8-1.7-8.5-5.3-10.4-10s-1.4-10,1.1-14.3l11.6-20.7c1.9-3.2,1.4-7.2-1.2-9.9
	L72,292.1c-3.5-3.7-5.1-8.6-4.4-13.7c0.6-5.1,3.3-9.5,7.7-12.2l19.9-13c3.1-2,4.4-5.7,3.5-9.3l-6.3-22.8c-1.4-4.8-0.5-10,2.5-14.2
	s7.4-6.8,12.5-7.3l23.6-2.2c3.7-0.4,6.7-3,7.4-6.5l5.1-23.2c1.1-4.9,4.3-9.1,8.8-11.5c4.4-2.3,9.8-2.6,14.4-0.6l22,9
	c3.3,1.4,7.3,0.4,9.6-2.3l15-18.4c3.2-3.8,8-6,13.1-6s9.8,2.2,13.1,6l15.3,18.1c2.3,2.8,6.3,3.7,9.6,2.3l22-9
	c4.7-2,9.9-1.7,14.4,0.7c4.4,2.3,7.7,6.5,8.8,11.5l5.1,23.2c0.7,3.6,3.7,6.2,7.4,6.5l23.6,2.2c5.1,0.5,9.5,3.1,12.5,7.3
	c2.8,4.2,3.7,9.4,2.5,14.2l-6.3,22.8c-1,3.6,0.5,7.3,3.5,9.3l19.9,13c4.2,2.7,7,7.2,7.7,12.2c0.6,5.1-1,10-4.4,13.7l-16.2,17.3
	c-2.5,2.7-3,6.7-1.2,9.9l11.6,20.7c2.5,4.4,2.8,9.6,1.1,14.3c-1.9,4.7-5.6,8.4-10.4,10l-22.3,7.9c-3.5,1.2-5.7,4.4-5.7,8.1l0.6,23.7
	c0.1,5.1-2,9.9-5.8,13.2c-3.8,3.3-8.8,4.9-13.8,4.1l-23.5-3.5c-3.6-0.5-7.2,1.4-8.8,4.6l-10.5,21.2c-2.2,4.6-6.3,7.8-11.2,9
	C263,453.2,261.6,453.2,260.3,453.2z M226.1,425.8c3.5,0,7,1.1,10,3.3l19.1,14c2,1.5,4.6,2,7,1.4c2.5-0.6,4.4-2.2,5.6-4.4l10.5-21.2
	c3.3-6.7,10.4-10.5,17.8-9.4l23.5,3.5c2.5,0.4,4.9-0.4,6.8-2s2.8-4.1,2.8-6.5l-0.6-23.7c-0.1-7.4,4.4-14.1,11.4-16.5l22.3-7.9
	c2.3-0.9,4.2-2.6,5.1-4.9s0.7-4.9-0.5-7l-11.6-20.7c-3.6-6.5-2.7-14.6,2.5-20l16.2-17.3c1.7-1.9,2.5-4.3,2.2-6.8s-1.7-4.7-3.7-6
	l-19.9-13c-6.3-4.1-9.1-11.6-7.2-18.8l6.3-22.8c0.6-2.3,0.2-4.9-1.2-7c-1.4-2.1-3.7-3.3-6.2-3.6l-23.6-2.2
	c-7.4-0.7-13.5-6-15.1-13.3l-5.1-23.2c-0.5-2.5-2.1-4.4-4.3-5.7c-2.2-1.2-4.8-1.2-7.2-0.4l-22,9c-6.9,2.8-14.7,0.9-19.5-4.8
	l-15.3-18.1c-3.2-3.8-9.6-3.8-12.8,0L204,167.8c-4.8,5.7-12.6,7.7-19.5,4.8l-22-9c-2.3-1-4.9-0.9-7,0.4c-2.2,1.1-3.8,3.2-4.3,5.7
	l-5.1,23.2c-1.6,7.3-7.7,12.6-15.1,13.3l-23.6,2.2c-2.5,0.2-4.7,1.5-6.2,3.6s-1.9,4.6-1.2,7l6.3,22.8c2,7.2-0.9,14.7-7.2,18.8
	l-19.9,13c-2.1,1.4-3.5,3.6-3.7,6s0.5,4.9,2.2,6.8l16.2,17.3c5.1,5.4,6,13.5,2.5,20l-11.6,20.7c-1.2,2.2-1.4,4.8-0.5,7
	c0.9,2.3,2.7,4.2,5.1,4.9l22.3,7.8c7,2.5,11.6,9.1,11.4,16.5l-0.6,23.7c0,2.5,1,4.8,2.8,6.5c1.9,1.6,4.3,2.3,6.8,2l23.5-3.5
	c7.3-1.1,14.6,2.7,17.8,9.4l10.5,21.2c1.1,2.2,3.1,3.8,5.6,4.4s4.9,0.1,6.9-1.4l19.1-14C219,426.9,222.6,425.8,226.1,425.8z"/>
<g>
	<path fill="#4B3B5D" d="M338,267.4c-1.4,0-2.6-0.9-3-2.2c-0.5-1.6-1.1-3.3-1.6-4.9c-2.2-6.3-5.1-12.3-8.4-18.1
		c-0.9-1.5-0.4-3.3,1.1-4.2s3.3-0.4,4.2,1.1c3.6,6.2,6.5,12.6,8.9,19.3c0.6,1.7,1.2,3.5,1.7,5.2c0.5,1.6-0.4,3.3-2,3.8
		C338.6,267.4,338.4,267.4,338,267.4z"/>
</g>
<g>
	<path fill="#4B3B5D" d="M226.3,417.7c-66.4,0-120.4-53.8-120.4-120s53.9-120,120.4-120c34.4,0,67.3,14.8,90.1,40.5
		c1.7,2,3.3,4,4.9,6c1,1.4,0.7,3.3-0.5,4.3c-1.4,1-3.3,0.9-4.3-0.5c-1.5-2-3.1-3.8-4.7-5.7C290.1,198,259,184,226.3,184
		c-63,0-114.2,51.1-114.2,113.8s51.2,113.8,114.2,113.8s114.2-51.1,114.2-113.8c0-5.7-0.4-11.5-1.2-17c-0.2-1.7,0.9-3.2,2.6-3.5
		c1.7-0.3,3.2,0.9,3.5,2.6c0.9,5.9,1.4,12,1.4,18C346.5,363.9,292.6,417.7,226.3,417.7z"/>
</g>
<g>
	<path fill="#FFFFFF" d="M130.5,442.4c0,0,9.6,0,21.6,0s21.6-9.6,21.6-21.6c0-11-8.3-20-18.9-21.4c0.1-1.1,0.4-2.2,0.4-3.3
		c0-12-9.6-21.6-21.6-21.6c-6.4,0-12.1,2.8-15.9,7.2c-2.3-11.1-12.2-19.5-24.2-19.5c-13.6,0-24.7,11.1-24.7,24.7
		c0,1.2,0.2,2.3,0.4,3.5c-2.6-2.1-5.9-3.5-9.6-3.5c-7.5,0-13.8,5.4-15.2,12.7c-1.1-0.1-2.2-0.4-3.3-0.4c-12,0-21.6,9.6-21.6,21.6
		s9.6,21.6,21.6,21.6s46.3,0,46.3,0v3.1h43.2L130.5,442.4L130.5,442.4z"/>
	<path fill="#4B3B5D" d="M141.4,414.7c-0.9,0-1.5-0.7-1.5-1.5c0-7.5,6.2-13.7,13.7-13.7c0.2,0,4.6,0,7.7,0.9
		c0.9,0.2,1.4,1.1,1.1,1.9c-0.2,0.9-1.1,1.4-1.9,1.1c-2.7-0.7-6.8-0.7-6.9-0.7c-5.8,0-10.6,4.8-10.6,10.6
		C142.8,413.9,142.2,414.7,141.4,414.7z M99.6,439.2c-1.7,0-3.1,1.4-3.1,3.1s1.4,3.1,3.1,3.1s3.1-1.4,3.1-3.1
		C102.8,440.7,101.4,439.2,99.6,439.2z"/>
	<path fill="#4B3B5D" d="M152.2,445.5h-21.6c-1.7,0-3.1-1.4-3.1-3.1s1.4-3.1,3.1-3.1h21.6c10.2,0,18.5-8.3,18.5-18.5
		c0-9.3-6.9-17-16.2-18.3c-0.9-0.1-1.6-0.5-2.1-1.2c-0.5-0.6-0.7-1.5-0.6-2.3c0.1-1,0.2-1.9,0.2-2.8c0-10.2-8.3-18.5-18.5-18.5
		c-5.2,0-10.1,2.2-13.7,6.2c-0.7,0.9-2,1.2-3.1,0.9c-1.1-0.2-2-1.2-2.2-2.3c-2.1-9.9-11-17-21.1-17c-12,0-21.6,9.8-21.6,21.6
		c0,0.9,0.1,1.7,0.2,2.6c0.1,1.2-0.4,2.7-1.5,3.3c-1.1,0.6-2.5,0.7-3.5-0.1c-2.2-1.9-4.9-2.7-7.7-2.7c-5.9,0-11.1,4.3-12.1,10.1
		c-0.2,1.6-1.9,2.7-3.5,2.5c-1-0.1-1.9-0.2-2.8-0.2c-10.2,0-18.5,8.3-18.5,18.5s8.3,18.5,18.5,18.5h46.3c1.7,0,3.1,1.4,3.1,3.1
		s-1.4,3.1-3.1,3.1H41.1c-13.6,0-24.7-11.1-24.7-24.7s11.1-24.7,24.7-24.7c0.4,0,0.7,0,1.1,0c2.6-7.3,9.5-12.3,17.4-12.3
		c2.1,0,4.2,0.4,6.3,1.1c1-14.4,13.1-25.8,27.7-25.8c11.4,0,21.4,6.9,25.7,17.2c4.2-3.1,9.3-4.8,14.4-4.8
		c13.6,0,24.7,11.1,24.7,24.7c0,0.2,0,0.6,0,0.9c10.7,2.7,18.5,12.5,18.5,23.8C176.9,434.4,165.8,445.5,152.2,445.5z"/>
	<path fill="#4B3B5D" d="M118.2,439.2c-1,0-5.2,0-6.2,0c-1.7,0-3.1,1.4-3.1,3.1s1.4,3.1,3.1,3.1c1,0,5.2,0,6.2,0
		c1.7,0,3.1-1.4,3.1-3.1S119.9,439.2,118.2,439.2z"/>
</g>
<g>
	<path fill="#FEFDEF" d="M189.3,294.2c-15.3,0-27.8-12.5-27.8-27.8s12.5-27.8,27.8-27.8s27.8,12.5,27.8,27.8
		S204.6,294.2,189.3,294.2z M189.3,251.1c-8.5,0-15.4,6.9-15.4,15.4s6.9,15.4,15.4,15.4s15.4-6.9,15.4-15.4
		C204.7,258,197.7,251.1,189.3,251.1z"/>
	<path fill="#4B3B5D" d="M189.3,295.9c-16.2,0-29.4-13.2-29.4-29.4s13.2-29.4,29.4-29.4s29.4,13.2,29.4,29.4
		S205.3,295.9,189.3,295.9z M189.3,240.3c-14.4,0-26.2,11.7-26.2,26.2s11.7,26.2,26.2,26.2s26.2-11.7,26.2-26.2
		S203.7,240.3,189.3,240.3z M189.3,283.5c-9.4,0-17-7.7-17-17s7.7-17,17-17s17,7.7,17,17S198.5,283.5,189.3,283.5z M189.3,252.7
		c-7.7,0-13.8,6.2-13.8,13.8s6.2,13.8,13.8,13.8s13.8-6.2,13.8-13.8S196.9,252.7,189.3,252.7z"/>
</g>
<g>
	<path fill="#FEFDEF" d="M263.3,362.2c-15.3,0-27.8-12.5-27.8-27.8s12.5-27.8,27.8-27.8s27.8,12.5,27.8,27.8
		C291,349.7,278.6,362.2,263.3,362.2z M263.3,319c-8.5,0-15.4,6.9-15.4,15.4s6.9,15.4,15.4,15.4s15.4-6.9,15.4-15.4
		C278.6,325.9,271.7,319,263.3,319z"/>
	<path fill="#4B3B5D" d="M263.3,363.8c-16.2,0-29.4-13.2-29.4-29.4c0-16.2,13.2-29.4,29.4-29.4s29.4,13.2,29.4,29.4
		C292.6,350.6,279.4,363.8,263.3,363.8z M263.3,308.2c-14.4,0-26.2,11.7-26.2,26.2c0,14.4,11.7,26.2,26.2,26.2s26.2-11.7,26.2-26.2
		C289.5,320,277.8,308.2,263.3,308.2z M263.3,351.4c-9.4,0-17-7.7-17-17c0-9.4,7.7-17,17-17c9.3,0,17,7.7,17,17
		C280.4,343.8,272.6,351.4,263.3,351.4z M263.3,320.6c-7.7,0-13.8,6.3-13.8,13.8c0,7.7,6.2,13.8,13.8,13.8c7.7,0,13.8-6.2,13.8-13.8
		C277.2,326.8,271,320.6,263.3,320.6z"/>
</g>
<g>
	<path fill="#FEFDEF" d="M174.5,359.5c-1.6,0-3.2-0.6-4.3-1.9c-2.5-2.5-2.5-6.3,0-8.8l103.2-103.2c2.5-2.5,6.3-2.5,8.8,0
		s2.5,6.3,0,8.8L178.9,357.6C177.7,358.9,176.1,359.5,174.5,359.5z"/>
	<path fill="#4B3B5D" d="M174.5,361.1c-2.1,0-4-0.7-5.4-2.2c-3-3-3-7.9,0-10.9l103.2-103.2c3-3,7.9-3,10.9,0s3,7.9,0,10.9
		L179.9,358.9C178.5,360.2,176.5,361.1,174.5,361.1z M277.7,245.4c-1.2,0-2.3,0.5-3.2,1.4L171.2,350c-1.9,1.9-1.9,4.7,0,6.5
		c1.7,1.7,4.8,1.7,6.5,0l103.2-103.2c1.9-1.9,1.9-4.7,0-6.5C280.1,245.9,278.9,245.4,277.7,245.4z"/>
</g>
</svg>
