<?xml version="1.0" encoding="utf-8"?>
<!-- Generator: Adobe Illustrator 28.0.0, SVG Export Plug-In . SVG Version: 6.00 Build 0)  -->
<svg version="1.1" id="Layer_1" xmlns="http://www.w3.org/2000/svg" xmlns:xlink="http://www.w3.org/1999/xlink" x="0px" y="0px"
	 width="500px" height="500px" viewBox="0 0 500 500" style="enable-background:new 0 0 500 500;" xml:space="preserve">
<style type="text/css">
	.st0{fill:#FFFFFF;}
	.st1{fill:#472B29;}
	.st2{fill:#F6F4FF;}
	.st3{fill:#FBE9FF;}
	.st4{fill:#9A7CC1;}
	.st5{fill:#E0CAE5;}
</style>
<path class="st0" d="M334.9,318c0,0-18.2,0-30.6,0c-12.4,0-22.5-10.1-22.5-22.5c0-11.7,8.9-21.1,20.3-22.3c-0.1-0.9-0.3-1.8-0.3-2.7
	c0-12.4,10.1-22.5,22.5-22.5c7.2,0,13.5,3.4,17.6,8.7c0.7-13.2,11.5-23.7,24.9-23.7c13.8,0,25,11.2,25,25c0,2.2-0.4,4.4-0.9,6.4
	c3.2-3.9,8-6.4,13.4-6.4c8.9,0,16.2,6.7,17.3,15.3c0.9-0.1,1.8-0.3,2.7-0.3c12.4,0,22.5,10.1,22.5,22.5c0,12.4-10.1,22.5-22.5,22.5
	c-12.4,0-47.5,0-47.5,0h-26.9v2.5h-15V318z"/>
<path class="st1" d="M366.7,230.5c15.2,0,27.5,12.3,27.5,27.5c0,0.1,0,0.2,0,0.2c3-1.8,6.5-2.7,10-2.7c9.2,0,17.1,6.3,19.3,15
	c0.2,0,0.5,0,0.7,0c13.8,0,25,11.2,25,25c0,13.8-11.2,25-25,25h-74.4c-1.4,0-2.5-1.1-2.5-2.5s1.1-2.5,2.5-2.5h74.4c11,0,20-9,20-20
	c0-11-9-20-20-20c-0.6,0-1.2,0.1-1.7,0.2l-0.7,0.1c-0.1,0-0.2,0-0.3,0c-1.2,0-2.3-0.9-2.5-2.2c-1-7.5-7.3-13.1-14.8-13.1
	c-4.4,0-8.6,2-11.5,5.5c-0.5,0.6-1.2,0.9-1.9,0.9c-0.4,0-0.8-0.1-1.1-0.3c-1-0.5-1.6-1.7-1.3-2.9c0.6-2.2,0.8-4,0.8-5.8
	c0-12.4-10.1-22.5-22.5-22.5c-11.9,0-21.7,9.4-22.4,21.3c-0.1,1-0.8,1.9-1.7,2.3c-0.2,0.1-0.5,0.1-0.8,0.1c-0.8,0-1.5-0.3-2-1
	c-3.9-4.9-9.6-7.7-15.7-7.7c-11,0-20,9-20,20c0,0.6,0.1,1.2,0.2,1.7l0.1,0.7c0.1,0.7-0.1,1.3-0.5,1.9c-0.4,0.5-1,0.9-1.7,0.9
	c-10.3,1-18,9.5-18,19.8c0,11,9,20,20,20h30.6c1.4,0,2.5,1.1,2.5,2.5s-1.1,2.5-2.5,2.5h-30.6c-13.8,0-25-11.2-25-25
	c0-12,8.4-22.1,20-24.4c0-0.2,0-0.4,0-0.6c0-13.8,11.2-25,25-25c5.9,0,11.5,2.1,15.9,5.8C343.1,239.3,354,230.5,366.7,230.5
	L366.7,230.5z"/>
<path class="st2" d="M185,452c-12.3,0-22.3-9.8-22.3-21.9V250.9c0-12.1,10-21.9,22.3-21.9h93.1l57.7,56.9v144.2
	c0,12.1-10,21.9-22.3,21.9H185z"/>
<path class="st1" d="M276.6,232.5l20.8,20.5l34.8,34.4v142.7c0,10.2-8.4,18.4-18.8,18.4H185c-10.3,0-18.8-8.3-18.8-18.4V250.9
	c0-10.2,8.4-18.4,18.8-18.4h3.7h8.4H224H276.6 M279.5,225.5H224h-26.9h-8.4H185c-14.2,0-25.8,11.4-25.8,25.4v179.2
	c0,14,11.6,25.4,25.8,25.4h128.5c14.2,0,25.8-11.4,25.8-25.4V284.5h0C316,261.5,302.7,248.4,279.5,225.5L279.5,225.5z"/>
<path class="st3" d="M276.7,231.1v33.1c0,13.1,10,23.8,22.1,23.8h36L276.7,231.1z"/>
<path class="st1" d="M334.9,290.5h-36c-13.6,0-24.6-11.8-24.6-26.3v-33.1h5v33.1c0,11.7,8.8,21.3,19.6,21.3h36V290.5z M309.7,440.5
	H188.8c-8,0-14.6-6.4-14.6-14.3V257.2c0-7.9,6.5-14.2,14.5-14.2h8c1.4,0,2.5,1.1,2.5,2.5s-1.1,2.5-2.5,2.5h-8
	c-5.2,0-9.5,4.1-9.5,9.2v168.9c0,5.1,4.3,9.3,9.6,9.3h120.9c5.2,0,9.5-4.1,9.5-9.2v-69.3c0-1.4,1.1-2.5,2.5-2.5s2.5,1.1,2.5,2.5
	v69.3C324.2,434.1,317.7,440.5,309.7,440.5z M321.7,345.5c-1.4,0-2.5-1.1-2.5-2.5v-20c0-1.4,1.1-2.5,2.5-2.5s2.5,1.1,2.5,2.5v20
	C324.2,344.4,323.1,345.5,321.7,345.5z M321.7,315.5c-1.4,0-2.5-1.1-2.5-2.5v-15c0-1.4,1.1-2.5,2.5-2.5s2.5,1.1,2.5,2.5v15
	C324.2,314.4,323.1,315.5,321.7,315.5z"/>
<path class="st0" d="M181.7,473c0,0,7.8,0,17.5,0s17.5-7.8,17.5-17.5c0-8.9-6.7-16.2-15.3-17.3c0.1-0.9,0.3-1.8,0.3-2.7
	c0-9.7-7.8-17.5-17.5-17.5c-5.2,0-9.8,2.3-12.9,5.8c-1.9-9-9.9-15.8-19.6-15.8c-11,0-20,9-20,20c0,1,0.2,1.9,0.3,2.8
	c-2.1-1.7-4.8-2.8-7.8-2.8c-6.1,0-11.2,4.4-12.3,10.3c-0.9-0.1-1.8-0.3-2.7-0.3c-9.7,0-17.5,7.8-17.5,17.5c0,9.7,7.8,17.5,17.5,17.5
	s37.5,0,37.5,0v2.5h35V473z"/>
<path class="st1" d="M190.5,450.5c-0.7,0-1.2-0.6-1.2-1.2c0-6.1,5-11.1,11.1-11.1c0.2,0,3.7,0,6.2,0.7c0.7,0.2,1.1,0.9,0.9,1.5
	c-0.2,0.7-0.9,1.1-1.5,0.9c-2.2-0.6-5.5-0.6-5.6-0.6c-4.7,0-8.6,3.9-8.6,8.6C191.7,449.9,191.2,450.5,190.5,450.5z"/>
<path class="st1" d="M156.7,470.5c-1.4,0-2.5,1.1-2.5,2.5s1.1,2.5,2.5,2.5s2.5-1.1,2.5-2.5S158.1,470.5,156.7,470.5z"/>
<path class="st1" d="M199.2,475.5h-17.5c-1.4,0-2.5-1.1-2.5-2.5s1.1-2.5,2.5-2.5h17.5c8.3,0,15-6.7,15-15c0-7.5-5.6-13.8-13.1-14.8
	c-0.7-0.1-1.3-0.4-1.7-1c-0.4-0.5-0.6-1.2-0.5-1.9c0.1-0.8,0.2-1.5,0.2-2.3c0-8.3-6.7-15-15-15c-4.2,0-8.2,1.8-11.1,5
	c-0.6,0.7-1.6,1-2.5,0.7c-0.9-0.2-1.6-1-1.8-1.9c-1.7-8-8.9-13.8-17.1-13.8c-9.6,0-17.5,7.9-17.5,17.5c0,0.7,0.1,1.4,0.2,2.1
	c0.1,1-0.3,2.2-1.2,2.7c-0.9,0.5-2,0.6-2.8-0.1c-1.8-1.5-4-2.2-6.2-2.2c-4.8,0-9,3.5-9.8,8.2c-0.2,1.3-1.5,2.2-2.8,2
	c-0.8-0.1-1.5-0.2-2.3-0.2c-8.3,0-15,6.7-15,15c0,8.3,6.7,15,15,15h37.5c1.4,0,2.5,1.1,2.5,2.5s-1.1,2.5-2.5,2.5h-37.5
	c-11,0-20-9-20-20c0-11,9-20,20-20c0.3,0,0.6,0,0.9,0c2.1-5.9,7.7-10,14.1-10c1.7,0,3.4,0.3,5.1,0.9c0.8-11.7,10.6-20.9,22.4-20.9
	c9.2,0,17.3,5.6,20.8,13.9c3.4-2.5,7.5-3.9,11.7-3.9c11,0,20,9,20,20c0,0.2,0,0.5,0,0.7c8.7,2.2,15,10.1,15,19.3
	C219.2,466.5,210.3,475.5,199.2,475.5z"/>
<path class="st1" d="M171.7,470.5c-0.8,0-4.2,0-5,0c-1.4,0-2.5,1.1-2.5,2.5s1.1,2.5,2.5,2.5c0.8,0,4.2,0,5,0c1.4,0,2.5-1.1,2.5-2.5
	S173.1,470.5,171.7,470.5z"/>
<circle class="st4" cx="249.2" cy="345.5" r="43.8"/>
<path class="st3" d="M249.2,302.3v43.2h43.2C292.5,321.6,273.1,302.3,249.2,302.3z"/>
<path class="st5" d="M249.2,345.5l30.6,30.6c8.4-8.4,12.7-19.5,12.7-30.6H249.2z"/>
<path class="st1" d="M249.2,390.5c-24.8,0-45-20.2-45-45c0-24.8,20.2-45,45-45s45,20.2,45,45C294.2,370.3,274.1,390.5,249.2,390.5z
	 M249.2,303c-23.4,0-42.5,19.1-42.5,42.5c0,23.4,19.1,42.5,42.5,42.5s42.5-19.1,42.5-42.5C291.7,322.1,272.7,303,249.2,303z"/>
<rect x="249.2" y="344.2" class="st1" width="43.8" height="2.5"/>
<path class="st1" d="M279.3,377.3l-30.9-30.9c-0.2-0.2-0.4-0.6-0.4-0.9v-43.8h2.5V345l30.6,30.6L279.3,377.3z"/>
</svg>
