<?xml version="1.0" encoding="utf-8"?>
<!-- Generator: Adobe Illustrator 28.0.0, SVG Export Plug-In . SVG Version: 6.00 Build 0)  -->
<svg version="1.1" id="Layer_1" xmlns="http://www.w3.org/2000/svg" xmlns:xlink="http://www.w3.org/1999/xlink" x="0px" y="0px"
	 width="500px" height="500px" viewBox="0 0 500 500" enable-background="new 0 0 500 500" xml:space="preserve">
<g>
	<path fill="#FFFFFF" d="M158.1,240.3c0,0,22.2,0,37.3,0s27.5-12.3,27.5-27.5c0-14.3-10.9-25.7-24.8-27.2c0.1-1.1,0.4-2.2,0.4-3.3
		c0-15.1-12.3-27.5-27.5-27.5c-8.8,0-16.5,4.1-21.5,10.6c-0.9-16.1-14-28.9-30.4-28.9c-16.8,0-30.5,13.7-30.5,30.5
		c0,2.7,0.5,5.4,1.1,7.8c-3.9-4.8-9.8-7.8-16.4-7.8c-10.9,0-19.8,8.2-21.1,18.7c-1.1-0.1-2.2-0.4-3.3-0.4
		c-15.1,0-27.5,12.3-27.5,27.5s12.3,27.5,27.5,27.5s58,0,58,0h32.8v3.1h18.3V240.3z"/>
	<path fill="#4B3B5D" d="M119.2,133.5c-18.5,0-33.6,15-33.6,33.6c0,0.1,0,0.2,0,0.2c-3.7-2.2-7.9-3.3-12.2-3.3
		c-11.2,0-20.9,7.7-23.6,18.3c-0.2,0-0.6,0-0.9,0c-16.8,0-30.5,13.7-30.5,30.5s13.7,30.5,30.5,30.5h90.8c1.7,0,3.1-1.3,3.1-3.1
		s-1.3-3.1-3.1-3.1H49c-13.4,0-24.4-11-24.4-24.4s11-24.4,24.4-24.4c0.7,0,1.3,0.1,2.1,0.2l0.9,0.1c0.1,0,0.2,0,0.4,0
		c1.5,0,2.8-1.1,3.1-2.7c1.2-9.2,8.9-16,18.1-16c5.4,0,10.5,2.4,14,6.7c0.6,0.7,1.5,1.1,2.3,1.1c0.5,0,1-0.1,1.3-0.4
		c1.2-0.6,2-2.1,1.6-3.5c-0.7-2.7-1-4.9-1-7.1c0-15.1,12.3-27.5,27.5-27.5c14.5,0,26.5,11.5,27.3,26c0.1,1.2,1,2.3,2.1,2.7
		c0.2,0.1,0.6,0.1,1,0.1c1,0,1.8-0.4,2.4-1.2c4.8-6,11.7-9.4,19.2-9.4c13.4,0,24.4,11,24.4,24.4c0,0.7-0.1,1.3-0.2,2.1l-0.1,0.9
		c-0.1,0.9,0.1,1.6,0.6,2.3c0.5,0.7,1.2,1.1,2.1,1.1c12.6,1.2,22,11.6,22,24.2c0,13.4-11,24.4-24.4,24.4h-37.3
		c-1.7,0-3.1,1.3-3.1,3.1s1.3,3.1,3.1,3.1h37.3c16.8,0,30.5-13.7,30.5-30.5c0-14.6-10.3-27-24.4-29.8c0-0.2,0-0.5,0-0.7
		c0-16.8-13.7-30.5-30.5-30.5c-7.2,0-14,2.6-19.4,7.1C148,144.3,134.7,133.5,119.2,133.5L119.2,133.5z"/>
	<path fill="#4B3B5D" d="M110,176.2c-8.5,0-15.9,6.1-17.8,14.3c-2.2-1.3-4.8-2.1-7.4-2.1c-7.3,0-13.4,5.5-14.4,12.6
		c-1.2-0.2-2.4-0.4-3.5-0.4c-9.3,0-17.2,7.3-17.8,16.7c0,0.9,0.6,1.6,1.5,1.6h0.1c0.9,0,1.5-0.6,1.5-1.5c0.5-7.8,7.1-13.8,14.8-13.8
		c1.3,0,2.8,0.2,4.5,0.7c0.1,0,0.2,0,0.4,0c0.4,0,0.7-0.1,1-0.4c0.4-0.2,0.6-0.7,0.6-1.2c0-6.3,5.1-11.5,11.5-11.5
		c2.7,0,5.4,1,7.6,2.9c0.2,0.2,0.6,0.4,1,0.4c0.2,0,0.4,0,0.6-0.1c0.5-0.2,0.9-0.7,1-1.3c0.6-7.9,7.3-14,15.1-14
		c1.2,0,2.6,0.2,4.1,0.6c0.1,0,0.2,0.1,0.5,0.1c0.6,0,1.2-0.5,1.5-1.1c0.2-0.9-0.2-1.7-1.1-1.8C113.2,176.5,111.6,176.2,110,176.2
		L110,176.2z"/>
	<path fill="#4B3B5D" d="M194.7,185.4c-8.1,0-15.3,5.5-17.6,13.3c-0.2,0.9,0.2,1.7,1.1,1.8c0.1,0,0.2,0,0.4,0c0.6,0,1.2-0.5,1.5-1.1
		c1.8-6.6,7.8-11.1,14.6-11.1c0.7,0,1.5,0.1,2.1,0.1c0.1,0,0.1,0,0.2,0c0.7,0,1.3-0.6,1.5-1.3c0.1-0.9-0.5-1.6-1.3-1.7
		C196.4,185.5,195.6,185.4,194.7,185.4L194.7,185.4z"/>
</g>
<g>
	<path fill="#F6F4FF" d="M103.7,428.2c-7.2,0-13.1-5.9-13.1-13.1V351c13.8-2.1,24.4-14,24.4-28.3c0-14.4-10.6-26.2-24.4-28.3v-58.1
		c0-7.2,5.9-13.1,13.1-13.1H423c7.2,0,13.1,5.9,13.1,13.1v58.1c-13.8,2.1-24.4,14-24.4,28.3c0,14.4,10.6,26.2,24.4,28.3v64.2
		c0,7.2-5.9,13.1-13.1,13.1L103.7,428.2L103.7,428.2z"/>
	<path fill="#4B3B5D" d="M422.9,227.5c4.9,0,8.8,3.9,8.8,8.8V291c-14,3.8-24.4,16.6-24.4,31.9c0,15.3,10.4,28.1,24.4,31.9v60.8
		c0,4.9-3.9,8.8-8.8,8.8H103.7c-4.9,0-8.8-3.9-8.8-8.8v-60.8c14-3.8,24.4-16.6,24.4-31.9c0-15.3-10.4-28.1-24.4-31.9v-54.7
		c0-4.9,3.9-8.8,8.8-8.8H422.9 M422.9,218.9H103.7c-9.5,0-17.3,7.7-17.3,17.3v62c13.4,0,24.4,11,24.4,24.4s-11,24.4-24.4,24.4v68.1
		c0,9.5,7.7,17.3,17.3,17.3H423c9.5,0,17.3-7.7,17.3-17.3v-68.1c-13.4,0-24.4-11-24.4-24.4s11-24.4,24.4-24.4v-62
		C440.3,226.6,432.6,218.9,422.9,218.9L422.9,218.9z"/>
	<circle fill="#4B3B5D" cx="385.3" cy="261.7" r="6.1"/>
	<circle fill="#4B3B5D" cx="385.3" cy="237.3" r="6.1"/>
	<circle fill="#4B3B5D" cx="385.3" cy="286.1" r="6.1"/>
	<circle fill="#4B3B5D" cx="385.3" cy="310.5" r="6.1"/>
	<circle fill="#4B3B5D" cx="385.3" cy="334.9" r="6.1"/>
	<circle fill="#4B3B5D" cx="385.3" cy="359.3" r="6.1"/>
	<circle fill="#4B3B5D" cx="385.3" cy="383.7" r="6.1"/>
	<circle fill="#4B3B5D" cx="385.3" cy="408.1" r="6.1"/>
	<path fill="#4B3B5D" d="M364.1,248h-83.5c-0.9,0-1.5-0.7-1.5-1.5c0-0.7,0.7-1.5,1.5-1.5h83.5c0.9,0,1.5,0.7,1.5,1.5
		C365.6,247.3,365,248,364.1,248z"/>
	<path fill="#4B3B5D" d="M256.7,248h-62.5c-0.9,0-1.5-0.7-1.5-1.5c0-0.7,0.7-1.5,1.5-1.5h62.5c0.9,0,1.5,0.7,1.5,1.5
		C258.2,247.3,257.6,248,256.7,248z"/>
	<path fill="#4B3B5D" d="M174.8,248h-61c-0.9,0-1.5-0.7-1.5-1.5c0-0.7,0.7-1.5,1.5-1.5h61c0.9,0,1.5,0.7,1.5,1.5
		C176.3,247.3,175.7,248,174.8,248z"/>
	<path fill="#4B3B5D" d="M113.8,286.1c-0.9,0-1.5-0.7-1.5-1.5v-38.1c0-0.9,0.7-1.5,1.5-1.5s1.5,0.7,1.5,1.5v38.1
		C115.4,285.3,114.7,286.1,113.8,286.1z"/>
	<path fill="#4B3B5D" d="M364,284.6c-0.9,0-1.5-0.7-1.5-1.5v-36.6c0-0.9,0.7-1.5,1.5-1.5c0.7,0,1.5,0.7,1.5,1.5v36.6
		C365.6,283.9,364.8,284.6,364,284.6z"/>
	<path fill="#4B3B5D" d="M364,406.5c-0.9,0-1.5-0.7-1.5-1.5v-97.4c0-0.9,0.7-1.5,1.5-1.5c0.7,0,1.5,0.7,1.5,1.5v97.4
		C365.6,405.8,364.8,406.5,364,406.5z"/>
	<path fill="#4B3B5D" d="M113.8,406.9c-0.9,0-1.5-0.7-1.5-1.5v-38.1c0-0.9,0.7-1.5,1.5-1.5s1.5,0.7,1.5,1.5v38.1
		C115.4,406.2,114.7,406.9,113.8,406.9z"/>
	<path fill="#4B3B5D" d="M364,406.6h-35.6c-0.9,0-1.5-0.7-1.5-1.5c0-0.7,0.7-1.5,1.5-1.5H364c0.9,0,1.5,0.7,1.5,1.5
		C365.4,405.9,364.8,406.6,364,406.6z"/>
	<path fill="#4B3B5D" d="M308.6,406.6h-47.3c-0.9,0-1.5-0.7-1.5-1.5c0-0.7,0.7-1.5,1.5-1.5h47.3c0.9,0,1.5,0.7,1.5,1.5
		C310,405.9,309.4,406.6,308.6,406.6z"/>
	<g>
		<path fill="#4B3B5D" d="M243.5,406.6H113.8c-0.9,0-1.5-0.7-1.5-1.5c0-0.7,0.7-1.5,1.5-1.5h129.6c0.9,0,1.5,0.7,1.5,1.5
			C244.9,405.9,244.3,406.6,243.5,406.6z"/>
	</g>
	<g>
		<path fill="#4B3B5D" d="M327.4,286.1H218.3c-1.7,0-3.1-1.3-3.1-3.1s1.3-3.1,3.1-3.1h109.1c1.7,0,3.1,1.3,3.1,3.1
			S329.1,286.1,327.4,286.1z"/>
	</g>
	<g>
		<path fill="#4B3B5D" d="M198.1,286.1h-41.6c-1.7,0-3.1-1.3-3.1-3.1s1.3-3.1,3.1-3.1h41.6c1.7,0,3.1,1.3,3.1,3.1
			S199.7,286.1,198.1,286.1z"/>
	</g>
	<g>
		<path fill="#4B3B5D" d="M327.4,316.6H290c-1.7,0-3.1-1.3-3.1-3.1c0-1.7,1.3-3.1,3.1-3.1h37.3c1.7,0,3.1,1.3,3.1,3.1
			C330.4,315.2,329.1,316.6,327.4,316.6z"/>
	</g>
	<g>
		<path fill="#4B3B5D" d="M270.1,316.6H156.5c-1.7,0-3.1-1.3-3.1-3.1c0-1.7,1.3-3.1,3.1-3.1h113.6c1.7,0,3.1,1.3,3.1,3.1
			C273.2,315.2,271.8,316.6,270.1,316.6z"/>
	</g>
	<g>
		<path fill="#4B3B5D" d="M270.1,371.5H156.5c-1.7,0-3.1-1.3-3.1-3.1c0-1.7,1.3-3.1,3.1-3.1h113.6c1.7,0,3.1,1.3,3.1,3.1
			C273.2,370.2,271.8,371.5,270.1,371.5z"/>
	</g>
	<g>
		<path fill="#4B3B5D" d="M327.4,347.1h-81.6c-1.7,0-3.1-1.3-3.1-3.1c0-1.7,1.3-3.1,3.1-3.1h81.6c1.7,0,3.1,1.3,3.1,3.1
			C330.4,345.7,329.1,347.1,327.4,347.1z"/>
	</g>
	<g>
		<path fill="#4B3B5D" d="M225.6,347.1h-69.1c-1.7,0-3.1-1.3-3.1-3.1c0-1.7,1.3-3.1,3.1-3.1h69.1c1.7,0,3.1,1.3,3.1,3.1
			C228.6,345.7,227.2,347.1,225.6,347.1z"/>
	</g>
</g>
<g>
	<path fill="#FFFFFF" d="M435.6,441.7c0,0,9.5,0,21.4,0c11.8,0,21.4-9.5,21.4-21.4c0-10.9-8.2-19.8-18.7-21.1
		c0.1-1.1,0.4-2.2,0.4-3.3c0-11.8-9.5-21.4-21.4-21.4c-6.3,0-12,2.8-15.7,7.1c-2.3-11-12.1-19.3-23.9-19.3
		c-13.4,0-24.4,11-24.4,24.4c0,1.2,0.1,2.3,0.4,3.4c-2.6-2.1-5.9-3.4-9.5-3.4c-7.4,0-13.7,5.4-15,12.6c-1.1-0.1-2.2-0.4-3.3-0.4
		c-11.8,0-21.4,9.5-21.4,21.4c0,11.8,9.5,21.4,21.4,21.4c11.8,0,45.8,0,45.8,0v3.1h42.7V441.7z"/>
	<path fill="#4B3B5D" d="M446.4,414.2c-0.9,0-1.5-0.7-1.5-1.5c0-7.4,6.1-13.5,13.5-13.5c0.2,0,4.5,0,7.6,0.9
		c0.9,0.2,1.3,1.1,1.1,1.8c-0.2,0.9-1.1,1.3-1.8,1.1c-2.7-0.7-6.7-0.7-6.8-0.7c-5.7,0-10.5,4.8-10.5,10.5
		C447.8,413.5,447.2,414.2,446.4,414.2z"/>
	<circle fill="#4B3B5D" cx="405.1" cy="441.7" r="3.1"/>
	<path fill="#4B3B5D" d="M457.1,444.7h-21.4c-1.7,0-3.1-1.3-3.1-3.1c0-1.7,1.3-3.1,3.1-3.1h21.4c10.1,0,18.3-8.2,18.3-18.3
		c0-9.2-6.8-16.8-16-18.1c-0.9-0.1-1.6-0.5-2.1-1.2c-0.5-0.6-0.7-1.5-0.6-2.3c0.1-1,0.2-1.8,0.2-2.8c0-10.1-8.2-18.3-18.3-18.3
		c-5.1,0-10,2.2-13.5,6.1c-0.7,0.9-2,1.2-3.1,0.9c-1.1-0.2-2-1.2-2.2-2.3c-2.1-9.8-10.9-16.8-20.9-16.8c-11.7,0-21.4,9.6-21.4,21.4
		c0,0.9,0.1,1.7,0.2,2.6c0.1,1.2-0.4,2.7-1.5,3.3c-1.1,0.6-2.4,0.7-3.4,0c-2.2-1.8-4.9-2.7-7.6-2.7c-5.9,0-11,4.3-12,10
		c-0.2,1.6-1.8,2.7-3.4,2.4c-1-0.1-1.8-0.2-2.8-0.2c-10.1,0-18.3,8.2-18.3,18.3s8.2,18.3,18.3,18.3H393c1.7,0,3.1,1.3,3.1,3.1
		c0,1.7-1.3,3.1-3.1,3.1h-45.8c-13.4,0-24.4-11-24.4-24.4s11-24.4,24.4-24.4c0.4,0,0.7,0,1.1,0c2.6-7.2,9.4-12.2,17.2-12.2
		c2.1,0,4.1,0.4,6.2,1.1c1-14.3,12.9-25.5,27.3-25.5c11.2,0,21.1,6.8,25.4,17c4.1-3.1,9.2-4.8,14.3-4.8c13.4,0,24.4,11,24.4,24.4
		c0,0.2,0,0.6,0,0.9c10.6,2.7,18.3,12.3,18.3,23.6C481.5,433.7,470.5,444.7,457.1,444.7z"/>
	<path fill="#4B3B5D" d="M423.4,438.6c-1,0-5.1,0-6.1,0c-1.7,0-3.1,1.3-3.1,3.1c0,1.7,1.3,3.1,3.1,3.1c1,0,5.1,0,6.1,0
		c1.7,0,3.1-1.3,3.1-3.1C426.5,440,425.1,438.6,423.4,438.6z"/>
</g>
</svg>
