
<svg version="1.2" xmlns="http://www.w3.org/2000/svg" viewBox="0 0 500 500" width="500" height="500">
    <style>
        .s0 { fill: #ffffff }
        .s1 { fill: #4c3b5d }
        .s2 { fill: #fdfcef }
        .s3 { fill: #472b29 }
        .s4 { fill: #f6f4ff }
        .s5 { fill: #f0edfc }
        .s6 { fill: #fbf5ff }
        .s7 { fill: #fdfcee }
    </style>
    <path class="s0" d="m356.69 247.12c0 0 58.45 0 58.81 0 13.5 0 24.44-10.95 24.44-24.45 0-11.77-8.33-21.61-19.42-23.92q0.2-1.54 0.21-3.14c0-13.98-11.33-25.32-25.31-25.32-8.26 0-15.57 3.97-20.19 10.09-1.18-15.57-15.08-27.57-31.35-25.58-11.89 1.45-21.73 10.65-23.92 22.43-0.7 3.78-0.63 7.44 0.07 10.88-3.19-3.43-7.73-5.59-12.78-5.59-9.25 0-16.81 7.2-17.4 16.3-4.2-0.92-8.77-0.86-13.59 0.95-9.2 3.45-15.75 12.11-16.13 21.93-0.55 13.95 10.6 25.43 24.42 25.43 1.05 0 4.74 0 5.59 0h50.76"/>
    <path class="s1" d="m415.5 249.62h-58.81c-1.38 0-2.5-1.12-2.5-2.5 0-1.39 1.12-2.5 2.5-2.5h58.81c12.1 0 21.94-9.85 21.94-21.95 0-10.33-7.33-19.36-17.43-21.48-1.27-0.26-2.13-1.46-1.97-2.76q0.18-1.39 0.19-2.82c0-12.59-10.23-22.82-22.81-22.82-7.19 0-13.82 3.32-18.19 9.09-0.62 0.83-1.69 1.19-2.7 0.89-0.99-0.29-1.71-1.17-1.78-2.2-0.52-6.89-3.9-13.36-9.25-17.75-5.42-4.44-12.28-6.41-19.3-5.54-10.83 1.33-19.78 9.71-21.77 20.4-0.62 3.34-0.6 6.68 0.07 9.93 0.22 1.1-0.31 2.21-1.31 2.72-1 0.52-2.21 0.3-2.97-0.52-2.88-3.09-6.77-4.79-10.96-4.79-7.84 0-14.38 6.14-14.9 13.97-0.05 0.73-0.41 1.39-0.99 1.83-0.59 0.44-1.34 0.6-2.05 0.44-4.2-0.92-8.18-0.66-12.16 0.84-8.34 3.13-14.17 11.04-14.51 19.69-0.24 6.03 1.93 11.75 6.1 16.09 4.18 4.34 9.8 6.74 15.82 6.74h56.35c1.38 0 2.5 1.12 2.5 2.5 0 1.38-1.12 2.5-2.5 2.5h-56.36c-7.39 0-14.29-2.94-19.42-8.27-5.13-5.33-7.79-12.35-7.5-19.75 0.42-10.63 7.55-20.35 17.75-24.18 4-1.5 8.13-1.99 12.34-1.49 1.88-9.11 9.99-15.91 19.52-15.91 3.42 0 6.77 0.9 9.72 2.55q0-2.89 0.53-5.8c2.39-12.81 13.11-22.86 26.08-24.45 8.39-1.03 16.6 1.33 23.08 6.64 5.01 4.11 8.58 9.75 10.19 15.96 5.06-4.58 11.59-7.13 18.57-7.13 15.33 0 27.81 12.48 27.81 27.82q0 0.62-0.04 1.24c11.27 3.36 19.24 13.88 19.24 25.82 0.01 14.86-12.07 26.95-26.93 26.95z"/>
    <path class="s2" d="m342.52 193.28c-9.04-0.6-16.82 5.65-17.38 13.94q-0.1 1.55 0.13 3.03c-1.75-1.97-4.33-3.3-7.29-3.5-5.43-0.35-10.11 3.23-10.79 8.1q-1.48-0.41-3.08-0.52c-7.91-0.52-14.72 4.94-15.21 12.21"/>
    <path class="s3" d="m288.9 227.78q-0.05 0-0.08 0c-0.69-0.05-1.21-0.65-1.17-1.34 0.54-7.93 7.94-13.94 16.54-13.36q1.03 0.06 2.05 0.26c1.37-4.84 6.28-8.23 11.83-7.84 2.12 0.14 4.11 0.8 5.82 1.91q0-0.13 0.01-0.28c0.6-8.97 8.94-15.8 18.71-15.1 0.69 0.04 1.21 0.64 1.17 1.33-0.05 0.69-0.62 1.27-1.33 1.16-8.26-0.52-15.55 5.18-16.05 12.79q-0.09 1.38 0.11 2.76c0.09 0.54-0.2 1.08-0.7 1.32-0.51 0.23-1.1 0.11-1.47-0.31-1.61-1.82-3.9-2.92-6.44-3.08-4.75-0.17-8.87 2.78-9.46 7.02-0.05 0.35-0.25 0.68-0.55 0.88-0.3 0.19-0.67 0.25-1.02 0.16q-1.41-0.39-2.84-0.49c-7.2-0.46-13.43 4.48-13.88 11.05-0.05 0.65-0.6 1.16-1.25 1.16z"/>
    <path class="s2" d="m425.39 201.62c-8.49-4.01-18.32-1.18-21.94 6.33q-0.68 1.4-1 2.87"/>
    <path class="s1" d="m402.45 212.07q-0.14 0-0.28-0.03c-0.67-0.15-1.1-0.82-0.94-1.5q0.37-1.63 1.09-3.13c3.92-8.11 14.51-11.2 23.61-6.93 0.62 0.3 0.89 1.04 0.6 1.67-0.3 0.63-1.05 0.88-1.67 0.6-7.87-3.72-16.97-1.14-20.29 5.74q-0.6 1.24-0.91 2.61c-0.13 0.58-0.65 0.97-1.21 0.97z"/>
    <path class="s4" d="m164.47 356.5v-169.64h180.05c6.61 0 11.98 5.37 11.98 11.98v157.66z"/>
    <path class="s1" d="m344.52 183.37h-183.56v176.63h199.04v-161.16c0-8.55-6.93-15.47-15.48-15.47zm0 7c4.68 0 8.48 3.8 8.48 8.47v154.16h-185.04v-162.63z"/>
    <path class="s5" d="m163.54 232.02h190.19v-33.45c0-5.04-4.09-9.12-9.13-9.12h-181.06z"/>
    <path class="s3" d="m340 250h-20v20h20zm-2.5 2.5v15h-15v-15z"/>
    <path class="s3" d="m305 250h-20v20h20zm-2.5 2.5v15h-15v-15z"/>
    <path class="s3" d="m270 250h-20v20h20zm-2.5 2.5v15h-15v-15z"/>
    <path class="s3" d="m235 250h-20v20h20zm-2.5 2.5v15h-15v-15z"/>
    <path class="s3" d="m200 250h-20v20h20zm-2.5 2.5v15h-15v-15z"/>
    <path class="s3" d="m340 285h-20v20h20zm-2.5 2.5v15h-15v-15z"/>
    <path class="s3" d="m305 285h-20v20h20zm-2.5 2.5v15h-15v-15z"/>
    <path class="s3" d="m270 285h-20v20h20zm-2.5 2.5v15h-15v-15z"/>
    <g>
        <path class="s3" d="m235 285h-20v20h20zm-2.5 2.5v15h-15v-15z"/>
    </g>
    <g>
        <path class="s3" d="m200 285h-20v20h20zm-2.5 2.5v15h-15v-15z"/>
    </g>
    <g>
        <path class="s3" d="m270 320h-20v20h20zm-2.5 2.5v15h-15v-15z"/>
    </g>
    <g>
        <path class="s3" d="m235 320h-20v20h20zm-2.5 2.5v15h-15v-15z"/>
    </g>
    <g>
        <path class="s3" d="m200 320h-20v20h20zm-2.5 2.5v15h-15v-15z"/>
    </g>
    <g>
        <path class="s6" d="m192.5 153.5c-14.32 0-28.06 5.69-38.18 15.82-10.13 10.12-15.82 23.86-15.82 38.18 0 14.32 5.69 28.06 15.82 38.18 10.12 10.13 23.86 15.82 38.18 15.82 14.32 0 28.06-5.69 38.18-15.82 10.13-10.12 15.82-23.86 15.82-38.18 0-14.32-5.69-28.06-15.82-38.18-10.12-10.13-23.86-15.82-38.18-15.82z"/>
        <path class="s1" d="m192.5 150c-31.75 0-57.5 25.75-57.5 57.5 0 31.75 25.75 57.5 57.5 57.5 31.75 0 57.5-25.75 57.5-57.5 0-31.75-25.75-57.5-57.5-57.5zm0 7c27.85 0 50.5 22.65 50.5 50.5 0 27.85-22.65 50.5-50.5 50.5-27.85 0-50.5-22.65-50.5-50.5 0-27.85 22.65-50.5 50.5-50.5z"/>
    </g>
    <g>
        <path class="s1" d="m192.5 200c-1.99 0-3.9 0.79-5.3 2.2-1.41 1.4-2.2 3.31-2.2 5.3 0 1.99 0.79 3.9 2.2 5.3 1.4 1.41 3.31 2.2 5.3 2.2 1.99 0 3.9-0.79 5.3-2.2 1.41-1.4 2.2-3.31 2.2-5.3 0-1.99-0.79-3.9-2.2-5.3-1.4-1.41-3.31-2.2-5.3-2.2z"/>
    </g>
    <g>
        <path class="s1" d="m337.5 201c-1.94 0-3.5-1.56-3.5-3.5v-20c0-1.94 1.56-3.5 3.5-3.5 1.94 0 3.5 1.56 3.5 3.5v20c0 1.94-1.56 3.5-3.5 3.5z"/>
    </g>
    <g>
        <path class="s1" d="m312.5 201c-1.94 0-3.5-1.56-3.5-3.5v-20c0-1.94 1.56-3.5 3.5-3.5 1.94 0 3.5 1.56 3.5 3.5v20c0 1.94-1.56 3.5-3.5 3.5z"/>
    </g>
    <g>
        <path class="s1" d="m287.5 201c-1.94 0-3.5-1.56-3.5-3.5v-20c0-1.94 1.56-3.5 3.5-3.5 1.94 0 3.5 1.56 3.5 3.5v20c0 1.94-1.56 3.5-3.5 3.5z"/>
    </g>
    <g>
        <path class="s1" d="m262.5 201c-1.94 0-3.5-1.56-3.5-3.5v-20c0-1.94 1.56-3.5 3.5-3.5 1.94 0 3.5 1.56 3.5 3.5v20c0 1.94-1.56 3.5-3.5 3.5z"/>
    </g>
    <g>
        <path class="s1" d="m192.5 210c-1.38 0-2.5-1.12-2.5-2.5v-40c0-1.38 1.12-2.5 2.5-2.5 1.38 0 2.5 1.12 2.5 2.5v40c0 1.38-1.12 2.5-2.5 2.5z"/>
    </g>
    <g>
        <path class="s7" d="m193.17 210.25l27.2 21.03"/>
        <path class="s1" d="m220.37 234.77c-0.75 0-1.5-0.24-2.14-0.73l-27.2-21.01c-1.53-1.18-1.82-3.38-0.63-4.91 1.19-1.53 3.38-1.81 4.91-0.63l27.2 21.02c1.53 1.18 1.82 3.38 0.63 4.9-0.69 0.89-1.72 1.36-2.77 1.36z"/>
    </g>
    <g>
        <path class="s0" d="m175.89 386.44c9.42 0 17.59 0 17.7 0 10.55 0 19.1-8.38 19.1-18.7 0-9.01-6.51-16.53-15.17-18.3q0.16-1.18 0.17-2.4c0-10.69-8.86-19.37-19.79-19.37-6.45 0-12.16 3.04-15.77 7.72-0.93-11.9-11.79-21.09-24.5-19.56-9.3 1.11-16.99 8.14-18.7 17.15-0.55 2.89-0.49 5.7 0.06 8.33-2.49-2.63-6.04-4.28-9.99-4.28-7.23 0-13.14 5.51-13.6 12.47-3.29-0.71-6.86-0.67-10.62 0.71-7.19 2.64-12.31 9.27-12.61 16.78-0.42 10.67 8.29 19.45 19.09 19.45 0.82 0 3.71 0 4.37 0h39.67m8.21 0h1.8"/>
        <path class="s1" d="m193.59 388.94h-17.7c-1.38 0-2.5-1.12-2.5-2.5 0-1.38 1.12-2.5 2.5-2.5h17.7c9.16 0 16.6-7.27 16.6-16.2 0-7.62-5.53-14.29-13.18-15.85-1.28-0.26-2.14-1.47-1.98-2.77q0.15-1.02 0.15-2.08c0-9.3-7.75-16.87-17.28-16.87-5.46 0-10.49 2.46-13.8 6.75-0.63 0.82-1.71 1.15-2.7 0.87-0.99-0.3-1.69-1.17-1.77-2.2-0.4-5.1-2.83-9.72-6.85-13.02-4.14-3.4-9.42-4.9-14.86-4.27-8.23 0.99-15.03 7.21-16.54 15.14-0.47 2.47-0.45 4.95 0.05 7.36 0.23 1.09-0.3 2.2-1.29 2.72-0.98 0.51-2.2 0.32-2.97-0.5-2.14-2.25-5.05-3.5-8.18-3.5-5.84 0-10.72 4.46-11.1 10.14-0.05 0.73-0.41 1.39-0.99 1.83-0.58 0.43-1.32 0.6-2.03 0.44-3.19-0.69-6.22-0.49-9.23 0.63-6.31 2.31-10.72 8.15-10.98 14.52-0.17 4.38 1.42 8.55 4.48 11.73 3.17 3.3 7.48 5.12 12.11 5.12h44.04c1.38 0 2.5 1.12 2.5 2.5 0 1.38-1.12 2.5-2.5 2.5h-44.04c-5.92 0-11.65-2.42-15.72-6.65-4.01-4.18-6.09-9.65-5.86-15.39 0.33-8.38 6.06-16.02 14.24-19.03q4.59-1.68 9.4-1.22c1.72-6.98 8.15-12.12 15.68-12.12 2.46 0 4.88 0.56 7.07 1.61q0.07-1.81 0.41-3.63c1.91-10.05 10.48-17.93 20.85-19.17 6.83-0.83 13.43 1.09 18.63 5.36 3.74 3.06 6.39 7.04 7.73 11.51 3.96-3.24 8.93-5.04 14.21-5.04 12.29 0 22.29 9.81 22.29 21.87q0 0.25-0.01 0.51c8.82 2.78 15.02 10.94 15.02 20.19 0 11.7-9.69 21.21-21.6 21.21zm-48.28 0h-1.81c-1.38 0-2.5-1.12-2.5-2.5 0-1.38 1.12-2.5 2.5-2.5h1.81c1.38 0 2.5 1.12 2.5 2.5 0 1.38-1.12 2.5-2.5 2.5z"/>
        <g>
            <path class="s1" d="m185.06 359.92q-0.14 0-0.28-0.03c-0.67-0.15-1.1-0.82-0.94-1.5q0.27-1.23 0.85-2.39c3.02-6.12 11.36-8.39 18.61-5.04 0.62 0.29 0.9 1.03 0.61 1.66-0.29 0.63-1.04 0.89-1.66 0.61-6.01-2.78-12.89-1.04-15.32 3.87q-0.44 0.89-0.65 1.83c-0.14 0.59-0.65 0.99-1.22 0.99z"/>
        </g>
        <g>
            <path class="s1" d="m159.26 388.94h-5.53c-1.38 0-2.5-1.12-2.5-2.5 0-1.38 1.12-2.5 2.5-2.5h5.53c1.38 0 2.5 1.12 2.5 2.5 0 1.38-1.12 2.5-2.5 2.5z"/>
        </g>
    </g>
</svg>
