<?xml version="1.0" encoding="UTF-8"?>
<svg id="a" data-name="Layer 1" xmlns="http://www.w3.org/2000/svg" width="380.63" height="216.98" viewBox="0 0 380.63 216.98">
  <path d="m81.45,187.53c-1.38,0-2.5-1.12-2.5-2.5v-84.04c0-12.26-9.97-22.23-22.24-22.23h-12.59c-1.38,0-2.5-1.12-2.5-2.5s1.12-2.5,2.5-2.5h12.6c15.02,0,27.23,12.22,27.23,27.23v84.04c0,1.38-1.11,2.5-2.5,2.5Z" fill="#4b3b5d" stroke-width="0"/>
  <path d="m33.56,89.93c-6.32,0-11.46-5.14-11.46-11.46s5.14-11.46,11.46-11.46,11.46,5.14,11.46,11.46-5.14,11.46-11.46,11.46Zm0-17.92c-3.56,0-6.46,2.89-6.46,6.46s2.9,6.46,6.46,6.46,6.46-2.89,6.46-6.46c0-3.56-2.9-6.46-6.46-6.46Zm140.26,138.24c-1.38,0-2.5-1.12-2.5-2.5v-63.54c0-1.38,1.12-2.5,2.5-2.5s2.5,1.12,2.5,2.5v63.54c0,1.39-1.12,2.5-2.5,2.5Z" fill="#4b3b5d" stroke-width="0"/>
  <path d="m237.76,210.25h-124.9c-1.38,0-2.5-1.12-2.5-2.5s1.12-2.5,2.5-2.5h124.9c3.62,0,6.56-2.94,6.56-6.56v-52.8c0-1.38,1.12-2.5,2.5-2.5s2.5,1.12,2.5,2.5v52.8c0,6.37-5.19,11.56-11.56,11.56Z" fill="#4b3b5d" stroke-width="0"/>
  <path d="m173.48,196.73c-5.07,0-9.19,4.11-9.19,9.19s4.11,9.18,9.19,9.18,9.19-4.11,9.19-9.18-4.11-9.19-9.19-9.19Z" fill="#f6f4ff" stroke-width="0"/>
  <path d="m173.48,216.98c-6.1,0-11.06-4.96-11.06-11.06s4.96-11.06,11.06-11.06,11.05,4.96,11.05,11.06-4.97,11.06-11.05,11.06Zm0-18.37c-4.03,0-7.31,3.28-7.31,7.31s3.28,7.31,7.31,7.31,7.3-3.28,7.3-7.31-3.28-7.31-7.3-7.31Z" fill="#4b3b5d" stroke-width="0"/>
  <path d="m166.48,127.65l.11,10.35c-.11,3.71,2.88,6.22,7.43,6.22s7.16-3.19,7.15-6.2v-10.37h-14.69Z" fill="#f6f4ff" stroke-width="0"/>
  <path d="m174.02,146.71c-3.16,0-5.9-1.03-7.7-2.88-1.53-1.57-2.3-3.62-2.22-5.91l-.11-10.24c0-.67.25-1.32.73-1.78s1.11-.74,1.77-.74h14.69c1.38,0,2.5,1.12,2.5,2.5v10.36c0,2.15-.9,4.29-2.5,5.9-1.81,1.8-4.35,2.8-7.16,2.8Zm-5.01-16.56l.09,7.81c-.03,1.03.24,1.78.82,2.38.85.88,2.31,1.36,4.1,1.36,1.89,0,3.01-.73,3.61-1.33.66-.66,1.04-1.53,1.04-2.36v-7.88h-9.67Z" fill="#4b3b5d" stroke-width="0"/>
  <path d="m186.02,23.35c-2.8,0-5.07-2.09-5.07-4.66v-4.37c0-6.5-5.81-11.81-12.91-11.81h-56.6c-7.1,0-12.91,5.31-12.91,11.81v11.98l.22,95.5c10.08.45,10.94,3.9,24.56,3.9h98.83c13.6,0,24.72-10.22,24.72-22.71V28.01c0-2.57-2.27-4.66-5.07-4.66h-55.78Z" fill="#f2f0ff" stroke-width="0"/>
  <path d="m222.16,128.19h-98.83c-7.97,0-11.92-1.17-15.42-2.21-2.74-.81-5.1-1.52-9.27-1.7-1.33-.06-2.39-1.15-2.39-2.49l-.22-107.48c0-7.89,6.91-14.31,15.41-14.31h56.6c8.5,0,15.41,6.42,15.41,14.31v4.37c0,1.19,1.15,2.16,2.57,2.16h55.79c4.17,0,7.57,3.22,7.57,7.17v74.97c0,13.9-12.21,25.21-27.22,25.21Zm-120.9-8.73c3.41.35,5.77,1.04,8.08,1.73,3.31.98,6.75,2,13.99,2h98.83c12.25,0,22.22-9.06,22.22-20.21V28.01c0-1.19-1.15-2.17-2.57-2.17h-55.79c-4.17,0-7.57-3.22-7.57-7.16v-4.37c0-5.14-4.67-9.31-10.41-9.31h-56.6c-5.74,0-10.41,4.17-10.41,9.31l.22,105.15Z" fill="#4b3b5d" stroke-width="0"/>
  <path d="m241.13,127.75H105.05c-3.47,0-6.29-2.82-6.29-6.31l19.92-84.34h148.11l-19.92,84.9c0,3.17-2.57,5.76-5.75,5.76Z" fill="#f6f4ff" stroke-width="0"/>
  <path d="m241.13,130.25H105.05c-4.85,0-8.79-3.95-8.79-8.81,0-.2.03-.38.07-.58l19.91-84.34c.27-1.13,1.28-1.92,2.43-1.92h148.1c.76,0,1.48.35,1.96.94s.65,1.38.48,2.12l-19.85,84.63c-.16,4.42-3.79,7.95-8.23,7.95Zm-139.86-8.56c.13,1.98,1.77,3.55,3.78,3.55h136.08c1.79,0,3.24-1.46,3.24-3.26,0-.19.02-.38.07-.57l19.19-81.82H120.65l-19.38,82.1ZM143.77,14.21h-35.37c-.69,0-1.25-.56-1.25-1.25s.56-1.25,1.25-1.25h35.37c.69,0,1.25.56,1.25,1.25s-.56,1.25-1.25,1.25Zm13.95,0h-7.25c-.69,0-1.25-.56-1.25-1.25s.56-1.25,1.25-1.25h7.25c.69,0,1.25.56,1.25,1.25s-.56,1.25-1.25,1.25Z" fill="#4b3b5d" stroke-width="0"/>
  <path d="m236.12,36.73c-.15,0-.31-.05-.44-.14-.34-.24-.41-.71-.16-1.04l7.7-10.65c.25-.34.72-.41,1.04-.17.34.24.41.71.16,1.04l-7.7,10.65c-.15.21-.38.31-.61.31Zm-7.25,0c-.15,0-.31-.05-.44-.14-.34-.24-.41-.71-.16-1.04l7.7-10.65c.25-.34.72-.41,1.04-.17.34.24.41.71.16,1.04l-7.7,10.65c-.15.21-.37.31-.61.31Zm-7.25,0c-.15,0-.31-.05-.44-.14-.34-.24-.41-.71-.16-1.04l7.7-10.65c.25-.34.72-.41,1.04-.17.34.24.41.71.16,1.04l-7.7,10.65c-.14.21-.38.31-.61.31Zm-7.25,0c-.15,0-.31-.05-.44-.14-.34-.24-.41-.71-.17-1.04l7.7-10.65c.25-.34.71-.41,1.04-.17.34.24.41.71.16,1.04l-7.7,10.65c-.14.21-.37.31-.6.31Zm-3.39-5.32c-.15,0-.31-.05-.44-.14-.34-.24-.41-.71-.17-1.04l3.85-5.32c.24-.34.72-.41,1.04-.17.34.24.41.71.17,1.04l-3.85,5.32c-.15.2-.38.31-.6.31Z" fill="#4b3b5d" stroke-width="0"/>
  <path d="m301.36,194.59h54.23c12.44,0,22.53-10.09,22.53-22.54,0-10.86-7.68-19.92-17.91-22.06.12-.95.2-1.91.2-2.89,0-12.89-10.45-23.34-23.34-23.34-7.61,0-14.35,3.66-18.61,9.3-1.09-14.35-13.91-25.42-28.9-23.59-10.97,1.34-20.03,9.82-22.06,20.68-.64,3.48-.58,6.87.07,10.04-2.94-3.16-7.13-5.16-11.79-5.16-8.53,0-15.49,6.64-16.04,15.03-3.88-.86-8.08-.8-12.52.87-8.48,3.19-14.52,11.17-14.87,20.22-.5,12.86,9.78,23.44,22.52,23.44h51.95" fill="#fff" stroke-width="0"/>
  <path d="m355.59,197.09h-54.23c-1.38,0-2.5-1.12-2.5-2.5s1.12-2.5,2.5-2.5h54.23c11.04,0,20.04-8.99,20.04-20.04,0-9.44-6.69-17.68-15.92-19.61-1.27-.27-2.13-1.46-1.97-2.75.11-.85.18-1.71.18-2.59,0-11.49-9.35-20.84-20.84-20.84-6.57,0-12.63,3.02-16.62,8.3-.62.83-1.71,1.18-2.7.89-1-.29-1.71-1.17-1.79-2.21-.48-6.3-3.56-12.21-8.46-16.22-4.95-4.06-11.23-5.86-17.64-5.07-9.9,1.21-18.08,8.88-19.9,18.65-.56,3.05-.55,6.11.06,9.09.22,1.1-.31,2.21-1.31,2.72-.98.52-2.21.3-2.98-.52-2.61-2.81-6.14-4.36-9.95-4.36-7.13,0-13.08,5.58-13.55,12.7-.05.73-.41,1.39-.99,1.83-.58.44-1.34.6-2.03.45-3.86-.84-7.48-.59-11.11.76-7.62,2.86-12.95,10.09-13.26,17.99-.22,5.51,1.77,10.73,5.57,14.69,3.82,3.97,8.95,6.15,14.44,6.15h51.95c1.38,0,2.5,1.12,2.5,2.5s-1.12,2.5-2.5,2.5h-51.97c-6.88,0-13.28-2.73-18.05-7.69-4.76-4.95-7.24-11.47-6.98-18.36.39-9.89,7.02-18.91,16.5-22.47,3.66-1.37,7.44-1.84,11.29-1.41,1.82-8.4,9.33-14.65,18.16-14.65,3.07,0,6.1.77,8.77,2.22.01-1.68.18-3.37.5-5.06,2.21-11.9,12.16-21.23,24.21-22.7,7.81-.96,15.41,1.23,21.42,6.16,4.58,3.75,7.85,8.86,9.38,14.51,4.67-4.12,10.65-6.41,17.01-6.41,14.25,0,25.84,11.59,25.84,25.84,0,.34,0,.67-.02,1,10.4,3.17,17.73,12.91,17.73,23.95,0,13.83-11.24,25.06-25.04,25.06Z" fill="#4b3b5d" stroke-width="0"/>
  <path d="m288.3,144.94c-8.33-.55-15.51,5.21-16.03,12.86-.07.95-.02,1.88.12,2.8-1.61-1.81-3.99-3.05-6.72-3.23-5-.33-9.32,2.98-9.94,7.47-.91-.25-1.86-.42-2.84-.48-7.29-.48-13.57,4.56-14.03,11.25" fill="#fdfcef" stroke-width="0"/>
  <path d="m238.86,176.86s-.06,0-.08,0c-.69-.05-1.21-.64-1.16-1.33.5-7.37,7.36-12.98,15.35-12.41.59.03,1.19.11,1.81.22,1.31-4.45,5.81-7.61,10.98-7.21,1.89.12,3.7.72,5.27,1.7,0-.03,0-.07,0-.1.56-8.33,8.32-14.68,17.36-14.03.69.04,1.21.64,1.16,1.33-.04.69-.55,1.31-1.33,1.16-7.64-.41-14.23,4.75-14.7,11.7-.06.83-.02,1.69.11,2.53.08.55-.21,1.08-.71,1.32-.5.23-1.1.11-1.46-.31-1.45-1.63-3.58-2.66-5.86-2.81-4.33-.23-8.08,2.53-8.62,6.39-.06.35-.25.67-.55.87-.29.2-.65.27-1.01.17-.9-.24-1.75-.38-2.61-.44-6.48-.34-12.29,4.09-12.7,10.09-.03.66-.58,1.17-1.24,1.17Z" fill="#4b3b5d" stroke-width="0"/>
  <path d="m364.72,152.64c-7.84-3.69-16.89-1.08-20.23,5.84-.42.86-.72,1.74-.92,2.64" fill="#fdfcef" stroke-width="0"/>
  <path d="m343.56,162.37c-.09,0-.19,0-.28-.03-.68-.15-1.1-.83-.94-1.5.23-1.02.58-1.99,1.03-2.91,3.64-7.52,13.46-10.39,21.89-6.42.62.3.9,1.04.6,1.67-.3.63-1.05.88-1.67.6-7.21-3.4-15.54-1.05-18.57,5.25-.36.74-.65,1.55-.83,2.38-.14.58-.65.97-1.22.97Z" fill="#4b3b5d" stroke-width="0"/>
  <path d="m106.25,210.24h17.7c10.55,0,19.1-8.37,19.1-18.69,0-9.01-6.51-16.53-15.17-18.3.1-.79.17-1.59.17-2.4,0-10.69-8.86-19.37-19.79-19.37-6.45,0-12.16,3.03-15.77,7.71-.93-11.91-11.79-21.09-24.5-19.57-9.3,1.11-16.98,8.15-18.7,17.15-.55,2.89-.49,5.69.05,8.33-2.49-2.63-6.04-4.28-9.99-4.28-7.23,0-13.14,5.51-13.6,12.47-3.28-.71-6.86-.66-10.61.72-7.19,2.64-12.31,9.27-12.61,16.78-.42,10.67,8.28,19.44,19.09,19.44h44.04m8.19,0h1.8" fill="#fff" stroke-width="0"/>
  <path d="m123.95,212.74h-17.71c-1.38,0-2.5-1.12-2.5-2.5s1.12-2.5,2.5-2.5h17.71c9.16,0,16.6-7.27,16.6-16.2,0-7.62-5.54-14.28-13.18-15.84-1.28-.27-2.14-1.46-1.98-2.76.08-.69.14-1.38.14-2.09,0-9.3-7.75-16.87-17.29-16.87-5.46,0-10.49,2.46-13.8,6.74-.63.82-1.71,1.15-2.69.87-.99-.3-1.7-1.17-1.77-2.2-.39-5.1-2.82-9.72-6.84-13.02-4.15-3.4-9.45-4.9-14.87-4.27-8.23.98-15.03,7.2-16.53,15.14-.47,2.48-.45,4.95.05,7.36.23,1.1-.3,2.21-1.29,2.72-.99.52-2.19.31-2.97-.5-2.14-2.26-5.04-3.5-8.18-3.5-5.85,0-10.73,4.45-11.11,10.14-.05.73-.41,1.39-.99,1.83-.57.43-1.32.61-2.03.44-3.21-.69-6.22-.49-9.22.62-6.32,2.31-10.73,8.15-10.97,14.52-.17,4.38,1.41,8.54,4.48,11.73,3.18,3.3,7.48,5.12,12.12,5.12h44.04c1.38,0,2.5,1.12,2.5,2.5s-1.12,2.5-2.5,2.5H21.61c-5.92,0-11.65-2.43-15.72-6.66C1.87,201.9-.21,196.44.02,190.69c.33-8.38,6.06-16.02,14.25-19.03,3.04-1.12,6.2-1.52,9.4-1.22,1.72-6.98,8.14-12.12,15.68-12.12,2.47,0,4.88.56,7.07,1.61.05-1.21.18-2.41.41-3.62,1.91-10.06,10.48-17.93,20.85-19.17,6.81-.84,13.43,1.09,18.64,5.35,3.74,3.06,6.39,7.05,7.73,11.51,3.96-3.24,8.93-5.03,14.21-5.03,12.29,0,22.29,9.81,22.29,21.87,0,.17,0,.34,0,.52,8.82,2.78,15.02,10.94,15.02,20.19,0,11.7-9.69,21.21-21.6,21.21Zm-48.29,0h-1.8c-1.38,0-2.5-1.12-2.5-2.5s1.12-2.5,2.5-2.5h1.8c1.38,0,2.5,1.12,2.5,2.5s-1.12,2.5-2.5,2.5Z" fill="#4b3b5d" stroke-width="0"/>
  <path d="m115.41,183.73c-.09,0-.18,0-.28-.03-.67-.15-1.1-.82-.94-1.5.18-.83.47-1.63.84-2.39,3.02-6.12,11.37-8.39,18.61-5.04.63.29.9,1.03.61,1.66-.29.63-1.04.9-1.66.61-6.04-2.78-12.89-1.04-15.31,3.87-.29.58-.51,1.2-.65,1.83-.13.59-.65.98-1.22.98Zm-25.8,29.02h-5.53c-1.38,0-2.5-1.12-2.5-2.5s1.12-2.5,2.5-2.5h5.53c1.38,0,2.5,1.12,2.5,2.5s-1.12,2.5-2.5,2.5Z" fill="#4b3b5d" stroke-width="0"/>
  <path d="m178.73,48.78h-.07l-.71.16c-1.57.21-3.1.7-4.59,1.47-1.5.77-2.81,1.79-3.95,3.06-1.95,1.96-3.3,4.37-4.06,7.24-.43,1.59-.62,3.26-.57,5.01s.33,3.42.85,5.01c.81,2.39,2.04,4.45,3.7,6.2l.93.95-5.91,10.74c-1.23-.05-2.3.13-3.2.56-1.42.69-2.49,1.75-3.2,3.18-.33.8-.55,1.62-.64,2.47s-.05,1.7.14,2.54c.38,1.59,1.16,2.86,2.35,3.82.71.53,1.5.91,2.35,1.15s1.71.29,2.56.16,1.67-.46,2.46-.99,1.44-1.19,1.96-1.99c.57-.9.91-1.93,1.03-3.1s-.01-2.25-.39-3.26c-.05-.27-.21-.64-.5-1.11l-.21-.48,8.4-15.27c.28-.48.47-.85.57-1.11l-.71-.24c-.43-.11-.74-.21-.93-.32-1.09-.53-2.08-1.26-2.96-2.19-.88-.93-1.55-1.97-2.03-3.14-.81-1.91-1.02-3.9-.64-5.96.19-1.22.59-2.36,1.21-3.42s1.35-1.96,2.21-2.7c1.76-1.43,3.7-2.15,5.84-2.15,1.28-.05,2.53.2,3.74.76s2.27,1.37,3.17,2.43c.81.85,1.44,1.87,1.89,3.06s.7,2.4.75,3.62c0,.9-.14,2.01-.43,3.34l4.98,1.51.57.08c.66-2.28.83-4.56.5-6.84-.19-1.75-.65-3.43-1.39-5.05s-1.67-3.03-2.81-4.25c-1.99-2.23-4.44-3.71-7.34-4.45-.28-.11-.71-.21-1.28-.32l-1-.16h-2.63Zm1.28,9.86c-.81,0-1.61.19-2.42.56s-1.53.91-2.17,1.63-1.1,1.55-1.39,2.5c-.38,1.06-.47,2.23-.28,3.5.14.95.47,1.86,1,2.7s1.19,1.51,1.99,1.99c1.14.8,2.47,1.14,3.99,1.03.14.21.26.42.36.64l7.98,15.19c.14.32.28.56.43.72,1.28-1.38,2.67-2.32,4.17-2.82,1.5-.5,3.04-.6,4.63-.28s2.98,1.01,4.17,2.07c1.52,1.33,2.55,2.96,3.1,4.89s.56,3.88.04,5.84c-.38,1.48-1.06,2.81-2.03,3.98s-2.12,2.04-3.45,2.62c-1.47.69-3.05.91-4.74.68s-3.19-.89-4.52-1.95c-.19-.16-.5-.42-.93-.8l-.36-.48c-.19.16-.45.42-.78.8l-3.35,3.66c1.09,1.22,2.33,2.24,3.7,3.06s2.82,1.39,4.34,1.71l1.57.32h2.78l1.99-.4c3.04-.69,5.65-2.28,7.83-4.77,1.04-1.17,1.91-2.5,2.6-4.02.69-1.51,1.15-3.09,1.39-4.73.24-1.91.19-3.8-.14-5.69-.33-1.88-.93-3.59-1.78-5.13-.85-1.54-1.9-2.89-3.13-4.06s-2.59-2.09-4.06-2.78c-1.61-.74-3.29-1.17-5.02-1.27s-3.43.08-5.09.56l-1.21.4-5.77-10.89c.62-1.01,1-1.99,1.14-2.94.24-1.7-.07-3.29-.93-4.77-.76-1.33-1.8-2.25-3.13-2.78-.81-.32-1.64-.48-2.49-.48Zm-20.08,20.99c-2.75.69-5.13,2.09-7.12,4.21-2.23,2.33-3.68,5.12-4.34,8.35l-.28,1.91v2.94l.14.87c.09.69.19,1.22.28,1.59.33,1.64.91,3.21,1.74,4.69s1.84,2.78,3.03,3.9c2.37,2.17,5.1,3.47,8.19,3.9,1.8.21,3.61.09,5.41-.36s3.47-1.21,4.98-2.27c2.52-1.8,4.37-4.21,5.55-7.24.33-.9.66-2.09,1-3.58.28-.05.71-.05,1.28,0l8.9.16c.66,0,1.14.03,1.42.08.52,1.06,1.12,1.88,1.78,2.47s1.41,1.01,2.24,1.27,1.67.37,2.53.32c1.33-.16,2.52-.69,3.56-1.59,1.28-1.11,2.04-2.54,2.28-4.29.09-.9.06-1.78-.11-2.62s-.49-1.64-.96-2.39c-.76-1.17-1.73-2.01-2.92-2.54-.81-.37-1.65-.54-2.53-.52s-1.72.23-2.53.6c-1.33.64-2.35,1.62-3.06,2.94l-.21.48c-.66,0-1.66-.03-2.99-.08l-8.05-.08c-.71-.05-1.73-.08-3.06-.08l-3.56-.08.21,1.35c.38,2.28.07,4.43-.93,6.44-.66,1.43-1.61,2.62-2.85,3.58-1.23.95-2.59,1.54-4.06,1.75-1.66.32-3.32.12-4.98-.6s-3.01-1.84-4.06-3.38c-1.33-1.86-1.97-3.95-1.92-6.28.05-1.96.59-3.79,1.64-5.49.62-1.01,1.38-1.86,2.28-2.54s1.88-1.19,2.92-1.51l.64-.24-1.5-6.04Z" fill="#fff" stroke="#4b3b5d" stroke-miterlimit="10"/>
</svg>