<?xml version="1.0" encoding="utf-8"?>
<!-- Generator: Adobe Illustrator 28.0.0, SVG Export Plug-In . SVG Version: 6.00 Build 0)  -->
<svg version="1.1" id="Layer_1" xmlns="http://www.w3.org/2000/svg" xmlns:xlink="http://www.w3.org/1999/xlink" x="0px" y="0px"
     viewBox="0 0 101 101" enable-background="new 0 0 101 101" xml:space="preserve">
<g enable-background="new    ">
	<rect x="-337" y="-153" display="none" fill="#1A1851" width="775" height="458"/>
    <path display="none" fill="#231F20" d="M-32.7,95.7c-2.3,0-4.1,2-4.1,4.3c0.4,2.1-1.2,25.6,1.2,26.6l0,0l0,0c1.5,1.6,4.4,1.6,5.9,0
		l0,0l0,0c2.3-0.9,0.7-24.6,1.2-26.6C-28.6,97.7-30.4,95.7-32.7,95.7L-32.7,95.7z M-32.7,84.3c-2.6,0-4.4,0.9-4.3,3.6
		c-0.3,3.2,1,5.1,4.4,4.8c2.6,0,4.2-1,4.1-3.6C-28.1,85.9-29.4,84.1-32.7,84.3L-32.7,84.3z M-66,83.7c-1.2,0-2.2,0.4-2.9,1.3l0,0
		c-0.8,0.8-1.2,1.8-1.2,3c0.5,1.8-1.2,38.3,1.2,38.7l0,0l0,0c1.5,1.6,4.4,1.6,5.9,0l0,0l0,0c3-3.9-0.4-17.1,1.9-21.2
		c1.7-4.1,9.6-5,10.8-0.1l0,0c1.6,4.3-1.2,17.5,1.6,21.3l0,0l0,0c1.5,1.6,4.4,1.6,5.9,0l0,0l0,0c0.8-0.8,1.2-1.9,1.2-3.1
		c-0.2-4.9,0.6-17.4-0.9-22l0,0C-44.4,92.7-57,92-62,98.7c-0.3-2.4,1-12.1-1.2-13.8l0,0C-63.9,84.1-64.9,83.7-66,83.7L-66,83.7z"/>
    <g display="none">
		<g display="inline">

				<linearGradient id="SVGID_00000019647732625980616430000008745852852300914093_" gradientUnits="userSpaceOnUse" x1="-24.1385" y1="-278.9774" x2="-14.9992" y2="-278.9774" gradientTransform="matrix(1 0 0 1 0 402)">
				<stop  offset="0" style="stop-color:#D94498"/>
                    <stop  offset="1" style="stop-color:#D94498"/>
			</linearGradient>
            <path id="SVGID_1_" fill="url(#SVGID_00000019647732625980616430000008745852852300914093_)" d="M-20,118.3
				c-4.4-0.3-5.2,5.7-3.1,8.4h0c1.5,1.5,5.3,1.5,6.8,0C-13.7,123.7-15.2,117.4-20,118.3L-20,118.3z"/>
		</g>
	</g>
    <path display="none" fill="#231F20" d="M69.2,100.9c2.2,0,4.5,1.1,5.9,2.9l0,0c0.7,0.8,1,1.8,1.1,2.8H61.7
		C62.2,102.8,65.6,100.8,69.2,100.9L69.2,100.9z M3.6,100.9c2.2,0,4.5,1.1,5.9,2.9l0,0l0,0c0.7,0.8,1,1.8,1.1,2.8H-3.9
		C-3.4,102.8,0,100.8,3.6,100.9L3.6,100.9z M24.7,93.7c-3.1-0.1-4.9,3.4-3.6,6l0,0l11.2,25.5l0,0l0,0c0.4,0.9,1,1.7,1.7,2.2l0,0l0,0
		c2.2,1.2,5,0.3,6-2.2l0,0l11.2-25.5l0,0c0.1-0.3,0.2-0.6,0.3-1l0,0c1.3-3.3-3-6.4-5.8-4.4c-1.3,0.2-8.5,19.2-9.2,20.5l-7.8-18.4
		C28.1,94.7,26.4,93.7,24.7,93.7L24.7,93.7L24.7,93.7z M158.3,93.1c-2,0-4,0.4-5.8,1.2c-7,2.5-8.7,12.8-2.4,16.9l0,0l0,0
		c2.2,1.5,5,2.2,7.5,3l0,0c1.2,0.3,2.2,0.7,3.2,1l0,0c4.8,1.3,3.3,6.6-1.2,6.2c-5.6,1.2-7.8-6.7-12.8-4.4l0,0
		c-2,1.1-2.3,3.7-1.2,5.3l0,0c1.6,2.2,3.7,3.8,6.1,4.7c4.3,1.5,8.7,1.9,12.9,0.1c13.5-7.5,4.8-19.6-7.6-21.1c-2.3-0.5-4-3.2-2.4-5
		l0,0l0,0c0.4-0.4,1-0.7,1.5-0.8l0,0c1.9-0.4,4-0.2,5.6,0.5c2.1,0.8,2.6,3,4.9,3.1l0,0c3.3,0.2,4.8-3.7,2.9-6.1l0,0
		C166.9,94.5,162.4,93.1,158.3,93.1L158.3,93.1z M106.4,93.1c-3.7,0-7.2,1.9-9.5,4.7c0-5.4-8.3-5.2-8.1,0.3c0.4,2-1.2,27.8,1.2,28.7
		l0,0l0,0c1.5,1.6,4.4,1.6,5.9,0l0,0l0,0c3-3.9-0.4-18.2,1.9-22.4l0,0l0,0c1.8-4.1,10-5,11.3-0.1l0,0l0,0c1.8,4.4-1.2,18.5,1.7,22.4
		l0,0l0,0c1.5,1.6,4.4,1.6,5.9,0l0,0l0,0c0.8-0.8,1.2-1.9,1.2-3.1c-0.2-5,0.6-18.5-0.9-23.1l0,0C115.4,95.5,111.9,93,106.4,93.1
		L106.4,93.1z M69.2,93.1c-5.7,0-10.9,3.3-13.7,8.4l0,0c-2.8,5-3,13.3-0.2,18.5l0,0c1.4,2.6,3.4,4.7,5.9,6.2l0,0
		c4.2,2.4,10.3,3,15.1,1.2c7.6-1.6,9-11.5,0.6-8.9l0,0c-4.2,3.3-11.7,2.9-14.5-2.4l0,0c-0.4-0.7-0.7-1.5-0.9-2.3
		c2.1-0.4,20.7,1,22-1c3.4-4.3-0.3-11.1-3.4-14.7l0,0c-1.4-1.6-3.1-2.8-5-3.7C73.3,93.5,71.3,93.1,69.2,93.1L69.2,93.1L69.2,93.1z
		 M3.6,93.1c-5.7,0-10.9,3.3-13.7,8.4l0,0c-2.8,5-3,13.3-0.2,18.5l0,0c1.4,2.6,3.4,4.7,5.9,6.2l0,0c4.2,2.4,10.3,3,15.1,1.2l0,0
		c7.5-1.5,9-11.5,0.6-8.9l0,0c-4.2,3.3-11.7,2.9-14.5-2.4l0,0c-0.4-0.7-0.7-1.5-0.9-2.3c2.1-0.4,20.7,1,22-1
		c3.4-4.3-0.3-11.1-3.4-14.7l0,0C11.7,95.1,7.8,93,3.6,93.1L3.6,93.1L3.6,93.1z M130.3,86.6c-4.2-0.1-4.4,4.7-4.1,7.8
		c-8.1-1.4-8.1,9.3,0,7.9c0.8,5.5-2.4,20.9,3.3,24.4l0,0l0,0c11.7,5.9,16.4-8,7.9-6.4l0,0c-1.3,0.5-3.3,0.1-3.1-1.8
		c0,0,0-16.3,0-16.3c1.8-0.1,5.1,0.5,6.4-1.1l0,0l0,0c3.6-5.4-1.8-7.5-6.5-6.8C134.5,91.3,134.5,86.5,130.3,86.6L130.3,86.6z"/>
    <g id="rainbow_00000022555135414785153570000005307195354866911366_">
		<g>

				<linearGradient id="SVGID_00000033366312633716854970000006685084104783091636_" gradientUnits="userSpaceOnUse" x1="66.78" y1="62.2294" x2="69.508" y2="62.2294">
				<stop  offset="0" style="stop-color:#DA4398"/>
                    <stop  offset="0.9994" style="stop-color:#B46AAB"/>
			</linearGradient>
            <polyline fill="url(#SVGID_00000033366312633716854970000006685084104783091636_)" points="66.8,55.5 68.1,59.1 68.5,60.9
				69,63.5 69.3,65.5 69.5,67.7 69.5,68.9 69.5,66.3 69.3,64.5 69.2,64.1 69.1,63.5 69.1,63.4 69.1,63.2 69.1,63.1 69.1,63 69,62.9
				69,62.8 69,62.7 69,62.6 69,62.5 69,62.4 68.9,62.4 68.9,62.3 68.9,62.2 68.9,62 68.8,61.9 68.8,61.7 68.8,61.6 68.7,61.4
				68.7,61.3 68.7,61.1 68.6,60.9 68.6,60.8 68.5,60.6 68.5,60.4 68.5,60.3 68.4,60.2 68.4,60 68.3,59.8 68.2,59.5 68.1,59.2
				68,58.7 67.9,58.3 67.7,57.9 67.7,57.7 67.6,57.5 67.5,57.2 67.3,56.8 67,56 			"/>

            <linearGradient id="SVGID_00000108285685611048836810000005942971404909141653_" gradientUnits="userSpaceOnUse" x1="5.47" y1="-346.4568" x2="69.5126" y2="-346.4568" gradientTransform="matrix(1 0 0 1 0 402)">
				<stop  offset="0" style="stop-color:#DA4398"/>
                <stop  offset="0.9994" style="stop-color:#B46AAB"/>
			</linearGradient>

            <path id="SVGID_00000069357947241456290020000016765814773579635376_" fill="url(#SVGID_00000108285685611048836810000005942971404909141653_)" d="
				M69.5,69.1C68,38.8,26,43.6,29.6,73.2c0.1,2.7-4,1.7-5.5,1.9c-3.1-0.7-2.8-6.1-6.5-5.6c-6.1,0.7-1.9,6.8-10.2,5.6
				c-2.1,0-1.8-2.8-1.8-4.2c0-3.6,0.1-5.6,0.6-8.3c0.6-3.6,2-6.9,3.6-10.1C27,22.9,69.1,35.5,69.5,69.1z"/>
		</g>
	</g>
    <g id="rainbow">
		<g>

				<linearGradient id="SVGID_00000038384446097372366990000013676474618069385368_" gradientUnits="userSpaceOnUse" x1="5.6705" y1="-352.5891" x2="93.5571" y2="-352.5891" gradientTransform="matrix(1 0 0 1 0 402)">
				<stop  offset="0" style="stop-color:#FFF33B"/>
                    <stop  offset="5.950000e-02" style="stop-color:#FFE029"/>
                    <stop  offset="0.1303" style="stop-color:#FFD217"/>
                    <stop  offset="0.2032" style="stop-color:#FEC90E"/>
                    <stop  offset="0.2809" style="stop-color:#FDC70C"/>
                    <stop  offset="0.6685" style="stop-color:#F3903F"/>
                    <stop  offset="0.8876" style="stop-color:#ED683C"/>
                    <stop  offset="1" style="stop-color:#E93E3A"/>
			</linearGradient>

            <path id="SVGID_00000040569330609575044710000002757115625567616934_" fill="url(#SVGID_00000038384446097372366990000013676474618069385368_)" d="
				M91.8,74.4c-8.2,1.1-4.1-4.4-10.2-5c-3.8-0.4-3.8,4.3-6.6,5c-5.3,0.2-5.7,0.1-5.4-5.3l0,0C70,52.5,56.4,36.9,39.7,36
				C22.4,34.6,7,48.7,5.7,65.8c5-57.4,86.9-54.4,87.9,3.4C93.3,70.6,94.4,74.5,91.8,74.4L91.8,74.4z"/>
		</g>
	</g>
    <g id="rainbow_00000015343790141144027740000006422373996955350163_" display="none" opacity="0.115" enable-background="new    ">
		<g display="inline">
			<path fill="#010101" d="M68.1,68.1c0-8.4-4.6-15.3-11.3-18.7c-0.7-0.9-1.4-1.8-2.2-2.6c-5.4-5.7-13.2-9-21.1-9.1
				C17.1,37.8,3.7,52,4,68.3l0,0v-0.2l0,0C3.7,49.7,19.3,33.8,37.9,35c16.8,0.8,30.4,16.2,30.1,32.8C68.1,67.9,68.1,68,68.1,68.1
				L68.1,68.1z"/>
		</g>
	</g>
</g>
    <path display="none" fill="#231F20" d="M79,95"/>
    <linearGradient id="SVGID_00000036217261622204879950000003828158896458472863_" gradientUnits="userSpaceOnUse" x1="67" y1="63" x2="67" y2="63">
	<stop  offset="0" style="stop-color:#DA4398"/>
        <stop  offset="0.9994" style="stop-color:#B46AAB"/>
</linearGradient>
    <path display="none" fill="url(#SVGID_00000036217261622204879950000003828158896458472863_)" d="M67,63"/>
</svg>
