<?xml version="1.0" encoding="utf-8"?>
<!-- Generator: Adobe Illustrator 28.0.0, SVG Export Plug-In . SVG Version: 6.00 Build 0)  -->
<!DOCTYPE svg PUBLIC "-//W3C//DTD SVG 1.1//EN" "http://www.w3.org/Graphics/SVG/1.1/DTD/svg11.dtd" [
	<!ENTITY ns_extend "http://ns.adobe.com/Extensibility/1.0/">
	<!ENTITY ns_ai "http://ns.adobe.com/AdobeIllustrator/10.0/">
	<!ENTITY ns_graphs "http://ns.adobe.com/Graphs/1.0/">
	<!ENTITY ns_vars "http://ns.adobe.com/Variables/1.0/">
	<!ENTITY ns_imrep "http://ns.adobe.com/ImageReplacement/1.0/">
	<!ENTITY ns_sfw "http://ns.adobe.com/SaveForWeb/1.0/">
	<!ENTITY ns_custom "http://ns.adobe.com/GenericCustomNamespace/1.0/">
	<!ENTITY ns_adobe_xpath "http://ns.adobe.com/XPath/1.0/">
]>
<svg version="1.1" id="Layer_1" xmlns:x="&ns_extend;" xmlns:i="&ns_ai;" xmlns:graph="&ns_graphs;"
	 xmlns="http://www.w3.org/2000/svg" xmlns:xlink="http://www.w3.org/1999/xlink" x="0px" y="0px" width="1200px" height="300px"
	 viewBox="0 0 1200 300" enable-background="new 0 0 1200 300" xml:space="preserve">
<metadata>
	<sfw  xmlns="&ns_sfw;">
		<slices></slices>
		<sliceSourceBounds  bottomLeftOrigin="true" height="1748.7" width="2975.5" x="-761.9" y="-548.6"></sliceSourceBounds>
	</sfw>
</metadata>
<g enable-background="new    ">
	<rect x="-136.5" y="-185.9" display="none" fill="#211214" width="1289.5" height="648.5"/>
	<rect x="-661.9" y="-800" display="none" fill="#1A1851" width="2975.5" height="1716.5"/>
	<path fill="#FFFFFF" d="M466.9,116.5c-3.8,0-7.1,1.5-9.7,4.3c-2.5,2.7-3.8,6.1-3.8,10.1v78.7c0,4,1.3,7.5,3.8,10.3v0l0,0
		c2.5,2.7,5.9,4,9.7,4c3.8,0,7.1-1.4,9.7-4l0,0v0c2.5-2.8,3.8-6.3,3.8-10.3v-78.7c0-4-1.3-7.4-3.8-10.1
		C474.1,117.9,470.7,116.5,466.9,116.5L466.9,116.5z M466.9,78.4L466.9,78.4c-4.4,0-7.9,0.8-10.4,2.6c-2.6,1.8-3.7,5.2-3.7,9.5v3.9
		c0,4.2,1,7.5,3.4,9.4c2.4,1.9,5.9,2.6,10.5,2.6c4.6,0,8.2-0.6,10.6-2.4l0.1-0.1c2.5-1.9,3.6-5.4,3.6-9.7v-3.9c0-4.2-1-7.5-3.4-9.4
		C475.3,79,471.7,78.4,466.9,78.4L466.9,78.4z M356.9,76.3c-3.8,0-7.2,1.5-9.7,4.3c0,0,0,0,0,0c-2.5,2.7-3.8,6.1-3.8,10.1v118.9
		c0,4,1.3,7.5,3.8,10.3l0,0v0c2.5,2.7,5.9,4,9.7,4s7.1-1.4,9.7-4l0,0v0c2.5-2.8,3.8-6.3,3.8-10.3v-49.3c0-4.3,0.8-8.1,2.4-11.4
		c1.7-3.5,4.2-6.2,7.5-8.2c3.3-2,7.3-3.1,12-3.1c4.9,0,8.5,1.1,10.9,3c2.5,2,4.2,4.6,5.2,8v0c1,3.4,1.5,7.3,1.5,11.7v49.3
		c0,4,1.3,7.5,3.8,10.3v0l0,0c2.5,2.7,5.9,4,9.7,4s7.1-1.4,9.7-4l0,0v0c2.5-2.8,3.8-6.3,3.8-10.3v-49.3c0-8.8-0.9-16.8-2.8-24.1v0
		c-1.9-7.5-5.6-13.5-10.8-18c-5.3-4.6-12.9-6.8-22.6-6.8c-4.5,0-8.8,0.8-12.7,2.4c-3.8,1.4-7.3,3.4-10.5,5.8c-2.8,2.1-5,4.5-7.1,7.1
		v-36c0-3.9-1.3-7.4-3.8-10.1v0C364.1,77.7,360.7,76.3,356.9,76.3L356.9,76.3z"/>
	<g>
		<g>
			
				<linearGradient id="SVGID_00000171711215512478867580000010564184470527457717_" gradientUnits="userSpaceOnUse" x1="495.6537" y1="94.2269" x2="525.2477" y2="94.2269" gradientTransform="matrix(1 0 0 -1 0 302)">
				<stop  offset="0" style="stop-color:#D94498"/>
				<stop  offset="1" style="stop-color:#D94498"/>
			</linearGradient>
			<path id="SVGID_1_" fill="url(#SVGID_00000171711215512478867580000010564184470527457717_)" d="M509.2,191.9
				c-4.1,0-7.6,1.2-10.1,3.8c-2.3,2.5-3.4,6-3.4,10.3v3.5c0,4.3,1.1,7.9,3.4,10.5l0,0l0,0.1c2.5,2.4,5.9,3.6,10,3.6h2.6
				c4.1,0,7.5-1.1,9.9-3.6c2.5-2.6,3.6-6.2,3.6-10.5V206c0-4.3-1.2-7.9-3.6-10.3c-2.3-2.6-5.7-3.8-9.9-3.8L509.2,191.9L509.2,191.9z
				"/>
		</g>
		<g>
			<defs>
				<path id="SVGID_00000023991848711556579330000007185352136452570271_" d="M509.2,191.9c-4.1,0-7.6,1.2-10.1,3.8
					c-2.3,2.5-3.4,6-3.4,10.3v3.5c0,4.3,1.1,7.9,3.4,10.5l0,0l0,0.1c2.5,2.4,5.9,3.6,10,3.6h2.6c4.1,0,7.5-1.1,9.9-3.6
					c2.5-2.6,3.6-6.2,3.6-10.5V206c0-4.3-1.2-7.9-3.6-10.3c-2.3-2.6-5.7-3.8-9.9-3.8L509.2,191.9L509.2,191.9z"/>
			</defs>
			<clipPath id="SVGID_00000178171766354770125540000007707079929057334415_">
				<use xlink:href="#SVGID_00000023991848711556579330000007185352136452570271_"  overflow="visible"/>
			</clipPath>
		</g>
	</g>
	<path fill="#FFFFFF" d="M803.6,133.8c3.8,0,7.4,0.9,10.7,2.7l0.1,0c3.5,1.7,6.3,4,8.5,7v0c2.2,2.8,3.3,5.9,3.6,9.4h-47.7
		c0.2-0.7,0.1-1.9,0.3-2.5c1.4-4.2,3.3-7.5,5.5-9.9c2.3-2.4,5-4.1,8.2-5.2C796.3,134.3,799.8,133.8,803.6,133.8L803.6,133.8
		L803.6,133.8z M587,133.8c3.8,0,7.4,0.9,10.7,2.7l0.1,0c3.5,1.7,6.3,4,8.5,7v0l0,0c2.2,2.8,3.3,5.9,3.6,9.4h-47.7
		c0.2-0.7,0.1-1.9,0.3-2.5c1.4-4.2,3.3-7.5,5.6-9.9c2.3-2.4,5-4.1,8.2-5.2C579.6,134.3,583.2,133.8,587,133.8L587,133.8L587,133.8z
		 M656.8,109.6c-3.9,0-7.3,1.5-9.7,4.3c-2.3,2.6-3.6,5.4-3.6,8.4c0,1.6,0.1,3.1,0.4,4.3l0,0.1l0,0.1c0.4,1.1,0.7,2,1,2.7v0
		l36.8,85.4c0,0,0,0,0,0v0c1.3,3.2,3.2,5.6,5.8,7.2l0,0v0c2.6,1.5,5.5,2.1,8.3,1.6c5.1-0.3,9.1-3.5,11.4-8.8v0l37-85.4v0
		c0.4-1,0.7-2.1,1-3.2v0c0.4-1.3,0.7-2.5,0.7-3.7c0-3.6-1.3-6.7-3.7-9.1c-2.3-2.5-5.4-3.8-9-3.8c-2.7-0.2-5.1,0.5-7.2,2.1
		c-2,1.5-3.6,3.9-4.9,6.8l-25.6,61.6l-25.8-61.8c-1.2-2.9-3-5.2-5.4-6.6C662.2,110.4,659.5,109.6,656.8,109.6L656.8,109.6
		L656.8,109.6z M1098,107.6c-6.7,0-13.1,1.4-19.2,4.1v0c-6,2.7-11,6.6-14.9,11.7c-3.9,5.1-5.9,11.4-5.9,18.7c0,6.3,1.2,11.7,3.6,16
		c2.4,4.2,5.4,7.7,9.2,10.3l0,0l0,0c3.7,2.4,7.7,4.4,12,6c4.4,1.5,8.6,2.9,12.7,4.2h0l0,0c3.9,1.1,7.4,2.2,10.5,3.5v0h0
		c3.2,1.2,5.6,2.6,7.4,4.2c1.6,1.5,2.4,3.3,2.4,6c0,3.3-0.8,5.4-2.3,6.8c-1.5,1.4-3.3,2.4-5.4,2.9c-2.3,0.4-4.4,0.7-6.2,0.8
		c-6.1,0-11.1-1.1-15.1-3.1c-4-2.1-7.9-5.1-11.7-9c-2.4-2.5-5.1-4-8-4.2c-2.7-0.3-5.3,0.3-7.7,1.9v0c-3.6,2.4-5.7,5.6-5.9,9.2
		c-0.1,3.3,0.5,6.2,2.1,8.5v0c5.3,7.4,12.1,12.7,20.2,15.7v0c7.9,2.8,15.9,4.2,23.9,4.2c6.4,0,12.7-1.3,18.8-3.9v0
		c6.2-2.7,11.3-6.7,15.5-11.9c4.2-5.3,6.3-11.7,6.3-19.1c0-6.3-1.1-11.6-3.4-15.8c-2.2-4.2-5.2-7.7-8.8-10.3
		c-3.6-2.6-7.4-4.6-11.7-6.2c-4.1-1.5-8.2-2.9-12.2-4c-3.8-1.1-7.4-2.2-10.8-3.3v0c-3.1-1.2-5.6-2.6-7.4-4.2
		c-1.6-1.6-2.4-3.6-2.4-6.4c0-3.2,0.8-5,2-6.1l0,0l0,0c1.5-1.5,3.2-2.3,5.1-2.7l0,0l0,0c2.3-0.5,4.3-0.8,6.2-0.8
		c4.7,0,8.7,0.9,12.2,2.5l0,0c3.6,1.7,6.4,3.9,8.5,6.7l0.1,0.1l0.1,0.1c2,1.9,4.6,3,7.5,3.4h0l0,0c3,0.2,5.8-0.8,8-2.7
		c3-2.6,4.7-5.9,4.4-9.4c-0.3-3.2-1.2-6-2.9-8.3v0c-2.9-3.9-6.6-7.1-10.8-9.4c-4.2-2.4-8.6-4.1-13.3-5.1
		C1106.7,108.1,1102.3,107.5,1098,107.6L1098,107.6z M926.5,107.6c-4.7,0-9,0.8-13,2.4c-4,1.4-7.5,3.4-10.7,5.8
		c-2.9,2.3-5.4,4.7-7.6,7.4c-0.2-3.6-1.3-6.8-3.7-9.3c-2.5-2.8-5.9-4.2-9.7-4.2c-3.8,0-7.2,1.5-9.7,4.2c-2.5,2.7-3.8,6.1-3.8,10.1
		v85.6c0,4,1.3,7.5,3.8,10.3l0,0v0c2.5,2.7,5.9,4,9.7,4c3.8,0,7.1-1.4,9.7-4v0l0,0c2.5-2.8,3.8-6.3,3.8-10.3v-53
		c0-4.3,0.9-8.1,2.6-11.4v0c0,0,0,0,0,0c1.8-3.5,4.4-6.2,7.7-8.2c3.4-2,7.6-3.1,12.6-3.1c5.2,0,9,1.1,11.5,3c2.6,2,4.4,4.6,5.3,8
		l0,0v0c1.1,3.4,1.7,7.3,1.7,11.7v53c0,4,1.3,7.5,3.8,10.3l0,0v0c2.5,2.7,5.9,4,9.7,4s7.1-1.4,9.7-4v0l0,0c2.5-2.8,3.8-6.3,3.8-10.3
		v-53c0-8.8-1-16.8-3-24.1v0c-1.9-7.5-5.6-13.6-11-18.1C944.3,109.7,936.5,107.6,926.5,107.6L926.5,107.6z M803.6,107.6L803.6,107.6
		c-9,0-17.5,2.4-25.6,7.3c-8,4.8-14.6,11.8-19.6,20.9v0c-4.9,9-7.3,19.9-7.3,32.5c0,10.9,2.2,20.7,6.7,29.4v0
		c4.6,8.7,11.2,15.6,19.6,20.7l0,0c8.6,5,18.6,7.5,30.1,7.5c6.8,0,13.4-1.1,19.7-3.4l0,0c6.3-2.4,11.3-5.1,14.9-8.4
		c3.9-3.2,6.1-7.2,6.1-11.5c0-3.2-1.2-6.1-3.4-8.4c-2.1-2.4-5-3.6-8.3-3.6c-2.4,0-4.9,0.7-7.5,2l0,0l0,0c-1.5,0.9-3.2,1.9-5,3.2
		c-1.5,1-3.7,1.9-6.5,2.7c-2.7,0.8-6.5,1.2-11.2,1.2c-5,0-9.7-1.2-14.3-3.7c-4.4-2.6-8-6.3-10.9-11.2c0,0,0,0,0,0
		c-1.3-2.3-2.2-4.9-2.9-7.7h63.3c3.5,0,6.7-1.2,9.4-3.5c2.7-2.3,4.2-5.6,4.3-9.3v-0.1c0-7.7-1.4-15-4.3-21.8
		c-2.7-6.8-6.5-12.8-11.2-17.9v0c-4.8-5.3-10.3-9.4-16.5-12.4h0C817.2,109.1,810.6,107.6,803.6,107.6L803.6,107.6L803.6,107.6z
		 M587,107.6L587,107.6c-9,0-17.5,2.4-25.6,7.3c-8,4.8-14.6,11.8-19.6,20.9v0c-4.9,9-7.3,19.9-7.3,32.5c0,10.9,2.2,20.7,6.7,29.4v0
		c4.6,8.7,11.2,15.6,19.6,20.7v0c8.6,5,18.7,7.5,30.1,7.5c6.8,0,13.4-1.1,19.7-3.4h0v0c6.3-2.4,11.3-5.1,14.9-8.4
		c3.9-3.2,6.1-7.2,6.1-11.5c0-3.2-1.2-6.1-3.4-8.4c-2.1-2.4-5-3.6-8.3-3.6c-2.4,0-4.9,0.7-7.5,2l0,0l0,0c-1.5,0.9-3.2,1.9-5.1,3.2
		c-1.5,1-3.7,1.9-6.5,2.7c-2.7,0.8-6.5,1.2-11.2,1.2c-5,0-9.7-1.2-14.3-3.7c-4.4-2.6-8-6.3-10.9-11.2c0,0,0,0,0,0
		c-1.3-2.3-2.2-4.9-2.9-7.7h63.3c3.5,0,6.7-1.2,9.4-3.5c2.7-2.3,4.2-5.6,4.3-9.3v-0.1c0-7.7-1.4-15-4.3-21.8
		c-2.7-6.8-6.5-12.8-11.2-17.9v0c-4.8-5.3-10.3-9.4-16.5-12.4C600.4,109.1,593.9,107.6,587,107.6L587,107.6L587,107.6z M1005.6,85.8
		c-3.8,0-7.2,1.5-9.9,4.2c-2.5,2.7-3.8,6.1-3.8,10.1v11.6h-7.5c-3.5,0-6.6,1.3-9,3.8c-2.4,2.4-3.7,5.5-3.7,9.1c0,3.7,1.3,7,3.6,9.5
		c2.4,2.5,5.5,3.8,9.1,3.8h7.5v55.5c0,6.9,1,12.5,3.2,16.8c2.1,4.1,4.7,7.2,7.9,9.3l0,0l0,0c3.2,1.9,6.6,3.1,10,3.7l0.1,0
		c3.5,0.4,6.6,0.6,9.5,0.6c4.9,0,9.5-1.3,13.7-4c4.4-2.7,6.9-6.5,6.9-11c0-3.5-0.9-6.4-2.8-8.6c-1.7-2-3.8-3.3-6.2-3.3
		c-1.9,0-3.7,0.4-5.3,1.2l0.1-0.1c-1.1,0.5-2.3,0.7-3.7,0.7c-1.2,0-2.4-0.2-3.5-0.7c-0.9-0.4-1.6-1-2.2-2c-0.5-0.9-0.8-2.2-0.8-3.9
		v-54.4h12.5c3.5,0,6.6-1.2,9-3.6l0,0l0,0c2.4-2.5,3.6-5.7,3.6-9.3c0-3.7-1.2-7-3.6-9.5c-2.4-2.5-5.5-3.8-9.1-3.8H1019v-11.6
		c0-3.9-1.3-7.4-3.8-10.1C1012.7,87.3,1009.4,85.8,1005.6,85.8L1005.6,85.8z"/>
	<g>
		<g>
			
				<linearGradient id="SVGID_00000168119287917733353000000016475403537535998137_" gradientUnits="userSpaceOnUse" x1="25.9222" y1="137.5291" x2="227.3776" y2="137.5291" gradientTransform="matrix(1 0 0 -1 0 302)">
				<stop  offset="0" style="stop-color:#DA4398"/>
				<stop  offset="0.9994" style="stop-color:#B46AAB"/>
			</linearGradient>
			
				<path id="SVGID_00000069357947241456290020000016765814773579635376_" fill="url(#SVGID_00000168119287917733353000000016475403537535998137_)" d="
				M227.4,208.1c0-37.3-27.7-66.6-62.9-66.6c-33.3,0-59.9,26.3-62.6,60.7c-0.3,3.3-0.2,8.6-0.2,11.9v7.5c0,3.3-2.5,6-5.6,6H84.2
				c-3.1,0-5.5-2.8-6.6-5.8c-3.6-7.5-6.1-12.1-13.8-12.2c-7-0.2-11.7,6-14,12.2c-1.1,3-3.6,5.8-6.7,5.8H31.5c-3.1,0-5.6-2.7-5.6-6
				v-7.5c0-2.1,0-4,0-6c0.3-7.6,0.4-9.2,0.5-10.9l0-0.1c0-0.3,0.1-0.6,0.1-0.9s0.1-0.6,0.1-0.9c0-0.3,0.1-0.6,0.1-0.9
				c0-0.3,0.1-0.6,0.1-0.9c0-0.3,0.1-0.6,0.1-0.9c0-0.3,0.1-0.6,0.1-0.9c0-0.3,0.1-0.6,0.1-0.9c0-0.3,0.1-0.6,0.1-0.9
				c0.1-0.3,0.1-0.6,0.2-0.9c0.1-0.3,0.1-0.6,0.2-0.9s0.1-0.6,0.2-0.9c0.1-0.3,0.1-0.6,0.2-0.9c0.1-0.3,0.1-0.6,0.2-0.9
				c0.1-0.3,0.1-0.6,0.2-0.9c0.1-0.3,0.1-0.6,0.2-0.9c0.1-0.3,0.1-0.6,0.2-0.9s0.1-0.6,0.2-0.9s0.1-0.6,0.2-0.9
				c0.1-0.3,0.1-0.6,0.2-0.9c0.1-0.3,0.1-0.6,0.2-0.9c0.1-0.3,0.2-0.6,0.2-0.9c0.1-0.3,0.2-0.6,0.2-0.9c0.1-0.3,0.2-0.6,0.2-0.9
				c0.1-0.3,0.2-0.6,0.3-0.9s0.2-0.6,0.3-0.9c0.1-0.3,0.2-0.6,0.3-0.9c0.1-0.3,0.2-0.6,0.3-0.9c0.1-0.3,0.2-0.6,0.3-0.9
				c0.1-0.3,0.2-0.6,0.3-0.9c0.1-0.3,0.2-0.6,0.3-0.9c0.1-0.3,0.2-0.6,0.3-0.9c0.1-0.3,0.2-0.6,0.3-0.9c0.1-0.3,0.2-0.6,0.3-0.8
				c0.1-0.3,0.2-0.6,0.3-0.8c0.1-0.3,0.2-0.6,0.3-0.8c0.1-0.3,0.2-0.6,0.3-0.8c0.1-0.3,0.2-0.6,0.3-0.8c0.1-0.3,0.2-0.6,0.4-0.8
				c0.1-0.3,0.2-0.5,0.4-0.8c0.1-0.3,0.2-0.5,0.4-0.8c0.1-0.3,0.2-0.5,0.4-0.8c0.1-0.3,0.2-0.5,0.4-0.8c0.1-0.3,0.3-0.5,0.4-0.8
				c0.1-0.3,0.3-0.5,0.4-0.8c0.1-0.3,0.3-0.5,0.4-0.8c0.1-0.3,0.3-0.5,0.4-0.8c0.1-0.3,0.3-0.5,0.4-0.8c0.1-0.3,0.3-0.5,0.4-0.8
				c0.1-0.3,0.3-0.5,0.4-0.8c0.1-0.3,0.3-0.5,0.4-0.8c0.1-0.3,0.3-0.5,0.4-0.8c0.1-0.3,0.3-0.5,0.4-0.8c0.2-0.3,0.3-0.5,0.4-0.8
				c0.2-0.3,0.3-0.5,0.5-0.8c0.1-0.3,0.3-0.5,0.5-0.8c0.2-0.3,0.3-0.5,0.5-0.8c0.2-0.3,0.3-0.5,0.5-0.8c0.2-0.2,0.3-0.5,0.5-0.8
				c0.2-0.3,0.3-0.5,0.5-0.8c0.2-0.2,0.3-0.5,0.5-0.7c0.2-0.2,0.3-0.5,0.5-0.7c0.2-0.2,0.3-0.5,0.5-0.7c0.2-0.2,0.3-0.5,0.5-0.7
				c0.2-0.2,0.3-0.5,0.5-0.7c0.2-0.2,0.3-0.5,0.5-0.7c0.2-0.2,0.4-0.5,0.5-0.7c0.2-0.2,0.4-0.5,0.5-0.7c0.2-0.2,0.4-0.5,0.5-0.7
				c0.2-0.2,0.4-0.5,0.5-0.7c0.2-0.2,0.4-0.5,0.5-0.7c0.2-0.2,0.4-0.5,0.6-0.7c0.2-0.2,0.4-0.5,0.6-0.7c0.2-0.2,0.4-0.5,0.6-0.7
				c0.2-0.2,0.4-0.5,0.6-0.7c0.2-0.2,0.4-0.5,0.6-0.7c0.2-0.2,0.4-0.5,0.6-0.7c0.2-0.2,0.4-0.4,0.6-0.7c0.2-0.2,0.4-0.4,0.6-0.7
				c0.2-0.2,0.4-0.4,0.6-0.7c0.2-0.2,0.4-0.4,0.6-0.6c0.2-0.2,0.4-0.4,0.6-0.6c0.2-0.2,0.4-0.4,0.6-0.6c0.2-0.2,0.4-0.4,0.6-0.6
				c0.2-0.2,0.4-0.4,0.6-0.6c0.2-0.2,0.4-0.4,0.6-0.6c0.2-0.2,0.4-0.4,0.6-0.6c0.2-0.2,0.4-0.4,0.6-0.6c0.2-0.2,0.4-0.4,0.6-0.6
				c0.2-0.2,0.4-0.4,0.7-0.6c0.2-0.2,0.4-0.4,0.7-0.6c0.2-0.2,0.4-0.4,0.7-0.6c0.2-0.2,0.4-0.4,0.7-0.6c0.2-0.2,0.4-0.4,0.7-0.6
				c0.2-0.2,0.4-0.4,0.7-0.6s0.4-0.4,0.7-0.6c0.2-0.2,0.5-0.4,0.7-0.5c0.2-0.2,0.5-0.4,0.7-0.5c0.2-0.2,0.5-0.4,0.7-0.5
				c0.2-0.2,0.5-0.4,0.7-0.5c0.2-0.2,0.5-0.4,0.7-0.5c0.2-0.2,0.5-0.3,0.7-0.5c0.2-0.2,0.5-0.3,0.7-0.5c0.2-0.2,0.5-0.3,0.7-0.5
				c0.2-0.2,0.5-0.3,0.7-0.5c0.2-0.2,0.5-0.3,0.7-0.5c0.2-0.2,0.5-0.3,0.7-0.5c0.2-0.2,0.5-0.3,0.7-0.5c0.2-0.2,0.5-0.3,0.7-0.5
				c0.2-0.2,0.5-0.3,0.7-0.5c0.2-0.2,0.5-0.3,0.7-0.5c0.2-0.2,0.5-0.3,0.7-0.5c0.2-0.1,0.5-0.3,0.7-0.5c0.2-0.1,0.5-0.3,0.8-0.4
				c0.2-0.1,0.5-0.3,0.8-0.4c0.3-0.1,0.5-0.3,0.8-0.4c0.2-0.1,0.5-0.3,0.8-0.4c0.3-0.1,0.5-0.3,0.8-0.4c0.3-0.1,0.5-0.3,0.8-0.4
				c0.3-0.1,0.5-0.3,0.8-0.4c0.3-0.1,0.5-0.3,0.8-0.4c0.3-0.1,0.5-0.3,0.8-0.4c0.3-0.1,0.5-0.3,0.8-0.4c0.3-0.1,0.5-0.3,0.8-0.4
				c0.3-0.1,0.5-0.2,0.8-0.4c0.3-0.1,0.5-0.2,0.8-0.4c0.3-0.1,0.5-0.2,0.8-0.4c0.3-0.1,0.5-0.2,0.8-0.3s0.5-0.2,0.8-0.3
				c0.3-0.1,0.5-0.2,0.8-0.3c0.3-0.1,0.5-0.2,0.8-0.3c0.3-0.1,0.5-0.2,0.8-0.3c0.3-0.1,0.5-0.2,0.8-0.3c0.3-0.1,0.5-0.2,0.8-0.3
				c0.3-0.1,0.5-0.2,0.8-0.3c0.3-0.1,0.5-0.2,0.8-0.3c0.3-0.1,0.5-0.2,0.8-0.3c0.3-0.1,0.5-0.2,0.8-0.3s0.5-0.2,0.8-0.3
				c0.3-0.1,0.5-0.2,0.8-0.3c0.3-0.1,0.5-0.2,0.8-0.3c0.3-0.1,0.5-0.2,0.8-0.2c0.3-0.1,0.6-0.2,0.8-0.2c0.3-0.1,0.6-0.1,0.8-0.2
				c0.3-0.1,0.5-0.1,0.8-0.2c0.3-0.1,0.6-0.1,0.8-0.2c0.3-0.1,0.6-0.1,0.8-0.2c0.3-0.1,0.6-0.1,0.8-0.2c0.3-0.1,0.6-0.1,0.8-0.2
				c0.3-0.1,0.6-0.1,0.8-0.2s0.6-0.1,0.8-0.2s0.6-0.1,0.8-0.2c0.3-0.1,0.6-0.1,0.8-0.2c0.3,0,0.6-0.1,0.8-0.1c0.3,0,0.6-0.1,0.8-0.1
				c0.3,0,0.6-0.1,0.9-0.1c0.3,0,0.6-0.1,0.9-0.1c0.3,0,0.6-0.1,0.9-0.1c0.3,0,0.6-0.1,0.9-0.1c0.3,0,0.6-0.1,0.9-0.1
				c0.3,0,0.6-0.1,0.9-0.1c0.3,0,0.6-0.1,0.9-0.1c0.3,0,0.6-0.1,0.9-0.1c0.3,0,0.6,0,0.9-0.1c0.3,0,0.6,0,0.9-0.1
				c0.3,0,0.6,0,0.9-0.1c0.3,0,0.6,0,0.9,0s0.6,0,0.9,0c0.3,0,0.6,0,0.9,0c0.3,0,0.6,0,0.9,0s0.6,0,0.9,0c0.3,0,0.6,0,0.9,0
				c0.3,0,0.6,0,0.9,0h0.1c0.3,0,0.6,0,0.9,0c0.3,0,0.6,0,0.9,0c0.3,0,0.6,0,0.9,0c0.3,0,0.6,0,0.9,0c0.3,0,0.6,0,0.9,0
				c0.3,0,0.6,0,0.9,0c0.3,0,0.6,0,0.9,0c0.3,0,0.6,0,0.9,0.1c0.3,0,0.6,0,0.9,0.1c0.3,0,0.6,0,0.9,0.1c0.3,0,0.6,0.1,0.9,0.1
				c0.3,0,0.6,0.1,0.9,0.1c0.3,0,0.6,0.1,0.9,0.1c0.3,0,0.6,0.1,0.9,0.1c0.3,0,0.6,0.1,0.9,0.1c0.3,0,0.6,0.1,0.9,0.1
				c0.3,0,0.6,0.1,0.9,0.1c0.3,0,0.6,0.1,0.9,0.1c0.3,0,0.6,0.1,0.9,0.1c0.3,0,0.6,0.1,0.8,0.1c0.3,0,0.6,0.1,0.8,0.2
				s0.6,0.1,0.8,0.2c0.3,0.1,0.6,0.1,0.8,0.2c0.3,0.1,0.6,0.1,0.8,0.2c0.3,0.1,0.6,0.1,0.8,0.2s0.6,0.1,0.8,0.2
				c0.3,0.1,0.6,0.1,0.8,0.2c0.3,0.1,0.6,0.1,0.8,0.2c0.3,0.1,0.6,0.1,0.8,0.2c0.3,0.1,0.6,0.1,0.8,0.2c0.3,0.1,0.5,0.2,0.8,0.2
				c0.3,0.1,0.6,0.2,0.8,0.2c0.3,0.1,0.5,0.2,0.8,0.3c0.3,0.1,0.5,0.2,0.8,0.3c0.3,0.1,0.5,0.2,0.8,0.3c0.3,0.1,0.5,0.2,0.8,0.3
				c0.3,0.1,0.5,0.2,0.8,0.3c0.3,0.1,0.5,0.2,0.8,0.3c0.3,0.1,0.5,0.2,0.8,0.3c0.3,0.1,0.5,0.2,0.8,0.3c0.3,0.1,0.5,0.2,0.8,0.3
				c0.3,0.1,0.5,0.2,0.8,0.3c0.3,0.1,0.5,0.2,0.8,0.3c0.3,0.1,0.5,0.2,0.8,0.3c0.3,0.1,0.5,0.2,0.8,0.3c0.3,0.1,0.5,0.2,0.8,0.3
				c0.3,0.1,0.5,0.2,0.8,0.4c0.3,0.1,0.5,0.2,0.8,0.4c0.3,0.1,0.5,0.2,0.8,0.4c0.3,0.1,0.5,0.2,0.8,0.4c0.3,0.1,0.5,0.3,0.8,0.4
				c0.3,0.1,0.5,0.3,0.8,0.4c0.3,0.1,0.5,0.3,0.8,0.4c0.3,0.1,0.5,0.3,0.8,0.4c0.3,0.1,0.5,0.3,0.8,0.4c0.3,0.1,0.5,0.3,0.8,0.4
				c0.3,0.1,0.5,0.3,0.8,0.4c0.3,0.1,0.5,0.3,0.8,0.4c0.3,0.1,0.5,0.3,0.8,0.4c0.2,0.1,0.5,0.3,0.8,0.4s0.5,0.3,0.8,0.5
				c0.2,0.1,0.5,0.3,0.7,0.5c0.2,0.2,0.5,0.3,0.7,0.5c0.2,0.2,0.5,0.3,0.7,0.5c0.2,0.2,0.5,0.3,0.7,0.5c0.2,0.2,0.5,0.3,0.7,0.5
				s0.5,0.3,0.7,0.5s0.5,0.3,0.7,0.5c0.2,0.2,0.5,0.3,0.7,0.5c0.2,0.2,0.5,0.3,0.7,0.5s0.5,0.3,0.7,0.5s0.5,0.3,0.7,0.5
				c0.2,0.2,0.5,0.4,0.7,0.5c0.2,0.2,0.5,0.4,0.7,0.5c0.2,0.2,0.5,0.4,0.7,0.5c0.2,0.2,0.5,0.4,0.7,0.5c0.2,0.2,0.5,0.4,0.7,0.6
				s0.4,0.4,0.7,0.6c0.2,0.2,0.4,0.4,0.7,0.6s0.4,0.4,0.7,0.6c0.2,0.2,0.4,0.4,0.7,0.6c0.2,0.2,0.4,0.4,0.7,0.6
				c0.2,0.2,0.4,0.4,0.7,0.6c0.2,0.2,0.4,0.4,0.7,0.6c0.2,0.2,0.4,0.4,0.6,0.6c0.2,0.2,0.4,0.4,0.6,0.6c0.2,0.2,0.4,0.4,0.6,0.6
				c0.2,0.2,0.4,0.4,0.6,0.6c0.2,0.2,0.4,0.4,0.6,0.6c0.2,0.2,0.4,0.4,0.6,0.6c0.2,0.2,0.4,0.4,0.6,0.6c0.2,0.2,0.4,0.4,0.6,0.6
				c0.2,0.2,0.4,0.4,0.6,0.6c0.2,0.2,0.4,0.4,0.6,0.7c0.2,0.2,0.4,0.4,0.6,0.7c0.2,0.2,0.4,0.4,0.6,0.7c0.2,0.2,0.4,0.4,0.6,0.7
				c0.2,0.2,0.4,0.5,0.6,0.7c0.2,0.2,0.4,0.5,0.6,0.7c0.2,0.2,0.4,0.5,0.6,0.7c0.2,0.2,0.4,0.5,0.6,0.7c0.2,0.2,0.4,0.5,0.6,0.7
				c0.2,0.2,0.4,0.5,0.5,0.7c0.2,0.2,0.4,0.5,0.5,0.7c0.2,0.2,0.4,0.5,0.5,0.7c0.2,0.2,0.4,0.5,0.5,0.7c0.2,0.2,0.3,0.5,0.5,0.7
				c0.2,0.2,0.3,0.5,0.5,0.7c0.2,0.2,0.3,0.5,0.5,0.7c0.2,0.2,0.3,0.5,0.5,0.7c0.2,0.2,0.3,0.5,0.5,0.7c0.2,0.2,0.3,0.5,0.5,0.7
				c0.2,0.2,0.3,0.5,0.5,0.7s0.3,0.5,0.5,0.7c0.2,0.3,0.3,0.5,0.5,0.8s0.3,0.5,0.5,0.8c0.2,0.3,0.3,0.5,0.5,0.8
				c0.2,0.3,0.3,0.5,0.5,0.8c0.2,0.3,0.3,0.5,0.5,0.8c0.2,0.3,0.3,0.5,0.4,0.8s0.3,0.5,0.4,0.8s0.3,0.5,0.4,0.8
				c0.1,0.3,0.3,0.5,0.4,0.8c0.1,0.3,0.3,0.5,0.4,0.8c0.1,0.3,0.3,0.5,0.4,0.8s0.3,0.5,0.4,0.8c0.1,0.3,0.3,0.5,0.4,0.8
				c0.1,0.3,0.3,0.5,0.4,0.8s0.3,0.5,0.4,0.8s0.3,0.5,0.4,0.8c0.1,0.3,0.3,0.5,0.4,0.8c0.1,0.3,0.2,0.5,0.4,0.8
				c0.1,0.3,0.2,0.5,0.4,0.8c0.1,0.3,0.2,0.5,0.4,0.8c0.1,0.3,0.2,0.6,0.4,0.8c0.1,0.3,0.2,0.6,0.3,0.8c0.1,0.3,0.2,0.6,0.3,0.8
				c0.1,0.3,0.2,0.6,0.3,0.8c0.1,0.3,0.2,0.6,0.3,0.8c0.1,0.3,0.2,0.6,0.3,0.8c0.1,0.3,0.2,0.6,0.3,0.9c0.1,0.3,0.2,0.6,0.3,0.8
				c0.1,0.3,0.2,0.6,0.3,0.9c0.1,0.3,0.2,0.6,0.3,0.9c0.1,0.3,0.2,0.6,0.3,0.9c0.1,0.3,0.2,0.6,0.3,0.9c0.1,0.3,0.2,0.6,0.3,0.9
				c0.1,0.3,0.2,0.6,0.3,0.9c0.1,0.3,0.2,0.6,0.3,0.9c0.1,0.3,0.2,0.6,0.2,0.9c0.1,0.3,0.2,0.6,0.2,0.9c0.1,0.3,0.2,0.6,0.2,0.9
				c0.1,0.3,0.1,0.6,0.2,0.9c0.1,0.3,0.1,0.6,0.2,0.9c0.1,0.3,0.1,0.6,0.2,0.9c0.1,0.3,0.1,0.6,0.2,0.9c0.1,0.3,0.1,0.6,0.2,0.9
				c0.1,0.3,0.1,0.6,0.2,0.9c0.1,0.3,0.1,0.6,0.2,0.9c0.1,0.3,0.1,0.6,0.2,0.9c0.1,0.3,0.1,0.6,0.2,0.9c0.1,0.3,0.1,0.6,0.2,0.9
				c0.1,0.3,0.1,0.6,0.2,0.9c0.1,0.3,0.1,0.6,0.1,0.9c0.1,0.3,0.1,0.6,0.1,0.9c0,0.3,0.1,0.6,0.1,0.9c0,0.3,0.1,0.6,0.1,0.9
				c0,0.3,0.1,0.6,0.1,0.9s0.1,0.6,0.1,0.9c0,0.3,0.1,0.6,0.1,0.9c0,0.3,0.1,0.6,0.1,0.9c0,0.3,0.1,0.6,0.1,0.9s0.1,0.6,0.1,0.9
				c0,0.3,0.1,0.6,0.1,0.9c0,0.3,0,0.6,0.1,0.9c0,0.3,0,0.6,0.1,0.9c0,0.3,0,0.6,0.1,0.9c0,0.3,0,0.6,0,0.9s0,0.6,0,0.9
				c0,0.3,0,0.6,0,0.9c0,0.3,0,0.6,0,0.9c0,0.3,0,0.6,0,0.9c0,0.3,0,0.6,0,0.9C227.4,207.5,227.4,207.8,227.4,208.1L227.4,208.1z"/>
		</g>
		<g>
			<defs>
				<path id="SVGID_00000080886558659844002380000003023191092991104671_" d="M221.7,208.5c0-36.4-26.9-65.1-61.1-65.1
					c-32.3,0-58.2,25.7-60.8,59.3c-0.3,3.2-0.2,8.4-0.2,11.6v7.4c0,3.2-2.4,5.8-5.5,5.8H82.6c-3,0-5.4-2.7-6.5-5.7
					c-3.5-7.3-6-11.8-13.4-11.9c-6.8-0.2-11.3,5.9-13.6,11.9c-1.1,3-3.5,5.7-6.5,5.7H31.4c-3,0-5.5-2.6-5.5-5.8v-7.4
					c0-2.1,0-3.9,0-5.8c0.3-7.4,0.4-9,0.5-10.6l0-0.1c0-0.3,0.1-0.6,0.1-0.9c0-0.3,0.1-0.6,0.1-0.9c0-0.3,0.1-0.6,0.1-0.9
					c0-0.3,0.1-0.6,0.1-0.9c0-0.3,0.1-0.6,0.1-0.9c0-0.3,0.1-0.6,0.1-0.9c0-0.3,0.1-0.6,0.1-0.9c0-0.3,0.1-0.6,0.1-0.9
					c0.1-0.3,0.1-0.6,0.2-0.9c0.1-0.3,0.1-0.6,0.2-0.9c0.1-0.3,0.1-0.6,0.2-0.9c0.1-0.3,0.1-0.6,0.2-0.9c0.1-0.3,0.1-0.6,0.2-0.9
					c0.1-0.3,0.1-0.6,0.2-0.9c0.1-0.3,0.1-0.6,0.2-0.9c0.1-0.3,0.1-0.6,0.2-0.9c0.1-0.3,0.1-0.6,0.2-0.9c0.1-0.3,0.1-0.6,0.2-0.9
					c0.1-0.3,0.1-0.6,0.2-0.9s0.1-0.6,0.2-0.9c0.1-0.3,0.2-0.6,0.2-0.9c0.1-0.3,0.2-0.6,0.2-0.9c0.1-0.3,0.2-0.6,0.2-0.9
					c0.1-0.3,0.2-0.6,0.2-0.9c0.1-0.3,0.2-0.6,0.3-0.9c0.1-0.3,0.2-0.6,0.3-0.8s0.2-0.6,0.3-0.8s0.2-0.6,0.3-0.8
					c0.1-0.3,0.2-0.6,0.3-0.8c0.1-0.3,0.2-0.6,0.3-0.8c0.1-0.3,0.2-0.6,0.3-0.8c0.1-0.3,0.2-0.6,0.3-0.8c0.1-0.3,0.2-0.6,0.3-0.8
					c0.1-0.3,0.2-0.6,0.3-0.8c0.1-0.3,0.2-0.5,0.3-0.8c0.1-0.3,0.2-0.5,0.3-0.8s0.2-0.5,0.3-0.8c0.1-0.3,0.2-0.5,0.3-0.8
					c0.1-0.3,0.2-0.5,0.3-0.8c0.1-0.3,0.2-0.5,0.4-0.8c0.1-0.3,0.2-0.5,0.4-0.8c0.1-0.3,0.2-0.5,0.4-0.8c0.1-0.3,0.2-0.5,0.4-0.8
					c0.1-0.3,0.3-0.5,0.4-0.8c0.1-0.3,0.3-0.5,0.4-0.8c0.1-0.3,0.3-0.5,0.4-0.8c0.1-0.3,0.3-0.5,0.4-0.8c0.1-0.3,0.3-0.5,0.4-0.8
					c0.1-0.3,0.3-0.5,0.4-0.8c0.1-0.3,0.3-0.5,0.4-0.8c0.1-0.3,0.3-0.5,0.4-0.8c0.1-0.3,0.3-0.5,0.4-0.8c0.2-0.3,0.3-0.5,0.4-0.8
					c0.2-0.2,0.3-0.5,0.4-0.8c0.1-0.2,0.3-0.5,0.5-0.8c0.2-0.2,0.3-0.5,0.5-0.7c0.2-0.2,0.3-0.5,0.5-0.7c0.2-0.2,0.3-0.5,0.5-0.7
					c0.2-0.2,0.3-0.5,0.5-0.7c0.2-0.2,0.3-0.5,0.5-0.7c0.2-0.2,0.3-0.5,0.5-0.7c0.2-0.2,0.3-0.5,0.5-0.7c0.2-0.2,0.3-0.5,0.5-0.7
					c0.2-0.2,0.3-0.5,0.5-0.7c0.2-0.2,0.3-0.5,0.5-0.7c0.2-0.2,0.3-0.5,0.5-0.7c0.2-0.2,0.3-0.5,0.5-0.7c0.2-0.2,0.3-0.5,0.5-0.7
					c0.2-0.2,0.4-0.5,0.5-0.7c0.2-0.2,0.4-0.5,0.5-0.7c0.2-0.2,0.4-0.4,0.5-0.7c0.2-0.2,0.4-0.4,0.5-0.7c0.2-0.2,0.4-0.4,0.5-0.7
					c0.2-0.2,0.4-0.4,0.6-0.7c0.2-0.2,0.4-0.4,0.6-0.7c0.2-0.2,0.4-0.4,0.6-0.6c0.2-0.2,0.4-0.4,0.6-0.6c0.2-0.2,0.4-0.4,0.6-0.6
					c0.2-0.2,0.4-0.4,0.6-0.6c0.2-0.2,0.4-0.4,0.6-0.6c0.2-0.2,0.4-0.4,0.6-0.6c0.2-0.2,0.4-0.4,0.6-0.6c0.2-0.2,0.4-0.4,0.6-0.6
					c0.2-0.2,0.4-0.4,0.6-0.6c0.2-0.2,0.4-0.4,0.6-0.6c0.2-0.2,0.4-0.4,0.6-0.6c0.2-0.2,0.4-0.4,0.6-0.6c0.2-0.2,0.4-0.4,0.6-0.6
					c0.2-0.2,0.4-0.4,0.6-0.6c0.2-0.2,0.4-0.4,0.6-0.6c0.2-0.2,0.4-0.4,0.6-0.6c0.2-0.2,0.4-0.4,0.6-0.6c0.2-0.2,0.4-0.4,0.6-0.6
					c0.2-0.2,0.4-0.4,0.7-0.6c0.2-0.2,0.4-0.4,0.7-0.5c0.2-0.2,0.4-0.4,0.7-0.5c0.2-0.2,0.4-0.4,0.7-0.5c0.2-0.2,0.5-0.4,0.7-0.5
					c0.2-0.2,0.5-0.4,0.7-0.5c0.2-0.2,0.5-0.3,0.7-0.5c0.2-0.2,0.5-0.3,0.7-0.5c0.2-0.2,0.5-0.3,0.7-0.5c0.2-0.2,0.5-0.3,0.7-0.5
					c0.2-0.2,0.5-0.3,0.7-0.5c0.2-0.2,0.5-0.3,0.7-0.5c0.2-0.2,0.5-0.3,0.7-0.5c0.2-0.2,0.5-0.3,0.7-0.5c0.2-0.2,0.5-0.3,0.7-0.5
					s0.5-0.3,0.7-0.5c0.2-0.2,0.5-0.3,0.7-0.4c0.2-0.2,0.5-0.3,0.7-0.4c0.2-0.1,0.5-0.3,0.7-0.4c0.2-0.1,0.5-0.3,0.7-0.4
					c0.2-0.1,0.5-0.3,0.7-0.4c0.2-0.1,0.5-0.3,0.7-0.4c0.2-0.1,0.5-0.3,0.7-0.4c0.2-0.1,0.5-0.3,0.7-0.4c0.2-0.1,0.5-0.3,0.7-0.4
					c0.2-0.1,0.5-0.3,0.8-0.4c0.2-0.1,0.5-0.3,0.8-0.4c0.3-0.1,0.5-0.3,0.8-0.4c0.3-0.1,0.5-0.2,0.8-0.4c0.3-0.1,0.5-0.2,0.8-0.4
					c0.3-0.1,0.5-0.2,0.8-0.4c0.3-0.1,0.5-0.2,0.8-0.4c0.3-0.1,0.5-0.2,0.8-0.3c0.3-0.1,0.5-0.2,0.8-0.3c0.3-0.1,0.5-0.2,0.8-0.3
					c0.3-0.1,0.5-0.2,0.8-0.3c0.3-0.1,0.5-0.2,0.8-0.3c0.3-0.1,0.5-0.2,0.8-0.3c0.3-0.1,0.5-0.2,0.8-0.3c0.3-0.1,0.5-0.2,0.8-0.3
					c0.3-0.1,0.5-0.2,0.8-0.3c0.3-0.1,0.5-0.2,0.8-0.3c0.3-0.1,0.5-0.2,0.8-0.3c0.3-0.1,0.5-0.2,0.8-0.3c0.3-0.1,0.5-0.2,0.8-0.3
					c0.3-0.1,0.5-0.2,0.8-0.2c0.3-0.1,0.5-0.2,0.8-0.2c0.3-0.1,0.5-0.2,0.8-0.2c0.3-0.1,0.5-0.2,0.8-0.2c0.3-0.1,0.5-0.1,0.8-0.2
					c0.3-0.1,0.5-0.1,0.8-0.2c0.3-0.1,0.5-0.1,0.8-0.2s0.5-0.1,0.8-0.2c0.3-0.1,0.5-0.1,0.8-0.2c0.3-0.1,0.5-0.1,0.8-0.2
					c0.3-0.1,0.5-0.1,0.8-0.2s0.5-0.1,0.8-0.2c0.3-0.1,0.5-0.1,0.8-0.2c0.3-0.1,0.5-0.1,0.8-0.2c0.3,0,0.5-0.1,0.8-0.1
					s0.5-0.1,0.8-0.1c0.3,0,0.5-0.1,0.8-0.1c0.3,0,0.6-0.1,0.8-0.1c0.3,0,0.5-0.1,0.8-0.1c0.3,0,0.5-0.1,0.8-0.1s0.5-0.1,0.8-0.1
					c0.3,0,0.5-0.1,0.8-0.1c0.3,0,0.5-0.1,0.8-0.1s0.6-0.1,0.8-0.1c0.3,0,0.6,0,0.8-0.1c0.3,0,0.6,0,0.8-0.1c0.3,0,0.6,0,0.8-0.1
					c0.3,0,0.6,0,0.8,0c0.3,0,0.6,0,0.8,0c0.3,0,0.6,0,0.8,0c0.3,0,0.6,0,0.8,0c0.3,0,0.6,0,0.8,0c0.3,0,0.6,0,0.8,0
					c0.3,0,0.6,0,0.8,0h0.1c0.3,0,0.6,0,0.8,0c0.3,0,0.6,0,0.8,0c0.3,0,0.6,0,0.8,0c0.3,0,0.6,0,0.8,0c0.3,0,0.6,0,0.8,0
					c0.3,0,0.6,0,0.8,0c0.3,0,0.6,0,0.8,0c0.3,0,0.6,0,0.8,0.1c0.3,0,0.6,0,0.8,0.1c0.3,0,0.6,0,0.8,0.1c0.3,0,0.6,0.1,0.8,0.1
					c0.3,0,0.5,0.1,0.8,0.1s0.6,0.1,0.8,0.1s0.5,0.1,0.8,0.1c0.3,0,0.5,0.1,0.8,0.1c0.3,0,0.5,0.1,0.8,0.1c0.3,0,0.5,0.1,0.8,0.1
					c0.3,0,0.5,0.1,0.8,0.1c0.3,0,0.5,0.1,0.8,0.1c0.3,0,0.5,0.1,0.8,0.1c0.3,0,0.5,0.1,0.8,0.2s0.5,0.1,0.8,0.2
					c0.3,0.1,0.5,0.1,0.8,0.2s0.5,0.1,0.8,0.2s0.5,0.1,0.8,0.2s0.5,0.1,0.8,0.2c0.3,0.1,0.5,0.1,0.8,0.2s0.5,0.1,0.8,0.2
					c0.3,0.1,0.5,0.1,0.8,0.2c0.3,0.1,0.5,0.1,0.8,0.2c0.3,0.1,0.5,0.2,0.8,0.2c0.3,0.1,0.5,0.2,0.8,0.2c0.3,0.1,0.5,0.2,0.8,0.2
					c0.3,0.1,0.5,0.2,0.8,0.2c0.3,0.1,0.5,0.2,0.8,0.3c0.3,0.1,0.5,0.2,0.8,0.3c0.3,0.1,0.5,0.2,0.8,0.3c0.3,0.1,0.5,0.2,0.8,0.3
					c0.3,0.1,0.5,0.2,0.8,0.3s0.5,0.2,0.8,0.3s0.5,0.2,0.8,0.3c0.3,0.1,0.5,0.2,0.8,0.3s0.5,0.2,0.8,0.3s0.5,0.2,0.8,0.3
					c0.3,0.1,0.5,0.2,0.8,0.3s0.5,0.2,0.8,0.3c0.3,0.1,0.5,0.2,0.8,0.3c0.3,0.1,0.5,0.2,0.8,0.4c0.3,0.1,0.5,0.2,0.8,0.4
					c0.3,0.1,0.5,0.2,0.8,0.4c0.3,0.1,0.5,0.2,0.8,0.4c0.3,0.1,0.5,0.2,0.8,0.4c0.2,0.1,0.5,0.3,0.8,0.4c0.2,0.1,0.5,0.3,0.8,0.4
					c0.2,0.1,0.5,0.3,0.7,0.4c0.2,0.1,0.5,0.3,0.7,0.4c0.2,0.1,0.5,0.3,0.7,0.4c0.2,0.1,0.5,0.3,0.7,0.4c0.2,0.1,0.5,0.3,0.7,0.4
					c0.2,0.1,0.5,0.3,0.7,0.4c0.2,0.1,0.5,0.3,0.7,0.4c0.2,0.1,0.5,0.3,0.7,0.4c0.2,0.2,0.5,0.3,0.7,0.5c0.2,0.2,0.5,0.3,0.7,0.5
					c0.2,0.2,0.5,0.3,0.7,0.5c0.2,0.2,0.5,0.3,0.7,0.5s0.5,0.3,0.7,0.5s0.5,0.3,0.7,0.5c0.2,0.2,0.5,0.3,0.7,0.5
					c0.2,0.2,0.5,0.3,0.7,0.5c0.2,0.2,0.5,0.3,0.7,0.5c0.2,0.2,0.5,0.3,0.7,0.5c0.2,0.2,0.5,0.3,0.7,0.5c0.2,0.2,0.5,0.3,0.7,0.5
					c0.2,0.2,0.4,0.4,0.7,0.5s0.4,0.4,0.7,0.5c0.2,0.2,0.4,0.4,0.7,0.5c0.2,0.2,0.4,0.4,0.7,0.5c0.2,0.2,0.4,0.4,0.7,0.6
					s0.4,0.4,0.6,0.6c0.2,0.2,0.4,0.4,0.6,0.6c0.2,0.2,0.4,0.4,0.6,0.6c0.2,0.2,0.4,0.4,0.6,0.6c0.2,0.2,0.4,0.4,0.6,0.6
					c0.2,0.2,0.4,0.4,0.6,0.6c0.2,0.2,0.4,0.4,0.6,0.6c0.2,0.2,0.4,0.4,0.6,0.6c0.2,0.2,0.4,0.4,0.6,0.6c0.2,0.2,0.4,0.4,0.6,0.6
					c0.2,0.2,0.4,0.4,0.6,0.6c0.2,0.2,0.4,0.4,0.6,0.6c0.2,0.2,0.4,0.4,0.6,0.6c0.2,0.2,0.4,0.4,0.6,0.6c0.2,0.2,0.4,0.4,0.6,0.6
					c0.2,0.2,0.4,0.4,0.6,0.6c0.2,0.2,0.4,0.4,0.6,0.6c0.2,0.2,0.4,0.4,0.6,0.6c0.2,0.2,0.4,0.4,0.6,0.7c0.2,0.2,0.4,0.4,0.5,0.7
					c0.2,0.2,0.4,0.4,0.6,0.7c0.2,0.2,0.4,0.4,0.5,0.7s0.4,0.4,0.5,0.7c0.2,0.2,0.4,0.5,0.5,0.7c0.2,0.2,0.4,0.5,0.5,0.7
					c0.2,0.2,0.3,0.5,0.5,0.7c0.2,0.2,0.3,0.5,0.5,0.7s0.3,0.5,0.5,0.7c0.2,0.2,0.3,0.5,0.5,0.7c0.2,0.2,0.3,0.5,0.5,0.7
					c0.2,0.2,0.3,0.5,0.5,0.7c0.2,0.2,0.3,0.5,0.5,0.7c0.2,0.2,0.3,0.5,0.5,0.7c0.2,0.2,0.3,0.5,0.5,0.7s0.3,0.5,0.5,0.7
					c0.2,0.2,0.3,0.5,0.5,0.7s0.3,0.5,0.5,0.7c0.2,0.2,0.3,0.5,0.5,0.7c0.2,0.2,0.3,0.5,0.5,0.7c0.2,0.2,0.3,0.5,0.4,0.8
					c0.2,0.3,0.3,0.5,0.4,0.8c0.1,0.3,0.3,0.5,0.4,0.8c0.1,0.3,0.3,0.5,0.4,0.8c0.1,0.3,0.3,0.5,0.4,0.8c0.1,0.3,0.3,0.5,0.4,0.8
					c0.1,0.3,0.3,0.5,0.4,0.8c0.1,0.3,0.3,0.5,0.4,0.8c0.1,0.3,0.3,0.5,0.4,0.8c0.1,0.3,0.3,0.5,0.4,0.8c0.1,0.3,0.3,0.5,0.4,0.8
					c0.1,0.3,0.2,0.5,0.4,0.8c0.1,0.3,0.2,0.5,0.4,0.8c0.1,0.3,0.2,0.5,0.4,0.8s0.2,0.5,0.4,0.8c0.1,0.3,0.2,0.5,0.3,0.8
					c0.1,0.3,0.2,0.5,0.3,0.8c0.1,0.3,0.2,0.5,0.3,0.8c0.1,0.3,0.2,0.5,0.3,0.8c0.1,0.3,0.2,0.5,0.3,0.8c0.1,0.3,0.2,0.5,0.3,0.8
					c0.1,0.3,0.2,0.6,0.3,0.8c0.1,0.3,0.2,0.6,0.3,0.8c0.1,0.3,0.2,0.6,0.3,0.8c0.1,0.3,0.2,0.6,0.3,0.8c0.1,0.3,0.2,0.6,0.3,0.8
					c0.1,0.3,0.2,0.6,0.3,0.8c0.1,0.3,0.2,0.6,0.3,0.8s0.2,0.6,0.3,0.8c0.1,0.3,0.2,0.6,0.3,0.9c0.1,0.3,0.2,0.6,0.2,0.9
					c0.1,0.3,0.2,0.6,0.2,0.9c0.1,0.3,0.2,0.6,0.2,0.9c0.1,0.3,0.2,0.6,0.2,0.9c0.1,0.3,0.1,0.6,0.2,0.9c0.1,0.3,0.1,0.6,0.2,0.9
					c0.1,0.3,0.1,0.6,0.2,0.9c0.1,0.3,0.1,0.6,0.2,0.9c0.1,0.3,0.1,0.6,0.2,0.9c0.1,0.3,0.1,0.6,0.2,0.9c0.1,0.3,0.1,0.6,0.2,0.9
					c0.1,0.3,0.1,0.6,0.2,0.9c0.1,0.3,0.1,0.6,0.2,0.9c0.1,0.3,0.1,0.6,0.2,0.9c0.1,0.3,0.1,0.6,0.2,0.9c0.1,0.3,0.1,0.6,0.1,0.9
					c0.1,0.3,0.1,0.6,0.1,0.9c0,0.3,0.1,0.6,0.1,0.9c0,0.3,0.1,0.6,0.1,0.9c0,0.3,0.1,0.6,0.1,0.9s0.1,0.6,0.1,0.9
					c0,0.3,0.1,0.6,0.1,0.9c0,0.3,0.1,0.6,0.1,0.9c0,0.3,0.1,0.6,0.1,0.9s0.1,0.6,0.1,0.9c0,0.3,0.1,0.6,0.1,0.9
					c0,0.3,0,0.6,0.1,0.9c0,0.3,0,0.6,0.1,0.9c0,0.3,0,0.6,0.1,0.9s0,0.6,0,0.9s0,0.6,0,0.9c0,0.3,0,0.6,0,0.9c0,0.3,0,0.6,0,0.9
					s0,0.6,0,0.9c0,0.3,0,0.6,0,0.9C221.7,208,221.7,208.3,221.7,208.5L221.7,208.5z"/>
			</defs>
			<clipPath id="SVGID_00000044149718193160153260000000399998105948408216_">
				<use xlink:href="#SVGID_00000080886558659844002380000003023191092991104671_"  overflow="visible"/>
			</clipPath>
		</g>
	</g>
	<g>
		<g>
			
				<linearGradient id="SVGID_00000047777350580985284810000005526259623260457873_" gradientUnits="userSpaceOnUse" x1="26.4869" y1="156.7363" x2="295.2502" y2="156.7363" gradientTransform="matrix(1 0 0 -1 0 302)">
				<stop  offset="0" style="stop-color:#FFF33B"/>
				<stop  offset="5.950000e-02" style="stop-color:#FFE029"/>
				<stop  offset="0.1303" style="stop-color:#FFD217"/>
				<stop  offset="0.2032" style="stop-color:#FEC90E"/>
				<stop  offset="0.2809" style="stop-color:#FDC70C"/>
				<stop  offset="0.6685" style="stop-color:#F3903F"/>
				<stop  offset="0.8876" style="stop-color:#ED683C"/>
				<stop  offset="1" style="stop-color:#E93E3A"/>
			</linearGradient>
			
				<path id="SVGID_00000040569330609575044710000002757115625567616934_" fill="url(#SVGID_00000047777350580985284810000005526259623260457873_)" d="
				M289.7,225.4h-11.5c-3,0-5.4-2.7-6.5-5.7c-2.1-5.8-7.3-9.9-13.4-9.9c-6.1,0-11.5,4.2-13.6,9.9c-1.1,3-3.5,5.7-6.5,5.7h-11.2
				c-1.4,0-2.8-0.6-3.9-1.7c-1-1.1-1.6-2.6-1.6-4.1v-11h0c0-0.3,0-0.6,0-0.9c0-0.3,0-0.6,0-0.9c0-0.3,0-0.6,0-0.9c0-0.3,0-0.6,0-0.9
				c0-0.3,0-0.6,0-0.9c0-0.3,0-0.6,0-0.9c0-0.3,0-0.6,0-0.9c0-0.3,0-0.6-0.1-0.9c0-0.3,0-0.6-0.1-0.9s0-0.6-0.1-0.9
				c0-0.3-0.1-0.6-0.1-0.9c0-0.3-0.1-0.6-0.1-0.9c0-0.3-0.1-0.6-0.1-0.9c0-0.3-0.1-0.6-0.1-0.9c0-0.3-0.1-0.6-0.1-0.9
				c0-0.3-0.1-0.6-0.1-0.9c0-0.3-0.1-0.6-0.1-0.9c0-0.3-0.1-0.6-0.1-0.9c0-0.3-0.1-0.6-0.1-0.9c0-0.3-0.1-0.6-0.1-0.9
				c0-0.3-0.1-0.6-0.1-0.9c-0.1-0.3-0.1-0.6-0.2-0.9c-0.1-0.3-0.1-0.6-0.2-0.9c-0.1-0.3-0.1-0.6-0.2-0.9c-0.1-0.3-0.1-0.6-0.2-0.9
				c-0.1-0.3-0.1-0.6-0.2-0.9s-0.1-0.6-0.2-0.9c-0.1-0.3-0.1-0.6-0.2-0.9c-0.1-0.3-0.1-0.6-0.2-0.9c-0.1-0.3-0.1-0.6-0.2-0.9
				c-0.1-0.3-0.1-0.6-0.2-0.9c-0.1-0.3-0.1-0.6-0.2-0.9c-0.1-0.3-0.2-0.6-0.2-0.9c-0.1-0.3-0.2-0.6-0.2-0.9
				c-0.1-0.3-0.2-0.6-0.2-0.9c-0.1-0.3-0.2-0.6-0.2-0.9c-0.1-0.3-0.2-0.6-0.3-0.9c-0.1-0.3-0.2-0.6-0.3-0.8s-0.2-0.6-0.3-0.8
				s-0.2-0.6-0.3-0.8c-0.1-0.3-0.2-0.6-0.3-0.8c-0.1-0.3-0.2-0.6-0.3-0.8c-0.1-0.3-0.2-0.6-0.3-0.8c-0.1-0.3-0.2-0.6-0.3-0.8
				c-0.1-0.3-0.2-0.6-0.3-0.8c-0.1-0.3-0.2-0.6-0.3-0.8c-0.1-0.3-0.2-0.5-0.3-0.8c-0.1-0.3-0.2-0.5-0.3-0.8
				c-0.1-0.3-0.2-0.5-0.3-0.8c-0.1-0.3-0.2-0.5-0.3-0.8s-0.2-0.5-0.4-0.8c-0.1-0.3-0.2-0.5-0.4-0.8c-0.1-0.3-0.2-0.5-0.4-0.8
				c-0.1-0.3-0.2-0.5-0.4-0.8c-0.1-0.3-0.2-0.5-0.4-0.8c-0.1-0.3-0.3-0.5-0.4-0.8c-0.1-0.3-0.3-0.5-0.4-0.8
				c-0.1-0.3-0.3-0.5-0.4-0.8c-0.1-0.3-0.3-0.5-0.4-0.8c-0.1-0.3-0.3-0.5-0.4-0.8s-0.3-0.5-0.4-0.8c-0.1-0.3-0.3-0.5-0.4-0.8
				s-0.3-0.5-0.4-0.8c-0.1-0.3-0.3-0.5-0.4-0.8c-0.2-0.3-0.3-0.5-0.4-0.8c-0.1-0.2-0.3-0.5-0.4-0.8c-0.2-0.2-0.3-0.5-0.4-0.7
				c-0.2-0.2-0.3-0.5-0.5-0.7c-0.2-0.2-0.3-0.5-0.5-0.7c-0.2-0.2-0.3-0.5-0.5-0.7c-0.2-0.2-0.3-0.5-0.5-0.7s-0.3-0.5-0.5-0.7
				c-0.2-0.2-0.3-0.5-0.5-0.7c-0.2-0.2-0.3-0.5-0.5-0.7c-0.2-0.2-0.3-0.5-0.5-0.7c-0.2-0.2-0.3-0.5-0.5-0.7
				c-0.2-0.2-0.3-0.5-0.5-0.7c-0.2-0.2-0.3-0.5-0.5-0.7c-0.2-0.2-0.3-0.5-0.5-0.7c-0.2-0.2-0.3-0.5-0.5-0.7
				c-0.2-0.2-0.4-0.5-0.5-0.7c-0.2-0.2-0.4-0.5-0.5-0.7c-0.2-0.2-0.4-0.4-0.5-0.7s-0.4-0.4-0.5-0.7c-0.2-0.2-0.4-0.4-0.5-0.7
				c-0.2-0.2-0.4-0.4-0.6-0.7c-0.2-0.2-0.4-0.4-0.6-0.7c-0.2-0.2-0.4-0.4-0.6-0.6c-0.2-0.2-0.4-0.4-0.6-0.6
				c-0.2-0.2-0.4-0.4-0.6-0.6c-0.2-0.2-0.4-0.4-0.6-0.6c-0.2-0.2-0.4-0.4-0.6-0.6c-0.2-0.2-0.4-0.4-0.6-0.6
				c-0.2-0.2-0.4-0.4-0.6-0.6c-0.2-0.2-0.4-0.4-0.6-0.6c-0.2-0.2-0.4-0.4-0.6-0.6c-0.2-0.2-0.4-0.4-0.6-0.6
				c-0.2-0.2-0.4-0.4-0.6-0.6c-0.2-0.2-0.4-0.4-0.6-0.6c-0.2-0.2-0.4-0.4-0.6-0.6c-0.2-0.2-0.4-0.4-0.6-0.6
				c-0.2-0.2-0.4-0.4-0.6-0.6c-0.2-0.2-0.4-0.4-0.6-0.6c-0.2-0.2-0.4-0.4-0.6-0.6c-0.2-0.2-0.4-0.4-0.6-0.6
				c-0.2-0.2-0.4-0.4-0.7-0.6c-0.2-0.2-0.4-0.4-0.7-0.5c-0.2-0.2-0.4-0.4-0.7-0.5c-0.2-0.2-0.4-0.4-0.7-0.5
				c-0.2-0.2-0.4-0.4-0.7-0.5c-0.2-0.2-0.5-0.3-0.7-0.5c-0.2-0.2-0.5-0.3-0.7-0.5c-0.2-0.2-0.5-0.3-0.7-0.5
				c-0.2-0.2-0.5-0.3-0.7-0.5c-0.2-0.2-0.5-0.3-0.7-0.5c-0.2-0.2-0.5-0.3-0.7-0.5c-0.2-0.2-0.5-0.3-0.7-0.5
				c-0.2-0.2-0.5-0.3-0.7-0.5c-0.2-0.2-0.5-0.3-0.7-0.5c-0.2-0.2-0.5-0.3-0.7-0.5c-0.2-0.2-0.5-0.3-0.7-0.5
				c-0.2-0.2-0.5-0.3-0.7-0.5c-0.2-0.1-0.5-0.3-0.7-0.4c-0.2-0.1-0.5-0.3-0.7-0.4c-0.2-0.1-0.5-0.3-0.7-0.4
				c-0.2-0.1-0.5-0.3-0.7-0.4c-0.2-0.1-0.5-0.3-0.7-0.4c-0.2-0.1-0.5-0.3-0.7-0.4c-0.2-0.1-0.5-0.3-0.7-0.4
				c-0.2-0.1-0.5-0.3-0.7-0.4c-0.2-0.1-0.5-0.3-0.8-0.4c-0.2-0.1-0.5-0.3-0.8-0.4c-0.2-0.1-0.5-0.2-0.8-0.4
				c-0.2-0.1-0.5-0.2-0.8-0.4c-0.3-0.1-0.5-0.2-0.8-0.4s-0.5-0.2-0.8-0.4c-0.3-0.1-0.5-0.2-0.8-0.3c-0.3-0.1-0.5-0.2-0.8-0.3
				c-0.3-0.1-0.5-0.2-0.8-0.3c-0.3-0.1-0.5-0.2-0.8-0.3c-0.3-0.1-0.5-0.2-0.8-0.3c-0.3-0.1-0.5-0.2-0.8-0.3
				c-0.3-0.1-0.5-0.2-0.8-0.3c-0.3-0.1-0.5-0.2-0.8-0.3c-0.3-0.1-0.5-0.2-0.8-0.3c-0.3-0.1-0.5-0.2-0.8-0.3
				c-0.3-0.1-0.5-0.2-0.8-0.3c-0.3-0.1-0.5-0.2-0.8-0.3c-0.3-0.1-0.5-0.2-0.8-0.3c-0.3-0.1-0.5-0.2-0.8-0.3
				c-0.3-0.1-0.5-0.2-0.8-0.2s-0.5-0.2-0.8-0.2c-0.3-0.1-0.5-0.2-0.8-0.2c-0.3-0.1-0.5-0.2-0.8-0.2c-0.3-0.1-0.5-0.2-0.8-0.2
				c-0.3-0.1-0.5-0.1-0.8-0.2s-0.5-0.1-0.8-0.2c-0.3-0.1-0.5-0.1-0.8-0.2c-0.3-0.1-0.5-0.1-0.8-0.2s-0.5-0.1-0.8-0.2
				c-0.3-0.1-0.5-0.1-0.8-0.2c-0.3-0.1-0.5-0.1-0.8-0.2c-0.3-0.1-0.5-0.1-0.8-0.2c-0.3-0.1-0.5-0.1-0.8-0.2c-0.3,0-0.5-0.1-0.8-0.1
				c-0.3,0-0.5-0.1-0.8-0.1c-0.3,0-0.5-0.1-0.8-0.1c-0.3,0-0.5-0.1-0.8-0.1c-0.3,0-0.5-0.1-0.8-0.1c-0.3,0-0.5-0.1-0.8-0.1
				c-0.3,0-0.6-0.1-0.8-0.1c-0.3,0-0.5-0.1-0.8-0.1c-0.3,0-0.6-0.1-0.8-0.1c-0.3,0-0.5-0.1-0.8-0.1c-0.3,0-0.6,0-0.8-0.1
				c-0.3,0-0.5,0-0.8-0.1c-0.3,0-0.6,0-0.8-0.1c-0.3,0-0.6,0-0.8,0c-0.3,0-0.6,0-0.8,0c-0.3,0-0.6,0-0.8,0c-0.3,0-0.6,0-0.8,0
				c-0.3,0-0.6,0-0.8,0c-0.3,0-0.6,0-0.8,0c-0.3,0-0.6,0-0.8,0h-0.1c-0.3,0-0.6,0-0.8,0c-0.3,0-0.6,0-0.8,0c-0.3,0-0.6,0-0.8,0
				c-0.3,0-0.6,0-0.8,0c-0.3,0-0.6,0-0.8,0c-0.3,0-0.6,0-0.8,0c-0.3,0-0.6,0-0.8,0c-0.3,0-0.6,0-0.8,0.1c-0.3,0-0.5,0-0.8,0.1
				s-0.6,0-0.8,0.1c-0.3,0-0.5,0.1-0.8,0.1c-0.3,0-0.5,0.1-0.8,0.1c-0.3,0-0.5,0.1-0.8,0.1c-0.3,0-0.5,0.1-0.8,0.1
				c-0.3,0-0.5,0.1-0.8,0.1c-0.3,0-0.5,0.1-0.8,0.1c-0.3,0-0.5,0.1-0.8,0.1c-0.3,0-0.5,0.1-0.8,0.1c-0.3,0-0.5,0.1-0.8,0.1
				c-0.3,0-0.5,0.1-0.8,0.1s-0.5,0.1-0.8,0.2c-0.3,0-0.5,0.1-0.8,0.2s-0.5,0.1-0.8,0.2c-0.3,0.1-0.5,0.1-0.8,0.2
				c-0.3,0.1-0.5,0.1-0.8,0.2c-0.3,0.1-0.5,0.1-0.8,0.2c-0.3,0.1-0.5,0.1-0.8,0.2c-0.3,0.1-0.5,0.1-0.8,0.2
				c-0.3,0.1-0.5,0.1-0.8,0.2c-0.3,0.1-0.5,0.1-0.8,0.2c-0.3,0.1-0.5,0.2-0.8,0.2c-0.3,0.1-0.5,0.2-0.8,0.2
				c-0.3,0.1-0.5,0.2-0.8,0.2c-0.3,0.1-0.5,0.2-0.8,0.2c-0.3,0.1-0.5,0.2-0.8,0.3c-0.3,0.1-0.5,0.2-0.8,0.3
				c-0.3,0.1-0.5,0.2-0.8,0.3c-0.3,0.1-0.5,0.2-0.8,0.3c-0.3,0.1-0.5,0.2-0.8,0.3c-0.3,0.1-0.5,0.2-0.8,0.3
				c-0.3,0.1-0.5,0.2-0.8,0.3c-0.3,0.1-0.5,0.2-0.8,0.3c-0.3,0.1-0.5,0.2-0.8,0.3c-0.3,0.1-0.5,0.2-0.8,0.3
				c-0.3,0.1-0.5,0.2-0.8,0.3c-0.3,0.1-0.5,0.2-0.8,0.3c-0.3,0.1-0.5,0.2-0.8,0.3c-0.3,0.1-0.5,0.2-0.8,0.4
				c-0.3,0.1-0.5,0.2-0.8,0.4c-0.3,0.1-0.5,0.2-0.8,0.4c-0.3,0.1-0.5,0.2-0.8,0.4c-0.3,0.1-0.5,0.2-0.8,0.4s-0.5,0.3-0.8,0.4
				c-0.2,0.1-0.5,0.3-0.8,0.4c-0.2,0.1-0.5,0.3-0.7,0.4c-0.2,0.1-0.5,0.3-0.7,0.4c-0.2,0.1-0.5,0.3-0.7,0.4
				c-0.2,0.1-0.5,0.3-0.7,0.4c-0.2,0.1-0.5,0.3-0.7,0.4c-0.2,0.1-0.5,0.3-0.7,0.4c-0.2,0.1-0.5,0.3-0.7,0.4
				c-0.2,0.1-0.5,0.3-0.7,0.4c-0.2,0.1-0.5,0.3-0.7,0.4c-0.2,0.2-0.5,0.3-0.7,0.5c-0.2,0.2-0.5,0.3-0.7,0.5
				c-0.2,0.2-0.5,0.3-0.7,0.5c-0.2,0.2-0.5,0.3-0.7,0.5c-0.2,0.2-0.5,0.3-0.7,0.5c-0.2,0.2-0.5,0.3-0.7,0.5
				c-0.2,0.2-0.5,0.3-0.7,0.5c-0.2,0.2-0.5,0.3-0.7,0.5c-0.2,0.2-0.5,0.3-0.7,0.5c-0.2,0.2-0.5,0.3-0.7,0.5
				c-0.2,0.2-0.5,0.3-0.7,0.5s-0.5,0.4-0.7,0.5c-0.2,0.2-0.4,0.4-0.7,0.5c-0.2,0.2-0.4,0.4-0.7,0.5c-0.2,0.2-0.4,0.4-0.7,0.5
				c-0.2,0.2-0.4,0.4-0.7,0.6c-0.2,0.2-0.4,0.4-0.6,0.6c-0.2,0.2-0.4,0.4-0.6,0.6c-0.2,0.2-0.4,0.4-0.6,0.6
				c-0.2,0.2-0.4,0.4-0.6,0.6c-0.2,0.2-0.4,0.4-0.6,0.6s-0.4,0.4-0.6,0.6c-0.2,0.2-0.4,0.4-0.6,0.6c-0.2,0.2-0.4,0.4-0.6,0.6
				c-0.2,0.2-0.4,0.4-0.6,0.6c-0.2,0.2-0.4,0.4-0.6,0.6c-0.2,0.2-0.4,0.4-0.6,0.6c-0.2,0.2-0.4,0.4-0.6,0.6
				c-0.2,0.2-0.4,0.4-0.6,0.6c-0.2,0.2-0.4,0.4-0.6,0.6c-0.2,0.2-0.4,0.4-0.6,0.6c-0.2,0.2-0.4,0.4-0.6,0.6
				c-0.2,0.2-0.4,0.4-0.6,0.6s-0.4,0.4-0.6,0.6c-0.2,0.2-0.4,0.4-0.6,0.7c-0.2,0.2-0.4,0.4-0.6,0.7c-0.2,0.2-0.4,0.4-0.5,0.7
				c-0.2,0.2-0.4,0.4-0.5,0.7c-0.2,0.2-0.4,0.4-0.5,0.7s-0.4,0.5-0.5,0.7c-0.2,0.2-0.4,0.5-0.5,0.7c-0.2,0.2-0.3,0.5-0.5,0.7
				c-0.2,0.2-0.3,0.5-0.5,0.7c-0.2,0.2-0.3,0.5-0.5,0.7c-0.2,0.2-0.3,0.5-0.5,0.7c-0.2,0.2-0.3,0.5-0.5,0.7
				c-0.2,0.2-0.3,0.5-0.5,0.7c-0.2,0.2-0.3,0.5-0.5,0.7c-0.2,0.2-0.3,0.5-0.5,0.7c-0.2,0.2-0.3,0.5-0.5,0.7
				c-0.2,0.2-0.3,0.5-0.5,0.7c-0.2,0.2-0.3,0.5-0.5,0.7c-0.2,0.2-0.3,0.5-0.5,0.7c-0.2,0.2-0.3,0.5-0.5,0.7
				c-0.2,0.2-0.3,0.5-0.5,0.8c-0.2,0.2-0.3,0.5-0.4,0.8c-0.1,0.3-0.3,0.5-0.4,0.8c-0.1,0.3-0.3,0.5-0.4,0.8
				c-0.1,0.3-0.3,0.5-0.4,0.8s-0.3,0.5-0.4,0.8s-0.3,0.5-0.4,0.8c-0.1,0.3-0.3,0.5-0.4,0.8c-0.1,0.3-0.3,0.5-0.4,0.8
				c-0.1,0.3-0.3,0.5-0.4,0.8c-0.1,0.3-0.3,0.5-0.4,0.8c-0.1,0.3-0.3,0.5-0.4,0.8c-0.1,0.3-0.3,0.5-0.4,0.8
				c-0.1,0.3-0.2,0.5-0.4,0.8c-0.1,0.3-0.2,0.5-0.4,0.8c-0.1,0.3-0.2,0.5-0.4,0.8c-0.1,0.3-0.2,0.5-0.3,0.8
				c-0.1,0.3-0.2,0.5-0.3,0.8c-0.1,0.3-0.2,0.5-0.3,0.8c-0.1,0.3-0.2,0.5-0.3,0.8c-0.1,0.3-0.2,0.5-0.3,0.8
				c-0.1,0.3-0.2,0.5-0.3,0.8c-0.1,0.3-0.2,0.6-0.3,0.8c-0.1,0.3-0.2,0.6-0.3,0.8c-0.1,0.3-0.2,0.6-0.3,0.8
				c-0.1,0.3-0.2,0.6-0.3,0.8c-0.1,0.3-0.2,0.6-0.3,0.8c-0.1,0.3-0.2,0.6-0.3,0.8c-0.1,0.3-0.2,0.6-0.3,0.8s-0.2,0.6-0.3,0.8
				c-0.1,0.3-0.2,0.6-0.3,0.9c-0.1,0.3-0.2,0.6-0.2,0.9c-0.1,0.3-0.2,0.6-0.2,0.9c-0.1,0.3-0.2,0.6-0.2,0.9
				c-0.1,0.3-0.2,0.6-0.2,0.9c-0.1,0.3-0.2,0.6-0.2,0.9c-0.1,0.3-0.1,0.6-0.2,0.9c-0.1,0.3-0.1,0.6-0.2,0.9
				c-0.1,0.3-0.1,0.6-0.2,0.9c-0.1,0.3-0.1,0.6-0.2,0.9c-0.1,0.3-0.1,0.6-0.2,0.9c-0.1,0.3-0.1,0.6-0.2,0.9
				c-0.1,0.3-0.1,0.6-0.2,0.9c-0.1,0.3-0.1,0.6-0.2,0.9c-0.1,0.3-0.1,0.6-0.2,0.9c-0.1,0.3-0.1,0.6-0.2,0.9
				c-0.1,0.3-0.1,0.6-0.2,0.9c0,0.3-0.1,0.6-0.1,0.9c0,0.3-0.1,0.6-0.1,0.9c0,0.3-0.1,0.6-0.1,0.9c0,0.3-0.1,0.6-0.1,0.9
				c0,0.3-0.1,0.6-0.1,0.9s-0.1,0.6-0.1,0.9c0,0.3-0.1,0.6-0.1,0.9c0,0.3-0.1,0.6-0.1,0.9l0,0.1c5.2-73.9,63.6-132.9,134.1-132.9
				c73.9,0,134.6,64.7,134.6,143.5v11c0,1.5-0.6,3-1.6,4.1C292.6,224.8,291.2,225.4,289.7,225.4L289.7,225.4z"/>
		</g>
		<g>
			<defs>
				<path id="SVGID_00000123403019056505981360000018307344795465724839_" d="M289.7,225.4h-11.5c-3,0-5.4-2.7-6.5-5.7
					c-2.1-5.8-7.3-9.9-13.4-9.9c-6.1,0-11.5,4.2-13.6,9.9c-1.1,3-3.5,5.7-6.5,5.7h-11.2c-1.4,0-2.8-0.6-3.9-1.7
					c-1-1.1-1.6-2.6-1.6-4.1v-11h0c0-0.3,0-0.6,0-0.9c0-0.3,0-0.6,0-0.9c0-0.3,0-0.6,0-0.9c0-0.3,0-0.6,0-0.9c0-0.3,0-0.6,0-0.9
					c0-0.3,0-0.6,0-0.9c0-0.3,0-0.6,0-0.9c0-0.3,0-0.6-0.1-0.9c0-0.3,0-0.6-0.1-0.9s0-0.6-0.1-0.9c0-0.3-0.1-0.6-0.1-0.9
					c0-0.3-0.1-0.6-0.1-0.9c0-0.3-0.1-0.6-0.1-0.9c0-0.3-0.1-0.6-0.1-0.9c0-0.3-0.1-0.6-0.1-0.9c0-0.3-0.1-0.6-0.1-0.9
					c0-0.3-0.1-0.6-0.1-0.9c0-0.3-0.1-0.6-0.1-0.9c0-0.3-0.1-0.6-0.1-0.9c0-0.3-0.1-0.6-0.1-0.9c0-0.3-0.1-0.6-0.1-0.9
					c-0.1-0.3-0.1-0.6-0.2-0.9c-0.1-0.3-0.1-0.6-0.2-0.9c-0.1-0.3-0.1-0.6-0.2-0.9c-0.1-0.3-0.1-0.6-0.2-0.9
					c-0.1-0.3-0.1-0.6-0.2-0.9s-0.1-0.6-0.2-0.9c-0.1-0.3-0.1-0.6-0.2-0.9c-0.1-0.3-0.1-0.6-0.2-0.9c-0.1-0.3-0.1-0.6-0.2-0.9
					c-0.1-0.3-0.1-0.6-0.2-0.9c-0.1-0.3-0.1-0.6-0.2-0.9c-0.1-0.3-0.2-0.6-0.2-0.9c-0.1-0.3-0.2-0.6-0.2-0.9
					c-0.1-0.3-0.2-0.6-0.2-0.9c-0.1-0.3-0.2-0.6-0.2-0.9c-0.1-0.3-0.2-0.6-0.3-0.9c-0.1-0.3-0.2-0.6-0.3-0.8s-0.2-0.6-0.3-0.8
					s-0.2-0.6-0.3-0.8c-0.1-0.3-0.2-0.6-0.3-0.8c-0.1-0.3-0.2-0.6-0.3-0.8c-0.1-0.3-0.2-0.6-0.3-0.8c-0.1-0.3-0.2-0.6-0.3-0.8
					c-0.1-0.3-0.2-0.6-0.3-0.8c-0.1-0.3-0.2-0.6-0.3-0.8c-0.1-0.3-0.2-0.5-0.3-0.8c-0.1-0.3-0.2-0.5-0.3-0.8
					c-0.1-0.3-0.2-0.5-0.3-0.8c-0.1-0.3-0.2-0.5-0.3-0.8s-0.2-0.5-0.4-0.8c-0.1-0.3-0.2-0.5-0.4-0.8c-0.1-0.3-0.2-0.5-0.4-0.8
					c-0.1-0.3-0.2-0.5-0.4-0.8c-0.1-0.3-0.2-0.5-0.4-0.8c-0.1-0.3-0.3-0.5-0.4-0.8c-0.1-0.3-0.3-0.5-0.4-0.8
					c-0.1-0.3-0.3-0.5-0.4-0.8c-0.1-0.3-0.3-0.5-0.4-0.8c-0.1-0.3-0.3-0.5-0.4-0.8s-0.3-0.5-0.4-0.8c-0.1-0.3-0.3-0.5-0.4-0.8
					s-0.3-0.5-0.4-0.8c-0.1-0.3-0.3-0.5-0.4-0.8c-0.2-0.3-0.3-0.5-0.4-0.8c-0.1-0.2-0.3-0.5-0.4-0.8c-0.2-0.2-0.3-0.5-0.4-0.7
					c-0.2-0.2-0.3-0.5-0.5-0.7c-0.2-0.2-0.3-0.5-0.5-0.7c-0.2-0.2-0.3-0.5-0.5-0.7c-0.2-0.2-0.3-0.5-0.5-0.7s-0.3-0.5-0.5-0.7
					c-0.2-0.2-0.3-0.5-0.5-0.7c-0.2-0.2-0.3-0.5-0.5-0.7c-0.2-0.2-0.3-0.5-0.5-0.7c-0.2-0.2-0.3-0.5-0.5-0.7
					c-0.2-0.2-0.3-0.5-0.5-0.7c-0.2-0.2-0.3-0.5-0.5-0.7c-0.2-0.2-0.3-0.5-0.5-0.7c-0.2-0.2-0.3-0.5-0.5-0.7
					c-0.2-0.2-0.4-0.5-0.5-0.7c-0.2-0.2-0.4-0.5-0.5-0.7c-0.2-0.2-0.4-0.4-0.5-0.7s-0.4-0.4-0.5-0.7c-0.2-0.2-0.4-0.4-0.5-0.7
					c-0.2-0.2-0.4-0.4-0.6-0.7c-0.2-0.2-0.4-0.4-0.6-0.7c-0.2-0.2-0.4-0.4-0.6-0.6c-0.2-0.2-0.4-0.4-0.6-0.6
					c-0.2-0.2-0.4-0.4-0.6-0.6c-0.2-0.2-0.4-0.4-0.6-0.6c-0.2-0.2-0.4-0.4-0.6-0.6c-0.2-0.2-0.4-0.4-0.6-0.6
					c-0.2-0.2-0.4-0.4-0.6-0.6c-0.2-0.2-0.4-0.4-0.6-0.6c-0.2-0.2-0.4-0.4-0.6-0.6c-0.2-0.2-0.4-0.4-0.6-0.6
					c-0.2-0.2-0.4-0.4-0.6-0.6c-0.2-0.2-0.4-0.4-0.6-0.6c-0.2-0.2-0.4-0.4-0.6-0.6c-0.2-0.2-0.4-0.4-0.6-0.6
					c-0.2-0.2-0.4-0.4-0.6-0.6c-0.2-0.2-0.4-0.4-0.6-0.6c-0.2-0.2-0.4-0.4-0.6-0.6c-0.2-0.2-0.4-0.4-0.6-0.6
					c-0.2-0.2-0.4-0.4-0.7-0.6c-0.2-0.2-0.4-0.4-0.7-0.5c-0.2-0.2-0.4-0.4-0.7-0.5c-0.2-0.2-0.4-0.4-0.7-0.5
					c-0.2-0.2-0.4-0.4-0.7-0.5c-0.2-0.2-0.5-0.3-0.7-0.5c-0.2-0.2-0.5-0.3-0.7-0.5c-0.2-0.2-0.5-0.3-0.7-0.5
					c-0.2-0.2-0.5-0.3-0.7-0.5c-0.2-0.2-0.5-0.3-0.7-0.5c-0.2-0.2-0.5-0.3-0.7-0.5c-0.2-0.2-0.5-0.3-0.7-0.5
					c-0.2-0.2-0.5-0.3-0.7-0.5c-0.2-0.2-0.5-0.3-0.7-0.5c-0.2-0.2-0.5-0.3-0.7-0.5c-0.2-0.2-0.5-0.3-0.7-0.5
					c-0.2-0.2-0.5-0.3-0.7-0.5c-0.2-0.1-0.5-0.3-0.7-0.4c-0.2-0.1-0.5-0.3-0.7-0.4c-0.2-0.1-0.5-0.3-0.7-0.4
					c-0.2-0.1-0.5-0.3-0.7-0.4c-0.2-0.1-0.5-0.3-0.7-0.4c-0.2-0.1-0.5-0.3-0.7-0.4c-0.2-0.1-0.5-0.3-0.7-0.4
					c-0.2-0.1-0.5-0.3-0.7-0.4c-0.2-0.1-0.5-0.3-0.8-0.4c-0.2-0.1-0.5-0.3-0.8-0.4c-0.2-0.1-0.5-0.2-0.8-0.4
					c-0.2-0.1-0.5-0.2-0.8-0.4c-0.3-0.1-0.5-0.2-0.8-0.4s-0.5-0.2-0.8-0.4c-0.3-0.1-0.5-0.2-0.8-0.3c-0.3-0.1-0.5-0.2-0.8-0.3
					c-0.3-0.1-0.5-0.2-0.8-0.3c-0.3-0.1-0.5-0.2-0.8-0.3c-0.3-0.1-0.5-0.2-0.8-0.3c-0.3-0.1-0.5-0.2-0.8-0.3
					c-0.3-0.1-0.5-0.2-0.8-0.3c-0.3-0.1-0.5-0.2-0.8-0.3c-0.3-0.1-0.5-0.2-0.8-0.3c-0.3-0.1-0.5-0.2-0.8-0.3
					c-0.3-0.1-0.5-0.2-0.8-0.3c-0.3-0.1-0.5-0.2-0.8-0.3c-0.3-0.1-0.5-0.2-0.8-0.3c-0.3-0.1-0.5-0.2-0.8-0.3
					c-0.3-0.1-0.5-0.2-0.8-0.2s-0.5-0.2-0.8-0.2c-0.3-0.1-0.5-0.2-0.8-0.2c-0.3-0.1-0.5-0.2-0.8-0.2c-0.3-0.1-0.5-0.2-0.8-0.2
					c-0.3-0.1-0.5-0.1-0.8-0.2s-0.5-0.1-0.8-0.2c-0.3-0.1-0.5-0.1-0.8-0.2c-0.3-0.1-0.5-0.1-0.8-0.2s-0.5-0.1-0.8-0.2
					c-0.3-0.1-0.5-0.1-0.8-0.2c-0.3-0.1-0.5-0.1-0.8-0.2c-0.3-0.1-0.5-0.1-0.8-0.2c-0.3-0.1-0.5-0.1-0.8-0.2c-0.3,0-0.5-0.1-0.8-0.1
					c-0.3,0-0.5-0.1-0.8-0.1c-0.3,0-0.5-0.1-0.8-0.1c-0.3,0-0.5-0.1-0.8-0.1c-0.3,0-0.5-0.1-0.8-0.1c-0.3,0-0.5-0.1-0.8-0.1
					c-0.3,0-0.6-0.1-0.8-0.1c-0.3,0-0.5-0.1-0.8-0.1c-0.3,0-0.6-0.1-0.8-0.1c-0.3,0-0.5-0.1-0.8-0.1c-0.3,0-0.6,0-0.8-0.1
					c-0.3,0-0.5,0-0.8-0.1c-0.3,0-0.6,0-0.8-0.1c-0.3,0-0.6,0-0.8,0c-0.3,0-0.6,0-0.8,0c-0.3,0-0.6,0-0.8,0c-0.3,0-0.6,0-0.8,0
					c-0.3,0-0.6,0-0.8,0c-0.3,0-0.6,0-0.8,0c-0.3,0-0.6,0-0.8,0h-0.1c-0.3,0-0.6,0-0.8,0c-0.3,0-0.6,0-0.8,0c-0.3,0-0.6,0-0.8,0
					c-0.3,0-0.6,0-0.8,0c-0.3,0-0.6,0-0.8,0c-0.3,0-0.6,0-0.8,0c-0.3,0-0.6,0-0.8,0c-0.3,0-0.6,0-0.8,0.1c-0.3,0-0.5,0-0.8,0.1
					s-0.6,0-0.8,0.1c-0.3,0-0.5,0.1-0.8,0.1c-0.3,0-0.5,0.1-0.8,0.1c-0.3,0-0.5,0.1-0.8,0.1c-0.3,0-0.5,0.1-0.8,0.1
					c-0.3,0-0.5,0.1-0.8,0.1c-0.3,0-0.5,0.1-0.8,0.1c-0.3,0-0.5,0.1-0.8,0.1c-0.3,0-0.5,0.1-0.8,0.1c-0.3,0-0.5,0.1-0.8,0.1
					c-0.3,0-0.5,0.1-0.8,0.1s-0.5,0.1-0.8,0.2c-0.3,0-0.5,0.1-0.8,0.2s-0.5,0.1-0.8,0.2c-0.3,0.1-0.5,0.1-0.8,0.2
					c-0.3,0.1-0.5,0.1-0.8,0.2c-0.3,0.1-0.5,0.1-0.8,0.2c-0.3,0.1-0.5,0.1-0.8,0.2c-0.3,0.1-0.5,0.1-0.8,0.2
					c-0.3,0.1-0.5,0.1-0.8,0.2c-0.3,0.1-0.5,0.1-0.8,0.2c-0.3,0.1-0.5,0.2-0.8,0.2c-0.3,0.1-0.5,0.2-0.8,0.2
					c-0.3,0.1-0.5,0.2-0.8,0.2c-0.3,0.1-0.5,0.2-0.8,0.2c-0.3,0.1-0.5,0.2-0.8,0.3c-0.3,0.1-0.5,0.2-0.8,0.3
					c-0.3,0.1-0.5,0.2-0.8,0.3c-0.3,0.1-0.5,0.2-0.8,0.3c-0.3,0.1-0.5,0.2-0.8,0.3c-0.3,0.1-0.5,0.2-0.8,0.3
					c-0.3,0.1-0.5,0.2-0.8,0.3c-0.3,0.1-0.5,0.2-0.8,0.3c-0.3,0.1-0.5,0.2-0.8,0.3c-0.3,0.1-0.5,0.2-0.8,0.3
					c-0.3,0.1-0.5,0.2-0.8,0.3c-0.3,0.1-0.5,0.2-0.8,0.3c-0.3,0.1-0.5,0.2-0.8,0.3c-0.3,0.1-0.5,0.2-0.8,0.4
					c-0.3,0.1-0.5,0.2-0.8,0.4c-0.3,0.1-0.5,0.2-0.8,0.4c-0.3,0.1-0.5,0.2-0.8,0.4c-0.3,0.1-0.5,0.2-0.8,0.4s-0.5,0.3-0.8,0.4
					c-0.2,0.1-0.5,0.3-0.8,0.4c-0.2,0.1-0.5,0.3-0.7,0.4c-0.2,0.1-0.5,0.3-0.7,0.4c-0.2,0.1-0.5,0.3-0.7,0.4
					c-0.2,0.1-0.5,0.3-0.7,0.4c-0.2,0.1-0.5,0.3-0.7,0.4c-0.2,0.1-0.5,0.3-0.7,0.4c-0.2,0.1-0.5,0.3-0.7,0.4
					c-0.2,0.1-0.5,0.3-0.7,0.4c-0.2,0.1-0.5,0.3-0.7,0.4c-0.2,0.2-0.5,0.3-0.7,0.5c-0.2,0.2-0.5,0.3-0.7,0.5
					c-0.2,0.2-0.5,0.3-0.7,0.5c-0.2,0.2-0.5,0.3-0.7,0.5c-0.2,0.2-0.5,0.3-0.7,0.5c-0.2,0.2-0.5,0.3-0.7,0.5
					c-0.2,0.2-0.5,0.3-0.7,0.5c-0.2,0.2-0.5,0.3-0.7,0.5c-0.2,0.2-0.5,0.3-0.7,0.5c-0.2,0.2-0.5,0.3-0.7,0.5
					c-0.2,0.2-0.5,0.3-0.7,0.5s-0.5,0.4-0.7,0.5c-0.2,0.2-0.4,0.4-0.7,0.5c-0.2,0.2-0.4,0.4-0.7,0.5c-0.2,0.2-0.4,0.4-0.7,0.5
					c-0.2,0.2-0.4,0.4-0.7,0.6c-0.2,0.2-0.4,0.4-0.6,0.6c-0.2,0.2-0.4,0.4-0.6,0.6c-0.2,0.2-0.4,0.4-0.6,0.6
					c-0.2,0.2-0.4,0.4-0.6,0.6c-0.2,0.2-0.4,0.4-0.6,0.6s-0.4,0.4-0.6,0.6c-0.2,0.2-0.4,0.4-0.6,0.6c-0.2,0.2-0.4,0.4-0.6,0.6
					c-0.2,0.2-0.4,0.4-0.6,0.6c-0.2,0.2-0.4,0.4-0.6,0.6c-0.2,0.2-0.4,0.4-0.6,0.6c-0.2,0.2-0.4,0.4-0.6,0.6
					c-0.2,0.2-0.4,0.4-0.6,0.6c-0.2,0.2-0.4,0.4-0.6,0.6c-0.2,0.2-0.4,0.4-0.6,0.6c-0.2,0.2-0.4,0.4-0.6,0.6
					c-0.2,0.2-0.4,0.4-0.6,0.6s-0.4,0.4-0.6,0.6c-0.2,0.2-0.4,0.4-0.6,0.7c-0.2,0.2-0.4,0.4-0.6,0.7c-0.2,0.2-0.4,0.4-0.5,0.7
					c-0.2,0.2-0.4,0.4-0.5,0.7c-0.2,0.2-0.4,0.4-0.5,0.7s-0.4,0.5-0.5,0.7c-0.2,0.2-0.4,0.5-0.5,0.7c-0.2,0.2-0.3,0.5-0.5,0.7
					c-0.2,0.2-0.3,0.5-0.5,0.7c-0.2,0.2-0.3,0.5-0.5,0.7c-0.2,0.2-0.3,0.5-0.5,0.7c-0.2,0.2-0.3,0.5-0.5,0.7
					c-0.2,0.2-0.3,0.5-0.5,0.7c-0.2,0.2-0.3,0.5-0.5,0.7c-0.2,0.2-0.3,0.5-0.5,0.7c-0.2,0.2-0.3,0.5-0.5,0.7
					c-0.2,0.2-0.3,0.5-0.5,0.7c-0.2,0.2-0.3,0.5-0.5,0.7c-0.2,0.2-0.3,0.5-0.5,0.7c-0.2,0.2-0.3,0.5-0.5,0.7
					c-0.2,0.2-0.3,0.5-0.5,0.8c-0.2,0.2-0.3,0.5-0.4,0.8c-0.1,0.3-0.3,0.5-0.4,0.8c-0.1,0.3-0.3,0.5-0.4,0.8
					c-0.1,0.3-0.3,0.5-0.4,0.8s-0.3,0.5-0.4,0.8s-0.3,0.5-0.4,0.8c-0.1,0.3-0.3,0.5-0.4,0.8c-0.1,0.3-0.3,0.5-0.4,0.8
					c-0.1,0.3-0.3,0.5-0.4,0.8c-0.1,0.3-0.3,0.5-0.4,0.8c-0.1,0.3-0.3,0.5-0.4,0.8c-0.1,0.3-0.3,0.5-0.4,0.8
					c-0.1,0.3-0.2,0.5-0.4,0.8c-0.1,0.3-0.2,0.5-0.4,0.8c-0.1,0.3-0.2,0.5-0.4,0.8c-0.1,0.3-0.2,0.5-0.3,0.8
					c-0.1,0.3-0.2,0.5-0.3,0.8c-0.1,0.3-0.2,0.5-0.3,0.8c-0.1,0.3-0.2,0.5-0.3,0.8c-0.1,0.3-0.2,0.5-0.3,0.8
					c-0.1,0.3-0.2,0.5-0.3,0.8c-0.1,0.3-0.2,0.6-0.3,0.8c-0.1,0.3-0.2,0.6-0.3,0.8c-0.1,0.3-0.2,0.6-0.3,0.8
					c-0.1,0.3-0.2,0.6-0.3,0.8c-0.1,0.3-0.2,0.6-0.3,0.8c-0.1,0.3-0.2,0.6-0.3,0.8c-0.1,0.3-0.2,0.6-0.3,0.8s-0.2,0.6-0.3,0.8
					c-0.1,0.3-0.2,0.6-0.3,0.9c-0.1,0.3-0.2,0.6-0.2,0.9c-0.1,0.3-0.2,0.6-0.2,0.9c-0.1,0.3-0.2,0.6-0.2,0.9
					c-0.1,0.3-0.2,0.6-0.2,0.9c-0.1,0.3-0.2,0.6-0.2,0.9c-0.1,0.3-0.1,0.6-0.2,0.9c-0.1,0.3-0.1,0.6-0.2,0.9
					c-0.1,0.3-0.1,0.6-0.2,0.9c-0.1,0.3-0.1,0.6-0.2,0.9c-0.1,0.3-0.1,0.6-0.2,0.9c-0.1,0.3-0.1,0.6-0.2,0.9
					c-0.1,0.3-0.1,0.6-0.2,0.9c-0.1,0.3-0.1,0.6-0.2,0.9c-0.1,0.3-0.1,0.6-0.2,0.9c-0.1,0.3-0.1,0.6-0.2,0.9
					c-0.1,0.3-0.1,0.6-0.2,0.9c0,0.3-0.1,0.6-0.1,0.9c0,0.3-0.1,0.6-0.1,0.9c0,0.3-0.1,0.6-0.1,0.9c0,0.3-0.1,0.6-0.1,0.9
					c0,0.3-0.1,0.6-0.1,0.9s-0.1,0.6-0.1,0.9c0,0.3-0.1,0.6-0.1,0.9c0,0.3-0.1,0.6-0.1,0.9l0,0.1c5.2-73.9,63.6-132.9,134.1-132.9
					c73.9,0,134.6,64.7,134.6,143.5v11c0,1.5-0.6,3-1.6,4.1C292.6,224.8,291.2,225.4,289.7,225.4L289.7,225.4z"/>
			</defs>
			<clipPath id="SVGID_00000137110273271543381680000014064296038708022412_">
				<use xlink:href="#SVGID_00000123403019056505981360000018307344795465724839_"  overflow="visible"/>
			</clipPath>
		</g>
	</g>
	<g display="none" opacity="0.115" enable-background="new    ">
		<g display="inline">
			<path fill="#010101" d="M898.7,32.2c0-31.1-17.4-57.3-43.1-69.7c-0.1-0.1-0.2-0.2-0.3-0.4c-0.2-0.3-0.4-0.5-0.6-0.8
				c-0.2-0.3-0.4-0.5-0.6-0.8c-0.2-0.3-0.4-0.5-0.6-0.8c-0.2-0.3-0.4-0.5-0.6-0.8c-0.2-0.2-0.4-0.5-0.6-0.7
				c-0.2-0.2-0.4-0.5-0.6-0.7c-0.2-0.2-0.4-0.5-0.6-0.7c-0.2-0.2-0.4-0.5-0.6-0.7s-0.4-0.5-0.6-0.7c-0.2-0.2-0.4-0.5-0.7-0.7
				c-0.2-0.2-0.4-0.5-0.7-0.7c-0.2-0.2-0.4-0.5-0.7-0.7c-0.2-0.2-0.4-0.5-0.7-0.7c-0.2-0.2-0.5-0.5-0.7-0.7
				c-0.2-0.2-0.5-0.5-0.7-0.7c-0.2-0.2-0.5-0.5-0.7-0.7c-0.2-0.2-0.5-0.4-0.7-0.7c-0.2-0.2-0.5-0.4-0.7-0.7
				c-0.2-0.2-0.5-0.4-0.7-0.7c-0.2-0.2-0.5-0.4-0.7-0.7c-0.2-0.2-0.5-0.4-0.7-0.6c-0.2-0.2-0.5-0.4-0.7-0.6
				c-0.2-0.2-0.5-0.4-0.7-0.6c-0.2-0.2-0.5-0.4-0.7-0.6c-0.2-0.2-0.5-0.4-0.7-0.6c-0.3-0.2-0.5-0.4-0.7-0.6
				c-0.2-0.2-0.5-0.4-0.8-0.6c-0.2-0.2-0.5-0.4-0.8-0.6c-0.3-0.2-0.5-0.4-0.8-0.6c-0.3-0.2-0.5-0.4-0.8-0.6
				c-0.3-0.2-0.5-0.4-0.8-0.6c-0.3-0.2-0.5-0.4-0.8-0.6c-0.3-0.2-0.5-0.4-0.8-0.6c-0.3-0.2-0.5-0.4-0.8-0.6
				c-0.3-0.2-0.5-0.4-0.8-0.6c-0.3-0.2-0.5-0.4-0.8-0.6c-0.3-0.2-0.5-0.4-0.8-0.5c-0.3-0.2-0.5-0.4-0.8-0.5
				c-0.3-0.2-0.5-0.4-0.8-0.5c-0.3-0.2-0.5-0.4-0.8-0.5c-0.3-0.2-0.5-0.3-0.8-0.5s-0.5-0.3-0.8-0.5c-0.3-0.2-0.6-0.3-0.8-0.5
				c-0.3-0.2-0.6-0.3-0.8-0.5c-0.3-0.2-0.6-0.3-0.8-0.5c-0.3-0.2-0.6-0.3-0.8-0.5c-0.3-0.2-0.6-0.3-0.8-0.5
				c-0.3-0.2-0.6-0.3-0.9-0.5c-0.3-0.2-0.6-0.3-0.9-0.5c-0.3-0.2-0.6-0.3-0.9-0.4c-0.3-0.2-0.6-0.3-0.9-0.4
				c-0.3-0.2-0.6-0.3-0.9-0.4c-0.3-0.1-0.6-0.3-0.9-0.4c-0.3-0.1-0.6-0.3-0.9-0.4c-0.3-0.1-0.6-0.3-0.9-0.4
				c-0.3-0.1-0.6-0.3-0.9-0.4c-0.3-0.1-0.6-0.3-0.9-0.4c-0.3-0.1-0.6-0.3-0.9-0.4c-0.3-0.1-0.6-0.3-0.9-0.4
				c-0.3-0.1-0.6-0.3-0.9-0.4c-0.3-0.1-0.6-0.2-0.9-0.4c-0.3-0.1-0.6-0.2-0.9-0.4c-0.3-0.1-0.6-0.2-0.9-0.4
				c-0.3-0.1-0.6-0.2-0.9-0.3c-0.3-0.1-0.6-0.2-0.9-0.3c-0.3-0.1-0.6-0.2-0.9-0.3c-0.3-0.1-0.6-0.2-0.9-0.3
				c-0.3-0.1-0.6-0.2-0.9-0.3c-0.3-0.1-0.6-0.2-0.9-0.3c-0.3-0.1-0.6-0.2-0.9-0.3c-0.3-0.1-0.6-0.2-0.9-0.3
				c-0.3-0.1-0.6-0.2-0.9-0.3c-0.3-0.1-0.6-0.2-0.9-0.3c-0.3-0.1-0.6-0.2-0.9-0.3s-0.6-0.2-0.9-0.3c-0.3-0.1-0.6-0.2-0.9-0.2
				c-0.3-0.1-0.6-0.2-0.9-0.2c-0.3-0.1-0.6-0.2-0.9-0.2c-0.3-0.1-0.6-0.2-0.9-0.2c-0.3-0.1-0.6-0.2-0.9-0.2
				c-0.3-0.1-0.6-0.1-0.9-0.2c-0.3-0.1-0.6-0.1-0.9-0.2c-0.3-0.1-0.6-0.1-0.9-0.2c-0.3-0.1-0.6-0.1-0.9-0.2
				c-0.3-0.1-0.6-0.1-0.9-0.2c-0.3-0.1-0.6-0.1-1-0.2c-0.3-0.1-0.6-0.1-1-0.2c-0.3,0-0.6-0.1-1-0.2c-0.3,0-0.6-0.1-1-0.1
				c-0.3,0-0.6-0.1-1-0.1c-0.3,0-0.6-0.1-1-0.1c-0.3,0-0.6-0.1-1-0.1c-0.3,0-0.6-0.1-1-0.1s-0.6-0.1-1-0.1c-0.3,0-0.6-0.1-1-0.1
				c-0.3,0-0.6-0.1-1-0.1c-0.3,0-0.6,0-1-0.1c-0.3,0-0.6,0-1-0.1c-0.3,0-0.6,0-1-0.1c-0.3,0-0.6,0-1-0.1c-0.3,0-0.6,0-1,0
				c-0.3,0-0.6,0-1,0c-0.3,0-0.6,0-1,0c-0.3,0-0.6,0-1,0c-0.3,0-0.6,0-1,0c-0.3,0-0.6,0-1,0c0,0,0,0-0.1,0c-0.3,0-0.6,0-1,0
				c-0.3,0-0.6,0-1,0s-0.6,0-1,0s-0.6,0-1,0c-0.3,0-0.6,0-1,0c-0.3,0-0.6,0-1,0c-0.3,0-0.6,0-1,0s-0.6,0-1,0.1c-0.3,0-0.6,0-1,0.1
				c-0.3,0-0.6,0-1,0.1s-0.6,0.1-1,0.1c-0.3,0-0.6,0.1-1,0.1c-0.3,0-0.6,0.1-1,0.1c-0.3,0-0.6,0.1-1,0.1s-0.6,0.1-1,0.1
				c-0.3,0-0.6,0.1-1,0.1c-0.3,0-0.6,0.1-1,0.1c-0.3,0-0.6,0.1-1,0.1c-0.3,0-0.6,0.1-1,0.2c-0.3,0-0.6,0.1-1,0.2
				c-0.3,0.1-0.6,0.1-1,0.2c-0.3,0.1-0.6,0.1-0.9,0.2c-0.3,0.1-0.6,0.1-1,0.2c-0.3,0.1-0.6,0.1-0.9,0.2c-0.3,0.1-0.6,0.1-0.9,0.2
				c-0.3,0.1-0.6,0.1-0.9,0.2c-0.3,0.1-0.6,0.1-0.9,0.2c-0.3,0.1-0.6,0.2-0.9,0.2c-0.3,0.1-0.6,0.2-0.9,0.2s-0.6,0.2-0.9,0.2
				c-0.3,0.1-0.6,0.2-0.9,0.2c-0.3,0.1-0.6,0.2-0.9,0.3c-0.3,0.1-0.6,0.2-0.9,0.3c-0.3,0.1-0.6,0.2-0.9,0.3s-0.6,0.2-0.9,0.3
				c-0.3,0.1-0.6,0.2-0.9,0.3c-0.3,0.1-0.6,0.2-0.9,0.3c-0.3,0.1-0.6,0.2-0.9,0.3c-0.3,0.1-0.6,0.2-0.9,0.3
				c-0.3,0.1-0.6,0.2-0.9,0.3c-0.3,0.1-0.6,0.2-0.9,0.3c-0.3,0.1-0.6,0.2-0.9,0.3c-0.3,0.1-0.6,0.2-0.9,0.3
				c-0.3,0.1-0.6,0.2-0.9,0.4c-0.3,0.1-0.6,0.2-0.9,0.4c-0.3,0.1-0.6,0.2-0.9,0.4c-0.3,0.1-0.6,0.2-0.9,0.4
				c-0.3,0.1-0.6,0.3-0.9,0.4c-0.3,0.1-0.6,0.3-0.9,0.4c-0.3,0.1-0.6,0.3-0.9,0.4c-0.3,0.1-0.6,0.3-0.9,0.4
				c-0.3,0.1-0.6,0.3-0.9,0.4c-0.3,0.1-0.6,0.3-0.9,0.4c-0.3,0.1-0.6,0.3-0.9,0.4c-0.3,0.1-0.6,0.3-0.9,0.4
				c-0.3,0.1-0.6,0.3-0.9,0.4c-0.3,0.2-0.6,0.3-0.9,0.5c-0.3,0.2-0.6,0.3-0.9,0.5c-0.3,0.2-0.6,0.3-0.9,0.5
				c-0.3,0.2-0.6,0.3-0.9,0.5c-0.3,0.2-0.6,0.3-0.8,0.5c-0.3,0.2-0.6,0.3-0.8,0.5c-0.3,0.2-0.6,0.3-0.8,0.5
				c-0.3,0.2-0.6,0.3-0.8,0.5s-0.5,0.3-0.8,0.5c-0.3,0.2-0.5,0.3-0.8,0.5c-0.3,0.2-0.5,0.4-0.8,0.5c-0.3,0.2-0.5,0.4-0.8,0.5
				c-0.3,0.2-0.5,0.4-0.8,0.5c-0.3,0.2-0.5,0.4-0.8,0.5s-0.5,0.4-0.8,0.6c-0.3,0.2-0.5,0.4-0.8,0.6c-0.3,0.2-0.5,0.4-0.8,0.6
				c-0.3,0.2-0.5,0.4-0.8,0.6c-0.3,0.2-0.5,0.4-0.8,0.6s-0.5,0.4-0.8,0.6c-0.3,0.2-0.5,0.4-0.8,0.6c-0.3,0.2-0.5,0.4-0.8,0.6
				c-0.3,0.2-0.5,0.4-0.8,0.6c-0.3,0.2-0.5,0.4-0.8,0.6c-0.3,0.2-0.5,0.4-0.7,0.6c-0.2,0.2-0.5,0.4-0.7,0.6
				c-0.2,0.2-0.5,0.4-0.7,0.6c-0.2,0.2-0.5,0.4-0.7,0.6c-0.2,0.2-0.5,0.4-0.7,0.6c-0.2,0.2-0.5,0.4-0.7,0.6
				c-0.2,0.2-0.5,0.4-0.7,0.7c-0.2,0.2-0.5,0.4-0.7,0.7c-0.2,0.2-0.5,0.4-0.7,0.7c-0.2,0.2-0.5,0.4-0.7,0.7
				c-0.2,0.2-0.5,0.4-0.7,0.7c-0.2,0.2-0.5,0.5-0.7,0.7c-0.2,0.2-0.5,0.5-0.7,0.7c-0.2,0.2-0.5,0.5-0.7,0.7
				c-0.2,0.2-0.5,0.5-0.7,0.7c-0.2,0.2-0.4,0.5-0.7,0.7c-0.2,0.2-0.4,0.5-0.7,0.7c-0.2,0.2-0.4,0.5-0.7,0.7
				c-0.2,0.2-0.4,0.5-0.6,0.7c-0.2,0.2-0.4,0.5-0.6,0.7c-0.2,0.2-0.4,0.5-0.6,0.7c-0.2,0.2-0.4,0.5-0.6,0.7
				c-0.2,0.2-0.4,0.5-0.6,0.8c-0.2,0.2-0.4,0.5-0.6,0.8c-0.2,0.3-0.4,0.5-0.6,0.8c-0.2,0.3-0.4,0.5-0.6,0.8
				c-0.2,0.2-0.4,0.5-0.6,0.8s-0.4,0.5-0.6,0.8c-0.2,0.3-0.4,0.5-0.6,0.8c-0.2,0.3-0.4,0.5-0.6,0.8c-0.2,0.3-0.4,0.5-0.6,0.8
				c-0.2,0.3-0.4,0.5-0.6,0.8c-0.2,0.3-0.4,0.5-0.6,0.8c-0.2,0.3-0.4,0.5-0.5,0.8c-0.2,0.3-0.4,0.5-0.5,0.8
				c-0.2,0.3-0.4,0.5-0.5,0.8c-0.2,0.3-0.3,0.5-0.5,0.8c-0.2,0.3-0.3,0.5-0.5,0.8c-0.2,0.3-0.3,0.5-0.5,0.8
				c-0.2,0.3-0.3,0.6-0.5,0.8c-0.2,0.3-0.3,0.6-0.5,0.8c-0.2,0.3-0.3,0.6-0.5,0.8c-0.2,0.3-0.3,0.6-0.5,0.8
				c-0.2,0.3-0.3,0.6-0.5,0.8c-0.2,0.3-0.3,0.6-0.5,0.8s-0.3,0.6-0.5,0.9c-0.2,0.3-0.3,0.6-0.5,0.9c-0.2,0.3-0.3,0.6-0.4,0.9
				c-0.2,0.3-0.3,0.6-0.4,0.9c-0.2,0.3-0.3,0.6-0.4,0.9c-0.1,0.3-0.3,0.6-0.4,0.9c-0.1,0.3-0.3,0.6-0.4,0.9
				c-0.1,0.3-0.3,0.6-0.4,0.9c-0.1,0.3-0.3,0.6-0.4,0.9c-0.1,0.3-0.3,0.6-0.4,0.9c-0.1,0.3-0.3,0.6-0.4,0.9
				c-0.1,0.3-0.3,0.6-0.4,0.9c-0.1,0.3-0.2,0.6-0.4,0.9c-0.1,0.3-0.2,0.6-0.4,0.9c-0.1,0.3-0.2,0.6-0.4,0.9
				c-0.1,0.3-0.2,0.6-0.4,0.9c-0.1,0.3-0.2,0.6-0.3,0.9s-0.2,0.6-0.3,0.9s-0.2,0.6-0.3,0.9c-0.1,0.3-0.2,0.6-0.3,0.9
				c-0.1,0.3-0.2,0.6-0.3,0.9s-0.2,0.6-0.3,0.9c-0.1,0.3-0.2,0.6-0.3,0.9c-0.1,0.3-0.2,0.6-0.3,0.9C658-0.6,658-0.3,657.9,0
				c-0.1,0.3-0.2,0.6-0.3,0.9s-0.2,0.6-0.3,0.9c-0.1,0.3-0.2,0.6-0.3,0.9s-0.2,0.6-0.2,0.9s-0.2,0.6-0.2,0.9
				c-0.1,0.3-0.2,0.6-0.2,0.9s-0.2,0.6-0.2,1c-0.1,0.3-0.1,0.6-0.2,1c-0.1,0.3-0.1,0.6-0.2,1c-0.1,0.3-0.1,0.6-0.2,1
				c-0.1,0.3-0.1,0.6-0.2,1c-0.1,0.3-0.1,0.6-0.2,1c-0.1,0.3-0.1,0.6-0.2,1c-0.1,0.3-0.1,0.6-0.2,1c-0.1,0.3-0.1,0.6-0.2,1
				c-0.1,0.3-0.1,0.6-0.2,1c0,0.3-0.1,0.6-0.1,1c0,0.3-0.1,0.6-0.1,1c0,0.3-0.1,0.6-0.1,1c0,0.3-0.1,0.6-0.1,1c0,0.3-0.1,0.6-0.1,1
				c0,0.3-0.1,0.6-0.1,1c0,0,0,0.1,0,0.1c-0.3,3.9-0.6,7.7-0.6,11.6h0v-0.5h0c0-4.3,0.3-8.4,0.6-12.6c0,0,0-0.1,0-0.1
				c0-0.4,0.1-0.7,0.1-1c0-0.4,0.1-0.7,0.1-1c0-0.4,0.1-0.7,0.1-1c0-0.4,0.1-0.7,0.1-1c0-0.4,0.1-0.7,0.2-1c0.1-0.3,0.1-0.7,0.2-1
				c0.1-0.3,0.1-0.7,0.2-1c0.1-0.3,0.1-0.7,0.2-1c0.1-0.4,0.1-0.7,0.2-1c0.1-0.3,0.1-0.7,0.2-1c0.1-0.3,0.1-0.7,0.2-1
				c0.1-0.3,0.1-0.7,0.2-1c0.1-0.3,0.1-0.7,0.2-1c0.1-0.3,0.2-0.7,0.2-1c0.1-0.3,0.2-0.7,0.2-1c0.1-0.3,0.2-0.7,0.2-1s0.2-0.7,0.3-1
				c0.1-0.3,0.2-0.7,0.3-1c0.1-0.3,0.2-0.7,0.3-1c0.1-0.3,0.2-0.7,0.3-1c0.1-0.3,0.2-0.7,0.3-1c0.1-0.3,0.2-0.7,0.3-1
				c0.1-0.3,0.2-0.7,0.3-1c0.1-0.3,0.2-0.7,0.3-1c0.1-0.3,0.2-0.7,0.3-1c0.1-0.3,0.2-0.7,0.3-1c0.1-0.3,0.2-0.7,0.3-1
				c0.1-0.3,0.2-0.7,0.3-1c0.1-0.3,0.2-0.7,0.4-1c0.1-0.3,0.2-0.7,0.4-1c0.1-0.3,0.2-0.7,0.4-1c0.1-0.3,0.3-0.7,0.4-1
				c0.1-0.3,0.3-0.7,0.4-1c0.1-0.3,0.3-0.6,0.4-1c0.1-0.3,0.3-0.6,0.4-1c0.1-0.3,0.3-0.6,0.4-1c0.1-0.3,0.3-0.6,0.4-1
				c0.1-0.3,0.3-0.6,0.4-1c0.1-0.3,0.3-0.6,0.4-1c0.2-0.3,0.3-0.6,0.4-1c0.2-0.3,0.3-0.6,0.5-1s0.3-0.6,0.5-1
				c0.2-0.3,0.3-0.6,0.5-0.9c0.2-0.3,0.3-0.6,0.5-0.9c0.2-0.3,0.3-0.6,0.5-0.9c0.2-0.3,0.3-0.6,0.5-0.9c0.2-0.3,0.3-0.6,0.5-0.9
				c0.2-0.3,0.3-0.6,0.5-0.9c0.2-0.3,0.3-0.6,0.5-0.9c0.2-0.3,0.3-0.6,0.5-0.9c0.2-0.3,0.4-0.6,0.5-0.9c0.2-0.3,0.4-0.6,0.5-0.9
				c0.2-0.3,0.4-0.6,0.5-0.9c0.2-0.3,0.4-0.6,0.6-0.9c0.2-0.3,0.4-0.6,0.6-0.9c0.2-0.3,0.4-0.6,0.6-0.9c0.2-0.3,0.4-0.6,0.6-0.9
				c0.2-0.3,0.4-0.6,0.6-0.9s0.4-0.6,0.6-0.9c0.2-0.3,0.4-0.6,0.6-0.9s0.4-0.6,0.6-0.9c0.2-0.3,0.4-0.6,0.6-0.9
				c0.2-0.3,0.4-0.6,0.6-0.8s0.4-0.6,0.6-0.8c0.2-0.3,0.4-0.6,0.6-0.8c0.2-0.3,0.4-0.6,0.6-0.8c0.2-0.3,0.4-0.6,0.7-0.8
				s0.4-0.6,0.7-0.8c0.2-0.3,0.4-0.5,0.7-0.8c0.2-0.3,0.4-0.5,0.7-0.8c0.2-0.3,0.5-0.5,0.7-0.8c0.2-0.3,0.5-0.5,0.7-0.8
				c0.2-0.3,0.5-0.5,0.7-0.8c0.2-0.3,0.5-0.5,0.7-0.8c0.2-0.3,0.5-0.5,0.7-0.8s0.5-0.5,0.7-0.8c0.2-0.3,0.5-0.5,0.7-0.8
				s0.5-0.5,0.7-0.8c0.2-0.3,0.5-0.5,0.7-0.8c0.2-0.3,0.5-0.5,0.7-0.8s0.5-0.5,0.7-0.7c0.2-0.2,0.5-0.5,0.7-0.7
				c0.3-0.2,0.5-0.5,0.8-0.7c0.3-0.2,0.5-0.5,0.8-0.7c0.3-0.2,0.5-0.5,0.8-0.7c0.3-0.2,0.5-0.5,0.8-0.7c0.3-0.2,0.5-0.5,0.8-0.7
				c0.3-0.2,0.5-0.5,0.8-0.7c0.3-0.2,0.5-0.5,0.8-0.7c0.3-0.2,0.5-0.5,0.8-0.7c0.3-0.2,0.5-0.4,0.8-0.7c0.3-0.2,0.5-0.4,0.8-0.7
				c0.3-0.2,0.5-0.4,0.8-0.7c0.3-0.2,0.5-0.4,0.8-0.7c0.3-0.2,0.6-0.4,0.8-0.6s0.6-0.4,0.8-0.6c0.3-0.2,0.6-0.4,0.8-0.6
				c0.3-0.2,0.6-0.4,0.8-0.6c0.3-0.2,0.6-0.4,0.9-0.6c0.3-0.2,0.6-0.4,0.9-0.6c0.3-0.2,0.6-0.4,0.9-0.6c0.3-0.2,0.6-0.4,0.9-0.6
				c0.3-0.2,0.6-0.4,0.9-0.6c0.3-0.2,0.6-0.4,0.9-0.6c0.3-0.2,0.6-0.4,0.9-0.6c0.3-0.2,0.6-0.4,0.9-0.6c0.3-0.2,0.6-0.4,0.9-0.6
				c0.3-0.2,0.6-0.4,0.9-0.6c0.3-0.2,0.6-0.4,0.9-0.5c0.3-0.2,0.6-0.4,0.9-0.5s0.6-0.4,0.9-0.5c0.3-0.2,0.6-0.3,0.9-0.5
				c0.3-0.2,0.6-0.3,0.9-0.5c0.3-0.2,0.6-0.3,0.9-0.5c0.3-0.2,0.6-0.3,0.9-0.5c0.3-0.2,0.6-0.3,0.9-0.5c0.3-0.2,0.6-0.3,0.9-0.5
				c0.3-0.2,0.6-0.3,0.9-0.5c0.3-0.2,0.6-0.3,0.9-0.5c0.3-0.2,0.6-0.3,0.9-0.5c0.3-0.2,0.6-0.3,0.9-0.4c0.3-0.2,0.6-0.3,1-0.4
				c0.3-0.1,0.6-0.3,1-0.4s0.6-0.3,1-0.4s0.6-0.3,1-0.4c0.3-0.1,0.6-0.3,1-0.4s0.7-0.3,1-0.4c0.3-0.1,0.6-0.3,1-0.4
				c0.3-0.1,0.7-0.3,1-0.4c0.3-0.1,0.7-0.2,1-0.4c0.3-0.1,0.7-0.2,1-0.4c0.3-0.1,0.7-0.2,1-0.4c0.3-0.1,0.7-0.2,1-0.4
				c0.3-0.1,0.7-0.2,1-0.3c0.3-0.1,0.7-0.2,1-0.3c0.3-0.1,0.7-0.2,1-0.3c0.3-0.1,0.7-0.2,1-0.3c0.3-0.1,0.7-0.2,1-0.3
				c0.3-0.1,0.7-0.2,1-0.3c0.3-0.1,0.7-0.2,1-0.3c0.3-0.1,0.7-0.2,1-0.3c0.3-0.1,0.7-0.2,1-0.3c0.3-0.1,0.7-0.2,1-0.3
				c0.3-0.1,0.7-0.2,1-0.3c0.3-0.1,0.7-0.2,1-0.2c0.3-0.1,0.7-0.2,1-0.2c0.3-0.1,0.7-0.2,1-0.2c0.3-0.1,0.7-0.2,1-0.2
				c0.3-0.1,0.7-0.1,1-0.2c0.3-0.1,0.7-0.1,1-0.2c0.3-0.1,0.7-0.1,1-0.2c0.3-0.1,0.7-0.1,1-0.2c0.3-0.1,0.7-0.1,1-0.2
				c0.3-0.1,0.7-0.1,1-0.2c0.3,0,0.7-0.1,1-0.2c0.3-0.1,0.7-0.1,1-0.2s0.7-0.1,1-0.1s0.7-0.1,1-0.1c0.3,0,0.7-0.1,1-0.1
				c0.3,0,0.7-0.1,1-0.1c0.3,0,0.7-0.1,1-0.1c0.3,0,0.7-0.1,1-0.1c0.3,0,0.7-0.1,1-0.1c0.3,0,0.7,0,1-0.1c0.3,0,0.7,0,1-0.1
				c0.3,0,0.7,0,1-0.1c0.3,0,0.7,0,1,0c0.3,0,0.7,0,1,0c0.3,0,0.7,0,1,0c0.3,0,0.7,0,1,0c0.3,0,0.7,0,1,0c0.3,0,0.7,0,1,0
				c0,0,0.1,0,0.1,0c0.3,0,0.7,0,1,0c0.3,0,0.7,0,1,0c0.3,0,0.7,0,1,0c0.3,0,0.7,0,1,0c0.3,0,0.7,0,1,0c0.3,0,0.7,0,1,0
				c0.3,0,0.7,0,1,0.1c0.3,0,0.7,0,1,0.1c0.3,0,0.7,0,1,0.1c0.3,0,0.7,0.1,1,0.1s0.7,0.1,1,0.1c0.3,0,0.7,0.1,1,0.1
				c0.3,0,0.7,0.1,1,0.1s0.7,0.1,1,0.1c0.3,0,0.7,0.1,1,0.1c0.3,0,0.7,0.1,1,0.1c0.3,0,0.7,0.1,1,0.2c0.3,0,0.7,0.1,1,0.2
				c0.3,0.1,0.7,0.1,1,0.2c0.3,0.1,0.7,0.1,1,0.2c0.3,0.1,0.7,0.1,1,0.2c0.3,0.1,0.7,0.1,1,0.2c0.3,0.1,0.7,0.1,1,0.2
				c0.3,0.1,0.7,0.1,1,0.2c0.3,0.1,0.7,0.1,1,0.2c0.3,0.1,0.7,0.2,1,0.2c0.3,0.1,0.7,0.2,1,0.2c0.3,0.1,0.7,0.2,1,0.2
				c0.3,0.1,0.7,0.2,1,0.2c0.3,0.1,0.7,0.2,1,0.3c0.3,0.1,0.7,0.2,1,0.3c0.3,0.1,0.7,0.2,1,0.3c0.3,0.1,0.7,0.2,1,0.3
				c0.3,0.1,0.7,0.2,1,0.3c0.3,0.1,0.7,0.2,1,0.3c0.3,0.1,0.7,0.2,1,0.3c0.3,0.1,0.7,0.2,1,0.3c0.3,0.1,0.7,0.2,1,0.3s0.7,0.2,1,0.3
				c0.3,0.1,0.7,0.2,1,0.4c0.3,0.1,0.7,0.2,1,0.4c0.3,0.1,0.7,0.2,1,0.4c0.3,0.1,0.7,0.2,1,0.4s0.7,0.3,1,0.4c0.3,0.1,0.7,0.3,1,0.4
				c0.3,0.1,0.6,0.3,1,0.4c0.3,0.1,0.6,0.3,1,0.4c0.3,0.1,0.6,0.3,1,0.4s0.6,0.3,1,0.4s0.6,0.3,1,0.4c0.3,0.2,0.6,0.3,0.9,0.4
				c0.3,0.2,0.6,0.3,0.9,0.4c0.3,0.2,0.6,0.3,0.9,0.5c0.3,0.2,0.6,0.3,0.9,0.5s0.6,0.3,0.9,0.5s0.6,0.3,0.9,0.5
				c0.3,0.2,0.6,0.3,0.9,0.5c0.3,0.2,0.6,0.3,0.9,0.5c0.3,0.2,0.6,0.3,0.9,0.5s0.6,0.3,0.9,0.5c0.3,0.2,0.6,0.4,0.9,0.5
				c0.3,0.2,0.6,0.4,0.9,0.5c0.3,0.2,0.6,0.4,0.9,0.5c0.3,0.2,0.6,0.4,0.9,0.5c0.3,0.2,0.6,0.4,0.9,0.6c0.3,0.2,0.6,0.4,0.9,0.6
				c0.3,0.2,0.6,0.4,0.9,0.6c0.3,0.2,0.6,0.4,0.9,0.6c0.3,0.2,0.6,0.4,0.9,0.6c0.3,0.2,0.6,0.4,0.9,0.6c0.3,0.2,0.6,0.4,0.9,0.6
				c0.3,0.2,0.6,0.4,0.9,0.6c0.3,0.2,0.6,0.4,0.9,0.6c0.3,0.2,0.6,0.4,0.9,0.6c0.3,0.2,0.6,0.4,0.8,0.6c0.3,0.2,0.6,0.4,0.8,0.6
				c0.3,0.2,0.6,0.4,0.8,0.6c0.3,0.2,0.6,0.4,0.8,0.6c0.3,0.2,0.5,0.4,0.8,0.7s0.5,0.4,0.8,0.7c0.3,0.2,0.5,0.4,0.8,0.7
				c0.3,0.2,0.5,0.5,0.8,0.7c0.3,0.2,0.5,0.5,0.8,0.7c0.3,0.2,0.5,0.5,0.8,0.7s0.5,0.5,0.8,0.7s0.5,0.5,0.8,0.7
				c0.3,0.2,0.5,0.5,0.8,0.7s0.5,0.5,0.8,0.7s0.5,0.5,0.8,0.7c0.3,0.2,0.5,0.5,0.8,0.7c0.3,0.2,0.5,0.5,0.8,0.7
				c0.2,0.2,0.5,0.5,0.7,0.7c0.2,0.2,0.5,0.5,0.7,0.7c0.2,0.3,0.5,0.5,0.7,0.8c0.2,0.3,0.5,0.5,0.7,0.8c0.2,0.3,0.5,0.5,0.7,0.8
				s0.5,0.5,0.7,0.8c0.2,0.3,0.5,0.5,0.7,0.8c0.2,0.3,0.5,0.5,0.7,0.8c0.2,0.3,0.5,0.5,0.7,0.8c0.2,0.3,0.5,0.5,0.7,0.8
				c0.2,0.3,0.5,0.5,0.7,0.8c0.2,0.3,0.4,0.5,0.7,0.8c0.2,0.3,0.4,0.6,0.7,0.8c0.2,0.3,0.4,0.5,0.7,0.8c0.2,0.3,0.4,0.6,0.7,0.8
				s0.4,0.6,0.6,0.8c0.2,0.3,0.4,0.6,0.6,0.8c0.2,0.3,0.4,0.6,0.6,0.8c0.2,0.3,0.4,0.6,0.6,0.8c0.2,0.3,0.4,0.6,0.6,0.9
				c0.2,0.3,0.4,0.6,0.6,0.9c0.2,0.3,0.4,0.6,0.6,0.9c0.2,0.3,0.4,0.6,0.6,0.9c0.2,0.3,0.4,0.6,0.6,0.9c0.2,0.3,0.4,0.6,0.6,0.9
				c0.2,0.3,0.4,0.6,0.6,0.9c0.2,0.3,0.4,0.6,0.6,0.9c0.2,0.3,0.4,0.6,0.6,0.9c0.2,0.3,0.4,0.6,0.5,0.9c0.2,0.3,0.4,0.6,0.5,0.9
				c0.2,0.3,0.4,0.6,0.5,0.9c0.2,0.3,0.4,0.6,0.5,0.9c0.2,0.3,0.3,0.6,0.5,0.9c0.2,0.3,0.3,0.6,0.5,0.9c0.2,0.3,0.3,0.6,0.5,0.9
				c0.2,0.3,0.3,0.6,0.5,0.9c0.2,0.3,0.3,0.6,0.5,0.9c0.2,0.3,0.3,0.6,0.5,0.9c0.2,0.3,0.3,0.6,0.5,0.9c0.2,0.3,0.3,0.6,0.5,1
				c0.2,0.3,0.3,0.6,0.5,1c0.2,0.3,0.3,0.6,0.4,1c0.2,0.3,0.3,0.6,0.4,1c0.1,0.3,0.3,0.6,0.4,1c0.1,0.3,0.3,0.6,0.4,1
				c0.1,0.3,0.3,0.6,0.4,1c0.1,0.3,0.3,0.6,0.4,1c0.1,0.3,0.3,0.6,0.4,1c0.1,0.3,0.3,0.7,0.4,1c0.1,0.3,0.3,0.7,0.4,1
				c0.1,0.3,0.2,0.7,0.4,1c0.1,0.3,0.2,0.7,0.4,1c0.1,0.3,0.2,0.7,0.4,1c0.1,0.3,0.2,0.7,0.3,1s0.2,0.7,0.3,1c0.1,0.3,0.2,0.7,0.3,1
				c0.1,0.3,0.2,0.7,0.3,1c0.1,0.3,0.2,0.7,0.3,1c0.1,0.3,0.2,0.7,0.3,1c0.1,0.3,0.2,0.7,0.3,1c0.1,0.3,0.2,0.7,0.3,1
				c0.1,0.3,0.2,0.7,0.3,1c0.1,0.3,0.2,0.7,0.3,1c0.1,0.3,0.2,0.7,0.3,1s0.2,0.7,0.3,1c0.1,0.3,0.2,0.7,0.2,1s0.2,0.7,0.2,1
				c0.1,0.3,0.2,0.7,0.2,1c0.1,0.3,0.2,0.7,0.2,1c0.1,0.3,0.1,0.7,0.2,1c0.1,0.3,0.1,0.7,0.2,1c0.1,0.3,0.1,0.7,0.2,1
				c0.1,0.3,0.1,0.7,0.2,1c0.1,0.3,0.1,0.7,0.2,1c0.1,0.4,0.1,0.7,0.2,1c0.1,0.3,0.1,0.7,0.2,1c0,0.4,0.1,0.7,0.2,1
				c0,0.3,0.1,0.7,0.1,1c0,0.4,0.1,0.7,0.1,1c0,0.4,0.1,0.7,0.1,1c0,0.4,0.1,0.7,0.1,1.1c0,0.4,0.1,0.7,0.1,1c0,0.4,0.1,0.7,0.1,1.1
				c0,0.4,0.1,0.7,0.1,1.1c0,0.4,0.1,0.7,0.1,1.1c0,0.4,0,0.7,0.1,1c0,0.4,0,0.7,0.1,1.1c0,0.4,0,0.7,0,1.1c0,0.4,0,0.7,0,1.1
				c0,0.4,0,0.7,0,1.1c0,0.4,0,0.7,0,1.1c0,0.4,0,0.7,0,1.1C898.7,31.5,898.7,31.8,898.7,32.2L898.7,32.2z"/>
		</g>
	</g>
</g>
<rect x="260.6" y="692.3" display="none" fill="#FFFFFF" width="957.6" height="256.3"/>
</svg>
