<?xml version="1.0" encoding="utf-8"?>
<!-- Generator: Adobe Illustrator 28.0.0, SVG Export Plug-In . SVG Version: 6.00 Build 0)  -->
<svg version="1.1" id="Layer_1" xmlns="http://www.w3.org/2000/svg" xmlns:xlink="http://www.w3.org/1999/xlink" x="0px"
     y="0px"
     viewBox="0 0 1000 500" style="enable-background:new 0 0 1000 500;" xml:space="preserve">
<g style="enable-background:new    ;">
	<rect x="-1075" y="-650" style="display:none;fill:#1A1851;" width="3150" height="1800"/>
    <path style="fill:#FFFFFF;" d="M161.57,327.54c-4.67,0-8.79,1.72-11.9,5c-3.11,3.12-4.73,7.22-4.73,11.87v92.54
		c0,4.66,1.6,8.81,4.7,12.09v0.03l0.04,0.02c3.12,3.12,7.23,4.72,11.89,4.72s8.77-1.6,11.89-4.72l0.04-0.02v-0.03
		c3.09-3.27,4.69-7.43,4.69-12.09v-92.54c0-4.65-1.6-8.75-4.71-11.87C170.36,329.26,166.24,327.54,161.57,327.54L161.57,327.54z
		 M161.58,282.73L161.58,282.73c-5.42,0-9.7,0.9-12.81,3.04c-3.17,2.12-4.54,6.1-4.54,11.15v4.62c0,4.88,1.25,8.78,4.17,11.08
		c2.9,2.27,7.2,3.1,12.93,3.1c5.72,0,10.03-0.76,13.05-2.77l0.08-0.06c3.11-2.28,4.48-6.3,4.48-11.36v-4.62
		c0-4.88-1.25-8.79-4.17-11.08C171.85,283.55,167.48,282.73,161.58,282.73L161.58,282.73z M26.19,280.3c-4.68,0-8.81,1.71-11.92,5
		c0,0,0,0,0,0.01c-3.09,3.12-4.7,7.22-4.7,11.86v139.78c0,4.66,1.61,8.82,4.7,12.09l0.04,0.03v0.02c3.12,3.12,7.23,4.73,11.89,4.73
		c4.66,0,8.77-1.6,11.9-4.73l0.04-0.02v-0.03c3.09-3.27,4.69-7.43,4.69-12.09v-57.91c0-5.08,1-9.53,2.95-13.44
		c2.1-4.06,5.13-7.24,9.22-9.66c4.03-2.39,8.92-3.62,14.81-3.62c6.06,0,10.46,1.25,13.4,3.49c3.07,2.34,5.15,5.41,6.35,9.44v0.02
		c1.23,3.99,1.86,8.59,1.86,13.78v57.91c0,4.66,1.59,8.82,4.69,12.09v0.03l0.04,0.02c3.12,3.12,7.23,4.73,11.89,4.73
		c4.66,0,8.77-1.6,11.89-4.73l0.04-0.02v-0.03c3.09-3.27,4.69-7.43,4.69-12.09v-57.91c0-10.37-1.15-19.8-3.48-28.28v-0.01
		c-2.36-8.77-6.83-15.92-13.32-21.22c-6.5-5.45-15.85-8.01-27.84-8.01c-5.58,0-10.78,0.93-15.57,2.82c-4.7,1.68-9.01,3.96-12.9,6.83
		c-3.41,2.52-6.2,5.34-8.73,8.29v-42.29c0-4.64-1.59-8.74-4.69-11.85v-0.01C35,282.01,30.87,280.3,26.19,280.3L26.19,280.3z"/>
    <g>
		<defs>
			<path id="SVGID_1_" d="M213.52,416.19c-5.08,0-9.35,1.45-12.38,4.48c-2.89,2.89-4.24,7.08-4.24,12.14v4.14
				c0,5.06,1.34,9.29,4.2,12.32l0.05,0.05l0.05,0.06c3.04,2.85,7.27,4.19,12.33,4.19h3.17c5.06,0,9.23-1.34,12.12-4.24
				c3.03-3.03,4.49-7.3,4.49-12.38v-4.14c0-5.05-1.45-9.25-4.49-12.13c-2.88-3.04-7.07-4.49-12.12-4.49H213.52z"/>
		</defs>

        <linearGradient id="SVGID_00000140707973572633577280000006245633966571198867_" gradientUnits="userSpaceOnUse"
                        x1="196.902" y1="434.8785" x2="233.313" y2="434.8785">
			<stop offset="0" style="stop-color:#D94498"/>
            <stop offset="1" style="stop-color:#D94498"/>
		</linearGradient>
        <use xlink:href="#SVGID_1_"
             style="overflow:visible;fill:url(#SVGID_00000140707973572633577280000006245633966571198867_);"/>
        <clipPath id="SVGID_00000037650832806915918560000004104569300474858935_">
			<use xlink:href="#SVGID_1_" style="overflow:visible;"/>
		</clipPath>
        <g style="display:none;clip-path:url(#SVGID_00000037650832806915918560000004104569300474858935_);">
		</g>
	</g>
    <path style="fill:#FFFFFF;" d="M575.82,347.88c4.73,0,9.09,1.05,13.2,3.18l0.09,0.04c4.29,1.99,7.75,4.7,10.47,8.18v0.04
		c2.73,3.31,4.11,6.98,4.49,11.08H545.4c0.22-0.82,0.14-2.18,0.39-2.94c1.71-4.97,4-8.83,6.82-11.65c2.86-2.86,6.21-4.87,10.13-6.08
		c4.02-1.24,8.36-1.86,13.05-1.86H575.82z M309.25,347.88c4.73,0,9.09,1.05,13.19,3.18l0.09,0.04c4.29,1.99,7.75,4.7,10.47,8.18
		v0.02l0.04,0.02c2.73,3.31,4.1,6.98,4.48,11.08h-58.66c0.22-0.82,0.14-2.18,0.4-2.94c1.71-4.97,4.01-8.83,6.83-11.65
		c2.86-2.86,6.21-4.87,10.13-6.08c4.01-1.23,8.35-1.86,13.05-1.86H309.25z M395.21,319.5c-4.82,0-8.98,1.72-11.95,5.04
		c-2.83,3.01-4.43,6.36-4.43,9.88c0,1.91,0.17,3.6,0.54,5.11l0.04,0.12l0.04,0.11c0.49,1.31,0.9,2.37,1.23,3.2V343l45.29,100.34
		c0,0,0,0.01,0,0.02v0.01c1.6,3.71,3.99,6.6,7.14,8.45l0.04,0.02v0.01c3.23,1.8,6.73,2.45,10.22,1.92c6.28-0.41,11.21-4.12,14-10.39
		v-0.02l45.54-100.34v-0.01c0.5-1.17,0.92-2.44,1.25-3.75v-0.03c0.55-1.47,0.85-2.92,0.85-4.33c0-4.18-1.57-7.89-4.52-10.67
		c-2.8-2.95-6.64-4.45-11.06-4.46c-3.29-0.18-6.33,0.62-8.85,2.43c-2.52,1.81-4.49,4.54-5.97,8.02l-31.49,72.43l-31.79-72.65
		c-1.43-3.41-3.7-6.08-6.68-7.77c-2.89-1.79-6.12-2.72-9.53-2.72H395.21z M938,317.07c-8.21,0-16.12,1.6-23.66,4.79v0.01
		c-7.41,3.2-13.55,7.8-18.31,13.74c-4.84,6.04-7.26,13.46-7.26,21.95c0,7.4,1.44,13.7,4.42,18.79c2.9,4.95,6.69,9.01,11.33,12.1
		l0.04,0.01l0.04,0.02c4.52,2.85,9.44,5.19,14.78,7.02c5.38,1.79,10.6,3.43,15.66,4.9h0.03l0.04,0.01
		c4.82,1.29,9.14,2.64,12.96,4.07v0.01h0.04c3.89,1.4,6.92,3.09,9.11,4.99c2.01,1.75,2.96,3.89,2.96,7c0,3.86-0.98,6.37-2.77,8.03
		c-1.84,1.7-4,2.82-6.59,3.4c-2.8,0.47-5.36,0.77-7.67,0.93c-7.54,0-13.71-1.27-18.53-3.68c-4.98-2.49-9.76-6-14.34-10.58
		c-2.98-2.98-6.29-4.74-9.79-4.95c-3.33-0.36-6.58,0.41-9.5,2.23v0.01c-4.4,2.82-7.06,6.55-7.26,10.85
		c-0.18,3.9,0.63,7.32,2.56,10.02v0.04c6.54,8.73,14.86,14.93,24.8,18.46v0.01c9.77,3.31,19.58,4.97,29.39,4.97
		c7.89,0,15.62-1.52,23.15-4.53v-0.01c7.57-3.2,13.95-7.87,19.03-13.96c5.17-6.2,7.77-13.81,7.77-22.48
		c0-7.39-1.34-13.58-4.16-18.52c-2.73-4.94-6.36-9-10.82-12.1c-4.37-3.02-9.16-5.46-14.35-7.3c-5.08-1.8-10.07-3.36-15-4.67
		c-4.66-1.28-9.06-2.57-13.23-3.85v-0.01c-3.87-1.39-6.87-3.08-9.06-4.96c-2.02-1.9-3-4.23-3-7.51c0-3.71,0.93-5.93,2.46-7.23
		l0.04-0.03l0.04-0.03c1.85-1.71,3.9-2.74,6.3-3.16l0.04-0.01l0.05-0.01c2.81-0.62,5.35-0.92,7.6-0.92c5.77,0,10.74,1.01,14.98,2.98
		l0.04,0.01c4.45,2,7.89,4.63,10.43,7.92l0.11,0.14l0.12,0.11c2.45,2.26,5.6,3.58,9.2,3.94h0.05l0.05,0.01
		c3.67,0.18,7.08-0.89,9.88-3.13c3.75-3.03,5.76-6.89,5.37-11.01c-0.35-3.71-1.53-7.01-3.55-9.76v-0.05
		c-3.59-4.61-8.06-8.3-13.34-11.02c-5.18-2.83-10.63-4.84-16.32-6.02c-5.64-1.32-11.06-2-16.26-2L938,317.07z M727.01,317.07
		c-5.73,0-11.08,0.93-16.03,2.8c-4.87,1.68-9.28,3.97-13.17,6.85c-3.59,2.65-6.66,5.58-9.4,8.69c-0.22-4.23-1.66-8.02-4.54-10.91
		c-3.1-3.28-7.23-4.99-11.9-4.99s-8.8,1.71-11.9,4.99c-3.11,3.12-4.71,7.22-4.71,11.87v100.58c0,4.66,1.59,8.81,4.68,12.09
		l0.04,0.03v0.02c3.12,3.12,7.23,4.72,11.9,4.72c4.66,0,8.77-1.6,11.89-4.72v-0.02l0.04-0.03c3.09-3.27,4.69-7.43,4.69-12.09V374.6
		c0-5.07,1.06-9.49,3.16-13.4v-0.01c0,0,0,0,0-0.01c2.27-4.07,5.38-7.26,9.46-9.68c4.19-2.4,9.33-3.64,15.56-3.64
		c6.39,0,11.07,1.27,14.16,3.52c3.23,2.35,5.37,5.4,6.55,9.41l0.04,0.05v0.04c1.38,3.97,2.08,8.54,2.08,13.71v62.34
		c0,4.66,1.59,8.82,4.68,12.09l0.04,0.03v0.02c3.12,3.12,7.23,4.73,11.89,4.73s8.77-1.6,11.89-4.73v-0.02l0.04-0.03
		c3.09-3.27,4.7-7.43,4.7-12.09V374.6c0-10.37-1.24-19.8-3.73-28.28v-0.01c-2.37-8.79-6.93-15.95-13.59-21.25
		C748.86,319.63,739.28,317.07,727.01,317.07L727.01,317.07z M575.82,317.07L575.82,317.07c-11.06,0-21.59,2.87-31.45,8.55
		c-9.89,5.7-17.96,13.93-24.12,24.59v0.01c-6.05,10.59-9.03,23.38-9.03,38.26c0,12.79,2.76,24.35,8.28,34.57v0.02
		c5.69,10.21,13.77,18.38,24.12,24.39l0.04,0.01c10.57,5.87,22.94,8.78,37.01,8.78c8.33,0,16.44-1.34,24.28-4l0.04-0.01
		c7.77-2.81,13.88-6.05,18.36-9.84c4.84-3.81,7.56-8.42,7.56-13.48c0-3.73-1.49-7.16-4.22-9.91c-2.63-2.81-6.2-4.28-10.21-4.28
		c-2.97,0-6.05,0.83-9.18,2.4l-0.04,0.02l-0.04,0.01c-1.83,1-3.89,2.24-6.18,3.71c-1.87,1.15-4.55,2.24-8,3.18
		c-3.3,0.9-7.94,1.39-13.84,1.39c-6.16,0-11.98-1.46-17.55-4.39c-5.36-3.07-9.8-7.43-13.37-13.16c0,0,0,0,0-0.01
		c-1.57-2.73-2.73-5.8-3.57-9.11h77.85c4.31,0,8.25-1.39,11.51-4.11c3.32-2.76,5.17-6.59,5.35-10.96v-0.08
		c0-9.02-1.77-17.59-5.28-25.63c-3.33-8-7.94-15.03-13.78-21.05v-0.01c-5.85-6.18-12.65-11.05-20.34-14.56h0.04
		c-7.57-3.53-15.68-5.3-24.23-5.3H575.82z M309.25,317.07L309.25,317.07c-11.06,0-21.59,2.87-31.44,8.55
		c-9.9,5.7-17.96,13.93-24.12,24.59v0.01c-6.05,10.59-9.04,23.38-9.04,38.26c0,12.79,2.75,24.35,8.27,34.57v0.02
		c5.69,10.21,13.77,18.38,24.12,24.39v0.01c10.56,5.87,22.95,8.78,37.02,8.78c8.33,0,16.43-1.34,24.27-4h0.04v-0.01
		c7.77-2.81,13.89-6.05,18.37-9.84c4.84-3.81,7.55-8.42,7.55-13.48c0-3.73-1.49-7.16-4.22-9.91c-2.63-2.8-6.19-4.28-10.2-4.28
		c-2.98,0-6.05,0.83-9.18,2.4l-0.04,0.02l-0.04,0.01c-1.84,1.01-3.91,2.25-6.22,3.73c-1.87,1.14-4.53,2.22-7.97,3.16
		c-3.3,0.9-7.94,1.39-13.84,1.39c-6.16,0-11.97-1.46-17.54-4.39c-5.36-3.07-9.8-7.43-13.38-13.16c0,0,0,0,0-0.01
		c-1.57-2.73-2.73-5.8-3.57-9.11h77.84c4.32,0,8.25-1.39,11.51-4.11c3.31-2.76,5.16-6.59,5.35-10.96v-0.08
		c0-9.02-1.77-17.59-5.28-25.63c-3.34-8-7.94-15.03-13.78-21.05v-0.01c-5.85-6.18-12.65-11.05-20.34-14.56
		c-7.57-3.53-15.67-5.3-24.23-5.3H309.25z M824.34,291.5c-4.68,0-8.88,1.71-12.14,4.97c-3.12,3.12-4.73,7.23-4.73,11.89v13.58h-9.19
		c-4.33,0-8.18,1.53-11.13,4.47c-2.96,2.78-4.52,6.5-4.52,10.69c0,4.34,1.54,8.21,4.48,11.16c2.95,2.95,6.82,4.49,11.16,4.49h9.19
		v65.2c0,8.16,1.23,14.72,3.9,19.7c2.56,4.79,5.79,8.49,9.69,10.98l0.05,0.03l0.04,0.03c3.93,2.22,8.07,3.68,12.36,4.37l0.09,0.02
		c4.28,0.5,8.18,0.74,11.68,0.74c6.02,0,11.69-1.58,16.85-4.68c5.4-3.15,8.52-7.65,8.52-12.92c0-4.07-1.12-7.54-3.44-10.08
		c-2.05-2.41-4.7-3.86-7.58-3.86c-2.37,0-4.56,0.45-6.5,1.42l0.15-0.07c-1.37,0.54-2.88,0.83-4.61,0.83c-1.53,0-2.95-0.28-4.32-0.82
		c-1.07-0.48-1.95-1.23-2.72-2.38c-0.58-1.07-0.94-2.54-0.94-4.53v-63.98H856c4.31,0,8.14-1.43,11.11-4.2l0.04-0.02l0.04-0.02
		c2.94-2.94,4.48-6.72,4.48-10.92c0-4.34-1.53-8.21-4.48-11.16c-2.95-2.95-6.82-4.48-11.16-4.48h-15.29v-13.58
		c0-4.64-1.61-8.72-4.7-11.84c-2.95-3.29-7.02-5.02-11.68-5.02L824.34,291.5z"/>
    <g>
		<defs>
			<path id="SVGID_00000069357947241456290020000016765814773579635376_" d="M577.15,222.66c0-45.4-35.76-81.16-81.16-81.16
				c-42.95,0-77.28,32-80.85,73.91c-0.34,3.99-0.3,10.5-0.3,14.51v9.18c0,4.01-3.25,7.26-7.26,7.26h-15.24
				c-4.01,0-7.15-3.38-8.58-7.1c-4.66-9.14-7.93-14.75-17.81-14.81c-9.09-0.3-15.05,7.34-18.12,14.82c-1.48,3.7-4.62,7.09-8.62,7.09
				h-14.89c-4.01,0-7.26-3.25-7.26-7.26v-9.18c0-2.57,0.02-4.84,0.02-7.26c0.38-9.26,0.53-11.25,0.68-13.25l0.01-0.13
				c0.04-0.37,0.08-0.73,0.12-1.1c0.04-0.37,0.08-0.74,0.13-1.1c0.04-0.37,0.09-0.73,0.14-1.1c0.05-0.37,0.1-0.73,0.15-1.1
				c0.05-0.37,0.1-0.73,0.16-1.1c0.05-0.37,0.11-0.73,0.16-1.1c0.06-0.37,0.12-0.73,0.18-1.09c0.06-0.37,0.12-0.73,0.18-1.1
				c0.07-0.36,0.13-0.73,0.2-1.09c0.07-0.37,0.13-0.73,0.2-1.09c0.07-0.36,0.14-0.72,0.21-1.09c0.07-0.36,0.15-0.73,0.22-1.09
				c0.08-0.36,0.15-0.72,0.23-1.09c0.08-0.36,0.16-0.72,0.24-1.08c0.08-0.36,0.16-0.72,0.25-1.08c0.08-0.36,0.17-0.72,0.26-1.08
				c0.09-0.36,0.18-0.72,0.27-1.08c0.09-0.36,0.18-0.71,0.28-1.07c0.09-0.36,0.19-0.72,0.29-1.07c0.1-0.35,0.19-0.71,0.29-1.07
				c0.1-0.36,0.2-0.71,0.31-1.07c0.1-0.35,0.21-0.71,0.31-1.06c0.11-0.36,0.22-0.71,0.32-1.06c0.11-0.35,0.22-0.71,0.33-1.06
				c0.11-0.35,0.23-0.71,0.34-1.06c0.12-0.35,0.23-0.7,0.35-1.05c0.12-0.35,0.24-0.7,0.36-1.05c0.12-0.35,0.24-0.7,0.37-1.05
				c0.12-0.35,0.25-0.7,0.38-1.04c0.13-0.35,0.26-0.7,0.39-1.04c0.13-0.35,0.26-0.7,0.4-1.04c0.13-0.35,0.27-0.69,0.4-1.04
				c0.14-0.34,0.27-0.69,0.41-1.03c0.14-0.34,0.28-0.69,0.42-1.03c0.14-0.34,0.28-0.68,0.43-1.02c0.14-0.34,0.29-0.68,0.44-1.02
				c0.15-0.34,0.3-0.68,0.44-1.02c0.15-0.34,0.3-0.68,0.46-1.01c0.15-0.34,0.31-0.67,0.46-1.01c0.16-0.34,0.32-0.67,0.47-1
				c0.16-0.34,0.32-0.67,0.48-1c0.16-0.33,0.32-0.66,0.49-1c0.16-0.33,0.33-0.66,0.5-0.99c0.16-0.33,0.34-0.66,0.5-0.98
				c0.17-0.33,0.34-0.66,0.52-0.98c0.18-0.33,0.35-0.65,0.52-0.98c0.17-0.32,0.35-0.65,0.53-0.97c0.18-0.33,0.36-0.65,0.54-0.97
				c0.18-0.32,0.36-0.65,0.55-0.96c0.18-0.32,0.37-0.64,0.55-0.96c0.19-0.32,0.38-0.64,0.57-0.95c0.19-0.32,0.38-0.64,0.57-0.95
				c0.2-0.32,0.39-0.63,0.58-0.95c0.2-0.31,0.39-0.62,0.59-0.94c0.19-0.31,0.4-0.62,0.6-0.94c0.2-0.31,0.4-0.62,0.6-0.93
				c0.2-0.31,0.41-0.62,0.61-0.93c0.21-0.3,0.42-0.61,0.62-0.92c0.21-0.31,0.42-0.61,0.62-0.92c0.21-0.3,0.43-0.6,0.64-0.91
				c0.21-0.3,0.43-0.61,0.65-0.91c0.22-0.3,0.43-0.6,0.65-0.9c0.22-0.3,0.44-0.6,0.66-0.89c0.22-0.29,0.44-0.59,0.67-0.88
				c0.22-0.3,0.45-0.59,0.67-0.88c0.23-0.29,0.46-0.59,0.68-0.88c0.23-0.29,0.46-0.58,0.69-0.87c0.23-0.29,0.46-0.57,0.7-0.86
				c0.23-0.29,0.47-0.57,0.7-0.86c0.23-0.28,0.47-0.57,0.71-0.85c0.24-0.28,0.48-0.56,0.72-0.84c0.24-0.28,0.48-0.56,0.73-0.84
				c0.24-0.28,0.48-0.56,0.73-0.83c0.25-0.27,0.49-0.55,0.74-0.82c0.25-0.28,0.5-0.55,0.75-0.82c0.25-0.27,0.5-0.55,0.75-0.81
				c0.25-0.27,0.5-0.54,0.76-0.81c0.25-0.26,0.51-0.53,0.77-0.8c0.26-0.27,0.52-0.53,0.77-0.8c0.26-0.26,0.52-0.52,0.78-0.79
				c0.26-0.26,0.52-0.52,0.79-0.78c0.26-0.26,0.53-0.52,0.79-0.78c0.27-0.25,0.54-0.51,0.8-0.76c0.27-0.26,0.54-0.51,0.81-0.76
				c0.27-0.25,0.54-0.5,0.82-0.75c0.27-0.25,0.54-0.5,0.82-0.75c0.28-0.25,0.55-0.49,0.83-0.74c0.27-0.25,0.55-0.49,0.83-0.73
				c0.28-0.24,0.56-0.49,0.84-0.73c0.28-0.24,0.56-0.48,0.84-0.72c0.29-0.24,0.57-0.47,0.85-0.71c0.29-0.23,0.57-0.47,0.86-0.7
				c0.28-0.23,0.57-0.46,0.86-0.7c0.29-0.23,0.58-0.46,0.87-0.69c0.29-0.23,0.58-0.46,0.88-0.68c0.29-0.23,0.59-0.45,0.88-0.67
				c0.3-0.22,0.59-0.44,0.89-0.66c0.3-0.22,0.6-0.44,0.89-0.66c0.3-0.22,0.6-0.44,0.9-0.65c0.3-0.22,0.6-0.43,0.91-0.65
				c0.3-0.21,0.61-0.42,0.91-0.63c0.3-0.21,0.61-0.42,0.91-0.63c0.31-0.21,0.61-0.41,0.92-0.62c0.31-0.2,0.62-0.41,0.93-0.61
				c0.31-0.21,0.62-0.41,0.93-0.61c0.31-0.2,0.62-0.4,0.94-0.59c0.31-0.2,0.62-0.4,0.94-0.59c0.32-0.19,0.63-0.39,0.95-0.58
				c0.32-0.19,0.63-0.38,0.95-0.57c0.32-0.19,0.64-0.38,0.96-0.56c0.32-0.19,0.64-0.38,0.96-0.56c0.32-0.18,0.64-0.37,0.96-0.55
				c0.32-0.18,0.65-0.36,0.97-0.54c0.32-0.18,0.65-0.36,0.97-0.53c0.33-0.18,0.65-0.35,0.98-0.52c0.32-0.17,0.65-0.34,0.98-0.52
				c0.33-0.17,0.66-0.34,0.99-0.5c0.33-0.17,0.66-0.33,0.99-0.5c0.33-0.16,0.66-0.32,1-0.49c0.33-0.16,0.67-0.32,1-0.48
				c0.34-0.16,0.67-0.32,1-0.47c0.34-0.15,0.67-0.31,1.01-0.46c0.34-0.15,0.67-0.31,1.01-0.46c0.34-0.15,0.68-0.3,1.01-0.45
				c0.34-0.15,0.68-0.29,1.02-0.44c0.34-0.14,0.68-0.28,1.02-0.43c0.34-0.14,0.69-0.28,1.03-0.42c0.34-0.14,0.69-0.28,1.03-0.41
				c0.34-0.13,0.69-0.27,1.04-0.4c0.34-0.13,0.69-0.26,1.04-0.39c0.34-0.13,0.69-0.26,1.04-0.39c0.35-0.12,0.69-0.25,1.04-0.38
				s0.7-0.25,1.05-0.37c0.35-0.12,0.7-0.24,1.05-0.36c0.35-0.12,0.7-0.24,1.05-0.35c0.35-0.12,0.7-0.23,1.06-0.34
				c0.35-0.11,0.71-0.22,1.06-0.33c0.35-0.11,0.71-0.21,1.06-0.32c0.35-0.1,0.71-0.21,1.07-0.31c0.36-0.11,0.71-0.2,1.07-0.31
				c0.35-0.1,0.71-0.2,1.07-0.3c0.36-0.09,0.72-0.19,1.07-0.29c0.36-0.09,0.72-0.18,1.08-0.28c0.35-0.09,0.71-0.18,1.07-0.27
				c0.36-0.09,0.72-0.17,1.08-0.26c0.36-0.09,0.72-0.17,1.08-0.25c0.36-0.08,0.72-0.16,1.09-0.24c0.36-0.08,0.72-0.15,1.09-0.23
				c0.36-0.08,0.72-0.15,1.08-0.22c0.36-0.07,0.73-0.14,1.09-0.21c0.36-0.07,0.73-0.13,1.09-0.2c0.36-0.07,0.73-0.13,1.09-0.2
				c0.36-0.06,0.73-0.12,1.09-0.18c0.36-0.06,0.73-0.12,1.09-0.18c0.37-0.06,0.73-0.11,1.1-0.16c0.37-0.05,0.74-0.1,1.1-0.16
				c0.36-0.05,0.73-0.1,1.1-0.15c0.37-0.05,0.73-0.09,1.1-0.14c0.37-0.05,0.73-0.09,1.1-0.13c0.37-0.04,0.73-0.08,1.1-0.12
				c0.37-0.04,0.73-0.07,1.1-0.11c0.37-0.04,0.74-0.07,1.1-0.1c0.37-0.03,0.74-0.06,1.11-0.08c0.37-0.03,0.74-0.06,1.1-0.08
				c0.37-0.03,0.74-0.05,1.11-0.07c0.37-0.02,0.74-0.04,1.11-0.06c0.37-0.02,0.74-0.04,1.11-0.05c0.37-0.02,0.74-0.03,1.11-0.04
				c0.37-0.01,0.74-0.02,1.11-0.03c0.37-0.01,0.74-0.02,1.11-0.03c0.37,0,0.74-0.01,1.11-0.01c0.37,0,0.74,0,1.11,0h0.09
				c0.37,0,0.74,0,1.11,0.01c0.37,0,0.74,0.01,1.11,0.02c0.37,0,0.74,0.02,1.11,0.02c0.37,0.01,0.74,0.02,1.11,0.04
				c0.37,0.01,0.74,0.03,1.11,0.04c0.37,0.02,0.74,0.03,1.11,0.05c0.37,0.02,0.74,0.04,1.11,0.06c0.37,0.02,0.74,0.05,1.11,0.07
				c0.37,0.03,0.74,0.05,1.11,0.09c0.37,0.03,0.74,0.06,1.1,0.09c0.37,0.03,0.74,0.07,1.11,0.1c0.37,0.03,0.73,0.07,1.1,0.11
				c0.37,0.04,0.74,0.08,1.11,0.12c0.37,0.04,0.73,0.08,1.1,0.13c0.37,0.04,0.73,0.09,1.1,0.13c0.37,0.05,0.73,0.1,1.1,0.15
				c0.36,0.05,0.73,0.1,1.1,0.15c0.37,0.05,0.73,0.11,1.1,0.17c0.37,0.05,0.73,0.11,1.1,0.17c0.36,0.06,0.73,0.12,1.09,0.18
				c0.37,0.06,0.73,0.12,1.09,0.19c0.36,0.07,0.73,0.14,1.09,0.2c0.36,0.07,0.73,0.14,1.09,0.21c0.36,0.07,0.73,0.15,1.09,0.22
				c0.36,0.07,0.72,0.15,1.08,0.23c0.36,0.08,0.72,0.16,1.09,0.24c0.36,0.08,0.72,0.16,1.08,0.25c0.36,0.09,0.72,0.17,1.08,0.26
				c0.36,0.09,0.72,0.17,1.07,0.27c0.36,0.09,0.72,0.18,1.08,0.28c0.35,0.09,0.71,0.19,1.07,0.29c0.36,0.1,0.72,0.19,1.07,0.29
				c0.35,0.1,0.71,0.2,1.07,0.31c0.35,0.1,0.71,0.21,1.06,0.31c0.36,0.1,0.71,0.22,1.06,0.32c0.35,0.11,0.71,0.22,1.06,0.33
				c0.35,0.11,0.7,0.22,1.05,0.34c0.36,0.11,0.71,0.23,1.06,0.35c0.35,0.12,0.7,0.24,1.05,0.36c0.35,0.12,0.7,0.25,1.05,0.37
				c0.35,0.12,0.69,0.25,1.04,0.38c0.35,0.12,0.69,0.25,1.04,0.38c0.35,0.13,0.7,0.26,1.04,0.39c0.34,0.13,0.69,0.27,1.04,0.4
				c0.34,0.14,0.69,0.27,1.03,0.41c0.34,0.14,0.69,0.28,1.03,0.42c0.34,0.14,0.68,0.29,1.02,0.43c0.34,0.15,0.68,0.29,1.02,0.44
				c0.34,0.14,0.68,0.3,1.02,0.44c0.34,0.15,0.68,0.3,1.01,0.46c0.34,0.15,0.67,0.31,1.01,0.47c0.34,0.16,0.67,0.31,1,0.47
				c0.33,0.16,0.67,0.32,1,0.48c0.33,0.16,0.66,0.32,1,0.49c0.33,0.16,0.66,0.33,0.99,0.5c0.33,0.17,0.66,0.34,0.98,0.5
				c0.33,0.17,0.66,0.34,0.99,0.52c0.33,0.18,0.65,0.35,0.98,0.52c0.33,0.18,0.65,0.36,0.98,0.53c0.32,0.18,0.65,0.36,0.97,0.54
				c0.32,0.18,0.65,0.36,0.97,0.55c0.32,0.18,0.64,0.37,0.96,0.55c0.32,0.19,0.64,0.38,0.95,0.57c0.32,0.19,0.64,0.38,0.95,0.57
				c0.32,0.19,0.63,0.39,0.94,0.58c0.32,0.19,0.63,0.39,0.94,0.59c0.31,0.2,0.62,0.39,0.93,0.59c0.31,0.2,0.62,0.4,0.93,0.61
				c0.31,0.2,0.62,0.41,0.92,0.61c0.31,0.21,0.61,0.41,0.92,0.62c0.31,0.21,0.61,0.42,0.91,0.63c0.3,0.21,0.61,0.42,0.91,0.64
				c0.3,0.21,0.6,0.43,0.91,0.64c0.3,0.21,0.6,0.43,0.9,0.65c0.3,0.22,0.59,0.44,0.89,0.66c0.3,0.22,0.59,0.44,0.89,0.67
				c0.29,0.22,0.59,0.45,0.88,0.68c0.29,0.23,0.58,0.45,0.88,0.68c0.29,0.23,0.58,0.46,0.87,0.69c0.29,0.23,0.58,0.46,0.86,0.69
				c0.29,0.24,0.57,0.47,0.86,0.7c0.29,0.24,0.57,0.48,0.85,0.71c0.28,0.24,0.57,0.48,0.84,0.72c0.29,0.24,0.56,0.48,0.84,0.73
				c0.28,0.24,0.56,0.48,0.83,0.73c0.28,0.25,0.55,0.5,0.83,0.74c0.27,0.25,0.55,0.5,0.82,0.75c0.27,0.25,0.54,0.5,0.81,0.75
				c0.27,0.26,0.54,0.51,0.81,0.76c0.27,0.25,0.53,0.51,0.8,0.77c0.27,0.26,0.53,0.52,0.79,0.77c0.26,0.26,0.53,0.52,0.79,0.78
				c0.26,0.26,0.52,0.52,0.78,0.79s0.52,0.53,0.77,0.8c0.26,0.26,0.51,0.53,0.77,0.8c0.26,0.27,0.51,0.54,0.76,0.81
				c0.25,0.27,0.5,0.54,0.75,0.81c0.25,0.27,0.5,0.55,0.75,0.82c0.25,0.28,0.49,0.55,0.73,0.83c0.25,0.28,0.49,0.55,0.74,0.83
				c0.24,0.28,0.48,0.56,0.72,0.84c0.24,0.28,0.48,0.56,0.72,0.85c0.24,0.28,0.47,0.57,0.71,0.85c0.23,0.29,0.47,0.57,0.7,0.86
				c0.23,0.28,0.46,0.57,0.69,0.86c0.23,0.28,0.46,0.58,0.69,0.87c0.23,0.29,0.45,0.59,0.68,0.88c0.23,0.29,0.45,0.59,0.67,0.88
				c0.23,0.3,0.45,0.59,0.67,0.89c0.22,0.3,0.44,0.59,0.66,0.89c0.22,0.3,0.43,0.6,0.65,0.9c0.21,0.3,0.43,0.6,0.64,0.9
				c0.22,0.3,0.43,0.61,0.64,0.91c0.21,0.3,0.42,0.61,0.63,0.91c0.21,0.31,0.41,0.61,0.62,0.92c0.21,0.31,0.41,0.61,0.62,0.92
				c0.2,0.31,0.4,0.62,0.6,0.93c0.2,0.31,0.4,0.62,0.6,0.93c0.2,0.31,0.4,0.63,0.59,0.94c0.2,0.32,0.39,0.63,0.58,0.95
				c0.19,0.32,0.38,0.63,0.57,0.95c0.19,0.32,0.38,0.64,0.57,0.95c0.19,0.32,0.37,0.64,0.56,0.96c0.18,0.32,0.37,0.64,0.55,0.97
				c0.18,0.32,0.36,0.64,0.54,0.97c0.18,0.33,0.35,0.65,0.53,0.98c0.18,0.32,0.35,0.65,0.52,0.98c0.17,0.32,0.34,0.65,0.52,0.98
				s0.34,0.66,0.51,0.99c0.17,0.33,0.33,0.66,0.5,0.99c0.16,0.33,0.33,0.66,0.49,1c0.16,0.33,0.32,0.66,0.48,1
				c0.16,0.34,0.31,0.67,0.47,1c0.16,0.34,0.31,0.67,0.46,1.01c0.16,0.34,0.31,0.68,0.46,1.01c0.15,0.34,0.3,0.68,0.45,1.02
				c0.14,0.34,0.29,0.68,0.43,1.02c0.15,0.34,0.29,0.68,0.43,1.02c0.14,0.34,0.28,0.68,0.42,1.03c0.14,0.34,0.27,0.69,0.41,1.03
				c0.14,0.34,0.27,0.69,0.4,1.04c0.13,0.34,0.27,0.69,0.4,1.03c0.13,0.35,0.26,0.7,0.39,1.04c0.12,0.35,0.25,0.7,0.38,1.05
				c0.12,0.35,0.25,0.7,0.37,1.05c0.12,0.35,0.24,0.7,0.36,1.05c0.12,0.35,0.23,0.7,0.35,1.05c0.11,0.35,0.23,0.71,0.34,1.06
				c0.11,0.35,0.22,0.71,0.33,1.06c0.11,0.36,0.21,0.71,0.32,1.06c0.1,0.35,0.21,0.71,0.31,1.06c0.1,0.36,0.2,0.71,0.31,1.07
				c0.1,0.35,0.19,0.71,0.29,1.07c0.1,0.36,0.19,0.71,0.29,1.07c0.09,0.36,0.19,0.71,0.28,1.07c0.09,0.36,0.18,0.72,0.27,1.08
				c0.09,0.36,0.18,0.72,0.26,1.08c0.08,0.36,0.16,0.72,0.25,1.08c0.08,0.36,0.16,0.72,0.24,1.08c0.08,0.36,0.15,0.72,0.23,1.09
				c0.07,0.36,0.15,0.73,0.22,1.09c0.07,0.36,0.14,0.72,0.21,1.09c0.07,0.36,0.14,0.73,0.2,1.09c0.07,0.37,0.13,0.73,0.19,1.09
				c0.07,0.37,0.12,0.73,0.19,1.1c0.06,0.36,0.12,0.73,0.17,1.09c0.06,0.37,0.11,0.73,0.16,1.1c0.06,0.37,0.11,0.73,0.16,1.1
				c0.05,0.37,0.1,0.73,0.15,1.1c0.05,0.37,0.09,0.73,0.14,1.1s0.09,0.73,0.13,1.1c0.04,0.37,0.08,0.73,0.12,1.1
				c0.04,0.37,0.07,0.73,0.11,1.1c0.04,0.37,0.07,0.74,0.1,1.11c0.03,0.37,0.06,0.74,0.09,1.1c0.03,0.37,0.05,0.74,0.08,1.11
				c0.02,0.37,0.05,0.74,0.07,1.11c0.02,0.37,0.04,0.74,0.06,1.11c0.02,0.37,0.04,0.74,0.05,1.11c0.02,0.37,0.03,0.74,0.04,1.11
				c0.01,0.37,0.02,0.74,0.03,1.11c0.01,0.37,0.02,0.74,0.02,1.11c0.01,0.37,0.01,0.74,0.02,1.11
				C577.15,221.93,577.15,222.3,577.15,222.66L577.15,222.66z"/>
		</defs>

        <linearGradient id="SVGID_00000114763849825242907180000013123146429233128105_" gradientUnits="userSpaceOnUse"
                        x1="317.063" y1="169.5" x2="577.1479" y2="169.5">
			<stop offset="0" style="stop-color:#DA4398"/>
            <stop offset="0.9994" style="stop-color:#B46AAB"/>
		</linearGradient>

        <use xlink:href="#SVGID_00000069357947241456290020000016765814773579635376_"
             style="overflow:visible;fill:url(#SVGID_00000114763849825242907180000013123146429233128105_);"/>
        <clipPath id="SVGID_00000168093384254046001260000016847860708719204768_">
			<use xlink:href="#SVGID_00000069357947241456290020000016765814773579635376_" style="overflow:visible;"/>
		</clipPath>
        <g style="display:none;clip-path:url(#SVGID_00000168093384254046001260000016847860708719204768_);">
		</g>
	</g>
    <g>
		<defs>
			<path id="SVGID_00000040569330609575044710000002757115625567616934_" d="M667.64,243.69H652.4c-4.01,0-7.14-3.38-8.58-7.09
				c-2.78-7.2-9.67-12.39-17.81-12.39c-8.14,0-15.24,5.19-18.12,12.4c-1.48,3.7-4.62,7.09-8.62,7.09h-14.89
				c-1.92,0-3.77-0.77-5.13-2.12c-1.36-1.36-2.13-3.21-2.13-5.13v-13.77h0.02c0-0.37,0-0.74-0.01-1.11c0-0.37-0.01-0.74-0.02-1.11
				c0-0.37-0.01-0.74-0.02-1.11c-0.01-0.37-0.02-0.74-0.03-1.11c-0.01-0.37-0.03-0.74-0.04-1.11c-0.02-0.37-0.03-0.74-0.05-1.11
				c-0.02-0.37-0.04-0.74-0.06-1.11c-0.02-0.37-0.04-0.74-0.07-1.1c-0.02-0.37-0.05-0.74-0.08-1.11c-0.03-0.37-0.05-0.74-0.09-1.11
				c-0.03-0.37-0.07-0.74-0.1-1.11c-0.04-0.37-0.07-0.74-0.11-1.1c-0.04-0.37-0.08-0.74-0.12-1.1c-0.04-0.37-0.09-0.73-0.13-1.1
				s-0.09-0.73-0.14-1.1c-0.05-0.37-0.09-0.73-0.14-1.1c-0.05-0.37-0.11-0.74-0.16-1.1c-0.05-0.36-0.11-0.73-0.17-1.09
				c-0.05-0.37-0.11-0.73-0.17-1.1c-0.06-0.36-0.12-0.73-0.18-1.09c-0.06-0.36-0.12-0.73-0.19-1.09c-0.07-0.36-0.14-0.73-0.2-1.09
				c-0.07-0.36-0.14-0.73-0.22-1.09c-0.07-0.36-0.14-0.72-0.22-1.09c-0.08-0.36-0.15-0.73-0.23-1.09c-0.08-0.36-0.16-0.72-0.24-1.08
				c-0.08-0.36-0.16-0.72-0.25-1.08c-0.09-0.36-0.17-0.72-0.26-1.08c-0.09-0.36-0.18-0.72-0.27-1.08c-0.09-0.36-0.18-0.72-0.28-1.08
				c-0.09-0.36-0.19-0.71-0.29-1.07c-0.09-0.35-0.19-0.72-0.29-1.07c-0.1-0.36-0.2-0.71-0.31-1.07c-0.1-0.35-0.21-0.71-0.31-1.06
				c-0.11-0.36-0.21-0.71-0.32-1.06c-0.11-0.35-0.22-0.71-0.33-1.06c-0.11-0.36-0.23-0.71-0.34-1.06c-0.11-0.35-0.23-0.7-0.35-1.05
				c-0.12-0.35-0.24-0.7-0.36-1.05c-0.12-0.35-0.24-0.7-0.37-1.05c-0.12-0.35-0.25-0.7-0.38-1.04c-0.12-0.35-0.25-0.7-0.38-1.04
				c-0.13-0.35-0.26-0.69-0.4-1.04c-0.13-0.35-0.27-0.69-0.41-1.04c-0.13-0.34-0.27-0.69-0.41-1.03c-0.14-0.34-0.28-0.69-0.42-1.03
				c-0.15-0.34-0.29-0.68-0.43-1.02c-0.14-0.34-0.29-0.68-0.44-1.02c-0.15-0.34-0.3-0.68-0.45-1.02c-0.15-0.34-0.3-0.67-0.45-1.01
				c-0.15-0.34-0.31-0.67-0.47-1.01c-0.15-0.34-0.31-0.67-0.47-1c-0.16-0.34-0.32-0.67-0.48-1c-0.16-0.33-0.32-0.66-0.49-1
				c-0.16-0.33-0.33-0.66-0.5-0.99c-0.17-0.33-0.34-0.66-0.51-0.99c-0.17-0.33-0.34-0.66-0.52-0.98c-0.17-0.32-0.34-0.65-0.52-0.98
				c-0.18-0.32-0.35-0.65-0.53-0.98c-0.18-0.32-0.36-0.65-0.54-0.97c-0.18-0.32-0.36-0.64-0.55-0.96c-0.18-0.32-0.37-0.64-0.56-0.96
				c-0.19-0.32-0.38-0.64-0.56-0.95c-0.19-0.32-0.38-0.64-0.57-0.95c-0.2-0.32-0.39-0.63-0.58-0.95c-0.19-0.31-0.39-0.63-0.59-0.94
				c-0.2-0.31-0.4-0.62-0.59-0.93c-0.2-0.31-0.4-0.62-0.61-0.93c-0.2-0.31-0.41-0.62-0.61-0.92c-0.21-0.31-0.41-0.61-0.62-0.92
				c-0.21-0.3-0.42-0.61-0.63-0.91c-0.21-0.3-0.42-0.61-0.63-0.91c-0.21-0.3-0.43-0.6-0.64-0.9c-0.21-0.3-0.43-0.6-0.65-0.9
				c-0.22-0.3-0.44-0.6-0.66-0.89c-0.22-0.3-0.44-0.59-0.66-0.89c-0.22-0.29-0.45-0.59-0.67-0.88c-0.23-0.29-0.46-0.59-0.68-0.88
				c-0.23-0.29-0.46-0.58-0.69-0.87c-0.23-0.29-0.46-0.57-0.7-0.86c-0.23-0.29-0.47-0.57-0.7-0.86c-0.23-0.29-0.47-0.57-0.71-0.85
				c-0.24-0.28-0.48-0.56-0.72-0.84c-0.24-0.28-0.48-0.56-0.72-0.84c-0.25-0.28-0.49-0.56-0.73-0.83c-0.25-0.28-0.49-0.55-0.74-0.83
				c-0.25-0.28-0.5-0.55-0.75-0.82c-0.25-0.27-0.5-0.54-0.75-0.81c-0.25-0.27-0.5-0.54-0.76-0.81c-0.25-0.27-0.51-0.54-0.77-0.8
				c-0.26-0.27-0.52-0.53-0.77-0.79c-0.26-0.26-0.52-0.53-0.78-0.79c-0.26-0.26-0.52-0.52-0.78-0.78c-0.27-0.26-0.53-0.52-0.8-0.77
				c-0.27-0.26-0.54-0.51-0.8-0.77c-0.27-0.25-0.54-0.51-0.81-0.76c-0.26-0.25-0.54-0.5-0.81-0.75c-0.27-0.25-0.55-0.5-0.82-0.75
				c-0.27-0.25-0.55-0.5-0.82-0.74c-0.28-0.25-0.55-0.49-0.83-0.73c-0.28-0.25-0.56-0.49-0.84-0.73c-0.28-0.24-0.56-0.48-0.85-0.71
				c-0.28-0.24-0.57-0.48-0.85-0.72c-0.28-0.23-0.57-0.47-0.86-0.7c-0.28-0.23-0.57-0.46-0.86-0.69c-0.29-0.23-0.58-0.46-0.87-0.69
				c-0.29-0.23-0.58-0.45-0.88-0.68c-0.29-0.23-0.58-0.45-0.88-0.68c-0.29-0.22-0.59-0.44-0.89-0.67c-0.3-0.22-0.59-0.44-0.89-0.66
				c-0.3-0.21-0.6-0.43-0.9-0.65c-0.3-0.22-0.6-0.43-0.9-0.64c-0.3-0.22-0.61-0.43-0.91-0.64c-0.3-0.21-0.61-0.42-0.91-0.63
				c-0.3-0.21-0.61-0.41-0.92-0.62c-0.3-0.21-0.61-0.41-0.92-0.61c-0.31-0.2-0.62-0.41-0.93-0.61c-0.31-0.2-0.62-0.4-0.93-0.6
				c-0.31-0.2-0.63-0.39-0.94-0.59c-0.32-0.19-0.63-0.39-0.94-0.59c-0.32-0.19-0.63-0.38-0.95-0.57c-0.32-0.19-0.63-0.38-0.95-0.57
				c-0.32-0.18-0.64-0.37-0.96-0.55c-0.32-0.18-0.64-0.37-0.96-0.55c-0.32-0.18-0.65-0.36-0.97-0.54c-0.32-0.18-0.65-0.36-0.97-0.53
				c-0.33-0.18-0.65-0.35-0.98-0.52c-0.33-0.17-0.65-0.34-0.98-0.52c-0.32-0.17-0.66-0.34-0.98-0.5c-0.33-0.17-0.66-0.33-0.99-0.5
				c-0.33-0.16-0.66-0.33-1-0.49c-0.33-0.16-0.66-0.32-1-0.48c-0.33-0.16-0.67-0.31-1-0.47c-0.33-0.16-0.67-0.31-1-0.47
				c-0.34-0.16-0.68-0.31-1.02-0.46c-0.34-0.15-0.68-0.3-1.01-0.45c-0.34-0.15-0.68-0.29-1.02-0.43c-0.34-0.14-0.68-0.29-1.02-0.43
				c-0.34-0.14-0.68-0.28-1.03-0.42c-0.34-0.14-0.69-0.27-1.03-0.41c-0.34-0.13-0.69-0.27-1.04-0.4c-0.34-0.13-0.69-0.27-1.04-0.39
				c-0.34-0.13-0.69-0.26-1.04-0.38c-0.35-0.13-0.7-0.25-1.04-0.38c-0.35-0.12-0.7-0.25-1.05-0.37c-0.35-0.12-0.7-0.24-1.05-0.36
				c-0.35-0.12-0.7-0.24-1.06-0.35c-0.35-0.11-0.71-0.23-1.06-0.34c-0.35-0.11-0.7-0.22-1.06-0.33c-0.35-0.1-0.71-0.21-1.06-0.32
				c-0.35-0.11-0.71-0.21-1.06-0.31c-0.35-0.1-0.71-0.21-1.07-0.31c-0.36-0.1-0.71-0.2-1.07-0.29c-0.35-0.1-0.71-0.19-1.07-0.29
				c-0.36-0.09-0.71-0.19-1.07-0.28c-0.36-0.09-0.72-0.18-1.08-0.27c-0.36-0.09-0.72-0.17-1.08-0.26c-0.36-0.09-0.72-0.17-1.08-0.25
				c-0.36-0.08-0.72-0.16-1.08-0.24c-0.36-0.08-0.73-0.15-1.08-0.23c-0.36-0.07-0.73-0.15-1.09-0.22c-0.36-0.07-0.72-0.14-1.09-0.21
				c-0.36-0.07-0.73-0.14-1.09-0.2c-0.36-0.07-0.73-0.13-1.09-0.2c-0.37-0.06-0.73-0.12-1.09-0.18c-0.37-0.06-0.73-0.12-1.1-0.18
				c-0.36-0.06-0.73-0.11-1.1-0.17c-0.37-0.06-0.73-0.11-1.1-0.16c-0.37-0.05-0.73-0.1-1.1-0.15c-0.37-0.05-0.73-0.09-1.1-0.14
				c-0.37-0.04-0.74-0.09-1.1-0.12c-0.37-0.04-0.73-0.08-1.1-0.12c-0.37-0.04-0.74-0.07-1.1-0.11c-0.37-0.04-0.73-0.07-1.1-0.1
				c-0.37-0.03-0.74-0.06-1.11-0.09c-0.37-0.03-0.73-0.06-1.11-0.09c-0.37-0.02-0.74-0.05-1.11-0.07c-0.37-0.02-0.74-0.04-1.11-0.06
				c-0.37-0.02-0.74-0.04-1.11-0.05s-0.74-0.03-1.11-0.04c-0.37-0.02-0.74-0.02-1.11-0.04c-0.37-0.01-0.74-0.02-1.11-0.03
				c-0.37,0-0.74-0.01-1.1-0.01c-0.37,0-0.74-0.01-1.11-0.01h-0.08c-0.37,0-0.74,0-1.11,0c-0.37,0-0.74,0.01-1.11,0.02
				c-0.37,0.01-0.74,0.02-1.11,0.02c-0.37,0.01-0.74,0.02-1.11,0.03c-0.37,0.02-0.74,0.03-1.11,0.05c-0.37,0.02-0.74,0.03-1.1,0.05
				c-0.37,0.02-0.74,0.04-1.11,0.06c-0.37,0.02-0.74,0.04-1.11,0.07c-0.37,0.02-0.73,0.05-1.1,0.08c-0.37,0.03-0.74,0.06-1.11,0.09
				c-0.37,0.03-0.73,0.07-1.1,0.1c-0.37,0.04-0.73,0.07-1.1,0.11c-0.37,0.04-0.73,0.07-1.1,0.12c-0.37,0.04-0.73,0.08-1.1,0.13
				c-0.37,0.04-0.73,0.09-1.1,0.13c-0.37,0.05-0.73,0.1-1.1,0.15c-0.37,0.05-0.73,0.1-1.1,0.16c-0.37,0.06-0.73,0.11-1.1,0.16
				c-0.36,0.06-0.73,0.12-1.09,0.18c-0.37,0.06-0.73,0.12-1.09,0.18c-0.36,0.06-0.73,0.13-1.09,0.2c-0.36,0.06-0.73,0.13-1.09,0.2
				c-0.36,0.07-0.73,0.14-1.09,0.21c-0.36,0.07-0.73,0.15-1.09,0.22c-0.36,0.08-0.72,0.15-1.09,0.23c-0.36,0.08-0.72,0.16-1.09,0.24
				c-0.36,0.08-0.72,0.16-1.08,0.25c-0.36,0.08-0.72,0.17-1.08,0.26c-0.36,0.09-0.71,0.18-1.07,0.27c-0.36,0.09-0.72,0.18-1.07,0.28
				c-0.36,0.09-0.71,0.19-1.07,0.28c-0.35,0.1-0.71,0.2-1.07,0.3c-0.36,0.1-0.71,0.2-1.07,0.31c-0.35,0.1-0.71,0.2-1.06,0.31
				c-0.35,0.11-0.71,0.21-1.06,0.32c-0.35,0.11-0.71,0.22-1.06,0.33c-0.36,0.11-0.71,0.22-1.06,0.34c-0.35,0.11-0.7,0.23-1.05,0.35
				c-0.35,0.12-0.7,0.24-1.05,0.36c-0.35,0.12-0.7,0.25-1.05,0.37c-0.35,0.12-0.7,0.25-1.04,0.38c-0.35,0.12-0.69,0.25-1.04,0.39
				c-0.35,0.13-0.7,0.26-1.04,0.39s-0.69,0.27-1.03,0.4c-0.35,0.14-0.69,0.27-1.03,0.41c-0.34,0.14-0.69,0.28-1.03,0.42
				c-0.34,0.14-0.68,0.29-1.02,0.43c-0.34,0.15-0.68,0.29-1.02,0.44c-0.34,0.15-0.68,0.3-1.02,0.44c-0.34,0.15-0.68,0.31-1.01,0.46
				c-0.34,0.15-0.68,0.3-1.01,0.46c-0.34,0.16-0.67,0.31-1,0.47c-0.33,0.16-0.66,0.32-1,0.48c-0.33,0.16-0.66,0.32-1,0.49
				c-0.33,0.16-0.66,0.33-0.99,0.5c-0.33,0.17-0.66,0.34-0.99,0.5c-0.33,0.17-0.66,0.34-0.98,0.52c-0.33,0.17-0.65,0.35-0.98,0.52
				c-0.33,0.18-0.65,0.35-0.97,0.53c-0.32,0.18-0.65,0.36-0.97,0.54c-0.32,0.18-0.64,0.36-0.97,0.55c-0.32,0.18-0.64,0.37-0.96,0.56
				c-0.32,0.18-0.64,0.38-0.96,0.56c-0.32,0.19-0.63,0.38-0.95,0.57c-0.32,0.19-0.63,0.38-0.94,0.58c-0.32,0.2-0.63,0.39-0.94,0.59
				c-0.31,0.2-0.62,0.4-0.93,0.6c-0.31,0.2-0.62,0.4-0.93,0.6c-0.31,0.2-0.62,0.41-0.93,0.61c-0.31,0.21-0.61,0.41-0.92,0.62
				c-0.31,0.21-0.61,0.42-0.91,0.63c-0.3,0.21-0.61,0.42-0.91,0.63c-0.3,0.21-0.6,0.43-0.91,0.65s-0.6,0.43-0.9,0.65
				c-0.3,0.22-0.6,0.44-0.89,0.66c-0.3,0.22-0.59,0.45-0.89,0.67c-0.3,0.22-0.59,0.45-0.88,0.67c-0.29,0.23-0.59,0.45-0.88,0.68
				c-0.29,0.23-0.58,0.46-0.87,0.69c-0.28,0.23-0.57,0.47-0.86,0.7c-0.29,0.23-0.57,0.47-0.86,0.7c-0.29,0.23-0.57,0.47-0.85,0.71
				c-0.29,0.24-0.57,0.48-0.85,0.71c-0.29,0.24-0.56,0.49-0.84,0.73c-0.28,0.24-0.56,0.48-0.83,0.73c-0.28,0.24-0.55,0.49-0.83,0.74
				c-0.28,0.25-0.55,0.5-0.82,0.75c-0.27,0.25-0.55,0.5-0.82,0.75c-0.27,0.25-0.54,0.5-0.81,0.76c-0.27,0.25-0.54,0.51-0.81,0.77
				c-0.26,0.26-0.53,0.52-0.79,0.77c-0.27,0.26-0.53,0.52-0.79,0.79c-0.26,0.26-0.52,0.52-0.78,0.78c-0.26,0.27-0.52,0.53-0.77,0.8
				c-0.26,0.27-0.51,0.53-0.77,0.8c-0.25,0.27-0.51,0.54-0.76,0.81c-0.25,0.27-0.5,0.54-0.75,0.81c-0.25,0.27-0.5,0.55-0.75,0.82
				c-0.25,0.27-0.5,0.55-0.74,0.82c-0.25,0.28-0.49,0.56-0.73,0.83c-0.25,0.28-0.49,0.56-0.73,0.84c-0.24,0.28-0.48,0.56-0.72,0.84
				c-0.24,0.28-0.47,0.57-0.71,0.85c-0.24,0.29-0.47,0.57-0.7,0.86c-0.23,0.28-0.46,0.57-0.7,0.86c-0.23,0.29-0.46,0.58-0.69,0.87
				c-0.23,0.29-0.46,0.59-0.68,0.88c-0.23,0.29-0.45,0.59-0.67,0.88c-0.22,0.3-0.44,0.59-0.67,0.89c-0.22,0.3-0.44,0.59-0.66,0.89
				c-0.22,0.3-0.43,0.59-0.65,0.9c-0.22,0.3-0.43,0.6-0.65,0.91c-0.21,0.3-0.43,0.6-0.64,0.91c-0.21,0.31-0.42,0.61-0.62,0.92
				c-0.21,0.3-0.42,0.61-0.62,0.92c-0.2,0.31-0.41,0.62-0.61,0.93c-0.2,0.31-0.41,0.62-0.6,0.93c-0.2,0.31-0.4,0.62-0.6,0.94
				c-0.2,0.31-0.39,0.62-0.59,0.94c-0.19,0.32-0.39,0.63-0.58,0.95c-0.19,0.32-0.38,0.63-0.57,0.95c-0.19,0.32-0.38,0.64-0.57,0.96
				c-0.19,0.32-0.37,0.64-0.55,0.96c-0.18,0.32-0.37,0.64-0.55,0.97c-0.18,0.32-0.36,0.64-0.54,0.97c-0.18,0.32-0.36,0.65-0.53,0.97
				c-0.18,0.33-0.35,0.65-0.52,0.98c-0.17,0.33-0.34,0.66-0.52,0.98c-0.17,0.33-0.34,0.66-0.5,0.99c-0.17,0.33-0.34,0.66-0.5,0.99
				c-0.16,0.33-0.33,0.66-0.49,1c-0.16,0.33-0.32,0.66-0.48,1c-0.16,0.34-0.32,0.67-0.47,1c-0.16,0.34-0.31,0.67-0.46,1.01
				c-0.16,0.34-0.3,0.67-0.46,1.01c-0.15,0.34-0.3,0.68-0.45,1.02c-0.15,0.34-0.3,0.68-0.44,1.02c-0.15,0.34-0.29,0.68-0.43,1.03
				c-0.14,0.34-0.28,0.68-0.42,1.02c-0.14,0.34-0.28,0.69-0.41,1.03c-0.14,0.34-0.27,0.69-0.4,1.03c-0.13,0.35-0.27,0.69-0.4,1.04
				c-0.13,0.35-0.26,0.69-0.39,1.04c-0.12,0.35-0.25,0.7-0.38,1.04c-0.12,0.35-0.25,0.69-0.37,1.05c-0.12,0.35-0.24,0.7-0.36,1.05
				c-0.12,0.35-0.24,0.7-0.35,1.05c-0.11,0.35-0.23,0.7-0.34,1.06c-0.11,0.35-0.22,0.71-0.33,1.06c-0.11,0.35-0.21,0.71-0.32,1.06
				c-0.1,0.35-0.21,0.71-0.31,1.07c-0.1,0.36-0.2,0.71-0.31,1.07c-0.1,0.35-0.2,0.72-0.29,1.07c-0.1,0.36-0.19,0.72-0.29,1.07
				c-0.09,0.36-0.19,0.71-0.28,1.08c-0.09,0.36-0.18,0.72-0.27,1.08c-0.09,0.36-0.18,0.72-0.26,1.08c-0.08,0.36-0.16,0.72-0.25,1.08
				c-0.08,0.36-0.16,0.72-0.24,1.08c-0.08,0.36-0.15,0.72-0.23,1.09c-0.07,0.36-0.15,0.73-0.22,1.09c-0.07,0.36-0.14,0.73-0.21,1.09
				c-0.07,0.36-0.14,0.73-0.2,1.09c-0.07,0.36-0.13,0.73-0.2,1.09c-0.06,0.36-0.12,0.73-0.18,1.1c-0.06,0.36-0.12,0.73-0.18,1.09
				c-0.05,0.37-0.11,0.73-0.16,1.1c-0.06,0.36-0.1,0.73-0.16,1.1s-0.1,0.73-0.15,1.1c-0.05,0.37-0.09,0.73-0.14,1.1
				c-0.05,0.37-0.09,0.73-0.13,1.1c-0.04,0.37-0.08,0.74-0.12,1.1l-0.02,0.12c6.89-92.11,84.47-165.66,178.23-165.66
				c98.23,0,178.91,80.68,178.91,178.91v13.77c0,1.92-0.77,3.77-2.12,5.13C671.41,242.92,669.56,243.68,667.64,243.69L667.64,243.69
				z"/>
		</defs>

        <linearGradient id="SVGID_00000105426318789016313080000011440613575812681145_" gradientUnits="userSpaceOnUse"
                        x1="317.754" y1="143.719" x2="674.895" y2="143.719">
			<stop offset="0" style="stop-color:#FFF33B"/>
            <stop offset="0.0595" style="stop-color:#FFE029"/>
            <stop offset="0.1303" style="stop-color:#FFD217"/>
            <stop offset="0.2032" style="stop-color:#FEC90E"/>
            <stop offset="0.2809" style="stop-color:#FDC70C"/>
            <stop offset="0.6685" style="stop-color:#F3903F"/>
            <stop offset="0.8876" style="stop-color:#ED683C"/>
            <stop offset="1" style="stop-color:#E93E3A"/>
		</linearGradient>

        <use xlink:href="#SVGID_00000040569330609575044710000002757115625567616934_"
             style="overflow:visible;fill:url(#SVGID_00000105426318789016313080000011440613575812681145_);"/>
        <clipPath id="SVGID_00000067234166047352389910000011491584839860799670_">
			<use xlink:href="#SVGID_00000040569330609575044710000002757115625567616934_" style="overflow:visible;"/>
		</clipPath>
        <g style="display:none;clip-path:url(#SVGID_00000067234166047352389910000011491584839860799670_);">
		</g>
	</g>
    <g style="display:none;opacity:0.115;enable-background:new    ;">
		<g style="display:inline;">
			<defs>
				<rect id="SVGID_00000054945058046010369250000010536140527906987951_" x="-1075" y="-650" width="3150"
                      height="1800"/>
			</defs>
            <path style="fill:#010101;" d="M577.15,222.66
				c0-32.56-18.44-60.07-45.58-73.08c-0.1-0.13-0.2-0.26-0.3-0.38c-0.21-0.27-0.43-0.54-0.64-0.8c-0.22-0.27-0.43-0.53-0.65-0.8
				c-0.22-0.27-0.43-0.53-0.65-0.79c-0.21-0.27-0.43-0.53-0.65-0.79c-0.22-0.26-0.44-0.52-0.67-0.78c-0.22-0.26-0.44-0.52-0.67-0.77
				c-0.23-0.26-0.45-0.51-0.67-0.77c-0.23-0.25-0.45-0.51-0.68-0.76c-0.23-0.25-0.45-0.51-0.68-0.76c-0.23-0.25-0.46-0.5-0.7-0.75
				c-0.23-0.25-0.46-0.5-0.7-0.74c-0.23-0.25-0.47-0.5-0.7-0.74c-0.24-0.25-0.47-0.49-0.72-0.73c-0.24-0.24-0.48-0.48-0.72-0.73
				c-0.24-0.24-0.48-0.48-0.73-0.72c-0.24-0.24-0.49-0.48-0.73-0.72c-0.25-0.24-0.49-0.47-0.74-0.71c-0.25-0.24-0.5-0.47-0.75-0.7
				c-0.25-0.24-0.5-0.47-0.75-0.69c-0.25-0.23-0.5-0.46-0.76-0.69c-0.25-0.23-0.51-0.45-0.76-0.68c-0.25-0.23-0.51-0.45-0.77-0.68
				c-0.25-0.23-0.51-0.45-0.77-0.67c-0.26-0.22-0.52-0.44-0.78-0.66c-0.26-0.22-0.52-0.44-0.78-0.66c-0.27-0.22-0.53-0.43-0.79-0.65
				c-0.26-0.21-0.53-0.43-0.8-0.64c-0.26-0.21-0.53-0.43-0.8-0.64c-0.27-0.21-0.54-0.42-0.8-0.63c-0.27-0.21-0.54-0.41-0.81-0.62
				c-0.27-0.21-0.55-0.41-0.82-0.62c-0.27-0.2-0.55-0.4-0.82-0.6c-0.27-0.2-0.55-0.4-0.83-0.6c-0.27-0.2-0.55-0.4-0.83-0.59
				c-0.28-0.2-0.56-0.4-0.83-0.59c-0.28-0.19-0.56-0.39-0.85-0.58c-0.28-0.19-0.56-0.38-0.85-0.57c-0.28-0.19-0.57-0.38-0.85-0.57
				c-0.29-0.19-0.57-0.37-0.86-0.56c-0.29-0.19-0.57-0.37-0.86-0.55c-0.29-0.18-0.58-0.36-0.87-0.54c-0.29-0.18-0.58-0.36-0.87-0.54
				c-0.29-0.18-0.59-0.35-0.88-0.53c-0.29-0.17-0.59-0.35-0.88-0.52c-0.29-0.17-0.59-0.34-0.89-0.51c-0.3-0.17-0.59-0.34-0.89-0.5
				c-0.3-0.17-0.59-0.34-0.89-0.5c-0.3-0.16-0.6-0.33-0.9-0.49c-0.3-0.17-0.6-0.32-0.9-0.49c-0.3-0.16-0.6-0.32-0.91-0.47
				c-0.3-0.16-0.61-0.32-0.91-0.47c-0.3-0.16-0.61-0.31-0.91-0.46c-0.31-0.15-0.61-0.31-0.92-0.45c-0.31-0.15-0.61-0.3-0.92-0.44
				c-0.31-0.15-0.62-0.29-0.93-0.44c-0.31-0.15-0.62-0.29-0.93-0.43c-0.31-0.14-0.62-0.28-0.93-0.42c-0.31-0.14-0.62-0.28-0.93-0.41
				c-0.31-0.13-0.62-0.27-0.94-0.4c-0.31-0.13-0.62-0.27-0.94-0.4c-0.32-0.13-0.63-0.26-0.95-0.39c-0.32-0.12-0.63-0.25-0.95-0.38
				c-0.32-0.12-0.63-0.25-0.95-0.37c-0.32-0.12-0.64-0.24-0.96-0.36c-0.32-0.12-0.64-0.24-0.96-0.35c-0.32-0.12-0.65-0.24-0.96-0.35
				c-0.32-0.11-0.64-0.23-0.96-0.34c-0.32-0.11-0.65-0.22-0.97-0.33c-0.32-0.11-0.64-0.22-0.97-0.32c-0.32-0.1-0.65-0.21-0.98-0.31
				c-0.32-0.1-0.65-0.21-0.98-0.31c-0.32-0.1-0.65-0.2-0.98-0.3s-0.66-0.19-0.98-0.29c-0.33-0.09-0.65-0.19-0.98-0.28
				c-0.33-0.09-0.66-0.18-0.98-0.27c-0.33-0.09-0.66-0.18-0.98-0.26c-0.33-0.09-0.66-0.17-0.99-0.25c-0.33-0.09-0.66-0.17-1-0.25
				c-0.33-0.08-0.66-0.16-1-0.24c-0.33-0.08-0.66-0.16-0.99-0.23c-0.33-0.07-0.67-0.15-1-0.22c-0.33-0.07-0.67-0.14-1-0.21
				c-0.34-0.07-0.67-0.14-1-0.2c-0.33-0.07-0.67-0.13-1-0.19c-0.33-0.07-0.67-0.13-1-0.19c-0.34-0.06-0.67-0.12-1.01-0.17
				c-0.34-0.06-0.67-0.11-1.01-0.17c-0.34-0.05-0.67-0.11-1.01-0.16c-0.34-0.05-0.68-0.1-1.01-0.15c-0.34-0.05-0.68-0.09-1.01-0.14
				c-0.34-0.05-0.68-0.09-1.01-0.14c-0.34-0.04-0.68-0.08-1.01-0.12c-0.34-0.04-0.68-0.08-1.02-0.12c-0.34-0.04-0.67-0.07-1.01-0.11
				c-0.34-0.04-0.68-0.07-1.02-0.1c-0.34-0.03-0.68-0.06-1.02-0.09c-0.34-0.03-0.68-0.05-1.02-0.08s-0.68-0.05-1.02-0.07
				c-0.34-0.02-0.68-0.05-1.02-0.07c-0.34-0.02-0.68-0.04-1.02-0.06c-0.34-0.02-0.68-0.04-1.02-0.05c-0.34-0.02-0.68-0.03-1.02-0.04
				c-0.34-0.02-0.68-0.03-1.02-0.04c-0.34-0.01-0.68-0.02-1.02-0.03c-0.34,0-0.68-0.01-1.02-0.02c-0.34,0-0.68-0.01-1.03-0.01
				c-0.02,0-0.05,0-0.07,0c-0.34,0-0.68,0-1.02,0c-0.34,0-0.68,0.01-1.02,0.02c-0.34,0.01-0.68,0.02-1.02,0.03
				c-0.34,0.01-0.68,0.02-1.02,0.03c-0.34,0.02-0.68,0.03-1.02,0.05c-0.34,0.02-0.68,0.03-1.02,0.05c-0.34,0.02-0.68,0.03-1.02,0.05
				c-0.34,0.02-0.68,0.04-1.02,0.07c-0.34,0.02-0.68,0.05-1.02,0.07c-0.34,0.03-0.68,0.05-1.02,0.08c-0.34,0.03-0.68,0.06-1.02,0.09
				c-0.34,0.03-0.68,0.07-1.02,0.1c-0.34,0.04-0.68,0.07-1.02,0.11s-0.68,0.08-1.02,0.12c-0.34,0.04-0.68,0.08-1.01,0.12
				c-0.34,0.04-0.68,0.09-1.01,0.13c-0.34,0.05-0.68,0.09-1.02,0.15c-0.34,0.05-0.68,0.1-1.01,0.15c-0.34,0.05-0.68,0.1-1.01,0.16
				c-0.34,0.05-0.67,0.11-1.01,0.17c-0.34,0.06-0.67,0.12-1.01,0.18c-0.34,0.06-0.67,0.12-1,0.19c-0.34,0.06-0.67,0.13-1.01,0.2
				c-0.33,0.07-0.66,0.13-1,0.2c-0.33,0.07-0.67,0.14-1,0.21c-0.34,0.07-0.67,0.14-1,0.22c-0.33,0.08-0.66,0.15-0.99,0.23
				c-0.33,0.08-0.66,0.16-1,0.24c-0.33,0.08-0.66,0.16-0.99,0.25c-0.33,0.09-0.66,0.17-0.99,0.26c-0.33,0.09-0.66,0.18-0.99,0.26
				c-0.33,0.09-0.66,0.18-0.98,0.27c-0.33,0.09-0.66,0.18-0.98,0.28c-0.33,0.09-0.66,0.19-0.98,0.29c-0.32,0.1-0.65,0.2-0.98,0.3
				c-0.32,0.1-0.65,0.2-0.98,0.3c-0.32,0.11-0.65,0.21-0.97,0.32c-0.32,0.1-0.65,0.21-0.97,0.32c-0.32,0.1-0.65,0.22-0.97,0.32
				c-0.33,0.11-0.65,0.23-0.97,0.34c-0.32,0.11-0.65,0.23-0.96,0.34c-0.32,0.12-0.64,0.24-0.96,0.36c-0.32,0.12-0.64,0.24-0.96,0.36
				c-0.32,0.12-0.64,0.25-0.95,0.37c-0.32,0.12-0.63,0.25-0.95,0.38c-0.32,0.13-0.63,0.26-0.95,0.39c-0.32,0.13-0.63,0.26-0.95,0.4
				c-0.32,0.13-0.63,0.27-0.94,0.4c-0.31,0.14-0.62,0.27-0.93,0.41c-0.31,0.14-0.62,0.28-0.93,0.42c-0.31,0.14-0.62,0.28-0.93,0.43
				c-0.31,0.14-0.62,0.28-0.93,0.43c-0.31,0.15-0.61,0.29-0.92,0.44c-0.31,0.15-0.61,0.3-0.92,0.45c-0.31,0.15-0.61,0.3-0.92,0.46
				c-0.3,0.15-0.6,0.31-0.91,0.46c-0.3,0.16-0.61,0.32-0.91,0.48c-0.3,0.16-0.6,0.32-0.9,0.48c-0.3,0.16-0.6,0.32-0.9,0.49
				c-0.3,0.16-0.59,0.33-0.9,0.5c-0.3,0.17-0.59,0.34-0.89,0.51c-0.3,0.17-0.59,0.34-0.89,0.51c-0.3,0.17-0.59,0.35-0.88,0.52
				c-0.29,0.17-0.59,0.35-0.88,0.53c-0.29,0.18-0.58,0.35-0.87,0.53c-0.29,0.18-0.58,0.36-0.87,0.54c-0.29,0.18-0.58,0.37-0.86,0.55
				c-0.29,0.18-0.58,0.37-0.86,0.56c-0.28,0.19-0.57,0.38-0.85,0.57c-0.29,0.19-0.57,0.38-0.85,0.57c-0.28,0.19-0.56,0.38-0.84,0.58
				c-0.28,0.19-0.56,0.39-0.84,0.59c-0.28,0.2-0.55,0.39-0.83,0.59c-0.28,0.2-0.55,0.4-0.83,0.6c-0.28,0.2-0.55,0.4-0.82,0.6
				s-0.55,0.41-0.82,0.61c-0.27,0.21-0.54,0.41-0.81,0.62c-0.27,0.21-0.54,0.42-0.81,0.63c-0.27,0.21-0.54,0.42-0.8,0.63
				c-0.27,0.22-0.53,0.43-0.8,0.65c-0.27,0.22-0.53,0.43-0.79,0.65c-0.26,0.22-0.52,0.44-0.78,0.66c-0.26,0.22-0.52,0.44-0.79,0.66
				c-0.26,0.22-0.52,0.45-0.77,0.67c-0.25,0.22-0.51,0.45-0.77,0.67c-0.25,0.23-0.51,0.45-0.77,0.68c-0.25,0.23-0.5,0.46-0.75,0.69
				c-0.25,0.23-0.5,0.46-0.75,0.7c-0.25,0.23-0.5,0.46-0.74,0.7c-0.25,0.24-0.49,0.47-0.74,0.71c-0.25,0.23-0.49,0.47-0.73,0.71
				c-0.24,0.24-0.48,0.48-0.72,0.72c-0.24,0.24-0.48,0.48-0.72,0.72c-0.24,0.25-0.48,0.49-0.71,0.73c-0.24,0.25-0.48,0.49-0.71,0.74
				c-0.23,0.25-0.47,0.5-0.7,0.75c-0.23,0.25-0.46,0.5-0.7,0.75c-0.23,0.25-0.46,0.5-0.69,0.76c-0.23,0.25-0.46,0.5-0.68,0.76
				c-0.23,0.25-0.45,0.51-0.68,0.76c-0.22,0.26-0.45,0.52-0.67,0.77c-0.22,0.26-0.45,0.52-0.66,0.78c-0.22,0.26-0.44,0.53-0.66,0.79
				c-0.21,0.26-0.43,0.53-0.65,0.79c-0.22,0.27-0.43,0.53-0.65,0.8c-0.21,0.27-0.43,0.53-0.63,0.8c-0.21,0.26-0.42,0.53-0.63,0.8
				c-0.21,0.27-0.41,0.54-0.62,0.82c-0.21,0.27-0.41,0.54-0.61,0.82c-0.2,0.27-0.41,0.55-0.61,0.82c-0.2,0.28-0.4,0.55-0.6,0.83
				c-0.2,0.28-0.39,0.55-0.59,0.84c-0.2,0.28-0.39,0.55-0.59,0.84c-0.2,0.28-0.39,0.56-0.58,0.84c-0.19,0.28-0.38,0.56-0.57,0.85
				c-0.19,0.28-0.38,0.57-0.57,0.85c-0.18,0.29-0.37,0.57-0.56,0.86c-0.19,0.28-0.37,0.57-0.55,0.86c-0.18,0.29-0.36,0.57-0.54,0.86
				c-0.18,0.29-0.36,0.58-0.54,0.88c-0.18,0.29-0.35,0.58-0.53,0.88c-0.17,0.29-0.35,0.59-0.52,0.88c-0.17,0.3-0.34,0.59-0.51,0.89
				s-0.34,0.59-0.5,0.89c-0.17,0.3-0.34,0.59-0.5,0.89c-0.16,0.3-0.33,0.6-0.49,0.9c-0.16,0.3-0.32,0.6-0.48,0.9
				c-0.16,0.3-0.32,0.61-0.47,0.91c-0.16,0.3-0.32,0.61-0.47,0.91c-0.16,0.3-0.31,0.61-0.46,0.91c-0.15,0.3-0.3,0.61-0.45,0.92
				c-0.15,0.3-0.3,0.61-0.45,0.92c-0.15,0.31-0.29,0.62-0.44,0.93c-0.15,0.31-0.28,0.62-0.43,0.93c-0.14,0.31-0.28,0.62-0.42,0.93
				c-0.14,0.31-0.28,0.62-0.41,0.94c-0.14,0.31-0.27,0.62-0.41,0.94c-0.13,0.31-0.26,0.63-0.4,0.95c-0.13,0.31-0.26,0.63-0.39,0.94
				c-0.13,0.32-0.25,0.64-0.38,0.95c-0.12,0.32-0.25,0.63-0.38,0.95c-0.12,0.32-0.24,0.64-0.36,0.96c-0.12,0.32-0.24,0.64-0.36,0.96
				c-0.12,0.32-0.23,0.64-0.34,0.96c-0.12,0.32-0.23,0.64-0.34,0.97c-0.11,0.32-0.22,0.65-0.33,0.97c-0.11,0.32-0.21,0.64-0.32,0.97
				c-0.1,0.32-0.21,0.65-0.31,0.97c-0.11,0.33-0.21,0.65-0.31,0.98c-0.1,0.32-0.2,0.65-0.3,0.98c-0.1,0.33-0.19,0.65-0.29,0.98
				c-0.1,0.33-0.19,0.66-0.28,0.98c-0.09,0.33-0.18,0.66-0.27,0.99c-0.09,0.33-0.17,0.66-0.26,0.99c-0.09,0.33-0.17,0.66-0.25,0.99
				c-0.09,0.33-0.17,0.66-0.25,0.99c-0.08,0.33-0.16,0.66-0.24,1c-0.08,0.33-0.15,0.66-0.23,1c-0.07,0.33-0.15,0.66-0.22,1
				c-0.07,0.33-0.14,0.66-0.21,1c-0.07,0.33-0.14,0.67-0.2,1c-0.07,0.33-0.13,0.67-0.19,1c-0.07,0.34-0.13,0.67-0.19,1.01
				c-0.06,0.34-0.12,0.67-0.18,1.01c-0.06,0.34-0.11,0.67-0.17,1.01c-0.06,0.34-0.11,0.67-0.16,1.01c-0.05,0.34-0.1,0.67-0.15,1.01
				c-0.05,0.34-0.1,0.67-0.14,1.01s-0.09,0.68-0.14,1.02c-0.04,0.34-0.09,0.67-0.12,1.02c-0.04,0.34-0.08,0.68-0.12,1.02
				c-0.04,0.34-0.08,0.68-0.11,1.02c0,0.04-0.01,0.08-0.01,0.12c-0.3,4.05-0.62,8.09-0.62,12.21h-0.02v-0.57h0.02
				c0-4.47,0.35-8.86,0.68-13.25c0.01-0.04,0.01-0.08,0.02-0.12c0.04-0.37,0.08-0.74,0.12-1.1c0.04-0.37,0.08-0.74,0.13-1.1
				c0.04-0.37,0.09-0.73,0.14-1.1c0.05-0.37,0.1-0.73,0.15-1.1c0.05-0.37,0.1-0.73,0.16-1.1c0.06-0.36,0.11-0.73,0.16-1.1
				c0.06-0.36,0.12-0.73,0.18-1.09c0.06-0.36,0.12-0.73,0.19-1.09c0.06-0.37,0.12-0.73,0.19-1.09c0.07-0.36,0.13-0.73,0.2-1.09
				c0.07-0.36,0.14-0.73,0.22-1.09c0.07-0.36,0.14-0.73,0.22-1.09c0.08-0.36,0.15-0.73,0.23-1.09c0.08-0.36,0.16-0.72,0.24-1.08
				c0.08-0.36,0.16-0.72,0.25-1.08c0.08-0.36,0.17-0.72,0.26-1.08c0.09-0.36,0.18-0.72,0.27-1.08c0.09-0.36,0.18-0.71,0.28-1.07
				c0.09-0.35,0.19-0.72,0.29-1.07c0.1-0.36,0.19-0.72,0.29-1.07c0.1-0.36,0.2-0.71,0.3-1.07c0.1-0.35,0.21-0.71,0.31-1.07
				c0.11-0.36,0.22-0.71,0.32-1.06c0.11-0.35,0.22-0.71,0.34-1.06c0.11-0.35,0.22-0.7,0.34-1.06c0.11-0.35,0.23-0.7,0.35-1.05
				c0.12-0.35,0.24-0.7,0.36-1.05c0.12-0.35,0.24-0.7,0.37-1.04c0.12-0.35,0.25-0.7,0.38-1.05c0.13-0.34,0.26-0.69,0.39-1.04
				c0.13-0.35,0.26-0.69,0.39-1.04c0.13-0.34,0.27-0.69,0.4-1.03c0.14-0.34,0.27-0.69,0.41-1.03c0.14-0.34,0.28-0.68,0.42-1.03
				c0.14-0.34,0.28-0.68,0.43-1.02c0.14-0.34,0.29-0.68,0.44-1.02c0.14-0.34,0.3-0.68,0.44-1.02c0.15-0.34,0.3-0.68,0.46-1.01
				c0.15-0.34,0.31-0.67,0.46-1.01c0.16-0.34,0.31-0.67,0.47-1c0.16-0.33,0.32-0.67,0.48-1c0.16-0.33,0.33-0.66,0.49-1
				c0.16-0.33,0.33-0.66,0.5-0.99c0.17-0.33,0.34-0.66,0.51-0.98c0.17-0.33,0.34-0.66,0.52-0.98c0.18-0.33,0.35-0.65,0.52-0.98
				c0.18-0.33,0.35-0.65,0.53-0.97c0.18-0.32,0.36-0.65,0.54-0.97c0.18-0.32,0.36-0.65,0.55-0.96c0.18-0.32,0.37-0.64,0.55-0.96
				c0.19-0.32,0.38-0.64,0.57-0.95c0.19-0.32,0.38-0.63,0.57-0.95c0.2-0.32,0.39-0.63,0.58-0.95c0.19-0.31,0.39-0.62,0.59-0.94
				c0.2-0.31,0.39-0.62,0.6-0.94c0.2-0.31,0.4-0.62,0.6-0.93c0.2-0.31,0.41-0.62,0.61-0.92c0.21-0.31,0.41-0.62,0.62-0.92
				c0.21-0.3,0.41-0.61,0.62-0.91c0.21-0.31,0.42-0.61,0.64-0.91c0.22-0.3,0.43-0.6,0.65-0.9c0.22-0.3,0.43-0.6,0.65-0.9
				c0.22-0.3,0.44-0.59,0.66-0.89c0.22-0.3,0.44-0.59,0.66-0.89c0.23-0.3,0.45-0.59,0.68-0.88c0.23-0.29,0.45-0.59,0.68-0.88
				c0.23-0.29,0.46-0.58,0.69-0.87c0.23-0.29,0.46-0.58,0.7-0.86c0.23-0.29,0.47-0.57,0.7-0.86c0.23-0.28,0.47-0.57,0.71-0.85
				c0.24-0.28,0.48-0.57,0.72-0.85c0.24-0.28,0.48-0.56,0.73-0.84c0.25-0.28,0.49-0.56,0.73-0.83c0.25-0.28,0.49-0.56,0.74-0.83
				c0.25-0.27,0.5-0.55,0.75-0.82c0.25-0.27,0.5-0.54,0.75-0.81c0.25-0.27,0.5-0.54,0.76-0.81c0.26-0.27,0.52-0.54,0.77-0.8
				c0.25-0.27,0.51-0.53,0.77-0.79c0.26-0.27,0.52-0.53,0.78-0.79c0.26-0.26,0.52-0.52,0.79-0.78c0.26-0.26,0.53-0.52,0.79-0.77
				c0.27-0.26,0.53-0.51,0.8-0.77c0.27-0.25,0.54-0.51,0.81-0.76c0.27-0.25,0.54-0.5,0.82-0.75c0.27-0.25,0.54-0.5,0.82-0.75
				c0.28-0.25,0.56-0.49,0.83-0.73c0.27-0.25,0.55-0.49,0.83-0.73c0.28-0.24,0.56-0.48,0.84-0.73c0.28-0.24,0.57-0.48,0.85-0.72
				c0.28-0.24,0.57-0.47,0.85-0.71c0.29-0.23,0.57-0.47,0.86-0.7c0.29-0.23,0.57-0.46,0.86-0.7c0.29-0.23,0.58-0.46,0.87-0.69
				c0.29-0.23,0.59-0.45,0.88-0.68c0.29-0.23,0.59-0.45,0.88-0.67c0.3-0.23,0.59-0.45,0.89-0.67c0.3-0.22,0.6-0.44,0.89-0.66
				c0.3-0.22,0.6-0.43,0.9-0.65c0.3-0.22,0.6-0.43,0.91-0.64c0.3-0.21,0.61-0.43,0.91-0.64c0.3-0.21,0.61-0.42,0.91-0.63
				c0.31-0.21,0.61-0.41,0.92-0.62c0.31-0.2,0.62-0.41,0.93-0.61c0.31-0.2,0.62-0.41,0.93-0.61c0.31-0.2,0.62-0.4,0.94-0.6
				c0.31-0.2,0.62-0.4,0.94-0.59c0.32-0.19,0.63-0.39,0.95-0.58c0.32-0.19,0.63-0.38,0.95-0.57c0.32-0.19,0.64-0.38,0.96-0.57
				c0.32-0.19,0.64-0.37,0.96-0.56c0.32-0.18,0.64-0.36,0.96-0.55c0.32-0.18,0.65-0.36,0.97-0.54c0.32-0.18,0.65-0.35,0.97-0.53
				c0.32-0.18,0.65-0.35,0.98-0.52c0.32-0.18,0.65-0.35,0.98-0.52c0.33-0.17,0.66-0.34,0.99-0.5c0.33-0.17,0.66-0.34,0.99-0.5
				s0.66-0.33,1-0.49c0.33-0.16,0.67-0.32,1-0.48c0.34-0.16,0.67-0.31,1-0.47c0.34-0.16,0.67-0.31,1.01-0.47
				c0.33-0.15,0.67-0.3,1.01-0.45c0.34-0.15,0.68-0.3,1.02-0.45c0.34-0.15,0.68-0.29,1.02-0.43c0.34-0.14,0.68-0.29,1.02-0.43
				c0.34-0.14,0.69-0.28,1.03-0.42c0.34-0.14,0.68-0.27,1.03-0.41c0.34-0.14,0.69-0.27,1.04-0.4c0.34-0.13,0.69-0.26,1.04-0.4
				c0.34-0.13,0.69-0.26,1.04-0.39c0.35-0.12,0.69-0.25,1.04-0.37c0.35-0.12,0.7-0.25,1.05-0.37c0.35-0.12,0.7-0.24,1.05-0.36
				c0.35-0.12,0.7-0.23,1.05-0.35c0.35-0.12,0.7-0.23,1.06-0.34c0.35-0.11,0.7-0.22,1.06-0.33c0.35-0.11,0.71-0.22,1.06-0.32
				c0.35-0.1,0.71-0.21,1.06-0.31c0.36-0.1,0.71-0.2,1.07-0.3c0.36-0.1,0.71-0.2,1.07-0.3c0.36-0.1,0.71-0.19,1.07-0.28
				c0.36-0.09,0.71-0.19,1.07-0.28c0.36-0.09,0.72-0.18,1.08-0.27c0.36-0.09,0.72-0.18,1.08-0.26c0.36-0.09,0.72-0.17,1.08-0.25
				c0.36-0.08,0.72-0.16,1.09-0.24c0.36-0.08,0.72-0.16,1.09-0.23c0.36-0.07,0.72-0.15,1.09-0.22c0.36-0.07,0.73-0.14,1.09-0.21
				c0.36-0.07,0.73-0.14,1.09-0.2c0.36-0.07,0.73-0.13,1.09-0.19c0.36-0.06,0.73-0.12,1.09-0.18c0.36-0.06,0.73-0.12,1.09-0.18
				c0.37-0.05,0.73-0.11,1.1-0.16c0.36-0.06,0.73-0.11,1.1-0.16c0.37-0.05,0.73-0.1,1.1-0.15c0.37-0.05,0.74-0.09,1.1-0.14
				c0.37-0.04,0.73-0.09,1.1-0.12c0.37-0.04,0.74-0.08,1.1-0.12c0.37-0.04,0.73-0.08,1.11-0.11c0.37-0.03,0.73-0.07,1.1-0.1
				c0.37-0.03,0.74-0.06,1.11-0.09c0.37-0.03,0.74-0.05,1.11-0.08c0.37-0.02,0.74-0.05,1.1-0.07c0.37-0.02,0.74-0.04,1.11-0.06
				c0.37-0.02,0.74-0.04,1.11-0.05c0.37-0.02,0.74-0.03,1.11-0.05c0.37-0.01,0.74-0.02,1.11-0.03c0.37-0.01,0.74-0.02,1.11-0.02
				c0.37-0.01,0.74-0.01,1.11-0.02c0.37,0,0.74,0,1.11,0c0.03,0,0.06,0,0.08,0c0.37,0,0.74,0,1.11,0.01c0.37,0,0.74,0.01,1.11,0.01
				c0.37,0.01,0.74,0.02,1.1,0.03c0.37,0.01,0.74,0.02,1.11,0.03c0.37,0.01,0.74,0.02,1.11,0.04c0.37,0.01,0.74,0.03,1.11,0.05
				c0.37,0.02,0.74,0.04,1.11,0.06c0.37,0.02,0.74,0.04,1.11,0.07c0.37,0.03,0.74,0.05,1.11,0.08c0.37,0.03,0.74,0.06,1.11,0.09
				c0.37,0.03,0.73,0.07,1.1,0.1c0.37,0.03,0.74,0.07,1.1,0.11c0.37,0.04,0.73,0.08,1.1,0.12c0.37,0.04,0.74,0.09,1.1,0.13
				c0.37,0.04,0.73,0.09,1.1,0.14c0.36,0.05,0.73,0.1,1.1,0.15c0.37,0.05,0.73,0.1,1.1,0.16c0.37,0.05,0.73,0.11,1.1,0.16
				c0.37,0.06,0.73,0.12,1.1,0.18c0.36,0.06,0.73,0.12,1.09,0.18c0.36,0.06,0.73,0.13,1.09,0.19c0.36,0.07,0.73,0.13,1.09,0.2
				c0.36,0.07,0.73,0.14,1.09,0.21c0.36,0.08,0.73,0.15,1.09,0.22c0.36,0.07,0.72,0.15,1.09,0.23c0.36,0.08,0.72,0.16,1.08,0.24
				c0.36,0.08,0.72,0.16,1.08,0.25c0.36,0.09,0.72,0.17,1.08,0.26c0.36,0.09,0.72,0.17,1.08,0.26c0.36,0.09,0.71,0.18,1.07,0.28
				c0.35,0.09,0.71,0.19,1.07,0.28c0.36,0.1,0.71,0.2,1.07,0.3c0.36,0.1,0.71,0.2,1.07,0.3c0.35,0.11,0.71,0.21,1.06,0.32
				c0.36,0.1,0.71,0.21,1.06,0.32c0.35,0.11,0.71,0.22,1.06,0.33c0.36,0.11,0.71,0.23,1.06,0.34c0.35,0.12,0.7,0.23,1.05,0.35
				c0.35,0.12,0.7,0.24,1.05,0.36c0.35,0.12,0.7,0.24,1.05,0.37c0.35,0.12,0.7,0.25,1.04,0.38c0.35,0.13,0.7,0.26,1.04,0.39
				c0.34,0.13,0.69,0.26,1.04,0.39c0.35,0.13,0.69,0.27,1.03,0.4c0.34,0.14,0.69,0.27,1.03,0.41c0.34,0.14,0.68,0.28,1.03,0.42
				c0.34,0.14,0.68,0.28,1.02,0.43c0.34,0.15,0.68,0.29,1.02,0.44c0.34,0.15,0.68,0.3,1.02,0.45c0.34,0.15,0.67,0.3,1.01,0.45
				c0.34,0.16,0.67,0.31,1,0.46c0.33,0.16,0.67,0.31,1,0.47c0.34,0.16,0.67,0.32,1,0.48c0.33,0.16,0.67,0.33,1,0.49
				c0.33,0.16,0.66,0.33,0.99,0.5c0.33,0.17,0.66,0.34,0.99,0.51c0.33,0.17,0.66,0.34,0.98,0.52c0.33,0.17,0.65,0.35,0.98,0.52
				c0.32,0.18,0.65,0.35,0.97,0.53c0.32,0.18,0.65,0.36,0.97,0.54c0.33,0.18,0.65,0.37,0.96,0.55c0.32,0.18,0.64,0.37,0.96,0.56
				c0.32,0.19,0.64,0.38,0.95,0.57c0.32,0.19,0.64,0.38,0.95,0.57c0.32,0.2,0.63,0.39,0.95,0.58c0.31,0.19,0.63,0.39,0.94,0.59
				c0.31,0.2,0.62,0.4,0.93,0.6c0.31,0.2,0.62,0.4,0.93,0.6c0.31,0.21,0.62,0.41,0.93,0.62c0.3,0.2,0.61,0.41,0.92,0.62
				c0.31,0.21,0.61,0.41,0.92,0.62c0.3,0.21,0.61,0.43,0.91,0.64c0.3,0.21,0.61,0.43,0.9,0.64c0.3,0.22,0.6,0.43,0.9,0.65
				c0.3,0.22,0.6,0.44,0.89,0.66c0.3,0.22,0.59,0.44,0.89,0.67c0.3,0.22,0.59,0.44,0.88,0.67c0.29,0.23,0.59,0.46,0.88,0.68
				c0.29,0.23,0.58,0.46,0.87,0.69c0.29,0.23,0.57,0.46,0.86,0.7c0.29,0.23,0.57,0.47,0.85,0.7c0.29,0.24,0.57,0.48,0.86,0.72
				c0.28,0.24,0.56,0.48,0.84,0.72c0.28,0.24,0.56,0.48,0.84,0.73c0.28,0.25,0.56,0.49,0.83,0.74c0.27,0.25,0.55,0.49,0.82,0.74
				c0.28,0.25,0.55,0.5,0.82,0.75c0.27,0.25,0.54,0.5,0.81,0.75c0.27,0.25,0.54,0.5,0.81,0.76c0.27,0.26,0.53,0.51,0.8,0.77
				c0.27,0.25,0.53,0.51,0.8,0.77c0.26,0.26,0.52,0.52,0.79,0.78c0.26,0.26,0.52,0.52,0.78,0.78c0.26,0.27,0.52,0.53,0.78,0.8
				c0.25,0.27,0.51,0.53,0.77,0.8c0.25,0.27,0.51,0.54,0.76,0.81c0.25,0.27,0.5,0.54,0.76,0.81c0.25,0.27,0.5,0.54,0.75,0.82
				c0.25,0.27,0.49,0.55,0.74,0.82c0.25,0.28,0.49,0.56,0.73,0.84c0.24,0.28,0.48,0.56,0.72,0.84c0.24,0.28,0.48,0.56,0.72,0.84
				c0.23,0.28,0.47,0.57,0.71,0.85c0.23,0.29,0.47,0.58,0.7,0.86c0.23,0.28,0.47,0.57,0.7,0.86c0.23,0.29,0.46,0.58,0.69,0.87
				c0.23,0.29,0.46,0.58,0.68,0.88c0.22,0.29,0.45,0.59,0.67,0.88c0.22,0.29,0.44,0.59,0.66,0.89c0.22,0.3,0.44,0.59,0.66,0.89
				c0.22,0.3,0.44,0.6,0.65,0.9c0.21,0.3,0.43,0.6,0.65,0.9c0.21,0.3,0.42,0.6,0.63,0.91c0.21,0.3,0.42,0.61,0.63,0.91
				c0.21,0.31,0.41,0.61,0.62,0.92c0.2,0.31,0.41,0.61,0.61,0.92c0.2,0.31,0.4,0.62,0.61,0.93c0.2,0.31,0.4,0.62,0.59,0.94
				c0.2,0.31,0.4,0.62,0.59,0.94c0.19,0.31,0.39,0.63,0.58,0.95c0.19,0.32,0.38,0.63,0.57,0.95c0.19,0.32,0.38,0.64,0.56,0.96
				c0.19,0.32,0.38,0.64,0.56,0.96c0.18,0.32,0.36,0.64,0.55,0.97c0.18,0.32,0.36,0.64,0.54,0.97c0.17,0.32,0.35,0.65,0.53,0.98
				c0.18,0.32,0.35,0.65,0.52,0.98c0.18,0.33,0.35,0.66,0.52,0.98c0.17,0.33,0.34,0.66,0.51,0.98c0.17,0.33,0.33,0.66,0.5,0.99
				c0.17,0.33,0.33,0.66,0.49,1c0.16,0.34,0.32,0.67,0.48,1c0.16,0.33,0.32,0.67,0.47,1c0.16,0.34,0.31,0.67,0.46,1.01
				c0.15,0.34,0.31,0.67,0.45,1.01c0.15,0.34,0.3,0.68,0.45,1.01c0.15,0.34,0.29,0.68,0.44,1.02c0.14,0.34,0.28,0.68,0.43,1.02
				c0.14,0.34,0.28,0.68,0.42,1.02c0.14,0.34,0.28,0.69,0.41,1.03c0.14,0.34,0.27,0.69,0.41,1.04c0.13,0.35,0.26,0.69,0.4,1.03
				c0.13,0.35,0.26,0.7,0.38,1.04c0.12,0.35,0.25,0.7,0.38,1.04c0.12,0.35,0.25,0.7,0.37,1.05c0.12,0.35,0.24,0.7,0.36,1.05
				c0.12,0.35,0.23,0.7,0.35,1.06c0.11,0.35,0.23,0.7,0.34,1.05c0.11,0.35,0.22,0.71,0.33,1.06c0.11,0.35,0.22,0.71,0.32,1.06
				c0.1,0.35,0.21,0.71,0.31,1.07c0.11,0.36,0.21,0.71,0.31,1.07c0.1,0.35,0.2,0.71,0.29,1.07c0.1,0.35,0.19,0.72,0.28,1.07
				c0.1,0.36,0.19,0.72,0.28,1.08c0.09,0.36,0.18,0.71,0.27,1.08c0.09,0.36,0.17,0.72,0.26,1.08c0.09,0.36,0.17,0.72,0.25,1.09
				c0.08,0.36,0.16,0.72,0.24,1.08c0.08,0.36,0.16,0.72,0.23,1.09c0.07,0.36,0.15,0.72,0.22,1.09c0.07,0.36,0.15,0.73,0.21,1.09
				c0.07,0.36,0.14,0.73,0.2,1.09c0.07,0.36,0.13,0.73,0.19,1.09c0.06,0.36,0.12,0.73,0.18,1.09c0.06,0.37,0.12,0.73,0.17,1.1
				c0.06,0.36,0.11,0.73,0.17,1.09c0.05,0.37,0.11,0.73,0.16,1.1c0.05,0.36,0.1,0.73,0.15,1.1c0.05,0.37,0.09,0.73,0.14,1.1
				c0.04,0.37,0.09,0.73,0.13,1.1c0.04,0.37,0.08,0.73,0.12,1.11c0.04,0.37,0.07,0.73,0.11,1.1c0.03,0.37,0.07,0.74,0.1,1.11
				c0.03,0.37,0.06,0.74,0.09,1.11c0.03,0.37,0.06,0.73,0.08,1.11c0.03,0.37,0.05,0.74,0.07,1.1c0.02,0.37,0.04,0.74,0.06,1.11
				c0.02,0.37,0.04,0.74,0.05,1.11c0.02,0.37,0.03,0.74,0.04,1.11c0.01,0.37,0.02,0.74,0.03,1.11c0.01,0.37,0.02,0.74,0.02,1.11
				c0.01,0.37,0.01,0.74,0.01,1.11C577.15,221.93,577.16,222.3,577.15,222.66L577.15,222.66z"/>
		</g>
	</g>
</g>
</svg>
