<svg xmlns="http://www.w3.org/2000/svg" viewBox="0 0 500 500"><g id="freepik--background-complete--inject-35"><rect x="416.78" y="398.49" width="33.12" height="0.25" style="fill:#ebebeb"></rect><rect x="322.53" y="401.21" width="8.69" height="0.25" style="fill:#ebebeb"></rect><rect x="396.59" y="389.21" width="19.19" height="0.25" style="fill:#ebebeb"></rect><rect x="52.46" y="390.89" width="43.19" height="0.25" style="fill:#ebebeb"></rect><rect x="104.56" y="390.89" width="6.33" height="0.25" style="fill:#ebebeb"></rect><rect x="131.47" y="395.11" width="93.68" height="0.25" style="fill:#ebebeb"></rect><path d="M237,337.8H43.92a5.71,5.71,0,0,1-5.71-5.71V60.66A5.71,5.71,0,0,1,43.92,55H237a5.71,5.71,0,0,1,5.71,5.71V332.09A5.71,5.71,0,0,1,237,337.8ZM43.92,55.2a5.47,5.47,0,0,0-5.46,5.46V332.09a5.47,5.47,0,0,0,5.46,5.46H237a5.47,5.47,0,0,0,5.46-5.46V60.66A5.47,5.47,0,0,0,237,55.2Z" style="fill:#ebebeb"></path><path d="M453.31,337.8H260.21a5.72,5.72,0,0,1-5.71-5.71V60.66A5.72,5.72,0,0,1,260.21,55h193.1A5.71,5.71,0,0,1,459,60.66V332.09A5.71,5.71,0,0,1,453.31,337.8ZM260.21,55.2a5.47,5.47,0,0,0-5.46,5.46V332.09a5.47,5.47,0,0,0,5.46,5.46h193.1a5.47,5.47,0,0,0,5.46-5.46V60.66a5.47,5.47,0,0,0-5.46-5.46Z" style="fill:#ebebeb"></path><rect y="382.4" width="500" height="0.25" style="fill:#ebebeb"></rect><circle cx="202.72" cy="147.02" r="62.79" transform="translate(-44.58 186.4) rotate(-45)" style="fill:#f5f5f5"></circle><circle cx="202.72" cy="147.02" r="53.25" style="fill:#ebebeb"></circle><path d="M202.72,93.77c.84,0,1.67,0,2.5.06a53.24,53.24,0,0,0,0,106.37c-.83,0-1.66.07-2.5.07a53.25,53.25,0,1,1,0-106.5Z" style="fill:#e6e6e6"></path><path d="M202.7,200.2h0c-1.35-.06-2.68-.19-4-.35V151H152.13c-.09-1.33-.16-2.66-.16-4s.07-2.68.16-4h46.59V94.18c1.32-.16,2.65-.29,4-.35h4V143h49.19v8H206.72V200.2Z" style="fill:#fafafa"></path><rect x="206.72" y="93.83" width="4" height="49.19" style="fill:#e6e6e6"></rect><rect x="206.72" y="151.02" width="4" height="49.19" style="fill:#e6e6e6"></rect><rect x="112.49" y="212.12" width="32.39" height="18.47" rx="6.42" style="fill:#ebebeb"></rect><rect x="119.56" y="189.59" width="32.39" height="18.47" rx="6.42" style="fill:#f5f5f5"></rect><rect x="148.9" y="212.12" width="26.75" height="18.47" rx="6.42" style="fill:#f5f5f5"></rect><rect x="133.43" y="233.56" width="26.75" height="18.47" rx="6.42" style="fill:#f0f0f0"></rect><rect x="73.32" y="96.17" width="28.27" height="23.53" rx="6.42" style="fill:#ebebeb"></rect><rect x="106.71" y="96.17" width="34.08" height="23.53" rx="6.42" style="fill:#f5f5f5"></rect><rect x="96" y="123.49" width="34.08" height="23.53" rx="6.42" style="fill:#f0f0f0"></rect><rect x="349.21" y="149.26" width="41.27" height="23.53" rx="6.42" style="fill:#ebebeb"></rect><rect x="395.59" y="149.26" width="34.08" height="23.53" rx="6.42" style="fill:#f5f5f5"></rect><rect x="375.88" y="176.57" width="34.08" height="23.53" rx="6.42" style="fill:#f0f0f0"></rect><rect x="391.1" y="119.26" width="34.08" height="23.53" rx="6.42" style="fill:#f0f0f0"></rect></g><g id="freepik--Shadow--inject-35"><ellipse id="freepik--path--inject-35" cx="265.17" cy="413.9" rx="193.89" ry="11.32" style="fill:#f5f5f5"></ellipse></g><g id="freepik--Shelf--inject-35"><path d="M105,371.07H69.9v7.77h6.43A37.27,37.27,0,0,0,105,407.47v6.43h13.67V371.07Z" style="fill:#263238"></path><path d="M105,371.07H69.9v7.77h6.43A37.27,37.27,0,0,0,105,407.47v6.43h13.67V371.07Z" style="fill:#fff;opacity:0.7000000000000001"></path><path d="M113.63,371.07H78.57v7.77H85a37.25,37.25,0,0,0,28.63,28.63v6.43h7.77V371.07Z" style="fill:#263238"></path><path d="M113.63,371.07H78.57v7.77H85a37.25,37.25,0,0,0,28.63,28.63v6.43h7.77V371.07Z" style="fill:#fff;opacity:0.6000000000000001"></path><path d="M418.83,371.07H383.77v7.77h6.43a37.26,37.26,0,0,0,28.63,28.63v6.43h13.68V371.07Z" style="fill:#263238"></path><path d="M418.83,371.07H383.77v7.77h6.43a37.26,37.26,0,0,0,28.63,28.63v6.43h13.68V371.07Z" style="fill:#fff;opacity:0.7000000000000001"></path><path d="M427.5,371.07H392.44v7.77h6.43a37.25,37.25,0,0,0,28.63,28.63v6.43h7.77V371.07Z" style="fill:#263238"></path><path d="M427.5,371.07H392.44v7.77h6.43a37.25,37.25,0,0,0,28.63,28.63v6.43h7.77V371.07Z" style="fill:#fff;opacity:0.6000000000000001"></path><rect x="54.39" y="359.51" width="380.88" height="12.67" style="fill:#263238"></rect><rect x="54.39" y="359.51" width="380.88" height="12.67" style="fill:#fff;opacity:0.8"></rect><rect x="364.74" y="359.51" width="70.53" height="12.67" style="opacity:0.1"></rect></g><g id="freepik--box-drawer--inject-35"><rect x="287.88" y="232.98" width="135.94" height="126.61" style="fill:#263238"></rect><rect x="287.88" y="232.98" width="89.98" height="126.61" style="fill:#fff;opacity:0.2"></rect><rect x="287.88" y="232.98" width="135.94" height="126.61" style="fill:#fff;opacity:0.6000000000000001"></rect><rect x="297.66" y="242.75" width="70.43" height="31.53" style="fill:#263238"></rect><rect x="297.66" y="242.75" width="70.43" height="31.53" style="fill:#fff;opacity:0.5"></rect><g style="opacity:0.4"><path d="M361,271H304.76v-.75a3.1,3.1,0,0,0-3.1-3.11h-.75V249.86h.75a3.1,3.1,0,0,0,3.1-3.11V246H361v.75a3.11,3.11,0,0,0,3.11,3.11h.75v17.32h-.75a3.11,3.11,0,0,0-3.11,3.11Zm-54.78-1.5h53.34a4.63,4.63,0,0,1,3.8-3.8V251.3a4.63,4.63,0,0,1-3.8-3.8H306.2a4.62,4.62,0,0,1-3.79,3.8v14.44A4.62,4.62,0,0,1,306.2,269.54Z" style="fill:#fff"></path></g><path d="M335.69,259.51h-5.64a4.64,4.64,0,0,1-4.63-4.63v-1.27h-.6a1.5,1.5,0,0,1-1.5-1.5h0a1.5,1.5,0,0,1,1.5-1.5h1.41a2.19,2.19,0,0,1,2.19,2.2v2.07a1.63,1.63,0,0,0,1.63,1.63h5.64a1.63,1.63,0,0,0,1.63-1.63v-2.07a2.2,2.2,0,0,1,2.2-2.2h1.4a1.5,1.5,0,0,1,1.5,1.5h0a1.5,1.5,0,0,1-1.5,1.5h-.6v1.27A4.63,4.63,0,0,1,335.69,259.51Z" style="fill:#263238"></path><rect x="297.66" y="279.91" width="70.43" height="31.53" style="fill:#263238"></rect><rect x="297.66" y="279.91" width="70.43" height="31.53" style="fill:#fff;opacity:0.5"></rect><g style="opacity:0.4"><path d="M361,308.19H304.76v-.75a3.11,3.11,0,0,0-3.1-3.11h-.75V287h.75a3.1,3.1,0,0,0,3.1-3.1v-.75H361v.75a3.1,3.1,0,0,0,3.11,3.1h.75v17.32h-.75a3.11,3.11,0,0,0-3.11,3.11Zm-54.78-1.5h53.34a4.63,4.63,0,0,1,3.8-3.8V288.45a4.62,4.62,0,0,1-3.8-3.79H306.2a4.61,4.61,0,0,1-3.79,3.79v14.44A4.62,4.62,0,0,1,306.2,306.69Z" style="fill:#fff"></path></g><path d="M335.69,296.66h-5.64a4.63,4.63,0,0,1-4.63-4.63v-1.27h-.6a1.5,1.5,0,0,1-1.5-1.5h0a1.5,1.5,0,0,1,1.5-1.5h1.41a2.2,2.2,0,0,1,2.19,2.2V292a1.63,1.63,0,0,0,1.63,1.63h5.64a1.63,1.63,0,0,0,1.63-1.63V290a2.21,2.21,0,0,1,2.2-2.2h1.4a1.5,1.5,0,0,1,1.5,1.5h0a1.5,1.5,0,0,1-1.5,1.5h-.6V292A4.63,4.63,0,0,1,335.69,296.66Z" style="fill:#263238"></path><rect x="297.66" y="317.06" width="70.43" height="31.53" style="fill:#263238"></rect><rect x="297.66" y="317.06" width="70.43" height="31.53" style="fill:#fff;opacity:0.5"></rect><g style="opacity:0.4"><path d="M361,345.34H304.76v-.75a3.1,3.1,0,0,0-3.1-3.1h-.75V324.17h.75a3.11,3.11,0,0,0,3.1-3.11v-.75H361v.75a3.11,3.11,0,0,0,3.11,3.11h.75v17.32h-.75a3.1,3.1,0,0,0-3.11,3.1Zm-54.78-1.5h53.34a4.62,4.62,0,0,1,3.8-3.79V325.61a4.63,4.63,0,0,1-3.8-3.8H306.2a4.62,4.62,0,0,1-3.79,3.8v14.44A4.61,4.61,0,0,1,306.2,343.84Z" style="fill:#fff"></path></g><path d="M335.69,333.82h-5.64a4.64,4.64,0,0,1-4.63-4.64v-1.26h-.6a1.5,1.5,0,0,1-1.5-1.5h0a1.5,1.5,0,0,1,1.5-1.5h1.41a2.19,2.19,0,0,1,2.19,2.19v2.07a1.64,1.64,0,0,0,1.63,1.64h5.64a1.64,1.64,0,0,0,1.63-1.64v-2.07a2.2,2.2,0,0,1,2.2-2.19h1.4a1.5,1.5,0,0,1,1.5,1.5h0a1.5,1.5,0,0,1-1.5,1.5h-.6v1.26A4.63,4.63,0,0,1,335.69,333.82Z" style="fill:#263238"></path></g><g id="freepik--Clock--inject-35"><path d="M381.44,195.58c10.13,0,19.79,8.21,21.58,18.34l3.34,19H369.69l-3.35-19Z" style="fill:#472E78"></path><path d="M363.75,213.92a18.34,18.34,0,0,1,36.68,0v19H363.75Z" style="fill:#472E78"></path><path d="M363.75,213.92a18.34,18.34,0,0,1,36.68,0v19H363.75Z" style="fill:#fff;opacity:0.4"></path><circle cx="382.09" cy="213.92" r="14.33" transform="translate(86.1 536.64) rotate(-76.72)" style="fill:#263238"></circle><circle cx="382.09" cy="213.92" r="14.33" transform="translate(86.1 536.64) rotate(-76.72)" style="fill:#472E78"></circle><path d="M382.09,201.86a14.32,14.32,0,0,1,14.27,13.19c0-.37.06-.75.06-1.13a14.33,14.33,0,0,0-28.66,0c0,.38,0,.76.06,1.13A14.32,14.32,0,0,1,382.09,201.86Z" style="opacity:0.2"></path><path d="M391.14,213.91h-7.53v-7.53a1.52,1.52,0,0,0-3,0v9.05a1.52,1.52,0,0,0,1.52,1.52h9.05a1.52,1.52,0,0,0,0-3Z" style="opacity:0.1"></path><path d="M391.14,215.44a1.52,1.52,0,0,0,0-3h-9.05a1.52,1.52,0,1,0,0,3Z" style="fill:#472E78"></path><path d="M391.14,215.44a1.52,1.52,0,0,0,0-3h-9.05a1.52,1.52,0,1,0,0,3Z" style="fill:#fff;opacity:0.30000000000000004"></path><path d="M383.61,204.87a1.52,1.52,0,0,0-3,0v9a1.52,1.52,0,0,0,3,0Z" style="fill:#472E78"></path><path d="M383.61,204.87a1.52,1.52,0,0,0-3,0v9a1.52,1.52,0,0,0,3,0Z" style="fill:#fff;opacity:0.6000000000000001"></path></g><g id="freepik--Books--inject-35"><path d="M161.58,355.68V333.35c2.75,0,2.75-4.27,0-4.27-8.51,0-17-.06-25.54-.11v31h25.54C164.33,360,164.33,355.68,161.58,355.68Z" style="fill:#263238"></path><path d="M161.58,355.68V333.35c2.75,0,2.75-4.27,0-4.27-8.51,0-17-.06-25.54-.11v31h25.54C164.33,360,164.33,355.68,161.58,355.68Z" style="fill:#fff;opacity:0.30000000000000004"></path><rect x="141.74" y="333.35" width="19.84" height="22.29" style="fill:#472E78"></rect><rect x="141.74" y="333.35" width="19.84" height="22.29" style="fill:#fff;opacity:0.8"></rect><path d="M145.91,357.81H77.14c-4.73,0-8.56-5.95-8.56-13.3s3.83-13.3,8.56-13.3h68.77Z" style="fill:#472E78"></path><path d="M145.91,357.81H77.14c-4.73,0-8.56-5.95-8.56-13.3s3.83-13.3,8.56-13.3h68.77Z" style="fill:#fff;opacity:0.9"></path><path d="M145.91,329.08c-22.52,0-45.07-.41-67.58,0-15.42.28-16.25,29.83-1.12,30.87,10.54.72,21.38,0,32,0h36.75c2.75,0,2.75-4.27,0-4.27h-64c-4.94,0-8.47-.06-10.38-5.89-1.65-5-1.13-15.32,5.63-16.44a14.85,14.85,0,0,1,2.31,0h66.46c2.75,0,2.75-4.27,0-4.27Z" style="fill:#263238"></path><path d="M157.07,325.92V308.11a1.71,1.71,0,0,0,0-3.41c-6.78,0-13.58-.05-20.37-.09v24.72h20.37A1.71,1.71,0,0,0,157.07,325.92Z" style="fill:#472E78"></path><path d="M157.07,325.92V308.11a1.71,1.71,0,0,0,0-3.41c-6.78,0-13.58-.05-20.37-.09v24.72h20.37A1.71,1.71,0,0,0,157.07,325.92Z" style="fill:#fff;opacity:0.30000000000000004"></path><rect x="141.25" y="308.11" width="15.83" height="17.79" style="fill:#472E78"></rect><rect x="141.25" y="308.11" width="15.83" height="17.79" style="fill:#fff;opacity:0.8"></rect><path d="M144.57,327.62H89.7c-3.77,0-6.83-4.75-6.83-10.61s3.06-10.61,6.83-10.61h54.87Z" style="fill:#472E78"></path><path d="M144.57,327.62H89.7c-3.77,0-6.83-4.75-6.83-10.61s3.06-10.61,6.83-10.61h54.87Z" style="fill:#fff;opacity:0.9"></path><path d="M144.57,304.7c-18,0-36-.33-53.92,0-12.3.22-13,23.8-.89,24.63,8.41.57,17.06,0,25.49,0h29.32a1.71,1.71,0,0,0,0-3.41H93.49c-3.94,0-6.76-.05-8.28-4.7-1.32-4-.9-12.23,4.49-13.11a11.43,11.43,0,0,1,1.85,0h53a1.71,1.71,0,0,0,0-3.41Z" style="fill:#472E78"></path></g><g id="freepik--Mug--inject-35"><path d="M149.51,277a5.1,5.1,0,0,0-5.09-5H114.05a5.11,5.11,0,0,0-5.09,5v.37a11.08,11.08,0,0,0-3.38-.56c-5,0-8.33,3.89-8.33,9.68,0,5.53,5.82,9.67,11,9.67a8.12,8.12,0,0,0,1.57-.16,21.19,21.19,0,0,0,6.4,9.57h26a21,21,0,0,0,7.45-16.07C149.67,287.48,149.61,282.77,149.51,277Zm-41.23,15.92c-3.53,0-7.79-2.87-7.79-6.43,0-1.51.37-6.44,5.09-6.44a8.35,8.35,0,0,1,3.32.76c-.06,4-.1,7.15-.1,8.69a20.58,20.58,0,0,0,.3,3.36A5.36,5.36,0,0,1,108.28,292.91Z" style="fill:#472E78"></path><path d="M149.51,277a5.1,5.1,0,0,0-5.09-5H114.05a5.11,5.11,0,0,0-5.09,5v.37a11.08,11.08,0,0,0-3.38-.56c-5,0-8.33,3.89-8.33,9.68,0,5.53,5.82,9.67,11,9.67a8.12,8.12,0,0,0,1.57-.16,21.19,21.19,0,0,0,6.4,9.57h26a21,21,0,0,0,7.45-16.07C149.67,287.48,149.61,282.77,149.51,277Zm-41.23,15.92c-3.53,0-7.79-2.87-7.79-6.43,0-1.51.37-6.44,5.09-6.44a8.35,8.35,0,0,1,3.32.76c-.06,4-.1,7.15-.1,8.69a20.58,20.58,0,0,0,.3,3.36A5.36,5.36,0,0,1,108.28,292.91Z" style="opacity:0.2"></path><path d="M137.12,285.28l-3.81-8.45-2.4,5.35a9.51,9.51,0,0,0-2.61,0l-2.41-5.35-3.81,8.45a7.15,7.15,0,0,0-1.89,4.77c0,4.39,4.22,7.95,9.41,7.95s9.41-3.56,9.41-7.95A7.15,7.15,0,0,0,137.12,285.28Zm-11.7,3.31c0-.65.38-1.17.86-1.17s.87.52.87,1.17-.39,1.18-.87,1.18S125.42,289.24,125.42,288.59Zm5.51,4.58a2,2,0,0,1-1.33-.52,1.94,1.94,0,0,1-1.32.52,2,2,0,0,1-2-2h.83a1.14,1.14,0,0,0,2.12.6l.35-.57.36.57a1.14,1.14,0,0,0,2.11-.6h.84A2,2,0,0,1,130.93,293.17Zm2-3.4c-.48,0-.86-.53-.86-1.18s.38-1.17.86-1.17.87.52.87,1.17S133.4,289.77,132.92,289.77Z" style="fill:#fff;opacity:0.9"></path></g><g id="freepik--Vase--inject-35"><path d="M342.89,190.79c4-12.37,11.53-30.57,23.93-41.78l-39.2-11.93c4.06,16.22.19,35.55-3.39,48-8.62,2.46-16.6,10.82-20.08,22.25-4.84,15.91,5.21,17.47,17.09,21.08s21.1,7.91,25.94-8C350.65,209,348.68,197.63,342.89,190.79Z" style="fill:#472E78"></path><path d="M342.89,190.79c4-12.37,11.53-30.57,23.93-41.78l-39.2-11.93c4.06,16.22.19,35.55-3.39,48-8.62,2.46-16.6,10.82-20.08,22.25-4.84,15.91,5.21,17.47,17.09,21.08s21.1,7.91,25.94-8C350.65,209,348.68,197.63,342.89,190.79Z" style="fill:#fff;opacity:0.5"></path><path d="M344.31,219.58c3.05-10,1.59-20.58-3.71-26.85l-1.08-1.27.51-1.59c3.68-11.43,13-30.34,23-42l-31.69-9.64c1.83,15.28-1,36.18-4.27,47.72l-.45,1.6-1.61.46c-7.9,2.25-15,10.19-18,20.24-1.38,4.55-1.48,7.83-.29,10,1.77,3.28,6.85,4.78,12.73,6.51,1.74.51,3.57,1.07,5.3,1.61,5.85,1.84,10.91,3.42,14.2,1.69C341.17,226.91,342.92,224.13,344.31,219.58Z" style="fill:#fff;opacity:0.4"></path><path d="M340.6,192.73l-1.08-1.27.51-1.59A121.51,121.51,0,0,1,345.66,176c-1.93.77-5,1.5-7.7-.32-3.09-2.1-6.87-.34-8.65.73-.67,3.57-1.41,6.83-2.2,9.55l-.45,1.6-1.61.46c-7.9,2.25-15,10.19-18,20.24-1.38,4.55-1.48,7.83-.29,10,1.77,3.28,6.85,4.78,12.73,6.51,1.74.51,3.57,1.07,5.3,1.61,5.85,1.84,10.91,3.42,14.2,1.69,2.21-1.17,4-4,5.35-8.5C347.36,209.54,345.9,199,340.6,192.73Z" style="fill:#472E78"></path><path d="M340.6,192.73l-1.08-1.27.51-1.59A121.51,121.51,0,0,1,345.66,176c-1.93.77-5,1.5-7.7-.32-3.09-2.1-6.87-.34-8.65.73-.67,3.57-1.41,6.83-2.2,9.55l-.45,1.6-1.61.46c-7.9,2.25-15,10.19-18,20.24-1.38,4.55-1.48,7.83-.29,10,1.77,3.28,6.85,4.78,12.73,6.51,1.74.51,3.57,1.07,5.3,1.61,5.85,1.84,10.91,3.42,14.2,1.69,2.21-1.17,4-4,5.35-8.5C347.36,209.54,345.9,199,340.6,192.73Z" style="fill:#fff;opacity:0.30000000000000004"></path><path d="M330.51,181.26a101.15,101.15,0,0,0,4.06-27.69C334.5,138.91,344.94,159,330.51,181.26Z" style="fill:#fff;opacity:0.5"></path><path d="M337.28,145.27c-.08.9-2.27,2.62-3.09-1.93S337.36,144.36,337.28,145.27Z" style="fill:#fff;opacity:0.5"></path><g style="opacity:0.2"><path d="M312.12,215.2a1.68,1.68,0,0,0-2.36,2.34c1.36,1.71,4.05,3.58,9.19,5.14,13.55,4.12,19.13,6.5,23-2.24C345.57,212.19,330.31,229.43,312.12,215.2Z"></path><path d="M309.59,211.64c-1.39-.65-1.64-2,.81-6.1S312.69,213.09,309.59,211.64Z"></path></g><path d="M325.16,215.34a349.2,349.2,0,0,1,13.15-36.61c9.54-23,21.11-46.25,38-64.86.52-.56-.29-1.45-.81-.88-16.47,18.17-27.87,40.63-37.34,63.07A350.43,350.43,0,0,0,324,215a.6.6,0,0,0,1.15.35Z" style="fill:#472E78"></path><g style="opacity:0.30000000000000004"><path d="M325.16,215.34a349.2,349.2,0,0,1,13.15-36.61c9.54-23,21.11-46.25,38-64.86.52-.56-.29-1.45-.81-.88-16.47,18.17-27.87,40.63-37.34,63.07A350.43,350.43,0,0,0,324,215a.6.6,0,0,0,1.15.35Z" style="fill:#fff"></path></g><path d="M376.13,111.51s-7.52-.55-4.67,3.28,6.5-1.33,6.5-1.33-1.18,7.3,3.11,8.09.31-8.45.31-8.45,5.49,6.55,7.73,3.23-7.48-6.63-7.48-6.63,9.54,1,7.14-2-10-.42-10-.42,2.89-6.09-1.88-7-1.08,7-1.08,7-5.58-5.7-7.84-3.43S376.13,111.51,376.13,111.51Z" style="fill:#472E78"></path><path d="M355.62,141.82s5.85-7.94,4.54-21.41S355.62,141.82,355.62,141.82Z" style="fill:#472E78"></path><path d="M362.3,131s8.42-8.63,13-4.08S368.3,127,362.3,131Z" style="fill:#472E78"></path><path d="M380.52,111.91c-.58.55-1.91.07-3-1.07s-1.46-2.49-.88-3,1.91-.07,3,1.07S381.1,111.37,380.52,111.91Z" style="fill:#fff;opacity:0.6000000000000001"></path><path d="M328.23,207.49a349.81,349.81,0,0,0,9.47-37.73c4.89-24.44,8.22-50.17,4.57-75-.11-.76,1.05-1,1.16-.28,3.57,24.26.52,49.27-4.1,73.18a349.38,349.38,0,0,1-10,40.19.6.6,0,0,1-1.14-.35Z" style="fill:#472E78"></path><g style="opacity:0.30000000000000004"><path d="M328.23,207.49a349.81,349.81,0,0,0,9.47-37.73c4.89-24.44,8.22-50.17,4.57-75-.11-.76,1.05-1,1.16-.28,3.57,24.26.52,49.27-4.1,73.18a349.38,349.38,0,0,1-10,40.19.6.6,0,0,1-1.14-.35Z" style="fill:#fff"></path></g><path d="M343.71,92.87s6.55,3.73,2.06,5.33-4.66-4.73-4.66-4.73-3.09,6.72-7.09,5,4.45-7.18,4.45-7.18-8.22,2.38-8.22-1.63,9.9-1.34,9.9-1.34-8.47-4.49-4.81-5.64,8.52,5.2,8.52,5.2,1-6.67,5.46-4.78-3,6.4-3,6.4,7.81-1.63,8.42,1.52S343.71,92.87,343.71,92.87Z" style="fill:#472E78"></path><path d="M343.71,92.87s6.55,3.73,2.06,5.33-4.66-4.73-4.66-4.73-3.09,6.72-7.09,5,4.45-7.18,4.45-7.18-8.22,2.38-8.22-1.63,9.9-1.34,9.9-1.34-8.47-4.49-4.81-5.64,8.52,5.2,8.52,5.2,1-6.67,5.46-4.78-3,6.4-3,6.4,7.81-1.63,8.42,1.52S343.71,92.87,343.71,92.87Z" style="fill:#fff;opacity:0.5"></path><path d="M343.86,129.47s-.43-9.86,8.15-20.31S343.86,129.47,343.86,129.47Z" style="fill:#472E78"></path><path d="M344.33,116.78s-2.19-11.85-8.56-10.65S341.62,110.05,344.33,116.78Z" style="fill:#472E78"></path><path d="M339.84,90.76c.18.78,1.55,1.12,3.07.77s2.59-1.27,2.41-2-1.55-1.12-3.06-.76S339.66,90,339.84,90.76Z" style="fill:#472E78"></path><path d="M374.88,145.89a.75.75,0,0,1,1.43-.4,8.19,8.19,0,0,1-.43,7.51,45.25,45.25,0,0,1-3.48,5.38.52.52,0,0,1-.87-.56C373.47,154.24,375.21,149.83,374.88,145.89Z" style="fill:#472E78"></path><path d="M370.74,165.65a42.68,42.68,0,0,0,8-8.08.69.69,0,0,1,1.22.61c-.88,2.71-3.07,6.34-8.45,8.76A.77.77,0,0,1,370.74,165.65Z" style="fill:#472E78"></path></g><g id="freepik--Cat--inject-35"><path d="M243.37,216.75s5.5,1.8,12.22-4.6,20.16-20.76,25.66-22.9,10.7-9.47,15.28-11.3,3.73.92,3.73.92,5.76-2.22,4.82,2.14c0,0,2.95,1.22.1,3.66s-12.62,10.08-16,10.69c0,0-12.84,16.5-19.56,24.45s-12.31,9.45-12.26,26.87S243.37,216.75,243.37,216.75Z" style="fill:#472E78"></path><path d="M248.36,216.53a9.38,9.38,0,0,1-5,.22s14.05,47.35,14,29.93c0-13.34,3.24-17.35,7.79-22.07C257.08,230.67,250.37,220.18,248.36,216.53Z" style="opacity:0.2"></path><path d="M305.08,181c.94-4.36-4.82-2.14-4.82-2.14s.85-2.75-3.73-.92-9.78,9.17-15.28,11.3a20.91,20.91,0,0,0-4.72,3.06c.54,3.74,2.53,8.53,9.29,7.38l3.38-4.33c3.36-.61,13.13-8.24,16-10.69S305.08,181,305.08,181Z" style="fill:#fff;opacity:0.4"></path><path d="M305.19,182s2-1.17,2.92-.17a3.82,3.82,0,0,0-2.52,1.26Z" style="fill:#472E78"></path><path d="M302.7,179a3.84,3.84,0,0,1,4.64-1.51,3.48,3.48,0,0,0-3.18,2.81Z" style="fill:#472E78"></path><path d="M298.28,177.91s1.21-3,3.53-2.26a3,3,0,0,0-2.15,2.81Z" style="fill:#472E78"></path><g style="opacity:0.6000000000000001"><path d="M305.19,182s2-1.17,2.92-.17a3.82,3.82,0,0,0-2.52,1.26Z" style="fill:#fff"></path><path d="M302.7,179a3.84,3.84,0,0,1,4.64-1.51,3.48,3.48,0,0,0-3.18,2.81Z" style="fill:#fff"></path><path d="M298.28,177.91s1.21-3,3.53-2.26a3,3,0,0,0-2.15,2.81Z" style="fill:#fff"></path></g><path d="M301.81,181.84s-4,.42-5.86,3C296,184.84,296.33,180.17,301.81,181.84Z" style="opacity:0.2"></path><path d="M191.78,320.4s1.51,23.52-19.74,24.77-37.67,7.5-40-13.75c-2.68-24.41-13.5-10.13-11.25,5.94s10.5,21.31,31,22.06,42.6-3,44.42-16.63Z" style="fill:#472E78"></path><path d="M131.64,328.49c-2.73-17.25-10.27-9.79-11.08,2.32A13.93,13.93,0,0,1,131.64,328.49Z" style="fill:#fff;opacity:0.30000000000000004"></path><path d="M132.1,331.86c-3.21.26-8.06,1.3-11.37,5,0,.18,0,.35.06.52a40.08,40.08,0,0,0,1.24,5.89c1.59-2.83,4.75-6.12,11-6.82A28.49,28.49,0,0,1,132.1,331.86Z" style="fill:#fff;opacity:0.30000000000000004"></path><g style="opacity:0.30000000000000004"><path d="M140.41,345.56a11.76,11.76,0,0,1-4.34-3.1c-2.83,1.93-6.72,5.71-6.45,11.79a23.47,23.47,0,0,0,5.71,2.75A16.58,16.58,0,0,1,140.41,345.56Z" style="fill:#fff"></path><path d="M155.5,359.51c-.7-2.94-1.57-8.12-.56-12.78-2.22.18-4.32.28-6.28.25a20.71,20.71,0,0,0-1,12.21c1.33.1,2.7.18,4.14.23C153,359.47,154.26,359.5,155.5,359.51Z" style="fill:#fff"></path><path d="M184.91,340a17.76,17.76,0,0,1-5.92,3.72c1.54,3.17,4,6.72,7.4,6.62C191.21,350.24,187,344.94,184.91,340Z" style="fill:#fff"></path><path d="M168.64,356.52c3.16-.1,2.13-6.54,1.67-11.23-2.29.16-4.51.37-6.67.59C164.12,349.78,165.42,356.62,168.64,356.52Z" style="fill:#fff"></path></g><path d="M187.22,354c5-2.61,8.33-6.25,9-11.2l-4.43-22.39a31.57,31.57,0,0,1-2.46,13.26,48.26,48.26,0,0,0,1.73,11.54C192.18,349.17,189.88,352.06,187.22,354Z" style="opacity:0.1"></path><path d="M208.09,291.66s27-9,39.33,4.34-7.72,49.71,1.32,51.16,35.65-4.79,39.63,1a16,16,0,0,1,2.33,5,4.72,4.72,0,0,1-4.61,5.85H232s-3.26,0-1.09-4.34C230.87,354.67,183.5,341.2,208.09,291.66Z" style="fill:#472E78"></path><path d="M208.09,291.66s27-9,39.33,4.34-7.72,49.71,1.32,51.16,35.65-4.79,39.63,1a16,16,0,0,1,2.33,5,4.72,4.72,0,0,1-4.61,5.85H232s-3.26,0-1.09-4.34C230.87,354.67,183.5,341.2,208.09,291.66Z" style="opacity:0.2"></path><path d="M220.7,190s1.67-10.17,3.5-11.17,2,8.17,3.36,9.5Z" style="fill:#472E78"></path><path d="M220.7,190s1.67-10.17,3.5-11.17,2,8.17,3.36,9.5Z" style="opacity:0.2"></path><path d="M243.64,190.79a2.41,2.41,0,0,1-.17-1.16c.14-1.16,1.27-1.66,2.28-1.92.37-.09.21-.67-.16-.58a3.24,3.24,0,0,0-2.69,2.24,2.9,2.9,0,0,0,.22,1.72c.17.35.68,0,.52-.3Z" style="fill:#472E78"></path><path d="M245.18,192.52c.43-1.91,2.71-2.41,4.36-2.33.38,0,.38-.58,0-.6-1.92-.09-4.45.6-4.94,2.77-.08.38.5.54.58.16Z" style="fill:#472E78"></path><path d="M246.22,193.91c.65-1.09,2.32-.68,3.24-.31.36.14.51-.44.16-.58-1.21-.48-3.11-.75-3.92.58a.3.3,0,0,0,.52.31Z" style="fill:#472E78"></path><g style="opacity:0.5"><path d="M243.64,190.79a2.41,2.41,0,0,1-.17-1.16c.14-1.16,1.27-1.66,2.28-1.92.37-.09.21-.67-.16-.58a3.24,3.24,0,0,0-2.69,2.24,2.9,2.9,0,0,0,.22,1.72c.17.35.68,0,.52-.3Z" style="fill:#fff"></path><path d="M245.18,192.52c.43-1.91,2.71-2.41,4.36-2.33.38,0,.38-.58,0-.6-1.92-.09-4.45.6-4.94,2.77-.08.38.5.54.58.16Z" style="fill:#fff"></path><path d="M246.22,193.91c.65-1.09,2.32-.68,3.24-.31.36.14.51-.44.16-.58-1.21-.48-3.11-.75-3.92.58a.3.3,0,0,0,.52.31Z" style="fill:#fff"></path></g><path d="M244.35,208.65c-3.37,5,4,9,10.88,25.39s-2.87,39.65-3.68,67.65-13.16,32.22-13.16,32.22L225.7,356.34s-31.33,3.33-34.33-19,5-44,11-60.33,17.67-29.34,14-39a91.12,91.12,0,0,1-4.67-21s-7-5.34-8.33-16.34c0,0-5.67-14-3-17s14,9,14,9,9.7-6.33,13.19-6,7.81,6.34,14.81,3.34C242.37,190,252.67,196.3,244.35,208.65Z" style="fill:#472E78"></path><path d="M251.55,301.69c.81-28,10.59-51.28,3.68-67.65S241,213.66,244.35,208.65c8.32-12.35-2-18.64-2-18.64-.41.17-.81.31-1.2.43-1.25.85-2.35,1.89-2.26,2.9.18,2.28,1.45,4.22-2.69,9.71-5.62,7.45,2.37,19.22,8.43,27.08s8.43,6.25,9,19.74c.69,15.67-10.42,34.82-14,47.25-3,10.49-7.42,30.94-5.32,43.83l4-7S250.74,329.69,251.55,301.69Z" style="fill:#fff;opacity:0.2"></path><path d="M242.37,191.05s-2.27.56-1.71,1.37S246,194.42,242.37,191.05Z" style="fill:#263238;opacity:0.6000000000000001"></path><path d="M208.54,198.67l4.25-4s-8.63-11-11.25-9.5S207.16,188.3,208.54,198.67Z" style="opacity:0.2"></path><path d="M226.78,191.09c.29-1-2.27-2.62-4.18-.37S226.49,192.1,226.78,191.09Z" style="fill:#fff;opacity:0.2"></path><path d="M229.51,189.47c-.54.3-2-1.34-1.06-2.26S230.06,189.16,229.51,189.47Z" style="fill:#fff;opacity:0.2"></path><g style="opacity:0.6000000000000001"><path d="M237.58,197c-2.78-.33-5.37,1.54-6.93,3.64-.23.32.29.61.52.31,1.44-1.95,3.85-3.66,6.41-3.35.38,0,.38-.56,0-.6Z" style="fill:#fff"></path><path d="M237.92,198.72c-3.12.9-4.86,4.27-5.38,7.22-.07.37.51.54.58.16.48-2.74,2-6,4.95-6.8a.3.3,0,0,0-.15-.58Z" style="fill:#fff"></path><path d="M239.62,199.89A8.29,8.29,0,0,0,237.7,206c0,.38.61.38.6,0a7.78,7.78,0,0,1,1.74-5.71c.27-.27-.15-.7-.42-.42Z" style="fill:#fff"></path></g><path d="M210.54,305.19,208,310l3.83,5.16,11.5,8.67s6.95,8.06,13.65,12.49l1.37-2.42s6-2.05,9.89-12.73C242.24,298,210.54,305.19,210.54,305.19Z" style="opacity:0.2"></path><path d="M255.46,268.77,237.54,260l-6.67-7.34-1,5s-.14,23.64,15,26c3.5.56,6.13-.25,8.36-.6C253.93,278.1,254.73,273.33,255.46,268.77Z" style="opacity:0.1"></path><g style="opacity:0.30000000000000004"><path d="M212.85,224.9c7.92-.22,20.11-9.45,11.35-7.89a48.41,48.41,0,0,1-12.43.64C211.89,218.83,212.22,221.52,212.85,224.9Z" style="fill:#fff"></path><path d="M227.24,235.63a29.18,29.18,0,0,1-11.48.68c.19.57.4,1.14.61,1.7a13,13,0,0,1,.29,7.47C226.59,244.09,235.1,233.63,227.24,235.63Z" style="fill:#fff"></path><path d="M216.64,290.67c-9.06.71-14.61-2.87-17.3-5.3-1.06,3-2.12,6.2-3.12,9.47C214.81,300,229.31,289.69,216.64,290.67Z" style="fill:#fff"></path><path d="M224.2,264.63a23.87,23.87,0,0,1-13.9-4.4c-1.51,2.86-3.11,5.87-4.61,9C219.41,274.91,234.24,264.85,224.2,264.63Z" style="fill:#fff"></path></g><path d="M231.26,193.41c.47.9.36,1.89-.27,2.17s-1.42-.17-1.89-1.09-.35-1.9.28-2.18S230.8,192.48,231.26,193.41Z" style="fill:#263238"></path><path d="M226.05,195.58a.55.55,0,0,0,.39-.39,5.06,5.06,0,0,1,3-3.26.6.6,0,0,0,.28-.81.62.62,0,0,0-.62-.33h0a6.14,6.14,0,0,0-3.78,4,.58.58,0,0,0,.37.75h0A.5.5,0,0,0,226.05,195.58Z" style="fill:#263238"></path><path d="M257.11,257.27c-2.61-3.52-5.28-18-5.28-18l-1.2-2.66-2.75,5.75L250.13,257l6.21,6.09C256.63,261.11,256.9,259.17,257.11,257.27Z" style="opacity:0.2"></path><path d="M237.29,235.68s10-8,13.67,0,.9,28.07,11.62,29.07S287.85,270,287.85,270s14,2.89,10.77,7.36c0,0,4.44,4.86-.24,6.65,0,0-1.13,4.67-7.12.61,0,0-1,4.05-9.57-3.11,0,0-12.77-6.28-32-1.38S222.93,246.43,237.29,235.68Z" style="fill:#472E78"></path><path d="M298.62,277.32c3.27-4.47-10.77-7.36-10.77-7.36a192.49,192.49,0,0,0-19.32-4.42c-2.09.49-4.43,1.49-5.29,3.56-1.42,3.46,3.77,6.73,4.54,9.24,8.73.59,13.91,3.13,13.91,3.13,8.56,7.16,9.57,3.11,9.57,3.11,6,4.06,7.12-.61,7.12-.61C303.06,282.18,298.62,277.32,298.62,277.32Z" style="fill:#fff;opacity:0.4"></path><g style="opacity:0.2"><path d="M292,279.68s4.12,1,5.38,3.32C297.34,283,297.11,278.73,292,279.68Z"></path><path d="M290.85,275.72s4.27-.66,6.49,1.11C297.34,276.83,294.65,272.87,290.85,275.72Z"></path></g><path d="M199.59,307.66s26-9,38.33,4.34-.72,34.71,8.32,36.16,29.65-5.79,33.63,0a16,16,0,0,1,2.33,5,4.72,4.72,0,0,1-4.61,5.85H223.46s-3.26,0-1.09-4.34C222.37,354.67,175,357.2,199.59,307.66Z" style="fill:#472E78"></path><path d="M219.5,314.88c-12.89,0-18.11-2.64-21.75-3.32a14.74,14.74,0,0,1-5.18-2.29A104.16,104.16,0,0,0,191.05,320c3.68,1.4,3.43.26,3.43.26C204.32,324.35,232.39,314.88,219.5,314.88Z" style="fill:#fff;opacity:0.30000000000000004"></path><g style="opacity:0.1"><path d="M220.43,350.37c-5.5-.28-19.42.53-26.17-9.18,6.39,14.63,28.11,13.48,28.11,13.48S225.93,350.66,220.43,350.37Z"></path></g></g></svg>