<?xml version="1.0" encoding="utf-8"?>
<!-- Generator: Adobe Illustrator 28.0.0, SVG Export Plug-In . SVG Version: 6.00 Build 0)  -->
<svg version="1.1" id="Layer_1" xmlns="http://www.w3.org/2000/svg" xmlns:xlink="http://www.w3.org/1999/xlink" x="0px" y="0px"
	 width="100px" height="100px" viewBox="0 0 100 100" enable-background="new 0 0 100 100" xml:space="preserve">
<g>
	<g transform="scale(2.56,2.56)">
		<path display="none" fill="#FFFFFF" d="M33.6,21.9c0.4-0.8,0.7-1.8,0.7-2.8c0-2.6-1.6-4.8-3.9-5.7c0,0,0,0,0,0
			c0-4.5-3.7-8.2-8.2-8.2c-3.8,0-7,2.6-7.9,6.2C13.6,11.2,13,11,12.4,11c-3,0-5.5,2.3-5.8,5.2c-2,0.4-3.6,2.2-3.6,4.4
			c0,2.5,2,4.5,4.5,4.5c0.1,0,0.1,0,0.2,0c0,0.1,0,0.1,0,0.2c0,4.4,3.6,8,8,8c2.5,0,4.8-1.2,6.2-3c0.9,0.9,2,1.4,3.3,1.4
			c1.8,0,3.4-1,4.2-2.5c0.4,0.1,0.8,0.2,1.3,0.2c2.4,0,4.3-1.9,4.3-4.3C35,23.8,34.5,22.7,33.6,21.9z"/>
		<path display="none" fill="#FFFFFF" d="M12.2,30.6H8.3c-0.1,0-0.2-0.1-0.2-0.2s0.1-0.2,0.2-0.2h3.9c0.1,0,0.2,0.1,0.2,0.2
			S12.3,30.6,12.2,30.6z"/>
		<path display="none" fill="#FFFFFF" d="M13.4,30.6H13c-0.1,0-0.2-0.1-0.2-0.2s0.1-0.2,0.2-0.2h0.4c0.1,0,0.2,0.1,0.2,0.2
			S13.5,30.6,13.4,30.6z"/>
		<path display="none" fill="#FFFFFF" d="M15.3,31.4h-3.5c-0.1,0-0.2-0.1-0.2-0.2s0.1-0.2,0.2-0.2h3.5c0.1,0,0.2,0.1,0.2,0.2
			S15.4,31.4,15.3,31.4z"/>
		<path display="none" fill="#FFFFFF" d="M11,31.4h-0.4c-0.1,0-0.2-0.1-0.2-0.2s0.1-0.2,0.2-0.2H11c0.1,0,0.2,0.1,0.2,0.2
			S11.1,31.4,11,31.4z"/>
		<path display="none" fill="#FFFFFF" d="M9.9,31.4H9.1c-0.1,0-0.2-0.1-0.2-0.2S9,31,9.1,31h0.8c0.1,0,0.2,0.1,0.2,0.2
			S10,31.4,9.9,31.4z"/>
		<path display="none" fill="#FFFFFF" d="M12.2,32.1h-0.8c-0.1,0-0.2-0.1-0.2-0.2s0.1-0.2,0.2-0.2h0.8c0.1,0,0.2,0.1,0.2,0.2
			S12.3,32.1,12.2,32.1z"/>
		<path display="none" fill="#FFFFFF" d="M13.4,28.6c-0.1,0-0.3,0-0.4,0c-0.1,0-0.2,0.1-0.2,0.2S12.9,29,13,29c0.1,0,0.3,0,0.4,0
			c0.1,0,0.2-0.1,0.2-0.2S13.5,28.6,13.4,28.6z"/>
		<path display="none" fill="#FFFFFF" d="M13.4,29.4c-0.1,0-1.9,0-2,0c-0.1,0-0.2,0.1-0.2,0.2s0.1,0.2,0.2,0.2c0.1,0,1.9,0,2,0
			c0.1,0,0.2-0.1,0.2-0.2S13.5,29.4,13.4,29.4z"/>
		<path display="none" fill="#FFFFFF" d="M15.3,30.2c-0.1,0-1.1,0-1.2,0c-0.1,0-0.2,0.1-0.2,0.2s0.1,0.2,0.2,0.2c0.1,0,1.1,0,1.2,0
			c0.1,0,0.2-0.1,0.2-0.2S15.4,30.2,15.3,30.2z"/>
		<g display="none">
			<path display="inline" fill="#FFFFFF" d="M27.8,9.1h-3.9c-0.1,0-0.2-0.1-0.2-0.2s0.1-0.2,0.2-0.2h3.9c0.1,0,0.2,0.1,0.2,0.2
				S27.9,9.1,27.8,9.1z"/>
			<path display="inline" fill="#FFFFFF" d="M29.4,9.1h-0.8c-0.1,0-0.2-0.1-0.2-0.2s0.1-0.2,0.2-0.2h0.8c0.1,0,0.2,0.1,0.2,0.2
				S29.5,9.1,29.4,9.1z"/>
			<path display="inline" fill="#FFFFFF" d="M31.3,9.9h-3.9c-0.1,0-0.2-0.1-0.2-0.2s0.1-0.2,0.2-0.2h3.9c0.1,0,0.2,0.1,0.2,0.2
				S31.4,9.9,31.3,9.9z"/>
			<path display="inline" fill="#FFFFFF" d="M26.7,9.9h-0.4c-0.1,0-0.2-0.1-0.2-0.2s0.1-0.2,0.2-0.2h0.4c0.1,0,0.2,0.1,0.2,0.2
				S26.8,9.9,26.7,9.9z"/>
			<path display="inline" fill="#FFFFFF" d="M25.4,9.9h-0.7c-0.1,0-0.2-0.1-0.2-0.2s0.1-0.2,0.2-0.2h0.7c0.1,0,0.2,0.1,0.2,0.2
				S25.5,9.9,25.4,9.9z"/>
			<path display="inline" fill="#FFFFFF" d="M29,8.3h-2c-0.1,0-0.2-0.1-0.2-0.2s0.1-0.2,0.2-0.2h2c0.1,0,0.2,0.1,0.2,0.2
				S29.1,8.3,29,8.3z"/>
			<path display="inline" fill="#FFFFFF" d="M27.8,10.7H27c-0.1,0-0.2-0.1-0.2-0.2s0.1-0.2,0.2-0.2h0.8c0.1,0,0.2,0.1,0.2,0.2
				S27.9,10.7,27.8,10.7z"/>
		</g>
		<g>
			<path fill="#FFFFFF" d="M13.1,14.8c0,0,1.4,0,2.4,0s1.8-0.8,1.8-1.8c0-0.9-0.7-1.7-1.6-1.7c0-0.1,0-0.1,0-0.2
				c0-1-0.8-1.8-1.8-1.8c-0.6,0-1.1,0.3-1.4,0.7c-0.1-1-0.9-1.9-1.9-1.9c-1.1,0-2,0.9-2,2c0,0.2,0,0.3,0.1,0.5
				c-0.3-0.3-0.6-0.5-1-0.5c-0.7,0-1.3,0.5-1.3,1.2c-0.1,0-0.1,0-0.2,0c-1,0-1.8,0.8-1.8,1.8s0.8,1.8,1.8,1.8s3.7,0,3.7,0h2.1V15
				h1.2V14.8z"/>
			<path fill="#472E78" d="M10.6,7.9c-1.2,0-2.1,1-2.1,2.1c0,0,0,0,0,0C8.2,9.9,7.9,9.9,7.7,9.9c-0.7,0-1.3,0.5-1.5,1.2
				c0,0,0,0-0.1,0c-1.1,0-2,0.9-2,2s0.9,2,2,2h5.8c0.1,0,0.2-0.1,0.2-0.2s-0.1-0.2-0.2-0.2H6.1c-0.9,0-1.6-0.7-1.6-1.6
				c0-0.9,0.7-1.6,1.6-1.6c0,0,0.1,0,0.1,0l0.1,0c0,0,0,0,0,0c0.1,0,0.2-0.1,0.2-0.2c0.1-0.6,0.6-1,1.2-1c0.3,0,0.7,0.2,0.9,0.4
				c0,0,0.1,0.1,0.2,0.1c0,0,0.1,0,0.1,0c0.1,0,0.1-0.1,0.1-0.2c0-0.2-0.1-0.3-0.1-0.5c0-1,0.8-1.8,1.8-1.8c0.9,0,1.7,0.7,1.7,1.7
				c0,0.1,0.1,0.2,0.1,0.2c0,0,0,0,0.1,0c0.1,0,0.1,0,0.2-0.1c0.3-0.4,0.7-0.6,1.2-0.6c0.9,0,1.6,0.7,1.6,1.6c0,0,0,0.1,0,0.1l0,0.1
				c0,0.1,0,0.1,0,0.1c0,0,0.1,0.1,0.1,0.1c0.8,0.1,1.4,0.7,1.4,1.5c0,0.9-0.7,1.6-1.6,1.6h-2.4c-0.1,0-0.2,0.1-0.2,0.2
				S13,15,13.1,15h2.4c1.1,0,2-0.9,2-2c0-0.9-0.7-1.7-1.6-1.9c0,0,0,0,0,0c0-1.1-0.9-2-2-2c-0.5,0-0.9,0.2-1.2,0.5
				C12.4,8.6,11.6,7.9,10.6,7.9z"/>
			<path fill="#472E78" d="M10,10.7c-0.5,0-1,0.4-1.1,0.9c-0.1-0.1-0.3-0.1-0.5-0.1c-0.5,0-0.9,0.4-0.9,0.8c-0.1,0-0.2,0-0.2,0
				c-0.6,0-1.1,0.5-1.1,1.1c0,0.1,0,0.1,0.1,0.1c0,0,0,0,0,0c0.1,0,0.1,0,0.1-0.1c0-0.5,0.4-0.9,0.9-0.9c0.1,0,0.2,0,0.3,0
				c0,0,0,0,0,0c0,0,0,0,0.1,0c0,0,0-0.1,0-0.1c0-0.4,0.3-0.7,0.7-0.7c0.2,0,0.3,0.1,0.5,0.2c0,0,0,0,0.1,0c0,0,0,0,0,0
				c0,0,0.1,0,0.1-0.1c0-0.5,0.5-0.9,1-0.9c0.1,0,0.2,0,0.3,0c0,0,0,0,0,0c0,0,0.1,0,0.1-0.1c0-0.1,0-0.1-0.1-0.1
				C10.2,10.7,10.1,10.7,10,10.7z"/>
			<path fill="#472E78" d="M15.4,11.2c-0.5,0-1,0.4-1.1,0.9c0,0.1,0,0.1,0.1,0.1c0,0,0,0,0,0c0,0,0.1,0,0.1-0.1
				c0.1-0.4,0.5-0.7,0.9-0.7c0,0,0.1,0,0.1,0c0,0,0,0,0,0c0,0,0.1,0,0.1-0.1c0-0.1,0-0.1-0.1-0.1C15.5,11.2,15.5,11.2,15.4,11.2z"/>
		</g>
		<g>
			<path fill="#F7F4FF" d="M9.6,26.8c-0.5,0-0.8-0.4-0.8-0.8v-4.1c0.9-0.1,1.6-0.9,1.6-1.8s-0.7-1.7-1.6-1.8v-3.7
				c0-0.5,0.4-0.8,0.8-0.8H30c0.5,0,0.8,0.4,0.8,0.8v3.7c-0.9,0.1-1.6,0.9-1.6,1.8s0.7,1.7,1.6,1.8V26c0,0.5-0.4,0.8-0.8,0.8
				L9.6,26.8L9.6,26.8z"/>
			<path fill="#472E78" d="M30,13.9c0.3,0,0.6,0.3,0.6,0.6V18c-0.9,0.2-1.6,1.1-1.6,2s0.7,1.8,1.6,2V26c0,0.3-0.3,0.6-0.6,0.6H9.6
				C9.3,26.5,9,26.3,9,26v-3.9c0.9-0.2,1.6-1.1,1.6-2S9.9,18.2,9,18v-3.5c0-0.3,0.3-0.6,0.6-0.6H30 M30,13.4H9.6
				c-0.6,0-1.1,0.5-1.1,1.1v4c0.9,0,1.6,0.7,1.6,1.6c0,0.9-0.7,1.6-1.6,1.6V26c0,0.6,0.5,1.1,1.1,1.1H30c0.6,0,1.1-0.5,1.1-1.1v-4.4
				c-0.9,0-1.6-0.7-1.6-1.6c0-0.9,0.7-1.6,1.6-1.6v-4C31.1,13.9,30.6,13.4,30,13.4z"/>
			<circle fill="#472E78" cx="27.6" cy="16.1" r="0.4"/>
			<circle fill="#472E78" cx="27.6" cy="14.6" r="0.4"/>
			<circle fill="#472E78" cx="27.6" cy="17.7" r="0.4"/>
			<circle fill="#472E78" cx="27.6" cy="19.2" r="0.4"/>
			<circle fill="#472E78" cx="27.6" cy="20.8" r="0.4"/>
			<circle fill="#472E78" cx="27.6" cy="22.4" r="0.4"/>
			<circle fill="#472E78" cx="27.6" cy="23.9" r="0.4"/>
			<circle fill="#472E78" cx="27.6" cy="25.5" r="0.4"/>
			<path fill="#472E78" d="M26.3,15.2h-5.3c-0.1,0-0.1,0-0.1-0.1s0-0.1,0.1-0.1h5.3C26.3,15,26.4,15.1,26.3,15.2
				C26.4,15.2,26.3,15.2,26.3,15.2z"/>
			<path fill="#472E78" d="M19.4,15.2h-4c-0.1,0-0.1,0-0.1-0.1s0-0.1,0.1-0.1h4C19.4,15,19.5,15.1,19.4,15.2
				C19.5,15.2,19.4,15.2,19.4,15.2z"/>
			<path fill="#472E78" d="M14.2,15.2h-3.9c-0.1,0-0.1,0-0.1-0.1s0-0.1,0.1-0.1h3.9C14.2,15,14.2,15.1,14.2,15.2
				C14.2,15.2,14.2,15.2,14.2,15.2z"/>
			<path fill="#472E78" d="M10.2,17.7C10.2,17.7,10.1,17.6,10.2,17.7l-0.1-2.5c0-0.1,0-0.1,0.1-0.1s0.1,0,0.1,0.1L10.2,17.7
				C10.3,17.6,10.3,17.7,10.2,17.7z"/>
			<path fill="#472E78" d="M26.3,17.6C26.2,17.6,26.2,17.5,26.3,17.6l-0.1-2.4c0-0.1,0-0.1,0.1-0.1c0.1,0,0.1,0,0.1,0.1L26.3,17.6
				C26.4,17.5,26.3,17.6,26.3,17.6z"/>
			<path fill="#472E78" d="M26.3,25.4C26.2,25.4,26.2,25.4,26.3,25.4l-0.1-6.3c0-0.1,0-0.1,0.1-0.1c0.1,0,0.1,0,0.1,0.1L26.3,25.4
				C26.4,25.4,26.3,25.4,26.3,25.4z"/>
			<path fill="#472E78" d="M10.2,25.4C10.2,25.4,10.1,25.4,10.2,25.4l-0.1-2.5c0-0.1,0-0.1,0.1-0.1s0.1,0,0.1,0.1L10.2,25.4
				C10.3,25.4,10.3,25.4,10.2,25.4z"/>
			<path fill="#472E78" d="M26.3,25.4H24c-0.1,0-0.1,0-0.1-0.1c0-0.1,0-0.1,0.1-0.1h2.3C26.3,25.2,26.4,25.2,26.3,25.4
				C26.4,25.4,26.3,25.4,26.3,25.4z"/>
			<path fill="#472E78" d="M22.7,25.4h-3c-0.1,0-0.1,0-0.1-0.1c0-0.1,0-0.1,0.1-0.1h3C22.8,25.2,22.8,25.2,22.7,25.4
				C22.8,25.4,22.8,25.4,22.7,25.4z"/>
			<g>
				<path fill="#472E78" d="M18.5,25.4h-8.3c-0.1,0-0.1,0-0.1-0.1c0-0.1,0-0.1,0.1-0.1h8.3C18.6,25.2,18.6,25.2,18.5,25.4
					C18.6,25.4,18.6,25.4,18.5,25.4z"/>
			</g>
			<g display="none">
				<path display="inline" fill="#472E78" d="M23.9,17.7h-7c-0.1,0-0.2-0.1-0.2-0.2s0.1-0.2,0.2-0.2h7c0.1,0,0.2,0.1,0.2,0.2
					S24,17.7,23.9,17.7z"/>
			</g>
			<g display="none">
				<path display="inline" fill="#472E78" d="M15.6,17.7H13c-0.1,0-0.2-0.1-0.2-0.2s0.1-0.2,0.2-0.2h2.7c0.1,0,0.2,0.1,0.2,0.2
					S15.7,17.7,15.6,17.7z"/>
			</g>
			<g display="none">
				<path display="inline" fill="#472E78" d="M23.9,19.6h-2.4c-0.1,0-0.2-0.1-0.2-0.2s0.1-0.2,0.2-0.2h2.4c0.1,0,0.2,0.1,0.2,0.2
					S24,19.6,23.9,19.6z"/>
			</g>
			<g display="none">
				<path display="inline" fill="#472E78" d="M20.3,19.6H13c-0.1,0-0.2-0.1-0.2-0.2s0.1-0.2,0.2-0.2h7.3c0.1,0,0.2,0.1,0.2,0.2
					S20.4,19.6,20.3,19.6z"/>
			</g>
			<g display="none">
				<path display="inline" fill="#472E78" d="M20.3,23.2H13c-0.1,0-0.2-0.1-0.2-0.2s0.1-0.2,0.2-0.2h7.3c0.1,0,0.2,0.1,0.2,0.2
					S20.4,23.2,20.3,23.2z"/>
			</g>
			<g display="none">
				<path display="inline" fill="#472E78" d="M23.9,21.6h-5.2c-0.1,0-0.2-0.1-0.2-0.2s0.1-0.2,0.2-0.2h5.2c0.1,0,0.2,0.1,0.2,0.2
					S24,21.6,23.9,21.6z"/>
			</g>
			<g display="none">
				<path display="inline" fill="#472E78" d="M17.4,21.6H13c-0.1,0-0.2-0.1-0.2-0.2s0.1-0.2,0.2-0.2h4.4c0.1,0,0.2,0.1,0.2,0.2
					S17.5,21.6,17.4,21.6z"/>
			</g>
		</g>
		<g>
			<path fill="#FFFFFF" d="M31.9,28.6c0,0,0.6,0,1.4,0s1.4-0.6,1.4-1.4c0-0.7-0.5-1.3-1.2-1.3c0-0.1,0-0.1,0-0.2
				c0-0.8-0.6-1.4-1.4-1.4c-0.4,0-0.8,0.2-1,0.5c-0.2-0.7-0.8-1.2-1.5-1.2c-0.9,0-1.6,0.7-1.6,1.6c0,0.1,0,0.1,0,0.2
				c-0.2-0.1-0.4-0.2-0.6-0.2c-0.5,0-0.9,0.3-1,0.8c-0.1,0-0.1,0-0.2,0c-0.8,0-1.4,0.6-1.4,1.4s0.6,1.4,1.4,1.4s2.9,0,2.9,0v0.2h2.7
				V28.6z"/>
			<path fill="#472E78" d="M32.6,26.9C32.6,26.9,32.5,26.8,32.6,26.9c-0.1-0.6,0.3-1,0.8-1c0,0,0.3,0,0.5,0.1c0.1,0,0.1,0.1,0.1,0.1
				c0,0.1-0.1,0.1-0.1,0.1c-0.2,0-0.4,0-0.4,0C33,26.1,32.7,26.4,32.6,26.9C32.7,26.8,32.7,26.9,32.6,26.9z"/>
			<circle fill="#472E78" cx="30" cy="28.6" r="0.2"/>
			<path fill="#472E78" d="M33.3,28.8h-1.4c-0.1,0-0.2-0.1-0.2-0.2s0.1-0.2,0.2-0.2h1.4c0.6,0,1.2-0.5,1.2-1.2c0-0.6-0.4-1.1-1-1.2
				c-0.1,0-0.1,0-0.1-0.1c0,0,0-0.1,0-0.1c0-0.1,0-0.1,0-0.2c0-0.6-0.5-1.2-1.2-1.2c-0.3,0-0.6,0.1-0.9,0.4c0,0.1-0.1,0.1-0.2,0.1
				c-0.1,0-0.1-0.1-0.1-0.1c-0.1-0.6-0.7-1.1-1.3-1.1c-0.8,0-1.4,0.6-1.4,1.4c0,0.1,0,0.1,0,0.2c0,0.1,0,0.2-0.1,0.2
				c-0.1,0-0.2,0-0.2,0c-0.1-0.1-0.3-0.2-0.5-0.2c-0.4,0-0.7,0.3-0.8,0.6c0,0.1-0.1,0.2-0.2,0.2c-0.1,0-0.1,0-0.2,0
				c-0.6,0-1.2,0.5-1.2,1.2s0.5,1.2,1.2,1.2h2.9c0.1,0,0.2,0.1,0.2,0.2s-0.1,0.2-0.2,0.2h-2.9c-0.9,0-1.6-0.7-1.6-1.6
				s0.7-1.6,1.6-1.6c0,0,0,0,0.1,0c0.2-0.5,0.6-0.8,1.1-0.8c0.1,0,0.3,0,0.4,0.1c0.1-0.9,0.8-1.6,1.8-1.6c0.7,0,1.4,0.4,1.6,1.1
				c0.3-0.2,0.6-0.3,0.9-0.3c0.9,0,1.6,0.7,1.6,1.6c0,0,0,0,0,0.1c0.7,0.2,1.2,0.8,1.2,1.5C34.9,28.1,34.2,28.8,33.3,28.8z"/>
			<path fill="#472E78" d="M31.2,28.4c-0.1,0-0.3,0-0.4,0c-0.1,0-0.2,0.1-0.2,0.2s0.1,0.2,0.2,0.2c0.1,0,0.3,0,0.4,0
				c0.1,0,0.2-0.1,0.2-0.2S31.3,28.4,31.2,28.4z"/>
		</g>
	</g>
	<g>
		<ellipse fill="#FFFFFF" cx="50.3" cy="52.3" rx="9.3" ry="9.6"/>
		<path display="none" fill="#472B29" d="M54.5,45.1C54.5,45.1,54.4,45.1,54.5,45.1c-0.2-0.1-0.4-0.2-0.6-0.3c0,0-0.1-0.1,0-0.1
			c0-0.1,0.1-0.1,0.1,0c0.2,0.1,0.4,0.2,0.5,0.3C54.6,44.9,54.6,45,54.5,45.1C54.5,45.1,54.5,45.1,54.5,45.1z"/>
		<path display="none" fill="#472B29" d="M55.3,45.7C55.3,45.7,55.2,45.7,55.3,45.7c-0.1-0.1-0.2-0.2-0.3-0.2c0,0-0.1-0.1,0-0.1
			c0,0,0.1-0.1,0.1,0c0.1,0.1,0.2,0.1,0.3,0.2C55.4,45.5,55.4,45.6,55.3,45.7C55.3,45.7,55.3,45.7,55.3,45.7z"/>
		<path display="none" fill="#472B29" d="M50.3,60.8c-4.6,0-8.3-3.8-8.3-8.5s3.7-8.5,8.3-8.5c1,0,1.9,0.2,2.8,0.5
			c0.1,0,0.1,0.1,0.1,0.1c0,0.1-0.1,0.1-0.1,0.1c-0.9-0.3-1.8-0.5-2.8-0.5c-4.4,0-8.1,3.7-8.1,8.3s3.6,8.3,8.1,8.3s8.1-3.7,8.1-8.3
			c0-2.3-1-4.6-2.6-6.2c0,0,0-0.1,0-0.1c0,0,0.1,0,0.1,0c1.7,1.6,2.7,3.9,2.7,6.3C58.6,57,54.9,60.8,50.3,60.8z"/>
		<path fill="#472B29" d="M50.3,62.2c-5.3,0-9.7-4.5-9.7-10s4.3-10,9.7-10s9.7,4.5,9.7,10S55.7,62.2,50.3,62.2z M50.3,42.9
			c-5,0-9.1,4.2-9.1,9.4s4.1,9.4,9.1,9.4s9.1-4.2,9.1-9.4S55.3,42.9,50.3,42.9z"/>
	</g>
	<g>
		<path fill="#FDFCEE" d="M51.2,55.7c0,0.4,0.4,0.6,1.2,0.6V57h-4.1v-0.7c0.8,0,1.1-0.2,1.1-0.6v-3.9c0-0.4-0.4-0.6-1.1-0.6v-0.7
			h2.9C51.2,50.5,51.2,55.7,51.2,55.7z M51.4,48.4c0,0.3-0.1,0.5-0.3,0.8c-0.2,0.2-0.5,0.3-0.8,0.3c-0.2,0-0.3,0-0.4-0.1
			c-0.1,0-0.2-0.1-0.4-0.2c-0.1-0.1-0.2-0.2-0.2-0.3c-0.1-0.1-0.1-0.3-0.1-0.4c0-0.3,0.1-0.6,0.3-0.8c0.2-0.2,0.5-0.3,0.8-0.3
			s0.6,0.1,0.8,0.3C51.3,47.8,51.4,48,51.4,48.4z"/>
		<path fill="#472B29" d="M52.6,57.2h-4.5v-1.2h0.2c0.4,0,0.9-0.1,0.9-0.4v-3.9c0-0.2-0.3-0.4-0.9-0.4h-0.2v-1.2h3.3v5.4
			c0,0.1,0,0.1,0,0.2c0.1,0.1,0.3,0.2,0.9,0.2h0.2L52.6,57.2L52.6,57.2z M48.5,56.8h3.7v-0.3c-0.5,0-0.8-0.1-1-0.3
			C51.1,56,51,55.9,51,55.7v-5h-2.5V51c0.8,0,1.1,0.3,1.1,0.8v3.9c0,0.5-0.4,0.7-1.1,0.8V56.8z M50.3,49.6c-0.2,0-0.4,0-0.5-0.1
			c-0.2-0.1-0.3-0.2-0.4-0.3c-0.1-0.1-0.2-0.2-0.3-0.4c-0.1-0.2-0.1-0.3-0.1-0.5c0-0.4,0.1-0.7,0.4-0.9c0.3-0.2,0.6-0.4,0.9-0.4
			s0.7,0.1,0.9,0.4c0.3,0.2,0.4,0.6,0.4,0.9c0,0.4-0.1,0.7-0.4,0.9C50.9,49.5,50.7,49.6,50.3,49.6z M50.3,47.4
			c-0.2,0-0.5,0.1-0.7,0.2s-0.3,0.4-0.3,0.6c0,0.1,0,0.2,0.1,0.3c0,0.1,0.1,0.2,0.2,0.3c0.1,0.1,0.2,0.2,0.3,0.2
			c0.1,0,0.2,0.1,0.4,0.1c0.3,0,0.5-0.1,0.6-0.2c0.2-0.2,0.3-0.4,0.3-0.6c0-0.2-0.1-0.5-0.3-0.6C50.7,47.5,50.5,47.4,50.3,47.4z"/>
	</g>
</g>
<path fill="#FFFFFF" d="M50.3,42.6c-5.4,0-9.8,4.4-9.9,9.7c0,5.4,4.4,9.7,9.8,9.7c0,0,0,0,0,0c5.4,0,9.8-4.4,9.9-9.7
	C60.1,46.9,55.7,42.6,50.3,42.6C50.3,42.6,50.3,42.6,50.3,42.6z"/>
<path fill="#472E78" d="M50.3,62.3c-5.6,0-10.2-4.5-10.2-10.1c0-5.5,4.6-10.1,10.2-10.1s10.2,4.5,10.2,10.1
	C60.4,57.8,55.9,62.3,50.3,62.3z M50.3,42.9c-5.2,0-9.5,4.2-9.5,9.4c0,5.2,4.3,9.4,9.5,9.4s9.5-4.2,9.5-9.4S55.5,42.9,50.3,42.9z"/>
<path fill="#FFFFFF" d="M50.3,43.9c-4.7,0-8.4,3.7-8.4,8.4c0,4.6,3.8,8.4,8.4,8.4s8.4-3.7,8.4-8.4C58.7,47.6,54.9,43.9,50.3,43.9z"
	/>
<path fill="#472E78" d="M50.3,60.8c-1.6,0-3.3-0.5-4.7-1.4c-4-2.6-5.2-7.9-2.7-11.8c1.2-1.9,3.1-3.2,5.4-3.7
	c2.3-0.5,4.6-0.1,6.6,1.2c1.4,0.9,2.5,2.1,3.2,3.6c0,0.1,0,0.2-0.1,0.2c-0.1,0-0.2,0-0.2-0.1c-0.7-1.4-1.7-2.6-3.1-3.4
	c-1.9-1.2-4.1-1.6-6.3-1.1c-2.2,0.5-4,1.7-5.2,3.6c-2.4,3.8-1.3,8.9,2.6,11.4c1.9,1.2,4.1,1.6,6.3,1.1c2.2-0.5,4-1.7,5.2-3.6
	c1-1.5,1.4-3.3,1.3-5.1c0-0.1,0.1-0.2,0.2-0.2c0.1,0,0.2,0.1,0.2,0.2c0.2,1.9-0.3,3.7-1.3,5.3c-1.2,1.9-3.1,3.2-5.4,3.7
	C51.6,60.7,50.9,60.8,50.3,60.8z"/>
<path fill="#FDFCEE" d="M58.4,50.2c0,0.2,0.1,0.4,0.1,0.6"/>
<path fill="#472B29" d="M58.5,51c-0.1,0-0.2-0.1-0.2-0.1c0-0.2-0.1-0.4-0.1-0.6c0-0.1,0-0.2,0.1-0.2c0.1,0,0.2,0,0.2,0.1
	c0.1,0.2,0.1,0.4,0.1,0.6C58.7,50.9,58.7,51,58.5,51C58.5,51,58.5,51,58.5,51z"/>
<path fill="#CBC9BC" d="M51.3,50.6l-5.2,5.2c-0.1,0.1-0.3,0.3-0.2,0.5c0.1,0.1,0.3,0,0.5-0.2l5.2-5.2c0.2,0.1,0.6,0,0.8-0.1l0.5-0.5
	c0.3-0.3,0.3-0.7,0-0.9s-0.7-0.3-0.9,0l-0.5,0.5C51.3,50,51.3,50.4,51.3,50.6z"/>
<path fill="#472B29" d="M52.4,49.2c0.2,0,0.3,0.1,0.5,0.2c0.3,0.3,0.3,0.7,0,0.9l-0.5,0.5c-0.1,0.1-0.4,0.2-0.6,0.2
	c-0.1,0-0.2,0-0.2,0l-5.2,5.2c-0.1,0.1-0.2,0.2-0.4,0.2c0,0-0.1,0-0.1,0c-0.1-0.1,0-0.3,0.2-0.5l5.2-5.2c-0.1-0.2,0-0.6,0.2-0.8
	l0.5-0.5C52.1,49.3,52.3,49.2,52.4,49.2 M52.4,48.9c-0.3,0-0.5,0.1-0.7,0.3l-0.5,0.5c-0.2,0.2-0.3,0.6-0.3,0.9l-5.1,5.1
	c-0.4,0.4-0.4,0.8-0.2,0.9c0.1,0.1,0.2,0.1,0.4,0.1c0.2,0,0.4-0.1,0.6-0.3l5.1-5.1c0,0,0.1,0,0.1,0c0.2,0,0.6,0,0.8-0.3l0.5-0.5
	c0.4-0.4,0.4-1,0-1.4C53,49,52.7,48.9,52.4,48.9L52.4,48.9z M50.2,44.8c-0.1,0-0.2-0.1-0.2-0.2v-0.7c0-0.1,0.1-0.2,0.2-0.2
	s0.2,0.1,0.2,0.2v0.7C50.3,44.7,50.3,44.8,50.2,44.8z M50.2,60.8c-0.1,0-0.2-0.1-0.2-0.2v-1c0-0.1,0.1-0.2,0.2-0.2s0.2,0.1,0.2,0.2
	v1C50.3,60.7,50.3,60.8,50.2,60.8z M58.6,52.2h-1.1c-0.1,0-0.2-0.1-0.2-0.2s0.1-0.2,0.2-0.2h1.1c0.1,0,0.2,0.1,0.2,0.2
	S58.7,52.2,58.6,52.2z M42.9,52.2h-1c-0.1,0-0.2-0.1-0.2-0.2s0.1-0.2,0.2-0.2h1c0.1,0,0.2,0.1,0.2,0.2S43,52.2,42.9,52.2z"/>
<path fill="#F27E97" d="M56.1,46.4l-0.7,0.7"/>
<path fill="#472B29" d="M55.4,47.3c0,0-0.1,0-0.1,0c-0.1-0.1-0.1-0.2,0-0.2l0.7-0.7c0.1-0.1,0.2-0.1,0.2,0c0.1,0.1,0.1,0.2,0,0.2
	l-0.7,0.7C55.5,47.3,55.4,47.3,55.4,47.3z"/>
<path fill="#F27E97" d="M45,57.4l-0.7,0.7"/>
<path fill="#472B29" d="M44.3,58.3c0,0-0.1,0-0.1,0c-0.1-0.1-0.1-0.2,0-0.2l0.7-0.7c0.1-0.1,0.2-0.1,0.2,0c0.1,0.1,0.1,0.2,0,0.2
	l-0.7,0.7C44.4,58.3,44.3,58.3,44.3,58.3z"/>
<path fill="#F27E97" d="M56.2,58.2l-0.7-0.7"/>
<path fill="#472B29" d="M56.2,58.4c0,0-0.1,0-0.1-0.1l-0.7-0.7c-0.1-0.1-0.1-0.2,0-0.2c0.1-0.1,0.2-0.1,0.2,0l0.7,0.7
	c0.1,0.1,0.1,0.2,0,0.2C56.3,58.3,56.3,58.4,56.2,58.4z"/>
<path fill="#F27E97" d="M45,47l-0.7-0.7"/>
<path fill="#472B29" d="M45,47.2c0,0-0.1,0-0.1-0.1l-0.7-0.7c-0.1-0.1-0.1-0.2,0-0.2c0.1-0.1,0.2-0.1,0.2,0l0.7,0.7
	c0.1,0.1,0.1,0.2,0,0.2C45.1,47.1,45,47.2,45,47.2z M54.6,52.4h-3.5c-0.1,0-0.2-0.1-0.2-0.2c0-0.1,0.1-0.2,0.2-0.2h3.5
	c0.1,0,0.2,0.1,0.2,0.2C54.9,52.3,54.8,52.4,54.6,52.4z M50.1,51.7c-0.1,0-0.2-0.1-0.2-0.2v-5.7c0-0.1,0.1-0.2,0.2-0.2
	c0.1,0,0.2,0.1,0.2,0.2v5.7C50.4,51.6,50.3,51.7,50.1,51.7z"/>
<path fill="#FFFFFF" d="M50.1,51.3c-0.5,0-0.9,0.4-0.9,0.9c0,0.5,0.4,0.9,0.9,0.9c0.5,0,0.9-0.4,0.9-0.9
	C51,51.7,50.6,51.3,50.1,51.3z"/>
<path fill="#472B29" d="M50.1,53.3c-0.6,0-1.1-0.5-1.1-1.1c0-0.6,0.5-1.1,1.1-1.1s1.1,0.5,1.1,1.1C51.3,52.8,50.8,53.3,50.1,53.3z
	 M50.1,51.6c-0.3,0-0.6,0.3-0.6,0.6c0,0.3,0.3,0.6,0.6,0.6s0.6-0.3,0.6-0.6C50.8,51.9,50.5,51.6,50.1,51.6z"/>
</svg>
