<?xml version="1.0" standalone="no"?>
<!DOCTYPE svg PUBLIC "-//W3C//DTD SVG 20010904//EN"
 "http://www.w3.org/TR/2001/REC-SVG-20010904/DTD/svg10.dtd">
<svg version="1.0" xmlns="http://www.w3.org/2000/svg"
 width="4500.000000pt" height="4500.000000pt" viewBox="0 0 4500.000000 4500.000000"
 preserveAspectRatio="xMidYMid meet">

<g transform="translate(0.000000,4500.000000) scale(0.100000,-0.100000)"
fill="#000000" stroke="none">
<path d="M22398 30242 c-22 -132 -67 -320 -114 -472 -84 -270 -233 -615 -318
-734 -93 -131 -232 -233 -394 -289 -74 -25 -106 -31 -213 -35 -190 -7 -331 32
-477 130 -209 140 -581 547 -790 864 -115 174 -114 173 -108 152 28 -95 76
-386 98 -588 16 -152 16 -621 -1 -723 -29 -183 -98 -317 -230 -447 -162 -160
-330 -229 -557 -230 -128 0 -232 26 -448 110 -288 113 -665 317 -863 466 -40
30 -73 52 -73 48 0 -3 13 -23 29 -43 113 -143 311 -487 412 -716 132 -297 190
-491 189 -634 -2 -291 -182 -574 -444 -701 -163 -78 -208 -85 -581 -85 -327 0
-426 7 -665 46 -111 18 -257 49 -315 65 -11 4 22 -20 72 -52 309 -196 593
-435 834 -702 76 -84 141 -153 145 -153 3 0 74 77 157 173 188 214 502 534
707 722 1492 1364 3062 1958 4615 1745 1396 -191 2763 -1043 4070 -2536 59
-68 110 -123 113 -122 4 0 36 36 72 81 219 271 607 604 947 814 32 20 49 33
38 30 -123 -34 -363 -77 -550 -98 -67 -8 -234 -13 -430 -13 -376 0 -419 6
-585 88 -93 45 -116 62 -200 146 -78 78 -105 113 -142 186 -108 211 -124 414
-48 643 110 337 316 745 521 1032 32 44 56 80 54 80 -2 0 -46 -30 -97 -66
-222 -158 -552 -333 -838 -445 -211 -83 -316 -109 -444 -109 -217 1 -384 66
-542 213 -131 122 -217 284 -245 462 -16 105 -17 563 0 720 17 171 47 362 76
489 14 60 23 111 21 113 -1 2 -26 -34 -54 -80 -131 -214 -343 -479 -557 -692
-180 -179 -274 -255 -388 -309 -129 -62 -218 -80 -376 -74 -146 6 -236 31
-361 101 -96 54 -223 178 -279 273 -97 165 -231 497 -306 757 -44 156 -105
432 -105 480 0 60 -16 20 -32 -81z"/>
<path d="M22190 27219 c-707 -80 -1468 -554 -2151 -1339 -134 -154 -339 -426
-339 -449 0 -12 143 -212 221 -309 352 -434 780 -824 1183 -1074 278 -173 623
-317 886 -370 63 -12 118 -27 122 -33 23 -30 -25 -245 -74 -338 -58 -109 -133
-155 -323 -200 -82 -20 -117 -22 -390 -22 -218 1 -345 6 -465 19 -465 50 -901
161 -1340 342 -91 38 -401 187 -690 333 -289 145 -624 314 -745 375 -242 122
-290 152 -352 219 -50 54 -83 117 -124 235 -33 94 -142 312 -187 372 -15 20
-52 60 -82 87 -54 50 -56 51 -77 33 l-22 -18 54 -136 c30 -75 55 -140 55 -145
0 -5 -7 -12 -16 -15 -18 -7 -127 91 -420 377 -94 92 -176 167 -182 167 -6 0
-20 -13 -32 -30 l-21 -30 173 -210 c95 -116 175 -215 177 -221 1 -6 -120 89
-270 211 l-273 221 -29 -30 -30 -30 118 -123 c101 -105 307 -339 355 -403 39
-51 -208 113 -400 266 l-100 79 -25 -50 -25 -49 163 -133 c89 -72 181 -147
205 -166 23 -19 41 -37 38 -39 -2 -3 -81 22 -174 54 -94 31 -173 55 -175 53
-3 -3 -7 -16 -9 -30 -3 -22 13 -36 142 -123 169 -115 562 -365 702 -448 53
-32 226 -128 383 -214 344 -187 371 -204 780 -477 885 -591 1775 -1051 2640
-1364 395 -143 535 -178 985 -245 168 -25 473 -30 650 -10 312 35 511 71 697
127 142 43 713 254 782 288 29 15 148 67 264 115 480 201 859 392 1312 663
187 112 362 227 960 631 360 244 574 365 930 529 121 55 465 287 786 529 67
51 76 61 71 84 -6 33 -4 33 -222 -70 -96 -45 -184 -85 -195 -89 -24 -7 -31
-13 203 187 94 82 172 153 172 157 0 5 -11 21 -24 36 l-23 28 -263 -172 c-144
-95 -265 -170 -268 -167 -3 3 93 103 214 223 121 119 239 245 262 278 l41 61
-23 22 c-12 11 -26 21 -30 21 -5 0 -111 -81 -238 -181 -126 -100 -232 -179
-234 -176 -3 3 56 85 131 182 75 98 138 182 140 189 2 6 -9 22 -26 34 l-30 24
-256 -249 c-306 -297 -326 -315 -347 -307 -9 3 -16 11 -16 16 0 5 25 71 57
145 l56 136 -23 19 c-12 10 -25 18 -29 17 -3 0 -38 -36 -77 -78 -67 -74 -75
-89 -192 -347 -67 -148 -139 -291 -160 -318 -42 -56 -46 -58 -757 -433 -497
-262 -802 -412 -995 -488 -517 -204 -1056 -325 -1630 -366 -298 -21 -663 16
-789 80 -123 63 -230 265 -231 436 l0 40 143 28 c162 31 379 102 545 176 509
230 1047 665 1505 1216 83 100 244 318 259 351 8 17 -1 36 -52 110 -34 49
-113 152 -175 229 -456 566 -1021 1027 -1548 1262 -234 105 -492 177 -719 202
-112 13 -338 12 -448 0z m-835 -811 c-171 -185 -289 -420 -347 -692 -28 -134
-31 -405 -5 -544 51 -274 176 -526 362 -730 59 -66 60 -66 20 -42 -354 212
-761 570 -1072 943 l-74 88 52 62 c265 320 586 623 879 829 69 49 240 158 247
158 3 0 -25 -33 -62 -72z m2235 -31 c108 -73 258 -187 379 -290 140 -119 411
-393 535 -540 l98 -117 -73 -87 c-309 -365 -650 -673 -979 -885 -134 -86 -140
-87 -66 -7 173 189 290 422 348 693 29 138 31 416 4 556 -53 270 -176 518
-354 712 l-67 72 50 -29 c28 -15 84 -51 125 -78z"/>
<path d="M9468 20139 c-442 -39 -801 -267 -963 -612 -60 -126 -86 -236 -92
-383 -7 -167 9 -250 79 -394 46 -94 60 -114 157 -210 120 -121 214 -186 386
-270 154 -74 282 -119 487 -169 186 -45 289 -81 409 -142 151 -75 235 -143
275 -221 13 -24 15 -51 12 -118 -5 -115 -42 -194 -129 -274 -248 -230 -768
-217 -1118 28 l-78 54 -203 -203 -202 -202 68 -56 c201 -160 433 -267 715
-329 89 -19 134 -22 319 -23 190 0 227 3 319 23 259 58 451 161 608 325 130
136 203 266 250 446 33 125 38 338 9 440 -73 264 -276 477 -607 635 -133 65
-340 136 -495 171 -146 32 -248 67 -370 125 -182 85 -291 178 -315 264 -16 57
1 170 37 243 56 116 191 215 354 260 81 22 361 25 455 5 156 -34 307 -98 409
-175 l60 -45 185 170 c102 94 197 182 211 195 l25 24 -50 45 c-77 69 -232 169
-336 218 -188 87 -377 137 -599 156 -126 11 -145 11 -272 -1z"/>
<path d="M11155 20018 c-12 -260 -10 -1474 3 -1628 53 -594 185 -955 456
-1239 303 -317 761 -487 1466 -542 187 -15 723 -15 910 0 983 77 1516 386
1769 1023 91 231 141 519 161 943 10 205 5 1352 -6 1503 l-6 72 -423 0 c-233
0 -426 -3 -428 -7 -2 -5 0 -296 5 -648 13 -847 -1 -1155 -62 -1411 -85 -357
-280 -505 -771 -583 -198 -32 -383 -43 -694 -43 -491 0 -821 41 -1049 132
-237 94 -346 221 -412 479 -64 251 -79 570 -66 1426 5 352 7 643 5 648 -2 4
-195 7 -428 7 l-423 0 -7 -132z"/>
<path d="M16420 18400 l0 -1750 440 0 440 0 2 696 3 696 291 -693 290 -694
442 -3 442 -2 0 1750 0 1750 -440 0 -440 0 -2 -701 -3 -701 -292 699 -291 698
-441 3 -441 2 0 -1750z"/>
<path d="M19795 20139 c-197 -9 -446 -28 -457 -35 -4 -3 -8 -790 -8 -1749 l0
-1743 63 -7 c317 -31 1171 -45 1542 -26 1224 65 2106 307 2616 719 342 276
519 636 519 1059 0 529 -268 949 -801 1252 -525 299 -1320 478 -2359 531 -223
11 -863 11 -1115 -1z m1071 -639 c1402 -80 2227 -384 2425 -894 75 -192 55
-422 -52 -603 -19 -31 -69 -94 -112 -140 -333 -349 -1061 -564 -2152 -634 -99
-7 -342 -12 -540 -13 l-360 -1 -3 1148 -2 1147 309 0 c170 0 389 -5 487 -10z"/>
<path d="M24761 18413 c-431 -955 -786 -1745 -789 -1756 -5 -20 -2 -20 403
-14 225 4 504 7 620 7 l212 0 133 295 133 295 860 -2 860 -3 131 -291 131
-291 618 -7 c340 -4 621 -6 623 -3 2 2 -351 791 -785 1753 l-790 1749 -788 2
-788 3 -784 -1737z m1864 85 c159 -354 290 -646 292 -650 2 -5 -261 -8 -585
-8 l-590 0 292 650 c160 357 294 649 297 650 3 0 135 -289 294 -642z"/>
<path d="M28905 20138 c-3 -7 -4 -285 -3 -618 l3 -605 368 -3 368 -2 -7 -23
c-3 -12 -168 -517 -365 -1123 -198 -605 -359 -1106 -359 -1112 0 -9 287 -11
1183 -10 l1182 3 3 613 2 612 -371 0 -371 0 6 25 c4 14 168 522 366 1128 198
607 360 1108 360 1115 0 18 -2359 17 -2365 0z"/>
<path d="M31730 18400 l0 -1750 2395 0 2395 0 0 248 0 249 -142 6 c-79 4 -460
7 -848 7 -388 0 -992 3 -1342 7 l-638 6 0 452 0 452 1278 6 c702 4 1370 10
1485 14 l207 6 0 292 0 292 -82 6 c-46 4 -373 7 -728 7 -355 0 -986 3 -1402 7
l-758 6 0 452 0 452 1228 6 c675 4 1343 10 1485 14 l257 6 0 254 0 253 -2395
0 -2395 0 0 -1750z"/>
</g>
</svg>
